<svg width="42" height="42" viewBox="0 0 42 42" fill="none" xmlns="http://www.w3.org/2000/svg">
<path d="M40.275 41.9996H1.71622C1.44593 41.9996 1.19812 41.8469 1.07659 41.6046C0.954661 41.3623 0.979915 41.0727 1.14091 40.8557L20.4203 14.8803C20.689 14.5165 21.3022 14.5165 21.5709 14.8803L40.8503 40.8557C41.0113 41.0727 41.0365 41.3623 40.9146 41.6046C40.7927 41.8469 40.5449 41.9996 40.275 41.9996ZM3.14149 40.566H38.8497L20.9956 16.5099L3.14149 40.566Z" fill="#E9292C"/>
<path d="M16.7376 31.1347H16.7179C16.5233 31.1292 16.3386 31.0451 16.2069 30.8995L12.3777 26.6814C12.1118 26.3886 12.1327 25.9352 12.4267 25.6693C12.7194 25.4045 13.1728 25.427 13.4388 25.7182L16.7652 29.3819L20.4894 25.6902C20.7664 25.4132 21.2201 25.4132 21.4975 25.6902L25.2217 29.3819L28.5465 25.7182C28.8141 25.427 29.2675 25.4045 29.5587 25.6693C29.8526 25.9352 29.8736 26.389 29.6076 26.6814L25.7785 30.8995C25.6467 31.0451 25.462 31.1292 25.2659 31.1347C25.0797 31.1572 24.8824 31.0649 24.7439 30.9276L20.9933 27.2093L17.2411 30.9276C17.1065 31.0605 16.9262 31.1347 16.7372 31.1347H16.7376Z" fill="#E9292C"/>
<path d="M20.9943 16.0243C20.5981 16.0243 20.2773 15.7038 20.2773 15.3073V0.716968C20.2773 0.320801 20.5978 0 20.9943 0H31.8499C32.1412 0 32.4028 0.176381 32.5136 0.445096C32.6241 0.715389 32.5598 1.02475 32.3527 1.22757L28.0701 5.43309L32.2927 8.75119C32.5334 8.9402 32.6273 9.2606 32.5279 9.54905C32.4284 9.83868 32.1554 10.032 31.8503 10.032H23.687C23.2908 10.032 22.97 9.71162 22.97 9.31506C22.97 8.9185 23.2904 8.59809 23.687 8.59809H29.7783L26.5443 6.05694C26.3817 5.92949 26.2826 5.73772 26.2712 5.53213C26.2598 5.32655 26.3371 5.1261 26.4839 4.98208L30.0972 1.43315H21.7113V15.3069C21.7113 15.7031 21.3909 16.0239 20.9943 16.0239V16.0243Z" fill="#E9292C"/>
</svg>
