<svg width="44" height="42" viewBox="0 0 44 42" fill="none" xmlns="http://www.w3.org/2000/svg">
<g id="Icon">
<g id="&#195;&#145;&#195;&#171;&#195;&#174;&#195;&#169; 1">
<g id="Group">
<path id="Vector" d="M20.6003 29.4004H3.80078" stroke="#E9292C" stroke-width="1.37811" stroke-linecap="round" stroke-linejoin="round"/>
<path id="Vector_2" d="M26.2014 23.7998C26.2014 26.8952 23.6969 29.3998 20.6016 29.3998" stroke="#E9292C" stroke-width="1.37811" stroke-linecap="round" stroke-linejoin="round"/>
<path id="Vector_3" d="M28.9961 21.001H37.3959" stroke="#E9292C" stroke-width="1.37811" stroke-linecap="round" stroke-linejoin="round"/>
<path id="Vector_4" d="M23.3984 15.4004H37.398" stroke="#E9292C" stroke-width="1.37811" stroke-linecap="round" stroke-linejoin="round"/>
<path id="Vector_5" d="M41.6016 18.2008L43.0015 9.80078" stroke="#E9292C" stroke-width="1.37811" stroke-linecap="round" stroke-linejoin="round"/>
<path id="Vector_6" d="M40.1992 9.80078H42.9991" stroke="#E9292C" stroke-width="1.37811" stroke-linecap="round" stroke-linejoin="round"/>
<path id="Vector_7" d="M37.4023 15.4008L40.2023 9.80078" stroke="#E9292C" stroke-width="1.37811" stroke-linecap="round" stroke-linejoin="round"/>
<path id="Vector_8" d="M19.1992 12.6V7" stroke="#E9292C" stroke-width="1.37811" stroke-linecap="round" stroke-linejoin="round"/>
<path id="Vector_9" d="M1 7H37.399" stroke="#E9292C" stroke-width="1.37811" stroke-linecap="round" stroke-linejoin="round"/>
<path id="Vector_10" d="M3.80078 35H23.4002" stroke="#E9292C" stroke-width="1.37811" stroke-linecap="round" stroke-linejoin="round"/>
<path id="Vector_11" d="M9.39844 29.4004V35.0004" stroke="#E9292C" stroke-width="1.37811" stroke-linecap="round" stroke-linejoin="round"/>
<path id="Vector_12" d="M17.8008 29.4004V35.0004" stroke="#E9292C" stroke-width="1.37811" stroke-linecap="round" stroke-linejoin="round"/>
<path id="Vector_13" d="M26.1992 23.801C26.1992 22.2533 27.4515 21.001 28.9991 21.001" stroke="#E9292C" stroke-width="1.37811" stroke-linecap="round" stroke-linejoin="round"/>
<path id="Vector_14" d="M37.4023 21.001L40.2023 23.801" stroke="#E9292C" stroke-width="1.37811" stroke-linecap="round" stroke-linejoin="round"/>
<path id="Vector_15" d="M42.9991 23.7998H40.1992" stroke="#E9292C" stroke-width="1.37811" stroke-linecap="round" stroke-linejoin="round"/>
<path id="Vector_16" d="M43.0015 23.8002L41.6016 18.2002" stroke="#E9292C" stroke-width="1.37811" stroke-linecap="round" stroke-linejoin="round"/>
<path id="Vector_17" d="M12.2031 15.3996L15.003 12.5996" stroke="#E9292C" stroke-width="1.37811" stroke-linecap="round" stroke-linejoin="round"/>
<path id="Vector_18" d="M23.3984 15.3996V12.5996" stroke="#E9292C" stroke-width="1.37811" stroke-linecap="round" stroke-linejoin="round"/>
<path id="Vector_19" d="M15 12.5996H23.3998" stroke="#E9292C" stroke-width="1.37811" stroke-linecap="round" stroke-linejoin="round"/>
<path id="Vector_20" d="M1 26.6004C1 20.4098 6.00923 15.4004 12.1997 15.4004" stroke="#E9292C" stroke-width="1.37811" stroke-linecap="round" stroke-linejoin="round"/>
<path id="Vector_21" d="M12.1984 21.001C12.1984 22.5487 10.9461 23.801 9.39844 23.801" stroke="#E9292C" stroke-width="1.37811" stroke-linecap="round" stroke-linejoin="round"/>
<path id="Vector_22" d="M12.2031 15.4004V21.0004" stroke="#E9292C" stroke-width="1.37811" stroke-linecap="round" stroke-linejoin="round"/>
<path id="Vector_23" d="M9.40261 23.7998H1.35547" stroke="#E9292C" stroke-width="1.37811" stroke-linecap="round" stroke-linejoin="round"/>
<path id="Vector_24" d="M1 26.6006C1 28.1483 2.25226 29.4006 3.79992 29.4006" stroke="#E9292C" stroke-width="1.37811" stroke-linecap="round" stroke-linejoin="round"/>
</g>
</g>
</g>
</svg>
