<svg width="42" height="42" viewBox="0 0 42 42" fill="none" xmlns="http://www.w3.org/2000/svg">
<path d="M24.0639 33.9387C24.8739 32.9775 25.5521 31.6795 26.0416 30.1441H29.1253C27.886 31.8796 26.1213 33.2214 24.0639 33.9387ZM12.1146 30.1441H15.1983C15.6878 31.6795 16.366 32.9758 17.176 33.9387C15.1169 33.2214 13.3539 31.8796 12.1146 30.1441ZM16.706 14.6096C16.7547 14.686 16.8117 14.7543 16.8719 14.821C16.1969 15.7318 15.626 16.8866 15.1983 18.2236H12.1211C13.2644 16.6248 14.8502 15.3594 16.7043 14.6096H16.706ZM17.7257 12.8334C17.7257 12.7115 17.8249 12.6106 17.9485 12.6106H23.7142C23.8362 12.6106 23.937 12.7098 23.937 12.8334V13.8077C23.937 13.9297 23.8378 14.0305 23.7142 14.0305H17.9485C17.8266 14.0305 17.7257 13.9313 17.7257 13.8077V12.8334ZM29.1237 18.2236H26.0384C25.6464 16.994 25.1341 15.9189 24.5291 15.0455C24.6527 14.9641 24.76 14.86 24.8543 14.7462C26.5735 15.5074 28.0454 16.7175 29.1237 18.2252V18.2236ZM26.9004 23.5536C26.8597 22.1028 26.6808 20.7333 26.3864 19.4825H29.8946C30.5338 20.717 30.9242 22.0947 31.0136 23.5536H26.8988H26.9004ZM21.2502 28.8852V24.8141H25.6399C25.5944 26.265 25.3959 27.6442 25.0788 28.8852H21.2502ZM21.2502 34.4315V30.1441H24.6982C23.8947 32.4326 22.6522 34.0526 21.2502 34.4315ZM19.9897 30.1441V34.4315C18.5877 34.0526 17.3451 32.4342 16.5417 30.1441H19.9897ZM15.6 24.8141H19.9897V28.8852H16.1611C15.8439 27.6442 15.6455 26.265 15.6 24.8141ZM19.9897 19.4825V23.5536H15.6016C15.6472 22.1028 15.8456 20.7235 16.1644 19.4825H19.9897ZM25.0772 19.4825C25.3959 20.7235 25.5944 22.1028 25.6399 23.5536H21.2518V19.4825H25.0788H25.0772ZM23.1368 15.2911C23.7484 16.0376 24.2802 17.0412 24.695 18.2236H21.2486V15.2911H23.1368ZM18.1063 15.2911H19.9897V18.2236H16.5449C16.9613 17.0395 17.4948 16.0376 18.1063 15.2911ZM11.3485 19.4825H14.8535C14.5591 20.7333 14.3818 22.1028 14.3411 23.5536H10.2279C10.3174 22.0947 10.7093 20.717 11.3485 19.4825ZM10.2214 24.8141H14.3379C14.3785 26.2633 14.5574 27.6345 14.8502 28.8852H11.3436C10.7061 27.6507 10.3092 26.2731 10.2214 24.8141ZM29.8963 28.8852H26.3897C26.6824 27.6345 26.863 26.265 26.902 24.8141H31.0185C30.929 26.2731 30.5338 27.6507 29.8963 28.8852ZM25.1975 13.5231V12.8334C25.1975 12.0153 24.5323 11.3517 23.7142 11.3517H21.4616V4.62945C21.4616 4.28138 21.1802 4 20.8322 4C20.4841 4 20.2028 4.28138 20.2028 4.62945V11.3517H17.9502C17.1321 11.3517 16.4669 12.0169 16.4669 12.8334V13.3539C12.0723 15.0211 8.94141 19.2434 8.94141 24.1847C8.94141 30.5784 14.1801 35.7799 20.6208 35.7799C27.0614 35.7799 32.3001 30.5784 32.3001 24.1847C32.3001 19.4044 29.3693 15.2943 25.1991 13.5231H25.1975Z" fill="#E9292C"/>
<path d="M9.7809 13.4557C9.63127 13.6005 9.56296 13.8103 9.59874 14.0152L9.6947 14.5682L9.18726 14.3031C9.0051 14.2071 8.78716 14.2071 8.60337 14.3031L8.09593 14.5682L8.19189 14.0152C8.22767 13.8103 8.15936 13.6005 8.00973 13.4557L7.60963 13.0686L8.16749 12.9873C8.37242 12.958 8.5497 12.8295 8.64078 12.6441L8.8945 12.1334L9.14822 12.6441C9.2393 12.8295 9.41821 12.958 9.62151 12.9873L10.1794 13.0686L9.77928 13.4557H9.7809ZM12.1408 12.4343C12.0677 12.2066 11.8692 12.039 11.6318 12.0049L10.1306 11.7885L9.45887 10.4386C9.35315 10.2239 9.13359 10.0889 8.8945 10.0889C8.65542 10.0889 8.43748 10.2239 8.33013 10.4386L7.65842 11.7885L6.15723 12.0049C5.91977 12.039 5.72135 12.2066 5.64816 12.4343C5.57334 12.6636 5.63678 12.9141 5.80918 13.0816L6.89237 14.1307L6.63703 15.6108C6.59637 15.8466 6.69395 16.0857 6.8875 16.2272C7.08104 16.3671 7.33801 16.3866 7.55108 16.276L8.89613 15.575L10.2412 16.276C10.4542 16.3866 10.7096 16.3671 10.9048 16.2272C11.0983 16.0857 11.1943 15.8466 11.1536 15.6108L10.8983 14.1307L11.9815 13.0816C12.1539 12.9141 12.2173 12.6636 12.1425 12.4343H12.1408Z" fill="#E9292C"/>
<path d="M9.7809 34.5992C9.63127 34.744 9.56296 34.9538 9.59874 35.1588L9.6947 35.7118L9.18726 35.4466C9.0051 35.3507 8.78716 35.3507 8.605 35.4466L8.09756 35.7118L8.19351 35.1588C8.2293 34.9538 8.16099 34.744 8.01135 34.5992L7.61125 34.2121L8.16912 34.1324C8.37405 34.1032 8.55133 33.9747 8.64241 33.7893L8.89613 33.2785L9.14985 33.7893C9.24256 33.9747 9.41821 34.1032 9.62314 34.1324L10.181 34.2121L9.7809 34.5992ZM11.6318 33.1484L10.1306 32.9321L9.45887 31.5821C9.35315 31.3674 9.13359 31.2324 8.8945 31.2324C8.65542 31.2324 8.43748 31.3674 8.33013 31.5821L7.65842 32.9321L6.15723 33.1484C5.91977 33.1826 5.72135 33.3501 5.64816 33.5778C5.57334 33.8072 5.63678 34.0576 5.80918 34.2252L6.89237 35.2742L6.63703 36.7543C6.59637 36.9902 6.69395 37.2293 6.88587 37.3708C7.08104 37.5107 7.33639 37.5318 7.54782 37.4196L8.89288 36.7186L10.2379 37.4196C10.4461 37.5285 10.7047 37.5123 10.9015 37.3708C11.0951 37.2293 11.191 36.9902 11.1504 36.7543L10.895 35.2742L11.9782 34.2252C12.1506 34.0576 12.214 33.8072 12.1392 33.5778C12.066 33.3501 11.8676 33.1826 11.6301 33.1484H11.6318Z" fill="#E9292C"/>
<path d="M4.58821 25.0829C4.41093 24.9902 4.19299 24.9853 4.00595 25.0829L2.87071 25.6766L3.08702 24.4274C3.12281 24.2225 3.0545 24.0127 2.90486 23.8679L1.99569 22.988L3.2578 22.8058C3.46273 22.7766 3.64001 22.6481 3.73109 22.4626L4.30034 21.3192L4.86959 22.4626C4.96066 22.6481 5.13794 22.7766 5.34287 22.8058L6.60498 22.988L5.69581 23.8679C5.54618 24.0127 5.47787 24.2225 5.51365 24.4274L5.72996 25.6766L4.59309 25.0829H4.58821ZM6.93352 27.3323C7.12706 27.1908 7.22302 26.9517 7.18236 26.7159L6.80666 24.5413L8.39892 22.9994C8.57133 22.8319 8.63476 22.5814 8.55994 22.352C8.48675 22.1243 8.28833 21.9568 8.05087 21.9227L5.84544 21.6039L4.85983 19.6212C4.75411 19.4065 4.53454 19.2715 4.29546 19.2715C4.05637 19.2715 3.83843 19.4065 3.73109 19.6212L2.74548 21.6039L0.540044 21.9227C0.302586 21.9568 0.104162 22.1243 0.0309728 22.352C-0.0438428 22.5814 0.0195878 22.8319 0.191989 22.9994L1.78426 24.5413L1.40855 26.7159C1.36789 26.9517 1.46548 27.1908 1.65902 27.3323C1.85094 27.4722 2.10629 27.4934 2.3226 27.3811L4.29546 26.3516L6.26994 27.3811C6.48137 27.4917 6.73835 27.4722 6.93189 27.3323H6.93352Z" fill="#E9292C"/>
<path d="M33.9863 13.4557C33.8367 13.6004 33.7684 13.8103 33.8041 14.0152L33.9001 14.5682L33.3927 14.3031C33.2105 14.2071 32.9926 14.2071 32.8088 14.3031L32.3013 14.5682L32.3973 14.0152C32.4331 13.8103 32.3648 13.6004 32.2151 13.4557L31.815 13.0686L32.3729 12.9873C32.5778 12.958 32.7551 12.8295 32.8462 12.6441L33.0999 12.1334L33.3536 12.6441C33.4463 12.8295 33.6236 12.958 33.8269 12.9873L34.3848 13.0686L33.9847 13.4557H33.9863ZM36.3479 12.4343C36.2747 12.2066 36.0763 12.039 35.8388 12.0049L34.3376 11.7885L33.6659 10.4386C33.5602 10.2239 33.3406 10.0889 33.1015 10.0889C32.8625 10.0889 32.6445 10.2239 32.5372 10.4386L31.8655 11.7885L30.3643 12.0049C30.1268 12.039 29.9284 12.2066 29.8552 12.4343C29.7804 12.6636 29.8438 12.9141 30.0162 13.0816L31.0994 14.1307L30.8441 15.6108C30.8034 15.8466 30.901 16.0857 31.0945 16.2272C31.2864 16.3671 31.5418 16.3882 31.7581 16.276L33.1032 15.575L34.4482 16.276C34.6613 16.385 34.9166 16.3671 35.1118 16.2272C35.3053 16.0857 35.4029 15.8466 35.3623 15.6108L35.1069 14.1307L36.1901 13.0816C36.3625 12.9141 36.4259 12.6636 36.3511 12.4343H36.3479Z" fill="#E9292C"/>
<path d="M33.9863 34.5992C33.8367 34.744 33.7684 34.9538 33.8041 35.1588L33.9001 35.7118L33.3927 35.4466C33.2105 35.3507 32.9926 35.3507 32.8104 35.4466L32.303 35.7118L32.3989 35.1588C32.4347 34.9538 32.3664 34.744 32.2168 34.5992L31.8167 34.2121L32.3745 34.1324C32.5795 34.1032 32.7567 33.9747 32.8478 33.7893L33.1015 33.2785L33.3553 33.7893C33.448 33.9747 33.6236 34.1032 33.8285 34.1324L34.3864 34.2121L33.9863 34.5992ZM35.8388 33.1484L34.3376 32.9321L33.6659 31.5821C33.5602 31.3674 33.3406 31.2324 33.1015 31.2324C32.8625 31.2324 32.6445 31.3674 32.5372 31.5821L31.8655 32.9321L30.3643 33.1484C30.1268 33.1826 29.9284 33.3501 29.8552 33.5778C29.7804 33.8072 29.8438 34.0576 30.0162 34.2252L31.0994 35.2742L30.8441 36.7543C30.8034 36.9902 30.901 37.2293 31.0929 37.3708C31.2864 37.5107 31.5434 37.5318 31.7565 37.4196L33.1015 36.7186L34.4466 37.4196C34.6613 37.5318 34.9166 37.509 35.1085 37.3708C35.3021 37.2293 35.3997 36.9902 35.359 36.7543L35.1037 35.2742L36.1869 34.2252C36.3593 34.0576 36.4227 33.8072 36.3479 33.5778C36.2747 33.3501 36.0763 33.1826 35.8388 33.1484Z" fill="#E9292C"/>
<path d="M39.0995 23.8663C38.9498 24.0111 38.8815 24.2209 38.9173 24.4258L39.1336 25.675L37.9984 25.0813C37.8162 24.9853 37.5983 24.9853 37.4161 25.0813L36.2792 25.675L36.4956 24.4258C36.5313 24.2209 36.463 24.0111 36.3134 23.8663L35.4042 22.9864L36.6663 22.8042C36.8713 22.7749 37.0485 22.6464 37.1396 22.461L37.7089 21.3176L38.2765 22.461C38.3676 22.6464 38.5448 22.7749 38.7498 22.8042L40.0119 22.9864L39.1027 23.8663H39.0995ZM41.461 21.9227L39.2556 21.6039L38.27 19.6212C38.1643 19.4065 37.9447 19.2715 37.7056 19.2715C37.4665 19.2715 37.2486 19.4065 37.1412 19.6212L36.1556 21.6039L33.9502 21.9227C33.7127 21.9568 33.5143 22.1243 33.4411 22.352C33.3663 22.5814 33.4297 22.8319 33.6021 22.9994L35.1944 24.5413L34.8187 26.7159C34.778 26.9518 34.8756 27.1908 35.0676 27.3323C35.2627 27.4739 35.5181 27.4917 35.7311 27.3811L37.7056 26.3516L39.6785 27.3811C39.8899 27.4917 40.1469 27.4722 40.342 27.3323C40.5356 27.1908 40.6315 26.9518 40.5909 26.7159L40.2152 24.5413L41.8091 22.9994C41.9815 22.8319 42.0449 22.5814 41.9701 22.352C41.8969 22.1227 41.6985 21.9568 41.461 21.9227Z" fill="#E9292C"/>
</svg>
