<svg width="44" height="42" viewBox="0 0 44 42" fill="none" xmlns="http://www.w3.org/2000/svg">
<path d="M13.6421 9.86816H9.24219V31.5246H13.6421V9.86816Z" stroke="#E9292C" stroke-width="1.17037" stroke-linecap="round" stroke-linejoin="round"/>
<path d="M15.2248 7H7.58594V9.86775H15.2248V7Z" stroke="#E9292C" stroke-width="1.17037" stroke-linecap="round" stroke-linejoin="round"/>
<path d="M15.256 31.5244H7.61719V34.3922H15.256V31.5244Z" stroke="#E9292C" stroke-width="1.17037" stroke-linecap="round" stroke-linejoin="round"/>
<path d="M30.9312 17.4507V31.5246H26.5312V9.86816H30.9312V14.5751L29.7752 15.5303L30.9312 17.4507Z" stroke="#E9292C" stroke-width="1.17037" stroke-linecap="round" stroke-linejoin="round"/>
<path d="M32.5217 7H24.8828V9.86775H32.5217V7Z" stroke="#E9292C" stroke-width="1.17037" stroke-linecap="round" stroke-linejoin="round"/>
<path d="M32.5529 31.5244H24.9141V34.3922H32.5529V31.5244Z" stroke="#E9292C" stroke-width="1.17037" stroke-linecap="round" stroke-linejoin="round"/>
<path d="M41.3804 31.5241H36.9805V23.7676L41.3804 25.9065V31.5241Z" stroke="#E9292C" stroke-width="1.17037" stroke-linecap="round" stroke-linejoin="round"/>
<path d="M42.9982 31.5244H35.3594V34.3922H42.9982V31.5244Z" stroke="#E9292C" stroke-width="1.17037" stroke-linecap="round" stroke-linejoin="round"/>
<path d="M5.21669 28.9014H1V34.3923H5.21669V28.9014Z" stroke="#E9292C" stroke-width="1.17037" stroke-linecap="round" stroke-linejoin="round"/>
<path d="M1 34.3906H42.9998" stroke="#E9292C" stroke-width="1.17037" stroke-linecap="round" stroke-linejoin="round"/>
<path d="M13.6406 20.6958L18.5569 14.7148H26.5348" stroke="#E9292C" stroke-width="1.17037" stroke-linecap="round" stroke-linejoin="round"/>
<path d="M19.1875 19.2734H26.5341" stroke="#E9292C" stroke-width="1.17037" stroke-linecap="round" stroke-linejoin="round"/>
<path d="M30.9336 14.5742L38.8251 18.6536L39.1804 21.9385L40.9292 20.6954H42.1917" stroke="#E9292C" stroke-width="1.17037" stroke-linecap="round" stroke-linejoin="round"/>
<path d="M13.6406 27.6451L20.8013 24.6035H26.5348" stroke="#E9292C" stroke-width="1.17037" stroke-linecap="round" stroke-linejoin="round"/>
</svg>
