<svg width="44" height="42" viewBox="0 0 44 42" fill="none" xmlns="http://www.w3.org/2000/svg">
<g id="Icon">
<g id="Layer 2">
<g id="Group">
<g id="Group_2">
<path id="Vector" d="M26.6414 27.077L24.9281 26.1636C24.046 25.6222 24.0781 24.9542 24.046 24.3869L24.0549 21.0109C22.875 21.0109 21.918 20.0538 21.918 18.8738V15.8857H28.9621C30.5666 15.8857 31.867 17.1871 31.867 18.7908V28.8511L34.4222 29.7011C35.6432 30.0766 36.5271 31.1371 36.676 32.4055L37.1666 37.1471" stroke="#E9292C" stroke-width="1.33788" stroke-linecap="round" stroke-linejoin="round"/>
<path id="Vector_2" d="M24.1953 37.1486V33.6914" stroke="#E9292C" stroke-width="1.33788" stroke-linecap="round" stroke-linejoin="round"/>
<path id="Vector_3" d="M20.3594 37.1486L20.8499 32.407C20.9989 31.1387 21.8836 30.0773 23.1037 29.7027L26.7301 28.6635V25.4668" stroke="#E9292C" stroke-width="1.33788" stroke-linecap="round" stroke-linejoin="round"/>
</g>
<path id="Vector_4" d="M1 17.3129L15.9222 1.59951C16.6776 0.803894 18.0957 0.799434 18.8583 1.59059L29.5449 12.4911" stroke="#E9292C" stroke-width="1.33788" stroke-linecap="round" stroke-linejoin="round"/>
<path id="Vector_5" d="M6.58203 11.4372L13.1918 7.59375L12.9671 11.4372L17.2856 7.59375L21.6264 11.4372L21.3892 7.59375L28.098 11.0162" stroke="#E9292C" stroke-width="1.33788" stroke-linecap="round" stroke-linejoin="round"/>
<path id="Vector_6" d="M38.2891 30.0391H42.9973" stroke="#E9292C" stroke-width="1.33788" stroke-linecap="round" stroke-linejoin="round"/>
<path id="Vector_7" d="M11.9414 37.4414H41.2506" stroke="#E9292C" stroke-width="1.33788" stroke-linecap="round" stroke-linejoin="round"/>
<path id="Vector_8" d="M15.5508 41.2256H24.1932" stroke="#E9292C" stroke-width="1.33788" stroke-linecap="round" stroke-linejoin="round"/>
<path id="Vector_9" d="M6.67969 37.4414H8.45633" stroke="#E9292C" stroke-width="1.33788" stroke-linecap="round" stroke-linejoin="round"/>
<path id="Vector_10" d="M15.5508 34.4805H17.0099" stroke="#E9292C" stroke-width="1.33788" stroke-linecap="round" stroke-linejoin="round"/>
<path id="Vector_11" d="M41.1172 41.2256H42.9982" stroke="#E9292C" stroke-width="1.33788" stroke-linecap="round" stroke-linejoin="round"/>
<path id="Vector_12" d="M32.6289 41.2256H38.3334" stroke="#E9292C" stroke-width="1.33788" stroke-linecap="round" stroke-linejoin="round"/>
<path id="Vector_13" d="M1 30.0391H17.6221" stroke="#E9292C" stroke-width="1.33788" stroke-linecap="round" stroke-linejoin="round"/>
<path id="Vector_14" d="M8.22535 15.8877L3.82031 21.9592" stroke="#E9292C" stroke-width="1.33788" stroke-linecap="round" stroke-linejoin="round"/>
<path id="Vector_15" d="M11.8395 15.6387L9.95312 19.4812" stroke="#E9292C" stroke-width="1.33788" stroke-linecap="round" stroke-linejoin="round"/>
<g id="Group_3">
<path id="Vector_16" d="M41.2305 12.5823C41.2305 11.1248 42.0403 11.1248 42.0403 9.66651C42.0403 8.20818 41.2305 8.20818 41.2305 6.75074C41.2305 5.29329 42.0403 5.2924 42.0403 3.83496" stroke="#E9292C" stroke-width="1.33788" stroke-linecap="round" stroke-linejoin="round"/>
<path id="Vector_17" d="M36.4844 12.5823C36.4844 11.1248 37.2933 11.1248 37.2933 9.66651C37.2933 8.20818 36.4844 8.20818 36.4844 6.75074C36.4844 5.29329 37.2933 5.2924 37.2933 3.83496" stroke="#E9292C" stroke-width="1.33788" stroke-linecap="round" stroke-linejoin="round"/>
</g>
</g>
</g>
</g>
</svg>
