<svg width="44" height="44" viewBox="0 0 44 44" fill="none" xmlns="http://www.w3.org/2000/svg">
<path d="M11.5004 4.23073H17.9619M40.577 42.9994V30.0765M3.4236 30.0765V42.9994M14.7311 1V8.26913M14.7311 8.26913L20.8865 15.1942C21.0836 15.4155 21.1926 15.7022 21.1926 15.9986V21.9997H8.26969V15.9986C8.26969 15.7022 8.37873 15.4163 8.5758 15.1942L14.7311 8.26913ZM21.0698 15.5383H8.39165M1.00056 42.9994H43M42.9136 28.9078L39.9058 22.893C39.632 22.3454 39.0731 21.9997 38.4608 21.9997H5.53892C4.9267 21.9997 4.36778 22.3454 4.09398 22.893L1.08617 28.9078C0.818023 29.4449 1.20813 30.0765 1.80824 30.0765H42.1907C42.7908 30.0765 43.1817 29.4449 42.9128 28.9078H42.9136ZM13.1158 39.7687V35.7303C13.1158 34.3976 12.0254 33.3073 10.6927 33.3073C9.36006 33.3073 8.26969 34.3976 8.26969 35.7303V39.7687H13.1158ZM35.7309 39.7687V35.7303C35.7309 34.3976 34.6405 33.3073 33.3078 33.3073C31.9751 33.3073 30.8848 34.3976 30.8848 35.7303V39.7687H35.7309ZM24.4233 39.7687V35.7303C24.4233 34.3976 23.333 33.3073 22.0003 33.3073C20.6676 33.3073 19.5772 34.3976 19.5772 35.7303V39.7687H24.4233Z" stroke="#E9292C" stroke-width="1.3" stroke-linecap="round" stroke-linejoin="round"/>
</svg>
