<svg width="65" height="64" viewBox="0 0 65 64" fill="none" xmlns="http://www.w3.org/2000/svg">
<circle cx="32.75" cy="32" r="32" fill="#0093D0"/>
<path d="M20.1452 16H20.2545C20.4674 16.0475 20.607 16.1829 20.6733 16.4062C21.5858 19.4694 22.4727 22.5425 23.4252 25.5931C23.6239 26.2288 23.7552 26.7944 23.782 27.3906C23.8074 27.9602 23.8347 28.529 23.8639 29.0969C23.9095 29.9806 24.257 30.5019 24.9183 31.1156C25.9304 32.0544 26.9402 32.9956 27.9477 33.9394C27.9586 33.9495 27.9725 33.9555 27.987 33.9562C28.2191 33.9692 28.3885 33.9033 28.4952 33.7588C28.7002 33.4806 28.4983 33.16 28.3177 32.9181C27.7931 32.214 27.2643 31.5146 26.7314 30.82C26.7225 30.8083 26.7095 30.8001 26.6945 30.7969C26.1279 30.681 25.7466 30.3823 25.5508 29.9006C25.4812 29.7302 25.4349 29.4573 25.412 29.0819C25.3758 28.4869 25.3374 27.8919 25.297 27.2969C25.2564 26.6969 26.182 26.5563 26.2364 27.3325C26.2814 27.9792 26.3239 28.6258 26.3639 29.2725C26.3722 29.4125 26.3962 29.5183 26.4358 29.59C26.6514 29.98 27.2077 29.9594 27.3795 29.5456C27.412 29.4665 27.4249 29.3506 27.4183 29.1981C27.3458 27.5606 27.3739 26.0863 26.2558 25.0225C26.0052 24.7837 25.5845 24.5219 25.362 24.1544C25.2191 23.919 25.0893 23.604 24.9727 23.2094C24.3368 21.0615 23.7008 18.9135 23.0645 16.7656C22.9539 16.3919 22.9945 16.0938 23.4108 16H23.5045C23.8708 16.0763 23.9008 16.2937 24.0095 16.6612C24.6399 18.7854 25.2706 20.9094 25.9014 23.0331C25.9806 23.3002 26.0914 23.546 26.2339 23.7706C26.2797 23.8427 26.317 23.8385 26.3458 23.7581C26.3983 23.6106 26.4547 23.4646 26.5152 23.32C26.5472 23.2425 26.5593 23.1619 26.5514 23.0781C26.3395 20.9437 26.9727 18.8431 28.6533 17.465C30.3102 16.1069 32.8277 15.6281 34.8008 16.5419C35.8695 17.0369 36.5135 17.8702 36.7327 19.0419C36.7355 19.0568 36.7434 19.0701 36.7552 19.0794C37.6039 19.7527 38.0754 20.6337 38.1695 21.7225C38.1703 21.7317 38.1731 21.7405 38.1776 21.7484C38.1822 21.7563 38.1884 21.763 38.1958 21.7681C38.862 22.234 39.4004 22.8169 39.8108 23.5169C39.8549 23.5923 39.8925 23.5892 39.9233 23.5075C39.9737 23.3733 40.0195 23.2379 40.0608 23.1013C40.7366 20.8679 41.4062 18.6327 42.0695 16.3956C42.1345 16.1765 42.2743 16.0446 42.4889 16H42.5983C43.0702 16.1275 43.0295 16.4525 42.9108 16.8537C42.2783 18.9921 41.6427 21.1296 41.0039 23.2663C40.822 23.875 40.612 24.3212 40.1214 24.7031C39.2583 25.375 38.8602 26.1231 38.7202 27.2031C38.6647 27.6306 38.6183 28.3131 38.5808 29.2506C38.5489 30.0481 39.5883 30.09 39.6377 29.2913C39.6939 28.3833 39.74 27.7048 39.7758 27.2556C39.8289 26.59 40.7458 26.6319 40.6933 27.43C40.6516 28.0613 40.6093 28.6923 40.5664 29.3231C40.5114 30.1348 40.0914 30.626 39.3064 30.7969C39.2919 30.8001 39.279 30.8083 39.2702 30.82C38.7377 31.5162 38.2052 32.2125 37.6727 32.9088C37.4364 33.2175 37.237 33.7231 37.7245 33.9188C37.8866 33.9842 38.0193 33.9685 38.1227 33.8719C39.0868 32.974 40.051 32.0765 41.0152 31.1794C41.3793 30.8406 41.6168 30.5848 41.7277 30.4119C42.042 29.9225 42.1433 29.3094 42.157 28.75C42.1839 27.6594 42.1895 26.8162 42.452 25.9838C42.8433 24.7396 43.2237 23.4921 43.5933 22.2413C43.6395 22.0842 43.6897 21.9752 43.7439 21.9144C43.9877 21.6412 44.4433 21.7537 44.5333 22.1106C44.5554 22.1998 44.541 22.3319 44.4902 22.5069C44.1577 23.6423 43.8139 24.7744 43.4589 25.9031C43.3008 26.4062 43.1708 26.9344 43.1552 27.3906C43.1002 28.9894 43.1583 30.2569 42.1958 31.3431C42.1662 31.3765 41.8635 31.6627 41.2877 32.2019C40.6027 32.8431 39.9166 33.4829 39.2295 34.1213C38.6864 34.6256 38.4364 34.9137 37.7645 34.8931C37.755 34.8927 37.7455 34.8945 37.7369 34.8983C37.7282 34.9021 37.7206 34.9078 37.7145 34.915C37.2008 35.52 36.6224 36.056 35.9795 36.5231C35.9716 36.5289 35.9652 36.5365 35.9607 36.5453C35.9563 36.5541 35.9539 36.5639 35.9539 36.5737V37.6213C35.9539 37.6352 35.9585 37.6488 35.967 37.6597C35.9755 37.6707 35.9874 37.6785 36.0008 37.6819C38.6208 38.3544 42.9795 39.4781 43.1795 42.9069C43.2558 44.224 43.3225 45.5417 43.3795 46.86C43.4064 47.48 43.2933 47.9669 42.5439 48H23.4502C22.4977 47.895 22.5952 47.2625 22.6333 46.445C22.6858 45.3121 22.7435 44.1777 22.8064 43.0419C23.0045 39.4625 27.2608 38.3956 30.0008 37.6819C30.0142 37.6783 30.0261 37.6704 30.0346 37.6594C30.0431 37.6485 30.0477 37.635 30.0477 37.6213V36.5725C30.0476 36.5625 30.0453 36.5526 30.0409 36.5438C30.0364 36.535 30.0299 36.5275 30.022 36.5219C29.3779 36.0565 28.7993 35.5208 28.2864 34.915C28.2803 34.9078 28.2728 34.902 28.2642 34.8981C28.2557 34.8942 28.2464 34.8923 28.237 34.8925C27.577 34.9137 27.3189 34.6331 26.792 34.1419C25.8845 33.2956 24.9739 32.4527 24.0602 31.6131C22.397 30.085 23.1952 28.0719 22.6008 26.1181C21.6441 22.974 20.7041 19.825 19.7808 16.6712C19.6833 16.3387 19.8033 16.085 20.1452 16ZM34.7939 17.6106C33.2764 16.6381 31.2014 16.9181 29.7295 17.8381C28.7287 18.4635 28.0524 19.3654 27.7008 20.5437C27.6058 20.8612 27.5381 21.1808 27.4977 21.5025C27.4835 21.6142 27.5127 21.6271 27.5852 21.5413C28.6468 20.285 29.9314 19.4073 31.4389 18.9081C32.3347 18.6115 33.2879 18.4504 34.2983 18.425C34.7224 18.4146 35.1131 18.4406 35.4702 18.5031C35.5556 18.5181 35.5774 18.4875 35.5358 18.4113C35.3504 18.075 35.1031 17.8081 34.7939 17.6106ZM34.1177 22.89C31.9208 22.3787 29.1002 22.7256 27.2427 24.0581C27.2317 24.0658 27.2236 24.077 27.2195 24.09L27.0958 24.4888C27.0927 24.4988 27.0923 24.5096 27.0946 24.52C27.0969 24.5304 27.1018 24.5401 27.1089 24.5481C27.631 25.1377 27.9687 25.8179 28.122 26.5887C28.1366 26.6621 28.1712 26.6733 28.2258 26.6225C29.7762 25.1867 31.6093 24.5596 33.7252 24.7413C33.7381 24.7421 33.9514 24.7752 34.3652 24.8406C37.8308 25.3869 38.442 19.4488 34.647 19.3631C33.7054 19.3423 32.7816 19.4708 31.8758 19.7487C30.3162 20.2271 29.0514 21.1144 28.0814 22.4106C28.011 22.5048 28.0306 22.5302 28.1402 22.4869C29.5772 21.9202 31.0741 21.6712 32.6308 21.74C33.0577 21.7594 34.462 21.8637 34.7458 22.1731C34.9558 22.4019 34.8302 22.855 34.5133 22.9256C34.4304 22.944 34.2985 22.9321 34.1177 22.89ZM38.0764 22.9875C37.9218 23.645 37.6393 24.215 37.2289 24.6975C36.9693 25.0029 36.6641 25.2519 36.3133 25.4444C36.2466 25.481 36.2466 25.5175 36.3133 25.5538C36.8495 25.8479 37.3368 26.2079 37.7752 26.6337C37.8306 26.6875 37.8654 26.6765 37.8795 26.6006C38.0499 25.7077 38.4641 24.9481 39.122 24.3219C39.1315 24.3128 39.1378 24.301 39.1402 24.2881C39.1425 24.2752 39.1408 24.2618 39.1352 24.25C38.9002 23.7562 38.5816 23.325 38.1795 22.9563C38.1715 22.9489 38.1617 22.9437 38.1511 22.9413C38.1405 22.9388 38.1294 22.9392 38.119 22.9424C38.1086 22.9455 38.0992 22.9514 38.0917 22.9593C38.0842 22.9672 38.079 22.9769 38.0764 22.9875ZM29.7783 35.1131C30.912 36.1637 32.5239 37.2031 34.0914 36.53C35.121 36.0879 36.0318 35.4129 36.8239 34.505C36.8333 34.4942 36.8387 34.4806 36.8393 34.4664C36.8399 34.4521 36.8355 34.4382 36.827 34.4269C36.1714 33.5437 36.5327 32.8975 37.1402 32.08C37.5039 31.59 37.8735 31.1019 38.2489 30.6156C38.2587 30.6028 38.2632 30.5866 38.2613 30.5705C38.2595 30.5544 38.2514 30.5397 38.2389 30.5294C37.4139 29.8506 37.662 29.0225 37.707 27.9894C37.7078 27.9745 37.7032 27.9598 37.6939 27.9481C35.3277 24.9031 30.6652 24.8369 28.3089 27.95C28.3004 27.9618 28.296 27.9758 28.2964 27.99C28.3072 28.2712 28.3208 28.5525 28.337 28.8337C28.3808 29.5906 28.3477 30.0712 27.762 30.5238C27.749 30.5338 27.7406 30.5486 27.7385 30.565C27.7364 30.5814 27.7408 30.598 27.7508 30.6112C28.2158 31.2208 28.6791 31.8348 29.1408 32.4531C29.5933 33.0588 29.6727 33.8281 29.172 34.4263C29.1623 34.4376 29.157 34.4522 29.1573 34.4673C29.1575 34.4823 29.1632 34.4968 29.1733 34.5081C29.3254 34.679 29.527 34.8806 29.7783 35.1131ZM32.0933 43.5637C32.3654 43.8229 32.4097 44.0715 32.2264 44.3094C32.1377 44.4244 31.9833 44.4844 31.8445 44.4844C30.1729 44.4844 28.5012 44.4844 26.8295 44.4844C26.813 44.4844 26.7971 44.491 26.7853 44.5027C26.7736 44.5144 26.767 44.5303 26.767 44.5469L26.7652 47C26.7652 47.0166 26.7717 47.0325 26.7835 47.0442C26.7952 47.0559 26.8111 47.0625 26.8277 47.0625H39.1739C39.1821 47.0625 39.1902 47.0609 39.1977 47.0577C39.2053 47.0546 39.2121 47.05 39.2179 47.0442C39.2236 47.0383 39.2282 47.0315 39.2313 47.0239C39.2343 47.0163 39.2359 47.0082 39.2358 47L39.2345 44.5462C39.2345 44.5297 39.2279 44.5138 39.2162 44.5021C39.2045 44.4903 39.1886 44.4837 39.172 44.4837C37.492 44.485 35.8124 44.4848 34.1333 44.4831C33.3845 44.4825 33.3702 43.5481 34.1427 43.5475C35.8256 43.5463 37.5087 43.5463 39.192 43.5475C39.9377 43.5481 40.1727 43.89 40.1727 44.6175C40.1727 45.4146 40.1729 46.2087 40.1733 47C40.1733 47.0166 40.1799 47.0325 40.1916 47.0442C40.2033 47.0559 40.2192 47.0625 40.2358 47.0625H42.3995C42.4081 47.0625 42.4165 47.0608 42.4244 47.0574C42.4322 47.054 42.4393 47.0491 42.4451 47.0429C42.451 47.0367 42.4555 47.0293 42.4584 47.0213C42.4613 47.0133 42.4625 47.0048 42.462 46.9963C42.4025 45.8438 42.3429 44.6883 42.2833 43.53C42.2529 42.9338 42.2031 42.5215 42.1339 42.2931C41.4333 39.9738 37.6802 39.0419 35.657 38.565C35.192 38.4556 35.0164 38.0963 35.0164 37.6406C35.0168 37.5006 35.0166 37.3615 35.0158 37.2231C35.0156 37.2123 35.0127 37.2018 35.0073 37.1924C35.0019 37.1831 34.9942 37.1753 34.9849 37.1697C34.9756 37.1642 34.9651 37.1612 34.9543 37.1609C34.9435 37.1606 34.9328 37.1631 34.9233 37.1681C34.4758 37.4077 34.0016 37.5706 33.5008 37.6569C32.7014 37.7944 31.8052 37.5538 31.0727 37.17C31.0629 37.165 31.0519 37.1626 31.0409 37.163C31.0299 37.1635 31.0193 37.1668 31.01 37.1726C31.0007 37.1784 30.9931 37.1865 30.988 37.1962C30.9829 37.2058 30.9804 37.2166 30.9808 37.2275C31.0058 37.9131 31.0239 38.3831 30.2564 38.5812C28.2283 39.1062 24.5858 39.9525 23.8708 42.295C23.7987 42.5308 23.7477 42.9427 23.7177 43.5306C23.6589 44.6827 23.5997 45.8379 23.5402 46.9963C23.5396 47.0047 23.5409 47.0131 23.5438 47.0211C23.5467 47.029 23.5512 47.0363 23.5571 47.0424C23.5629 47.0486 23.57 47.0535 23.5778 47.0568C23.5857 47.0602 23.5941 47.0619 23.6027 47.0619L25.7608 47.0631C25.7774 47.0631 25.7933 47.0565 25.805 47.0448C25.8167 47.0331 25.8233 47.0172 25.8233 47.0006C25.8299 46.1873 25.8318 45.374 25.8289 44.5606C25.8264 43.7725 26.162 43.5462 26.9339 43.5462C28.6393 43.5471 30.3447 43.5473 32.0502 43.5469C32.0663 43.5469 32.0817 43.5529 32.0933 43.5637Z" fill="white"/>
<path d="M45.7451 16H45.8544C46.1944 16.1113 46.3084 16.3563 46.1963 16.735C45.8551 17.8879 45.5128 19.0402 45.1694 20.1919C44.9857 20.8075 44.0744 20.5931 44.3032 19.8206C44.6465 18.6615 44.9909 17.5027 45.3363 16.3444C45.393 16.1544 45.5292 16.0396 45.7451 16Z" fill="white"/>
<path d="M30.6442 29.3635C31.2074 28.7666 31.9824 29.7297 31.0936 30.1735C30.6307 30.4043 30.1913 30.3785 29.7755 30.096C29.0724 29.6179 29.8142 28.811 30.3586 29.3672C30.3646 29.3732 30.3716 29.3779 30.3795 29.3811C30.3873 29.3843 30.3957 29.386 30.4042 29.386L30.5999 29.3829C30.6167 29.3824 30.6326 29.3755 30.6442 29.3635Z" fill="white"/>
<path d="M34.7538 30.0776C34.1581 29.6757 34.7181 28.8807 35.2625 29.2857C35.4313 29.4113 35.565 29.4401 35.7231 29.3038C36.2281 28.8694 36.8794 29.6363 36.245 30.0707C35.7484 30.4111 35.2513 30.4134 34.7538 30.0776Z" fill="white"/>
<path d="M33.69 33.1523C34.0825 32.9623 34.4938 33.4136 34.2869 33.7898C34.0406 34.2361 33.0488 34.3023 32.6113 34.2342C32.2954 34.185 32.0379 34.0854 31.8388 33.9354C31.5238 33.6979 31.6769 33.1954 32.0531 33.1198C32.2719 33.0761 32.4988 33.2529 32.6831 33.2911C33.0194 33.3611 33.355 33.3148 33.69 33.1523Z" fill="white"/>
</svg>
