<svg width="64" height="64" viewBox="0 0 64 64" fill="none" xmlns="http://www.w3.org/2000/svg">
<circle cx="32" cy="32" r="32" fill="#0093D0"/>
<g clip-path="url(#clip0_79_36721)">
<g clip-path="url(#clip1_79_36721)">
<path d="M24.2969 18.9631H29.0376M45.6302 47.4076V37.9261M18.371 37.9261V47.4076M26.6673 16.5928V21.9261M26.6673 21.9261L31.1834 27.007C31.328 27.1694 31.408 27.3797 31.408 27.5972V32.0002H21.9265V27.5972C21.9265 27.3797 22.0065 27.17 22.1511 27.007L26.6673 21.9261ZM31.3179 27.2594H22.016M16.5932 47.4076H47.408M47.3446 37.0686L45.1378 32.6556C44.9369 32.2538 44.5268 32.0002 44.0776 32.0002H19.923C19.4738 32.0002 19.0637 32.2538 18.8628 32.6556L16.656 37.0686C16.4593 37.4627 16.7455 37.9261 17.1858 37.9261H46.8142C47.2545 37.9261 47.5413 37.4627 47.344 37.0686H47.3446ZM25.4821 45.0372V42.0743C25.4821 41.0965 24.6821 40.2965 23.7043 40.2965C22.7265 40.2965 21.9265 41.0965 21.9265 42.0743V45.0372H25.4821ZM42.0747 45.0372V42.0743C42.0747 41.0965 41.2747 40.2965 40.2969 40.2965C39.3191 40.2965 38.5191 41.0965 38.5191 42.0743V45.0372H42.0747ZM33.7784 45.0372V42.0743C33.7784 41.0965 32.9784 40.2965 32.0006 40.2965C31.0228 40.2965 30.2228 41.0965 30.2228 42.0743V45.0372H33.7784Z" stroke="white" stroke-width="1.18519" stroke-linecap="round" stroke-linejoin="round"/>
</g>
</g>
<defs>
<clipPath id="clip0_79_36721">
<rect width="32" height="32" fill="white" transform="translate(16 16)"/>
</clipPath>
<clipPath id="clip1_79_36721">
<rect width="32" height="32" fill="white" transform="translate(16 16)"/>
</clipPath>
</defs>
</svg>
