<svg width="64" height="64" viewBox="0 0 64 64" fill="none" xmlns="http://www.w3.org/2000/svg">
<circle cx="32" cy="32" r="32" fill="#0093D0"/>
<path d="M41.0637 32.1816C41.1116 31.7307 41.0332 31.2775 40.8362 30.8708C40.5076 30.1927 40.375 29.437 40.4527 28.686C40.4998 28.2373 40.4197 27.785 40.2215 27.3784C40.0233 26.97 39.7156 26.6268 39.3313 26.3863C38.6928 25.9868 38.1812 25.419 37.8524 24.7443C37.4518 23.9211 36.612 23.3844 35.6816 23.3832C34.9262 23.3815 34.1895 23.1703 33.5507 22.7722C32.9743 22.4132 32.2511 22.3136 31.6024 22.5008C31.0633 22.6563 30.4964 22.7556 29.9173 22.7958C29.26 22.8413 28.6206 23.1584 28.1841 23.712C27.716 24.3065 27.0939 24.7574 26.385 25.016C25.961 25.1708 25.5893 25.441 25.31 25.7977C25.0307 26.1542 24.8576 26.5801 24.8091 27.0298C24.7284 27.7782 24.4403 28.4885 23.9756 29.0838C23.6976 29.4402 23.5256 29.867 23.4787 30.3174C23.4304 30.7683 23.5088 31.2215 23.7059 31.6285C24.0347 32.3074 24.1671 33.0629 24.089 33.8133C24.0424 34.2627 24.1229 34.7152 24.3207 35.1209C24.5189 35.5296 24.8269 35.8728 25.2109 36.113C25.8497 36.5125 26.361 37.0803 26.6898 37.7553C26.8885 38.1631 27.1976 38.5064 27.5842 38.7484C27.9682 38.9877 28.41 39.1143 28.8615 39.1149C29.6163 39.1166 30.3522 39.3278 30.9892 39.7256C31.5792 40.0942 32.289 40.1845 32.9344 39.9995C33.4869 39.8412 34.0559 39.7412 34.6256 39.7022C35.3144 39.6544 35.9433 39.3168 36.3609 38.7843C36.8274 38.1906 37.448 37.7405 38.1557 37.4832C38.5805 37.3286 38.9527 37.0584 39.2323 36.7014C39.5112 36.3438 39.6843 35.9176 39.7328 35.469C39.8141 34.72 40.1022 34.01 40.5663 33.4154C40.8446 33.0593 41.0163 32.6324 41.0635 32.1815L41.0637 32.1816ZM40.4788 32.1197V32.1203C40.4432 32.4615 40.3131 32.7843 40.1028 33.0537C39.5712 33.7344 39.2411 34.5478 39.1481 35.406C39.1113 35.7458 38.9802 36.0686 38.7689 36.3394C38.5575 36.6091 38.2761 36.8136 37.9546 36.9307C37.1435 37.2255 36.4326 37.741 35.8984 38.4214C35.5824 38.8235 35.1061 39.08 34.5852 39.1152C33.9742 39.1572 33.3645 39.2647 32.7723 39.4343C32.2809 39.5749 31.7357 39.4986 31.3009 39.2267C30.5705 38.7706 29.7274 38.5284 28.8626 38.5268C28.5205 38.5262 28.1859 38.4303 27.8959 38.2497C27.6032 38.0665 27.3691 37.8063 27.2186 37.4978C26.8415 36.7237 26.255 36.0725 25.5229 35.6145C25.2328 35.433 25.0001 35.1737 24.85 34.8637C24.6998 34.5561 24.6392 34.214 24.6745 33.8742C24.7637 33.0148 24.6119 32.1494 24.2356 31.3723C24.0864 31.0644 24.027 30.7214 24.0635 30.3792C24.0991 30.038 24.2292 29.7152 24.4393 29.4458C24.9715 28.7641 25.3018 27.9506 25.3939 27.0931C25.4307 26.7529 25.5619 26.4302 25.7731 26.1603C25.9848 25.8903 26.2663 25.6856 26.5868 25.5687C27.3983 25.2726 28.1106 24.7565 28.6462 24.0764C28.971 23.6648 29.4526 23.4174 29.958 23.383C30.5787 23.3396 31.1868 23.2331 31.7657 23.0662C32.2403 22.9286 32.7827 22.9868 33.2397 23.2716C33.9712 23.7277 34.8154 23.9698 35.6805 23.9715C36.3876 23.9727 37.021 24.3811 37.3236 25.002C37.701 25.776 38.2872 26.4272 39.0194 26.8849C39.3094 27.0668 39.5421 27.3261 39.6923 27.6358C39.8424 27.9439 39.903 28.286 39.8675 28.6253C39.7783 29.4854 39.9303 30.3508 40.3067 31.1274C40.4555 31.4347 40.5149 31.778 40.4787 32.1198L40.4788 32.1197Z" fill="white" stroke="white" stroke-width="0.4"/>
<path d="M32.1597 26.6882C32.0464 26.8043 32.0486 26.9906 32.1649 27.104C32.2813 27.2174 32.4673 27.2151 32.5807 27.0989C33.1383 26.5273 34.0578 26.5165 34.6297 27.0745C34.7461 27.1878 34.9321 27.1859 35.0455 27.0693C35.1589 26.9529 35.1566 26.7669 35.0404 26.6535C34.2359 25.8691 32.9438 25.8846 32.1596 26.6883L32.1597 26.6882Z" fill="white" stroke="white" stroke-width="0.4"/>
<path d="M36.2149 30.5985C36.0931 30.7062 36.0822 30.8921 36.1899 31.0136C36.5532 31.424 36.5149 32.0566 36.1048 32.4204C35.9833 32.5281 35.9722 32.714 36.0798 32.8355C36.1867 32.9567 36.3729 32.9688 36.4949 32.8605C37.148 32.2822 37.2094 31.277 36.6298 30.6237C36.5219 30.5013 36.3354 30.491 36.2148 30.5987L36.2149 30.5985Z" fill="white" stroke="white" stroke-width="0.4"/>
<path d="M33.6437 35.5272C33.2782 35.9123 32.6462 35.9533 32.2371 35.5634C32.12 35.4523 31.9335 35.4562 31.8213 35.5738C31.7093 35.6916 31.7139 35.8776 31.8317 35.9897C32.4613 36.5881 33.4667 36.5677 34.0705 35.9322C34.1822 35.8145 34.1774 35.6284 34.0597 35.5164C33.9416 35.4044 33.756 35.4095 33.6438 35.5272H33.6437Z" fill="white" stroke="white" stroke-width="0.4"/>
<path d="M28.8718 28.7443C27.8134 29.12 27.2577 30.2867 27.6328 31.3448C27.6872 31.4983 27.8553 31.5779 28.0082 31.5238C28.1612 31.4695 28.2414 31.3015 28.1872 31.1483C27.9203 30.3955 28.3158 29.5657 29.0689 29.2987C29.2216 29.2444 29.3018 29.0762 29.2475 28.923C29.1933 28.7699 29.0255 28.6906 28.8718 28.7443Z" fill="white" stroke="white" stroke-width="0.4"/>
<path d="M31.3243 19.0645C30.7232 19.0645 30.2344 19.5532 30.2344 20.1542C30.2344 20.7552 30.7232 21.244 31.3243 21.244C31.9254 21.244 32.4141 20.7552 32.4141 20.1542C32.4141 19.5532 31.9253 19.0645 31.3243 19.0645ZM31.3243 20.6555C31.0476 20.6555 30.8225 20.4306 30.8225 20.1541C30.8225 19.8776 31.0478 19.6526 31.3243 19.6526C31.6008 19.6526 31.8258 19.8776 31.8258 20.1541C31.8258 20.4306 31.6008 20.6555 31.3243 20.6555Z" fill="white" stroke="white" stroke-width="0.4"/>
<path d="M38 39.8419C38 40.4663 38.5078 40.9742 39.132 40.9742C39.7562 40.9742 40.264 40.4664 40.264 39.8419C40.264 39.2175 39.7562 38.71 39.132 38.71C38.5078 38.71 38 39.2178 38 39.8419ZM39.6755 39.8419C39.6755 40.1418 39.4317 40.3859 39.1318 40.3859C38.832 40.3859 38.5882 40.1418 38.5882 39.8419C38.5882 39.5421 38.832 39.2983 39.1318 39.2983C39.4317 39.2983 39.6755 39.5421 39.6755 39.8419Z" fill="white" stroke="white" stroke-width="0.4"/>
<path d="M42.9219 31.2453C42.9219 31.8694 43.4297 32.3772 44.0539 32.3772C44.6781 32.3772 45.1859 31.8694 45.1859 31.2453C45.1859 30.6211 44.6781 30.1133 44.0539 30.1133C43.4297 30.1133 42.9219 30.6211 42.9219 31.2453ZM44.5974 31.2453C44.5974 31.5451 44.3536 31.7889 44.0537 31.7889C43.7538 31.7889 43.51 31.5451 43.51 31.2453C43.51 30.9454 43.7538 30.7016 44.0537 30.7016C44.3536 30.7016 44.5974 30.9454 44.5974 31.2453Z" fill="white" stroke="white" stroke-width="0.4"/>
<path d="M34.835 20.4469C35.7854 20.4469 36.5586 19.6738 36.5586 18.7233C36.5586 17.7728 35.7854 17 34.835 17C33.8845 17 33.1113 17.7731 33.1113 18.7233C33.1113 19.6735 33.8845 20.4469 34.835 20.4469ZM34.835 17.5882C35.4611 17.5882 35.9703 18.0975 35.9703 18.7233C35.9703 19.3491 35.461 19.8586 34.835 19.8586C34.2089 19.8586 33.6996 19.3493 33.6996 18.7233C33.6996 18.0973 34.2089 17.5882 34.835 17.5882Z" fill="white" stroke="white" stroke-width="0.4"/>
<path d="M23.6595 37.5847C23.8017 37.506 23.8528 37.3267 23.7738 37.1848C23.6951 37.043 23.5158 36.991 23.3739 37.0706C18.8573 39.5795 18.7748 44.2097 19.1277 46.7461C19.1502 46.9086 19.3016 47.0199 19.4594 46.9968C19.6203 46.9743 19.7326 46.826 19.7102 46.6651C19.3782 44.2778 19.4496 39.9233 23.6595 37.5847Z" fill="white" stroke="white" stroke-width="0.4"/>
<path d="M24.8599 41.3883C25.0021 41.3096 25.0532 41.1303 24.9742 40.9884C24.8955 40.8465 24.7159 40.7948 24.5743 40.8741C22.6221 41.9586 21.7421 43.9577 22.0962 46.5033C22.1187 46.6658 22.2701 46.7771 22.4279 46.754C22.5888 46.7315 22.7011 46.5832 22.6787 46.4223C22.4943 45.0971 22.5324 42.6813 24.8599 41.3883Z" fill="white" stroke="white" stroke-width="0.4"/>
<path d="M28.3706 40.9373C28.5128 40.8586 28.5639 40.6793 28.4849 40.5374C28.4062 40.3953 28.2269 40.3436 28.085 40.4232C26.8956 41.0837 26.3588 42.2969 26.5737 43.8396C26.5941 43.9866 26.7202 44.0932 26.8647 44.0932C26.8783 44.0932 26.8917 44.0923 26.9055 44.0903C27.0664 44.0679 27.1787 43.9195 27.1563 43.7586C27.0299 42.8497 27.1379 41.6224 28.3706 40.9373Z" fill="white" stroke="white" stroke-width="0.4"/>
</svg>
