<svg width="65" height="64" viewBox="0 0 65 64" fill="none" xmlns="http://www.w3.org/2000/svg">
<circle cx="32.25" cy="32" r="32" fill="#0093D0"/>
<g clip-path="url(#clip0_79_36833)">
<path d="M30.9834 38.0156H18.793" stroke="white" stroke-linecap="round" stroke-linejoin="round"/>
<path d="M35.0479 33.9521C35.0479 36.1982 33.2305 38.0156 30.9844 38.0156" stroke="white" stroke-linecap="round" stroke-linejoin="round"/>
<path d="M37.0801 31.9209H43.1753" stroke="white" stroke-linecap="round" stroke-linejoin="round"/>
<path d="M33.0156 27.8574H43.1744" stroke="white" stroke-linecap="round" stroke-linejoin="round"/>
<path d="M46.2227 29.8892L47.2385 23.7939" stroke="white" stroke-linecap="round" stroke-linejoin="round"/>
<path d="M45.207 23.7939H47.2388" stroke="white" stroke-linecap="round" stroke-linejoin="round"/>
<path d="M43.1738 27.8574L45.2056 23.7939" stroke="white" stroke-linecap="round" stroke-linejoin="round"/>
<path d="M29.9688 25.8252V21.7617" stroke="white" stroke-linecap="round" stroke-linejoin="round"/>
<path d="M16.7617 21.7617H43.1744" stroke="white" stroke-linecap="round" stroke-linejoin="round"/>
<path d="M18.793 42.0791H33.0152" stroke="white" stroke-linecap="round" stroke-linejoin="round"/>
<path d="M22.8574 38.0156V42.0791" stroke="white" stroke-linecap="round" stroke-linejoin="round"/>
<path d="M28.9531 38.0156V42.0791" stroke="white" stroke-linecap="round" stroke-linejoin="round"/>
<path d="M35.0469 33.9526C35.0469 32.8296 35.9556 31.9209 37.0786 31.9209" stroke="white" stroke-linecap="round" stroke-linejoin="round"/>
<path d="M43.1738 31.9209L45.2056 33.9526" stroke="white" stroke-linecap="round" stroke-linejoin="round"/>
<path d="M47.2388 33.9521H45.207" stroke="white" stroke-linecap="round" stroke-linejoin="round"/>
<path d="M47.2385 33.9522L46.2227 29.8887" stroke="white" stroke-linecap="round" stroke-linejoin="round"/>
<path d="M24.8887 27.8569L26.9204 25.8252" stroke="white" stroke-linecap="round" stroke-linejoin="round"/>
<path d="M33.0156 27.8569V25.8252" stroke="white" stroke-linecap="round" stroke-linejoin="round"/>
<path d="M26.9199 25.8252H33.0152" stroke="white" stroke-linecap="round" stroke-linejoin="round"/>
<path d="M16.7617 35.9844C16.7617 31.4923 20.3966 27.8574 24.8887 27.8574" stroke="white" stroke-linecap="round" stroke-linejoin="round"/>
<path d="M24.8892 31.9209C24.8892 33.0439 23.9805 33.9526 22.8574 33.9526" stroke="white" stroke-linecap="round" stroke-linejoin="round"/>
<path d="M24.8887 27.8574V31.9209" stroke="white" stroke-linecap="round" stroke-linejoin="round"/>
<path d="M22.8569 33.9521H17.0176" stroke="white" stroke-linecap="round" stroke-linejoin="round"/>
<path d="M16.7617 35.9844C16.7617 37.1074 17.6704 38.0161 18.7935 38.0161" stroke="white" stroke-linecap="round" stroke-linejoin="round"/>
</g>
<defs>
<clipPath id="clip0_79_36833">
<rect width="32" height="21.8413" fill="white" transform="translate(16 21)"/>
</clipPath>
</defs>
</svg>
