<svg width="64" height="64" viewBox="0 0 64 64" fill="none" xmlns="http://www.w3.org/2000/svg">
<circle cx="32" cy="32" r="32" fill="#0093D0"/>
<g clip-path="url(#clip0_79_36857)">
<path d="M46.9238 47.9993H17.5457C17.3398 47.9993 17.151 47.883 17.0584 47.6984C16.9655 47.5138 16.9847 47.2931 17.1074 47.1277L31.7964 27.3368C32.0011 27.0596 32.4683 27.0596 32.6731 27.3368L47.3621 47.1277C47.4848 47.2931 47.504 47.5138 47.4111 47.6984C47.3182 47.883 47.1294 47.9993 46.9238 47.9993ZM18.6316 46.9071H45.8379L32.2347 28.5785L18.6316 46.9071Z" fill="white"/>
<path d="M28.993 39.7206H28.978C28.8298 39.7164 28.6891 39.6524 28.5887 39.5414L25.6713 36.3276C25.4686 36.1045 25.4846 35.759 25.7085 35.5564C25.9316 35.3547 26.2771 35.3718 26.4797 35.5937L29.0141 38.3852L31.8515 35.5724C32.0626 35.3613 32.4083 35.3613 32.6197 35.5724L35.4571 38.3852L37.9903 35.5937C38.1942 35.3718 38.5396 35.3547 38.7615 35.5564C38.9855 35.759 39.0014 36.1048 38.7988 36.3276L35.8813 39.5414C35.7809 39.6524 35.6402 39.7164 35.4908 39.7206C35.3489 39.7377 35.1986 39.6674 35.0931 39.5628L32.2355 36.7298L29.3767 39.5628C29.2741 39.6641 29.1368 39.7206 28.9927 39.7206H28.993Z" fill="white"/>
<path d="M32.2338 28.2081C31.9319 28.2081 31.6875 27.964 31.6875 27.6618V16.5453C31.6875 16.2434 31.9316 15.999 32.2338 15.999H40.5047C40.7266 15.999 40.9259 16.1334 41.0104 16.3381C41.0946 16.5441 41.0456 16.7798 40.8877 16.9343L37.6249 20.1386L40.842 22.6667C41.0254 22.8107 41.097 23.0548 41.0212 23.2746C40.9455 23.4952 40.7374 23.6425 40.505 23.6425H34.2853C33.9835 23.6425 33.7391 23.3984 33.7391 23.0963C33.7391 22.7941 33.9832 22.55 34.2853 22.55H38.9263L36.4623 20.6139C36.3384 20.5168 36.263 20.3707 36.2542 20.214C36.2455 20.0574 36.3045 19.9047 36.4163 19.7949L39.1693 17.091H32.78V27.6615C32.78 27.9634 32.5359 28.2078 32.2338 28.2078V28.2081Z" fill="white"/>
</g>
<defs>
<clipPath id="clip0_79_36857">
<rect width="30.4697" height="32" fill="white" transform="translate(17 16)"/>
</clipPath>
</defs>
</svg>
