<svg width="65" height="64" viewBox="0 0 65 64" fill="none" xmlns="http://www.w3.org/2000/svg">
<circle cx="32.75" cy="32" r="32" fill="#0093D0"/>
<g clip-path="url(#clip0_79_36802)">
<g clip-path="url(#clip1_79_36802)">
<path d="M35.3355 41.8128C35.9527 41.0804 36.4695 40.0914 36.8425 38.9215H39.1922C38.2479 40.2438 36.9032 41.2663 35.3355 41.8128ZM26.2304 38.9215H28.5801C28.9531 40.0914 29.4699 41.0791 30.0871 41.8128C28.5181 41.2663 27.1747 40.2438 26.2304 38.9215ZM29.7289 27.0849C29.7661 27.1432 29.8095 27.1952 29.8553 27.246C29.341 27.9401 28.906 28.82 28.5801 29.8387H26.2353C27.1066 28.6204 28.3149 27.6563 29.7277 27.0849H29.7289ZM30.506 25.7316C30.506 25.6387 30.5816 25.5618 30.6758 25.5618H35.0691C35.162 25.5618 35.2389 25.6374 35.2389 25.7316V26.474C35.2389 26.5669 35.1633 26.6437 35.0691 26.6437H30.6758C30.5828 26.6437 30.506 26.5682 30.506 26.474V25.7316ZM39.191 29.8387H36.84C36.5414 28.9018 36.151 28.0826 35.69 27.4171C35.7842 27.3551 35.8659 27.2758 35.9378 27.189C37.2478 27.769 38.3693 28.6911 39.191 29.8399V29.8387ZM37.4969 33.8999C37.4659 32.7944 37.3296 31.7509 37.1052 30.7979H39.7784C40.2655 31.7385 40.5629 32.7882 40.6311 33.8999H37.4956H37.4969ZM33.1915 37.9623V34.8603H36.5364C36.5017 35.9658 36.3505 37.0167 36.1088 37.9623H33.1915ZM33.1915 42.1883V38.9215H35.8189C35.2066 40.6652 34.2598 41.8995 33.1915 42.1883ZM32.2311 38.9215V42.1883C31.1628 41.8995 30.216 40.6664 29.6038 38.9215H32.2311ZM28.8862 34.8603H32.2311V37.9623H29.3138C29.0721 37.0167 28.9209 35.9658 28.8862 34.8603ZM32.2311 30.7979V33.8999H28.8874C28.9221 32.7944 29.0733 31.7435 29.3162 30.7979H32.2311ZM36.1076 30.7979C36.3505 31.7435 36.5017 32.7944 36.5364 33.8999H33.1928V30.7979H36.1088H36.1076ZM34.6291 27.6042C35.0951 28.173 35.5004 28.9377 35.8164 29.8387H33.1903V27.6042H34.6291ZM30.796 27.6042H32.2311V29.8387H29.6062C29.9235 28.9365 30.33 28.173 30.796 27.6042ZM25.6467 30.7979H28.3174C28.093 31.7509 27.958 32.7944 27.927 33.8999H24.7928C24.8609 32.7882 25.1596 31.7385 25.6467 30.7979ZM24.7878 34.8603H27.9245C27.9555 35.9645 28.0918 37.0093 28.3149 37.9623H25.6429C25.1571 37.0217 24.8548 35.972 24.7878 34.8603ZM39.7797 37.9623H37.1077C37.3308 37.0093 37.4684 35.9658 37.4981 34.8603H40.6348C40.5666 35.972 40.2655 37.0217 39.7797 37.9623ZM36.1993 26.2571V25.7316C36.1993 25.1083 35.6924 24.6026 35.0691 24.6026H33.3526V19.4806C33.3526 19.2154 33.1382 19.001 32.873 19.001C32.6078 19.001 32.3934 19.2154 32.3934 19.4806V24.6026H30.677C30.0536 24.6026 29.5467 25.1095 29.5467 25.7316V26.1282C26.1982 27.3985 23.8125 30.6157 23.8125 34.3807C23.8125 39.2524 27.8043 43.2157 32.7119 43.2157C37.6196 43.2157 41.6113 39.2524 41.6113 34.3807C41.6113 30.7384 39.3781 27.6067 36.2006 26.2571H36.1993Z" fill="white"/>
<path d="M24.4539 26.206C24.3399 26.3163 24.2878 26.4761 24.3151 26.6323L24.3882 27.0537L24.0016 26.8517C23.8628 26.7785 23.6967 26.7785 23.5567 26.8517L23.17 27.0537L23.2431 26.6323C23.2704 26.4761 23.2183 26.3163 23.1043 26.206L22.7994 25.911L23.2245 25.8491C23.3807 25.8268 23.5158 25.7288 23.5852 25.5876L23.7785 25.1984L23.9718 25.5876C24.0412 25.7288 24.1776 25.8268 24.3325 25.8491L24.7575 25.911L24.4527 26.206H24.4539ZM26.2521 25.4277C26.1964 25.2542 26.0452 25.1265 25.8642 25.1005L24.7204 24.9357L24.2085 23.9071C24.128 23.7435 23.9607 23.6406 23.7785 23.6406C23.5963 23.6406 23.4303 23.7435 23.3485 23.9071L22.8366 24.9357L21.6928 25.1005C21.5118 25.1265 21.3606 25.2542 21.3049 25.4277C21.2478 25.6024 21.2962 25.7933 21.4275 25.9209L22.2529 26.7203L22.0583 27.8481C22.0274 28.0278 22.1017 28.2099 22.2492 28.3177C22.3967 28.4243 22.5925 28.4392 22.7548 28.3549L23.7797 27.8208L24.8046 28.3549C24.967 28.4392 25.1616 28.4243 25.3103 28.3177C25.4577 28.2099 25.5309 28.0278 25.4999 27.8481L25.3053 26.7203L26.1307 25.9209C26.2621 25.7933 26.3104 25.6024 26.2534 25.4277H26.2521Z" fill="white"/>
<path d="M24.4539 42.3163C24.3399 42.4266 24.2878 42.5865 24.3151 42.7427L24.3882 43.164L24.0016 42.962C23.8628 42.8889 23.6967 42.8889 23.5579 42.962L23.1712 43.164L23.2444 42.7427C23.2716 42.5865 23.2196 42.4266 23.1056 42.3163L22.8007 42.0214L23.2258 41.9607C23.3819 41.9383 23.517 41.8404 23.5864 41.6992L23.7797 41.31L23.9731 41.6992C24.0437 41.8404 24.1776 41.9383 24.3337 41.9607L24.7588 42.0214L24.4539 42.3163ZM25.8642 41.2109L24.7204 41.046L24.2085 40.0174C24.128 39.8538 23.9607 39.751 23.7785 39.751C23.5963 39.751 23.4303 39.8538 23.3485 40.0174L22.8366 41.046L21.6928 41.2109C21.5118 41.2369 21.3606 41.3645 21.3049 41.5381C21.2478 41.7128 21.2962 41.9036 21.4275 42.0313L22.2529 42.8306L22.0583 43.9584C22.0274 44.1381 22.1017 44.3203 22.248 44.4281C22.3967 44.5347 22.5912 44.5508 22.7524 44.4653L23.7773 43.9311L24.8022 44.4653C24.9608 44.5483 25.1578 44.5359 25.3078 44.4281C25.4553 44.3203 25.5284 44.1381 25.4974 43.9584L25.3028 42.8306L26.1282 42.0313C26.2596 41.9036 26.3079 41.7128 26.2509 41.5381C26.1951 41.3645 26.0439 41.2369 25.863 41.2109H25.8642Z" fill="white"/>
<path d="M20.4961 35.0647C20.361 34.9941 20.195 34.9904 20.0525 35.0647L19.1874 35.5171L19.3522 34.5653C19.3795 34.4092 19.3275 34.2493 19.2134 34.139L18.5207 33.4685L19.4824 33.3297C19.6385 33.3074 19.7736 33.2095 19.843 33.0682L20.2768 32.197L20.7105 33.0682C20.7799 33.2095 20.915 33.3074 21.0712 33.3297L22.0329 33.4685L21.3401 34.139C21.2261 34.2493 21.174 34.4092 21.2013 34.5653L21.3661 35.5171L20.4998 35.0647H20.4961ZM22.2832 36.7787C22.4307 36.6709 22.5038 36.4887 22.4728 36.309L22.1865 34.6521L23.3998 33.4772C23.5312 33.3495 23.5795 33.1587 23.5225 32.984C23.4667 32.8105 23.3155 32.6828 23.1346 32.6568L21.4541 32.4139L20.7031 30.9032C20.6225 30.7396 20.4552 30.6367 20.273 30.6367C20.0909 30.6367 19.9248 30.7396 19.843 30.9032L19.092 32.4139L17.4115 32.6568C17.2306 32.6828 17.0794 32.8105 17.0236 32.984C16.9666 33.1587 17.0149 33.3495 17.1463 33.4772L18.3596 34.6521L18.0733 36.309C18.0423 36.4887 18.1167 36.6709 18.2641 36.7787C18.4104 36.8853 18.6049 36.9014 18.7698 36.8159L20.273 36.0314L21.7776 36.8159C21.9387 36.9001 22.1345 36.8853 22.282 36.7787H22.2832Z" fill="white"/>
<path d="M42.898 26.206C42.784 26.3163 42.7319 26.4761 42.7592 26.6323L42.8323 27.0537L42.4456 26.8517C42.3068 26.7785 42.1408 26.7785 42.0007 26.8517L41.6141 27.0537L41.6872 26.6323C41.7145 26.4761 41.6624 26.3163 41.5484 26.206L41.2435 25.911L41.6686 25.8491C41.8248 25.8268 41.9598 25.7288 42.0292 25.5876L42.2226 25.1984L42.4159 25.5876C42.4865 25.7288 42.6216 25.8268 42.7765 25.8491L43.2016 25.911L42.8967 26.206H42.898ZM44.6975 25.4277C44.6417 25.2542 44.4905 25.1265 44.3096 25.1005L43.1657 24.9357L42.6538 23.9071C42.5733 23.7435 42.406 23.6406 42.2238 23.6406C42.0416 23.6406 41.8756 23.7435 41.7938 23.9071L41.2819 24.9357L40.1381 25.1005C39.9571 25.1265 39.8059 25.2542 39.7502 25.4277C39.6932 25.6024 39.7415 25.7933 39.8729 25.9209L40.6982 26.7203L40.5037 27.8481C40.4727 28.0278 40.547 28.2099 40.6945 28.3177C40.8407 28.4243 41.0353 28.4404 41.2001 28.3549L42.225 27.8208L43.25 28.3549C43.4123 28.438 43.6069 28.4243 43.7556 28.3177C43.9031 28.2099 43.9774 28.0278 43.9464 27.8481L43.7519 26.7203L44.5772 25.9209C44.7086 25.7933 44.7569 25.6024 44.6999 25.4277H44.6975Z" fill="white"/>
<path d="M42.898 42.3163C42.784 42.4266 42.7319 42.5865 42.7592 42.7427L42.8323 43.164L42.4456 42.962C42.3068 42.8889 42.1408 42.8889 42.002 42.962L41.6153 43.164L41.6884 42.7427C41.7157 42.5865 41.6636 42.4266 41.5496 42.3163L41.2448 42.0214L41.6698 41.9607C41.826 41.9383 41.9611 41.8404 42.0305 41.6992L42.2238 41.31L42.4171 41.6992C42.4878 41.8404 42.6216 41.9383 42.7778 41.9607L43.2029 42.0214L42.898 42.3163ZM44.3096 41.2109L43.1657 41.046L42.6538 40.0174C42.5733 39.8538 42.406 39.751 42.2238 39.751C42.0416 39.751 41.8756 39.8538 41.7938 40.0174L41.2819 41.046L40.1381 41.2109C39.9571 41.2369 39.8059 41.3645 39.7502 41.5381C39.6932 41.7128 39.7415 41.9036 39.8729 42.0313L40.6982 42.8306L40.5037 43.9584C40.4727 44.1381 40.547 44.3203 40.6933 44.4281C40.8407 44.5347 41.0366 44.5508 41.1989 44.4653L42.2238 43.9311L43.2487 44.4653C43.4123 44.5508 43.6069 44.5334 43.7531 44.4281C43.9006 44.3203 43.9749 44.1381 43.944 43.9584L43.7494 42.8306L44.5748 42.0313C44.7061 41.9036 44.7545 41.7128 44.6975 41.5381C44.6417 41.3645 44.4905 41.2369 44.3096 41.2109Z" fill="white"/>
<path d="M46.7902 34.1377C46.6762 34.248 46.6241 34.4079 46.6514 34.5641L46.8162 35.5158L45.9512 35.0635C45.8124 34.9904 45.6463 34.9904 45.5075 35.0635L44.6413 35.5158L44.8061 34.5641C44.8334 34.4079 44.7813 34.248 44.6673 34.1377L43.9745 33.4673L44.9362 33.3285C45.0924 33.3062 45.2274 33.2083 45.2969 33.067L45.7306 32.1958L46.1631 33.067C46.2325 33.2083 46.3676 33.3062 46.5238 33.3285L47.4855 33.4673L46.7927 34.1377H46.7902ZM48.5897 32.6568L46.9092 32.4139L46.1582 30.9032C46.0776 30.7396 45.9103 30.6367 45.7281 30.6367C45.5459 30.6367 45.3799 30.7396 45.2981 30.9032L44.5471 32.4139L42.8666 32.6568C42.6856 32.6828 42.5344 32.8105 42.4787 32.984C42.4217 33.1587 42.47 33.3495 42.6014 33.4772L43.8146 34.6521L43.5284 36.309C43.4974 36.4887 43.5717 36.6709 43.718 36.7787C43.8667 36.8865 44.0613 36.9001 44.2236 36.8159L45.7281 36.0314L47.2314 36.8159C47.3925 36.9001 47.5883 36.8853 47.737 36.7787C47.8845 36.6709 47.9576 36.4887 47.9266 36.309L47.6404 34.6521L48.8549 33.4772C48.9862 33.3495 49.0346 33.1587 48.9776 32.984C48.9218 32.8092 48.7706 32.6828 48.5897 32.6568Z" fill="white"/>
</g>
</g>
<defs>
<clipPath id="clip0_79_36802">
<rect width="32" height="32" fill="white" transform="translate(16.75 16)"/>
</clipPath>
<clipPath id="clip1_79_36802">
<rect width="32" height="25.5172" fill="white" transform="translate(17 19)"/>
</clipPath>
</defs>
</svg>
