<svg width="65" height="64" viewBox="0 0 65 64" fill="none" xmlns="http://www.w3.org/2000/svg">
<circle cx="32.5" cy="32" r="32" fill="#0093D0"/>
<g clip-path="url(#clip0_79_36822)">
<g clip-path="url(#clip1_79_36822)">
<path d="M24.0209 28.0028C22.3552 28.0028 21 26.6476 21 24.9819C21 23.3161 22.3552 21.9609 24.0209 21.9609C25.6867 21.9609 27.0419 23.3161 27.0419 24.9819C27.0419 26.6476 25.6867 28.0028 24.0209 28.0028ZM24.0209 22.9577C22.9051 22.9577 21.9974 23.8654 21.9974 24.9812C21.9974 26.097 22.9051 27.0047 24.0209 27.0047C25.1367 27.0047 26.0444 26.097 26.0444 24.9812C26.0444 23.8654 25.1367 22.9577 24.0209 22.9577Z" fill="white"/>
<path d="M22.9756 34.2259C22.6259 34.2259 22.2848 34.1115 21.9988 33.8914C21.5998 33.5842 21.3711 33.1194 21.3711 32.616V28.5212C21.3711 28.2459 21.5945 28.0225 21.8698 28.0225C22.1451 28.0225 22.3685 28.2459 22.3685 28.5212V32.616C22.3685 32.8075 22.4556 32.9837 22.6073 33.1008C22.7589 33.2172 22.9517 33.2564 23.1366 33.2072L28.8047 31.7024C28.8147 31.6997 28.8247 31.6977 28.8346 31.6957C29.0042 31.6618 29.1485 31.5634 29.2416 31.4178C29.3347 31.2728 29.3646 31.0999 29.3254 30.9317C29.2469 30.5979 28.9111 30.3857 28.576 30.4589C28.572 30.4595 28.568 30.4602 28.564 30.4615L24.66 31.2156C24.39 31.2681 24.128 31.0906 24.0755 30.8206C24.023 30.55 24.2005 30.2887 24.4705 30.2361L28.3692 29.4834C29.231 29.2992 30.0941 29.8451 30.2962 30.7036C30.398 31.1371 30.3215 31.582 30.0808 31.957C29.8434 32.3268 29.4763 32.5794 29.0468 32.6705L23.3926 34.1714C23.2543 34.2079 23.1146 34.2259 22.9756 34.2259Z" fill="white"/>
<path d="M26.3055 29.131C26.0887 29.131 25.8892 28.9887 25.8261 28.7692C25.7502 28.5046 25.9032 28.2286 26.1678 28.1521L31.1451 26.7251L32.7909 22.1774C32.8793 21.9321 32.7616 21.6588 32.5222 21.5544C32.3965 21.4998 32.2576 21.4992 32.1312 21.553C32.0049 21.6069 31.9091 21.7066 31.8606 21.835L30.6317 25.1106C30.5752 25.2615 30.4489 25.3759 30.2926 25.4178L27.9978 26.0269C27.7318 26.0974 27.4585 25.9391 27.388 25.6725C27.3176 25.4065 27.4758 25.1332 27.7425 25.0627L29.7886 24.5194L30.927 21.4845C31.0699 21.1035 31.3672 20.7937 31.7416 20.6347C32.1159 20.4758 32.5455 20.4771 32.9192 20.6394C33.6407 20.9526 33.9964 21.7771 33.7285 22.5166L31.9962 27.3043C31.9417 27.4546 31.8187 27.5696 31.6644 27.6142L26.4425 29.111C26.3966 29.1243 26.35 29.1303 26.3048 29.1303L26.3055 29.131Z" fill="white"/>
<path d="M27.008 34.6392C26.75 34.6392 26.5312 34.4403 26.5113 34.1783C26.49 33.9037 26.6955 33.6637 26.9701 33.643L28.5507 33.522C28.8254 33.5007 29.0647 33.7062 29.086 33.9808C29.1073 34.2555 28.9018 34.4955 28.6272 34.5161L27.0466 34.6372C27.0333 34.6385 27.0206 34.6385 27.008 34.6385V34.6392Z" fill="white"/>
<path d="M37.2676 40.9563C36.854 40.9563 36.4484 40.8107 36.1292 40.5427L31.6886 36.8169L29.9756 37.299C29.7103 37.3735 29.435 37.2192 29.3605 36.9539C29.286 36.6886 29.4403 36.4133 29.7056 36.3388L31.6719 35.7849C31.8309 35.7403 32.0011 35.7769 32.1274 35.8826L36.7695 39.7773C36.9338 39.915 37.1413 39.9775 37.354 39.9522C37.5668 39.9276 37.7543 39.8192 37.8827 39.647C38.1274 39.3185 38.0722 38.8557 37.7563 38.5937L32.4825 34.2189L30.2469 34.3905C29.9716 34.4117 29.7322 34.2063 29.7116 33.9316C29.6903 33.657 29.8958 33.417 30.1705 33.3963L32.6075 33.2095C32.7372 33.1995 32.8649 33.2401 32.964 33.3232L38.3934 37.8263C39.1175 38.4268 39.2445 39.4881 38.6826 40.2428C38.3934 40.6311 37.9512 40.8865 37.4697 40.943C37.4019 40.951 37.3341 40.955 37.2663 40.955L37.2676 40.9563Z" fill="white"/>
<path d="M26.9488 37.9976C26.22 37.9976 25.4959 37.7981 24.8655 37.4104C23.9232 36.8319 23.2602 35.8777 23.0461 34.7931L22.8513 33.8043C22.7981 33.5343 22.9737 33.2717 23.2443 33.2185C23.5149 33.1653 23.7769 33.3408 23.8301 33.6115L24.025 34.6003C24.1879 35.4248 24.672 36.121 25.3881 36.5606C26.1043 37.0001 26.9441 37.1172 27.7527 36.8891L28.0666 36.8006C28.3319 36.7262 28.6072 36.8804 28.6817 37.1458C28.7562 37.4111 28.6019 37.6864 28.3366 37.7608L28.0227 37.8493C27.6703 37.9484 27.3092 37.9976 26.9488 37.9976Z" fill="white"/>
<path d="M35.3302 45.0589C35.1712 45.0589 35.011 45.0363 34.8534 44.9911C34.3999 44.8601 34.0302 44.5582 33.8121 44.1399L30.7286 38.2277C30.601 37.9837 30.696 37.6825 30.9401 37.5548C31.1841 37.4271 31.4854 37.5222 31.613 37.7663L34.6965 43.6784C34.7869 43.8527 34.9412 43.9783 35.1294 44.0329C35.3175 44.0874 35.515 44.0628 35.6846 43.9637C36.0064 43.7755 36.1288 43.3666 35.9619 43.0334L35.1712 41.4475C35.0482 41.2008 35.1486 40.9016 35.3953 40.7785C35.642 40.6555 35.9413 40.7559 36.0643 41.0026L36.8549 42.5886C37.2546 43.3905 36.962 44.3733 36.188 44.8255C35.922 44.9804 35.6281 45.0596 35.3302 45.0596V45.0589Z" fill="white"/>
<path d="M32.7216 21.5966C32.667 21.5966 32.6118 21.5872 32.5573 21.5686C32.2973 21.4782 32.1597 21.1936 32.2508 20.9336L33.8547 16.3327C33.9451 16.0727 34.2297 15.9351 34.4897 16.0262C34.7497 16.1166 34.8873 16.4012 34.7962 16.6612L33.1924 21.2614C33.1205 21.4669 32.9277 21.5959 32.7216 21.5959V21.5966Z" fill="white"/>
<path d="M28.9514 30.4708C28.8523 30.4708 28.7519 30.4415 28.6648 30.3797C28.4394 30.2207 28.3855 29.9102 28.5444 29.6848L30.3305 27.1499C30.4894 26.9252 30.8 26.8707 31.0254 27.0296C31.2508 27.1885 31.3047 27.4991 31.1458 27.7245L29.3597 30.2593C29.2626 30.397 29.1083 30.4708 28.9514 30.4708Z" fill="white"/>
<path d="M27.472 47.2506C27.4554 47.2506 27.4387 47.2499 27.4214 47.2479C27.1475 47.2207 26.9473 46.976 26.9753 46.702L28.4382 32.1353C28.4661 31.8613 28.7108 31.6612 28.9841 31.6891C29.2581 31.7164 29.4582 31.9611 29.4303 32.2351L27.9674 46.8017C27.9414 47.0591 27.7247 47.2506 27.472 47.2506Z" fill="white"/>
<path d="M36.5374 47.9984C36.4603 47.9984 36.3818 47.9804 36.3087 47.9425C36.064 47.8155 35.9682 47.5149 36.0952 47.2702L40.329 39.0965L38.3514 30.8749C38.3322 30.7958 38.3328 30.7133 38.3534 30.6348L39.4426 26.3771L36.9869 24.6642C36.8134 24.5431 36.7349 24.3263 36.7914 24.1222L38.7458 17.0497C38.8189 16.7843 39.0942 16.6281 39.3595 16.7019C39.6248 16.775 39.7811 17.0497 39.7073 17.3156L37.8474 24.0477L40.2971 25.7567C40.468 25.8757 40.5465 26.0878 40.4953 26.2893L39.3509 30.7619L41.3431 39.044C41.371 39.1603 41.3564 39.2834 41.3012 39.3897L36.9823 47.7284C36.8938 47.8999 36.7196 47.9977 36.5387 47.9977L36.5374 47.9984Z" fill="white"/>
<path d="M40.8566 39.6605C40.8127 39.6605 40.7689 39.6545 40.7243 39.6425C40.4583 39.5694 40.3027 39.2954 40.3752 39.0294L43.3675 28.118C43.4407 27.8527 43.7146 27.6958 43.9806 27.7689C44.2466 27.8421 44.4022 28.1161 44.3297 28.382L41.3374 39.2934C41.2769 39.5148 41.0761 39.6605 40.8566 39.6605Z" fill="white"/>
<path d="M40.0102 26.6658C39.9231 26.6658 39.8353 26.6432 39.7549 26.5953C39.5181 26.4543 39.441 26.1478 39.5826 25.9111L42.9341 20.3014C43.0757 20.0647 43.3816 19.9883 43.6183 20.1292C43.855 20.2702 43.9322 20.5767 43.7905 20.8135L40.4391 26.4231C40.346 26.5794 40.1804 26.6658 40.0102 26.6658Z" fill="white"/>
<path d="M42.2653 33.7243C42.1642 33.7243 42.0625 33.6937 41.9747 33.6306L38.5435 31.1636C38.3201 31.0026 38.2689 30.6914 38.4298 30.4673C38.5907 30.2439 38.9019 30.1927 39.126 30.3536L42.5572 32.8206C42.7806 32.9816 42.8319 33.2928 42.6709 33.5169C42.5738 33.6525 42.4209 33.7243 42.266 33.7243H42.2653Z" fill="white"/>
</g>
</g>
<defs>
<clipPath id="clip0_79_36822">
<rect width="32" height="32" fill="white" transform="translate(16.5 16)"/>
</clipPath>
<clipPath id="clip1_79_36822">
<rect width="23.3462" height="32" fill="white" transform="translate(21 16)"/>
</clipPath>
</defs>
</svg>
