<svg width="42" height="42" viewBox="0 0 42 42" fill="none" xmlns="http://www.w3.org/2000/svg">
<path d="M4.12667 0H4.27023C4.54968 0.0623438 4.73288 0.240078 4.81983 0.533203C6.01749 4.55355 7.18151 8.58703 8.43167 12.591C8.69253 13.4252 8.8648 14.1676 8.90007 14.9502C8.93343 15.6978 8.96925 16.4443 9.00753 17.1896C9.06741 18.3496 9.52351 19.0337 10.3914 19.8393C11.7198 21.0714 13.0451 22.3068 14.3675 23.5454C14.3818 23.5587 14.4001 23.5665 14.4191 23.5676C14.7237 23.5845 14.946 23.4981 15.086 23.3084C15.3551 22.9433 15.0901 22.5225 14.8531 22.205C14.1646 21.2808 13.4706 20.3629 12.7711 19.4513C12.7595 19.4359 12.7423 19.4251 12.7227 19.4209C11.979 19.2689 11.4786 18.8768 11.2216 18.2446C11.1302 18.0209 11.0695 17.6627 11.0394 17.17C10.9919 16.389 10.9416 15.6081 10.8885 14.8271C10.8352 14.0396 12.0501 13.8551 12.1214 14.8739C12.1805 15.7227 12.2363 16.5714 12.2888 17.4202C12.2997 17.6039 12.3312 17.7428 12.3831 17.8369C12.6661 18.3488 13.3962 18.3217 13.6218 17.7786C13.6644 17.6747 13.6814 17.5227 13.6726 17.3225C13.5775 15.1733 13.6144 13.2382 12.1469 11.842C11.8179 11.5287 11.2659 11.185 10.9738 10.7026C10.7862 10.3936 10.6159 9.9802 10.4628 9.4623C9.62823 6.64316 8.79343 3.82402 7.95835 1.00488C7.81316 0.514336 7.86648 0.123047 8.4128 0H8.53585C9.01655 0.100078 9.05593 0.385547 9.19866 0.867891C10.0261 3.65586 10.8538 6.44355 11.6818 9.23098C11.7857 9.58152 11.9311 9.90418 12.1182 10.1989C12.1783 10.2936 12.2273 10.2881 12.265 10.1825C12.3339 9.98895 12.408 9.79727 12.4873 9.6075C12.5294 9.50578 12.5453 9.39996 12.5349 9.29004C12.2568 6.48867 13.0878 3.7316 15.2936 1.92281C17.4682 0.140274 20.7725 -0.488086 23.3622 0.711211C24.7649 1.3609 25.6101 2.45465 25.8978 3.99246C25.9014 4.012 25.9119 4.02948 25.9273 4.04168C27.0413 4.92543 27.6601 6.0818 27.7837 7.51078C27.7847 7.52282 27.7883 7.53444 27.7943 7.54479C27.8003 7.55515 27.8084 7.56398 27.8181 7.57066C28.6926 8.18207 29.3991 8.94715 29.9378 9.8659C29.9958 9.96488 30.045 9.96078 30.0855 9.85359C30.1516 9.6775 30.2118 9.49977 30.2659 9.32039C31.153 6.38914 32.0318 3.45543 32.9024 0.519258C32.9877 0.231602 33.1712 0.0585156 33.4528 0H33.5964C34.2157 0.167344 34.1624 0.593906 34.0066 1.12055C33.1764 3.92711 32.3421 6.73258 31.5038 9.53695C31.2651 10.3359 30.9894 10.9216 30.3455 11.4229C29.2127 12.3047 28.6901 13.2866 28.5064 14.7041C28.4336 15.2652 28.3727 16.161 28.3234 17.3914C28.2816 18.4382 29.6458 18.4931 29.7106 17.4448C29.7844 16.2531 29.8448 15.3625 29.8919 14.773C29.9616 13.8994 31.165 13.9543 31.0961 15.0019C31.0414 15.8304 30.9859 16.6586 30.9296 17.4866C30.8574 18.5519 30.3061 19.1967 29.2758 19.4209C29.2568 19.4251 29.2399 19.4359 29.2282 19.4513C28.5293 20.3651 27.8304 21.2789 27.1315 22.1927C26.8214 22.598 26.5598 23.2616 27.1996 23.5184C27.4123 23.6042 27.5865 23.5837 27.7221 23.4568C28.9876 22.2783 30.2531 21.1004 31.5186 19.9229C31.9965 19.4783 32.3082 19.1425 32.4537 18.9156C32.8663 18.2733 32.9992 17.4686 33.0173 16.7344C33.0525 15.3029 33.0599 14.1963 33.4044 13.1037C33.918 11.4707 34.4173 9.83336 34.9023 8.19164C34.963 7.98547 35.0289 7.84246 35.1 7.76262C35.42 7.40414 36.018 7.5518 36.1361 8.0202C36.1651 8.13723 36.1462 8.31059 36.0795 8.54027C35.6431 10.0305 35.1919 11.5164 34.726 12.9979C34.5184 13.6582 34.3478 14.3514 34.3273 14.9502C34.2551 17.0486 34.3314 18.7121 33.0681 20.1379C33.0293 20.1816 32.632 20.5573 31.8762 21.265C30.9771 22.1066 30.0767 22.9463 29.1749 23.7841C28.4621 24.4461 28.1339 24.8243 27.2521 24.7972C27.2396 24.7967 27.2272 24.799 27.2158 24.804C27.2044 24.809 27.1944 24.8165 27.1865 24.8259C26.5122 25.62 25.7531 26.3236 24.9093 26.9366C24.8989 26.9442 24.8904 26.9542 24.8846 26.9657C24.8787 26.9773 24.8757 26.9901 24.8757 27.003V28.3779C24.8756 28.3962 24.8817 28.414 24.8928 28.4284C24.904 28.4428 24.9196 28.4531 24.9372 28.4575C28.3759 29.3401 34.0968 30.815 34.3593 35.3153C34.4594 37.0439 34.5469 38.7734 34.6218 40.5037C34.6571 41.3175 34.5086 41.9565 33.525 42H8.46448C7.21433 41.8622 7.3423 41.032 7.39234 39.9591C7.46124 38.4721 7.53698 36.9832 7.61956 35.4925C7.8796 30.7945 13.4659 29.3943 17.0622 28.4575C17.0798 28.4528 17.0955 28.4424 17.1066 28.428C17.1177 28.4136 17.1237 28.396 17.1237 28.3779V27.0014C17.1237 26.9882 17.1206 26.9753 17.1148 26.9638C17.1089 26.9522 17.1005 26.9423 17.0901 26.935C16.2446 26.3241 15.4853 25.6211 14.8121 24.8259C14.8041 24.8165 14.7942 24.8089 14.7829 24.8038C14.7717 24.7987 14.7595 24.7962 14.7473 24.7964C13.881 24.8243 13.5422 24.456 12.8507 23.8112C11.6596 22.7005 10.4644 21.5942 9.26511 20.4922C7.08226 18.4866 8.1298 15.8443 7.34968 13.28C6.09405 9.15332 4.8603 5.02031 3.64843 0.881016C3.52046 0.444609 3.67796 0.111562 4.12667 0ZM23.3532 2.11395C21.3614 0.837539 18.638 1.20504 16.7062 2.41254C15.3926 3.2334 14.505 4.41711 14.0434 5.96367C13.9187 6.38039 13.8299 6.79984 13.7768 7.22203C13.7582 7.36859 13.7965 7.38555 13.8917 7.27289C15.2851 5.62406 16.9711 4.47207 18.9497 3.81691C20.1255 3.42754 21.3765 3.21617 22.7027 3.18281C23.2594 3.16914 23.7721 3.20332 24.2407 3.28535C24.3528 3.30504 24.3816 3.26484 24.3269 3.16477C24.0835 2.72344 23.7589 2.37316 23.3532 2.11395ZM22.4656 9.04313C19.5822 8.37211 15.8801 8.82738 13.4421 10.5763C13.4278 10.5864 13.4171 10.6011 13.4118 10.6181L13.2494 11.1415C13.2453 11.1547 13.2448 11.1688 13.2478 11.1825C13.2508 11.1961 13.2573 11.2088 13.2666 11.2194C13.9518 11.9932 14.3951 12.886 14.5963 13.8977C14.6155 13.994 14.6609 14.0088 14.7325 13.942C16.7674 12.0575 19.1734 11.2345 21.9504 11.4729C21.9674 11.474 22.2474 11.5175 22.7904 11.6033C27.3391 12.3203 28.1413 4.52648 23.1604 4.4141C21.9244 4.38676 20.712 4.55547 19.5231 4.92023C17.4762 5.54805 15.8161 6.71262 14.543 8.41395C14.4506 8.53754 14.4763 8.5709 14.6201 8.51402C16.5063 7.77027 18.4709 7.44352 20.5141 7.53375C21.0743 7.55918 22.9176 7.69617 23.29 8.10223C23.5656 8.40246 23.4007 8.99719 22.9848 9.08988C22.876 9.11395 22.7029 9.09836 22.4656 9.04313ZM27.6614 9.17109C27.4585 10.0341 27.0878 10.7822 26.5491 11.4155C26.2084 11.8163 25.8078 12.1431 25.3473 12.3957C25.2598 12.4439 25.2598 12.4917 25.3473 12.5393C26.0512 12.9254 26.6907 13.3979 27.2661 13.9568C27.3388 14.0273 27.3844 14.0129 27.403 13.9133C27.6267 12.7414 28.1703 11.7444 29.0338 10.9225C29.0462 10.9105 29.0546 10.895 29.0577 10.8781C29.0607 10.8611 29.0584 10.8437 29.0511 10.8281C28.7426 10.1801 28.3245 9.61406 27.7968 9.13008C27.7863 9.12039 27.7734 9.11361 27.7595 9.11042C27.7456 9.10723 27.7311 9.10773 27.7174 9.11187C27.7037 9.11601 27.6914 9.12366 27.6815 9.13405C27.6717 9.14443 27.6648 9.1572 27.6614 9.17109ZM16.7702 25.086C18.2582 26.4649 20.3738 27.8291 22.4311 26.9456C23.7825 26.3654 24.9779 25.4795 26.0175 24.2878C26.0299 24.2737 26.037 24.2557 26.0377 24.2371C26.0385 24.2184 26.0328 24.2001 26.0216 24.1853C25.1611 23.0262 25.6353 22.178 26.4326 21.105C26.91 20.4619 27.3951 19.8212 27.8878 19.183C27.9008 19.1661 27.9066 19.1449 27.9042 19.1238C27.9017 19.1026 27.8912 19.0833 27.8747 19.0698C26.7919 18.1789 27.1176 17.092 27.1766 15.7361C27.1777 15.7165 27.1715 15.6973 27.1594 15.6819C24.0537 11.6854 17.9342 11.5984 14.8416 15.6844C14.8304 15.6998 14.8246 15.7183 14.8252 15.7369C14.8394 16.106 14.8572 16.4752 14.8785 16.8443C14.9359 17.8377 14.8925 18.4685 14.1238 19.0624C14.1068 19.0756 14.0957 19.0951 14.0929 19.1166C14.0901 19.1381 14.0959 19.1599 14.1091 19.1773C14.7194 19.9773 15.3275 20.7832 15.9334 21.5947C16.5273 22.3896 16.6315 23.3994 15.9744 24.1845C15.9617 24.1994 15.9548 24.2185 15.9551 24.2383C15.9554 24.2581 15.9628 24.2771 15.9761 24.2919C16.1757 24.5161 16.4404 24.7808 16.7702 25.086ZM19.8086 36.1774C20.1657 36.5176 20.2239 36.8438 19.9833 37.1561C19.8668 37.307 19.6642 37.3857 19.4821 37.3857C17.288 37.3857 15.094 37.3857 12.8999 37.3857C12.8782 37.3857 12.8573 37.3944 12.8419 37.4098C12.8265 37.4252 12.8179 37.446 12.8179 37.4678L12.8154 40.6875C12.8154 40.7093 12.8241 40.7301 12.8394 40.7455C12.8548 40.7609 12.8757 40.7695 12.8975 40.7695H29.1019C29.1126 40.7695 29.1233 40.7674 29.1332 40.7633C29.1431 40.7591 29.1521 40.7531 29.1596 40.7455C29.1672 40.7378 29.1731 40.7288 29.1772 40.7188C29.1812 40.7089 29.1832 40.6982 29.1831 40.6875L29.1815 37.467C29.1815 37.4452 29.1728 37.4243 29.1575 37.4089C29.1421 37.3936 29.1212 37.3849 29.0994 37.3849C26.8944 37.3866 24.69 37.3863 22.4861 37.3841C21.5034 37.3833 21.4845 36.1569 22.4984 36.1561C24.7072 36.1545 26.9163 36.1545 29.1257 36.1561C30.1043 36.1569 30.4128 36.6056 30.4128 37.5605C30.4128 38.6066 30.413 39.649 30.4136 40.6875C30.4136 40.7093 30.4222 40.7301 30.4376 40.7455C30.453 40.7609 30.4739 40.7695 30.4956 40.7695H33.3355C33.3467 40.7696 33.3578 40.7673 33.3681 40.7629C33.3784 40.7584 33.3877 40.7519 33.3954 40.7438C33.403 40.7356 33.409 40.726 33.4128 40.7155C33.4166 40.705 33.4182 40.6938 33.4176 40.6826C33.3394 39.1699 33.2612 37.6534 33.183 36.1331C33.143 35.3505 33.0777 34.8094 32.9869 34.5097C32.0673 31.4655 27.1414 30.2425 24.486 29.6166C23.8757 29.473 23.6452 29.0013 23.6452 28.4033C23.6457 28.2196 23.6455 28.0369 23.6444 27.8554C23.6442 27.8412 23.6404 27.8273 23.6333 27.815C23.6262 27.8028 23.616 27.7925 23.6039 27.7853C23.5917 27.778 23.5779 27.774 23.5637 27.7737C23.5495 27.7733 23.5355 27.7766 23.523 27.7832C22.9356 28.0976 22.3133 28.3114 21.6559 28.4246C20.6068 28.6051 19.4304 28.2893 18.469 27.7856C18.4562 27.779 18.4418 27.7759 18.4274 27.7765C18.413 27.7771 18.3989 27.7814 18.3868 27.789C18.3746 27.7967 18.3646 27.8073 18.3579 27.82C18.3512 27.8326 18.3479 27.8468 18.3484 27.8611C18.3812 28.761 18.405 29.3779 17.3977 29.6379C14.7358 30.327 9.95499 31.4377 9.01655 34.5122C8.92195 34.8217 8.85495 35.3623 8.81558 36.1339C8.73847 37.6461 8.66081 39.1623 8.58261 40.6826C8.58194 40.6936 8.58356 40.7047 8.58738 40.7152C8.5912 40.7256 8.59714 40.7351 8.60482 40.7432C8.61251 40.7513 8.62178 40.7577 8.63207 40.7621C8.64236 40.7665 8.65344 40.7687 8.66464 40.7687L11.4972 40.7704C11.5189 40.7704 11.5398 40.7617 11.5552 40.7463C11.5706 40.7309 11.5792 40.7101 11.5792 40.6883C11.588 39.6208 11.5904 38.5533 11.5866 37.4858C11.5833 36.4514 12.0238 36.1545 13.0369 36.1545C15.2753 36.1555 17.5136 36.1558 19.752 36.1553C19.7731 36.1553 19.7933 36.1632 19.8086 36.1774Z" fill="#D8242A"/>
<path d="M37.7256 0H37.8692C38.3154 0.146016 38.465 0.467578 38.3179 0.964688C37.87 2.47789 37.4208 3.99027 36.9701 5.50184C36.729 6.30984 35.5329 6.02848 35.8332 5.01457C36.2838 3.49316 36.7358 1.9723 37.1892 0.451992C37.2635 0.202617 37.4424 0.0519531 37.7256 0Z" fill="#D8242A"/>
<path d="M17.9078 17.5399C18.6469 16.7565 19.6641 18.0206 18.4976 18.6031C17.8901 18.906 17.3134 18.8721 16.7676 18.5013C15.8447 17.8738 16.8185 16.8148 17.5329 17.5449C17.5407 17.5527 17.55 17.5589 17.5603 17.5631C17.5706 17.5673 17.5816 17.5695 17.5928 17.5695L17.8496 17.5654C17.8717 17.5648 17.8926 17.5557 17.9078 17.5399Z" fill="#D8242A"/>
<path d="M23.3005 18.4772C22.5187 17.9497 23.2537 16.9063 23.9682 17.4378C24.1897 17.6027 24.3652 17.6404 24.5728 17.4616C25.2356 16.8915 26.0904 17.898 25.2577 18.4681C24.6059 18.9149 23.9534 18.9179 23.3005 18.4772Z" fill="#D8242A"/>
<path d="M21.9026 22.5121C22.4178 22.2627 22.9576 22.8549 22.686 23.3488C22.3628 23.9345 21.061 24.0214 20.4868 23.932C20.0723 23.8675 19.7343 23.7368 19.4729 23.5399C19.0594 23.2282 19.2604 22.5687 19.7542 22.4694C20.0414 22.412 20.3391 22.6441 20.5811 22.6942C21.0224 22.786 21.463 22.7253 21.9026 22.5121Z" fill="#D8242A"/>
</svg>
