<svg width="42" height="42" viewBox="0 0 42 42" fill="none" xmlns="http://www.w3.org/2000/svg">
<g id="Icon">
<g id="Layer 1">
<g id="NewGroupe16">
<g id="NewGroup0-10">
<g id="Clip path group">
<mask id="mask0_215_14006" style="mask-type:luminance" maskUnits="userSpaceOnUse" x="0" y="4" width="42" height="34">
<g id="clippath">
<path id="Vector" d="M42 4H0V37.4491H42V4Z" fill="white"/>
</g>
</mask>
<g mask="url(#mask0_215_14006)">
<g id="Group">
<path id="Vector_2" d="M1.23132 14.6346H4.76589V22.2503C4.76589 22.5902 5.04078 22.8651 5.38074 22.8651C5.72069 22.8651 5.99558 22.5902 5.99558 22.2503V14.6346H9.58708V22.2503C9.58708 22.5902 9.86197 22.8651 10.2019 22.8651C10.5419 22.8651 10.8168 22.5902 10.8168 22.2503V14.6346H14.4083V22.2503C14.4083 22.5902 14.6832 22.8651 15.0231 22.8651C15.3631 22.8651 15.638 22.5902 15.638 22.2503V14.6346H19.2295V22.2503C19.2295 22.5902 19.5044 22.8651 19.8443 22.8651C20.1843 22.8651 20.4592 22.5902 20.4592 22.2503V14.6346H23.9937V24.4169H1.68189C1.43302 24.4169 1.2297 24.2135 1.2297 23.9647V14.6346H1.23132ZM35.8157 25.6482V27.3886H6.72917L5.7272 25.6482H35.8174H35.8157ZM25.2267 7.49715C25.2267 7.49715 25.2267 7.49227 25.2267 7.49065C25.2267 7.48902 25.2267 7.48577 25.2267 7.48414V5.95841C25.2267 5.55664 25.5536 5.23132 25.9538 5.23132H27.5576V18.475C27.5576 19.5143 28.2668 20.3976 29.2817 20.6237L34.5763 21.7981C35.0399 21.9005 35.5067 21.951 35.9703 21.951C37.1463 21.951 38.3028 21.6257 39.3243 20.9929L40.5637 20.2268C40.3669 21.5053 40.0302 22.7269 39.5536 23.8492C39.4072 24.1957 39.0705 24.4185 38.6964 24.4185H36.4338C36.4338 24.4185 36.4306 24.4185 36.429 24.4185C36.4273 24.4185 36.4257 24.4185 36.4241 24.4185H25.2234V7.49715H25.2267ZM32.3836 18.2586V20.0495L29.5485 19.42C29.1012 19.3208 28.7889 18.932 28.7889 18.4733V17.3933H31.5199C31.9965 17.3933 32.3836 17.7804 32.3836 18.257V18.2586ZM28.7889 5.23132C35.3099 5.23132 34.9455 5.22807 35.0756 5.23458C35.7653 5.27036 36.4176 5.57779 36.8844 6.09016C38.2589 7.59638 39.2625 9.68816 39.8692 11.6352C39.9163 11.7897 39.9635 11.9442 40.0074 12.0988L38.3467 13.8343L36.8567 12.4078L37.3496 11.8922C37.5838 11.6466 37.5757 11.2578 37.3301 11.022C37.0845 10.7861 36.6957 10.7959 36.4599 11.0415C35.7295 11.8043 35.2659 12.2891 34.6234 12.9608C34.3892 13.2065 34.3974 13.5952 34.643 13.8311C34.8886 14.0653 35.2773 14.0572 35.5132 13.8115L36.006 13.2959L37.496 14.7224L37.117 15.1193C36.7494 15.5032 36.5461 16.0074 36.5461 16.5393V20.6855C35.9849 20.7489 35.4107 20.7213 34.8447 20.5944L33.6166 20.3228V18.2586C33.6166 17.1038 32.6764 16.1636 31.5216 16.1636H28.7905V5.23132H28.7889ZM40.7313 18.675L38.6769 19.9454C38.389 20.1243 38.0864 20.2723 37.7758 20.3895V16.5393C37.7758 16.3262 37.8571 16.1229 38.0051 15.97L40.3555 13.5139C40.7183 15.256 40.8386 16.9997 40.7329 18.6734L40.7313 18.675ZM39.3796 31.2388C39.3796 31.3608 39.3698 31.4811 39.3535 31.5982H3.63867C3.6224 31.4795 3.61264 31.3591 3.61264 31.2388C3.61264 29.7944 4.78866 28.6183 6.23307 28.6183H36.7592C38.2036 28.6183 39.3796 29.7944 39.3796 31.2388ZM30.7701 34.2138C29.9275 34.2138 29.2216 33.6217 29.0443 32.8312H32.4975C32.3202 33.6217 31.6143 34.2138 30.7717 34.2138H30.7701ZM21.4969 34.2138C20.6544 34.2138 19.9484 33.6217 19.7711 32.8312H23.2244C23.0471 33.6217 22.3411 34.2138 21.4985 34.2138H21.4969ZM12.2238 34.2138C11.3812 34.2138 10.6753 33.6217 10.498 32.8312H13.9512C13.7739 33.6217 13.068 34.2138 12.2254 34.2138H12.2238ZM23.997 10.4949H22.1492V8.53817C22.1492 8.29906 22.3427 8.1055 22.5819 8.1055H23.997V10.4949ZM1.68189 25.6482H4.30557L5.3661 27.4879C3.65981 27.8831 2.38294 29.4137 2.38294 31.2388C2.38294 32.4099 2.90508 33.503 3.81759 34.2366L6.19728 36.1559C7.23179 36.9904 8.53305 37.4491 9.8636 37.4491H25.5146C25.8545 37.4491 26.1294 37.1742 26.1294 36.8342C26.1294 36.4943 25.8545 36.2194 25.5146 36.2194H9.86197C8.81283 36.2194 7.78483 35.8566 6.96828 35.1979L4.58859 33.2785C4.42268 33.1451 4.27791 32.9938 4.15104 32.8296H9.24875C9.43906 34.3016 10.6997 35.4435 12.2238 35.4435C13.7479 35.4435 15.0085 34.3016 15.1988 32.8296H18.5219C18.7122 34.3016 19.9728 35.4435 21.4969 35.4435C23.021 35.4435 24.2816 34.3016 24.4719 32.8296H27.7951C27.9854 34.3016 29.246 35.4435 30.7701 35.4435C32.2942 35.4435 33.5548 34.3016 33.7451 32.8296H38.8428C38.7159 32.9938 38.5712 33.1451 38.4053 33.2785L36.0256 35.1979C35.209 35.8566 34.181 36.2194 33.1319 36.2194H28.3839C28.0439 36.2194 27.769 36.4943 27.769 36.8342C27.769 37.1742 28.0439 37.4491 28.3839 37.4491H33.1319C34.4608 37.4491 35.7621 36.9904 36.7982 36.1559L39.1779 34.2366C40.0888 33.5013 40.6125 32.4099 40.6125 31.2388C40.6125 29.212 39.038 27.5464 37.0487 27.4V25.6482H38.6997C39.5683 25.6482 40.3506 25.1293 40.689 24.3274C41.3949 22.6602 41.756 20.8839 41.9382 19.1045C41.9382 19.0963 41.9414 19.0866 41.9414 19.0784C42.0439 17.7902 42.0114 16.3572 41.852 15.0526C41.3412 10.7747 39.661 7.30522 37.7937 5.25898C37.0633 4.4587 36.0223 4 34.9374 4H25.9554C24.8753 4 23.997 4.87835 23.997 5.95841V6.8758H22.5819C21.6645 6.8758 20.9179 7.6224 20.9179 8.53979V10.4966H10.0458C9.70582 10.4966 9.43093 10.7715 9.43093 11.1114C9.43093 11.4514 9.70582 11.7263 10.0458 11.7263H23.9954V13.4049H1.23132V12.1785C1.23132 11.9296 1.43465 11.7263 1.68351 11.7263H7.17648C7.51644 11.7263 7.79133 11.4514 7.79133 11.1114C7.79133 10.7715 7.51644 10.4966 7.17648 10.4966H1.68189C0.754735 10.4966 0 11.2513 0 12.1785V23.9663C0 24.8935 0.754735 25.6482 1.68189 25.6482Z" fill="#E9292C"/>
</g>
</g>
</g>
</g>
</g>
</g>
</g>
</svg>
