<svg width="44" height="42" viewBox="0 0 44 42" fill="none" xmlns="http://www.w3.org/2000/svg">
<path d="M8.1875 38.1941V17.4658" stroke="#E9292C" stroke-width="1.2" stroke-linecap="round" stroke-linejoin="round"/>
<path d="M13.4336 38.1952V15.9902" stroke="#E9292C" stroke-width="1.2" stroke-linecap="round" stroke-linejoin="round"/>
<path d="M18.6836 15.4619V38.1946" stroke="#E9292C" stroke-width="1.2" stroke-linecap="round" stroke-linejoin="round"/>
<path d="M23.9258 38.1951V16.251" stroke="#E9292C" stroke-width="1.2" stroke-linecap="round" stroke-linejoin="round"/>
<path d="M29.1758 38.1944V19.0469" stroke="#E9292C" stroke-width="1.2" stroke-linecap="round" stroke-linejoin="round"/>
<path d="M34.418 38.1948V23.9248" stroke="#E9292C" stroke-width="1.2" stroke-linecap="round" stroke-linejoin="round"/>
<path d="M39.6641 38.1937V26.9883" stroke="#E9292C" stroke-width="1.2" stroke-linecap="round" stroke-linejoin="round"/>
<path d="M14.1602 15.8453C15.65 15.5904 17.1673 15.4504 18.6811 15.4672C20.0979 15.4827 21.51 15.6371 22.8885 15.9662" stroke="#E9292C" stroke-width="1.2" stroke-linecap="round" stroke-linejoin="round"/>
<path d="M23.7305 16.1914C23.7951 16.2094 23.8597 16.2297 23.9243 16.2512C24.0847 16.3003 24.245 16.3518 24.4042 16.4068C30.7931 18.605 34.1233 25.1866 40.5769 27.325C41.3966 27.5966 42.2043 27.7833 42.9977 27.8922" stroke="#E9292C" stroke-width="1.2" stroke-linecap="round" stroke-linejoin="round"/>
<path d="M13.3889 15.9873C9.04984 16.8417 4.75867 18.5757 1 20.9019" stroke="#E9292C" stroke-width="1.2" stroke-linecap="round" stroke-linejoin="round"/>
<path d="M1 38.1943H42.9999" stroke="#E9292C" stroke-width="1.2" stroke-linecap="round" stroke-linejoin="round"/>
<path d="M16.6461 4.16282L16.5719 7.93346L11.7195 7.83773L11.4981 6.58962C11.2312 5.08424 9.91731 3.98931 8.388 4.00008L8.26953 10.2849L29.2037 10.7324L29.2599 7.62592C29.2946 5.87044 28.6556 4.41053 26.3568 4.36625L24.6456 4.33275L24.5715 8.10338L19.8064 7.99808L19.3373 6.0966C19.037 4.87842 17.8966 4.05991 16.6461 4.16402V4.16282Z" stroke="#E9292C" stroke-width="1.2" stroke-linecap="round" stroke-linejoin="round"/>
<path d="M28.04 10.6946L9.3125 10.3252L9.26271 12.8496L27.9902 13.219L28.04 10.6946Z" stroke="#E9292C" stroke-width="1.2" stroke-linecap="round" stroke-linejoin="round"/>
<path d="M13.9177 12.9404C14.5842 13.127 15.0677 13.7445 15.0533 14.4685C15.0366 15.3277 14.3269 16.0086 13.4689 15.9918C12.6098 15.9751 11.9289 15.2654 11.9456 14.4075C11.96 13.6823 12.4674 13.0852 13.1411 12.9248" stroke="#E9292C" stroke-width="1.2" stroke-linecap="round" stroke-linejoin="round"/>
<path d="M24.1169 13.1406C24.7834 13.3272 25.2669 13.9447 25.2525 14.6687C25.2358 15.5279 24.5262 16.2088 23.6682 16.192C22.809 16.1753 22.1281 15.4656 22.1448 14.6076C22.1592 13.8825 22.6666 13.2854 23.3403 13.125" stroke="#E9292C" stroke-width="1.2" stroke-linecap="round" stroke-linejoin="round"/>
</svg>
