<svg width="65" height="64" viewBox="0 0 65 64" fill="none" xmlns="http://www.w3.org/2000/svg">
<circle cx="32.25" cy="32" r="32" fill="#0093D0"/>
<g clip-path="url(#clip0_72_38582)">
<path d="M33.6705 47.4656H31.4087C31.2577 47.4656 31.1148 47.3982 31.0184 47.2816C30.9227 47.165 30.8836 47.012 30.9119 46.8637L31.0683 46.0556L27.9707 42.983C27.7726 42.7862 27.7713 42.4661 27.968 42.2679C28.1648 42.0698 28.485 42.0684 28.6831 42.2652L31.9721 45.5279C32.0921 45.6465 32.1446 45.817 32.1123 45.9828L32.0206 46.4539H33.0295L32.9514 46.125L29.6948 42.3993C29.5957 42.2861 29.5525 42.1345 29.5761 41.9855C29.5997 41.8366 29.6894 41.7065 29.8194 41.6303C30.9039 40.9934 31.6068 39.6624 31.8582 39.1191C31.9755 38.8657 32.2761 38.7559 32.5295 38.8731C32.7829 38.9904 32.8927 39.291 32.7755 39.5444C32.4627 40.219 31.8238 41.3736 30.829 42.1601L33.7945 45.5528C33.8484 45.6148 33.8868 45.6883 33.9057 45.7685L34.1611 46.8415C34.1969 46.9918 34.1618 47.1508 34.0661 47.2721C33.9704 47.3934 33.8242 47.4642 33.6691 47.4642L33.6705 47.4656Z" fill="white"/>
<path d="M27.4569 47.4657H25.2436C25.1034 47.4657 24.97 47.4078 24.8743 47.3053C24.7786 47.2029 24.7301 47.0661 24.7388 46.9266L24.8022 45.9776L22.9434 41.766C22.8834 41.6298 22.8861 41.4735 22.9521 41.3394L24.5622 38.0511C24.3735 37.6406 24.0231 36.7537 23.9429 35.6929C23.8397 34.3267 24.1761 32.4167 26.3604 31.0789C26.9198 30.7358 27.5338 30.4763 28.2367 30.2836C28.5063 30.2101 28.784 30.3685 28.8574 30.6381C28.9309 30.9077 28.7725 31.1854 28.5029 31.2588C27.893 31.4253 27.3646 31.6484 26.8881 31.9409C25.493 32.7955 24.8406 34.0221 24.9484 35.5864C25.0327 36.811 25.5631 37.799 25.5685 37.8084C25.6467 37.952 25.6507 38.1259 25.5786 38.2728L23.9631 41.5726L25.7774 45.6824C25.8104 45.7572 25.8246 45.8388 25.8192 45.9203L25.7835 46.4541H26.6765L26.5147 46.0929C26.5053 46.0726 26.4979 46.0518 26.4911 46.0302L25.2793 41.9432C25.2389 41.8071 25.2578 41.6608 25.3306 41.5389C25.4034 41.4175 25.5247 41.332 25.6635 41.3036C27.4333 40.9451 28.2293 38.7992 28.2367 38.7776C28.2933 38.6219 28.4227 38.5026 28.5825 38.4602C28.8345 38.3935 31.0566 37.8044 31.4448 37.7309C31.7191 37.679 31.9833 37.8597 32.0352 38.134C32.0871 38.4083 31.9065 38.6725 31.6322 38.7244C31.3868 38.7709 30.0551 39.1166 29.0839 39.3727C28.8089 39.9935 27.9779 41.5604 26.3927 42.1448L27.4502 45.7101L27.9166 46.7527C27.9867 46.909 27.9725 47.0903 27.8795 47.2339C27.7865 47.3774 27.6268 47.4644 27.4556 47.4644L27.4569 47.4657Z" fill="white"/>
<path d="M42.4688 47.4656H40.2987C40.0196 47.4656 39.7932 47.2391 39.7932 46.9601V45.9849L38.6906 42.609L35.6031 37.7436C35.4535 37.5077 35.5236 37.1957 35.7588 37.046C35.9947 36.8964 36.3068 36.9658 36.4564 37.2017L39.5782 42.1204C39.6004 42.1561 39.6186 42.1945 39.6321 42.2343L40.7799 45.747C40.7967 45.7975 40.8048 45.8508 40.8048 45.904V46.454H41.5421L41.3528 46.1608C41.3164 46.1049 41.2921 46.0422 41.28 45.9768L40.5932 42.1911L38.6623 37.1478C38.5841 36.9443 38.6454 36.7138 38.8139 36.5763C39.0525 36.3808 39.2655 36.1753 39.465 35.9488C39.5748 35.8241 39.7386 35.7615 39.9037 35.781L42.9197 36.1382C43.0997 36.1598 43.2547 36.2757 43.3255 36.4428L44.509 39.2351C44.6047 39.4615 44.5238 39.7244 44.3169 39.8572L43.6753 40.2696C43.8613 40.5224 44.0419 40.7475 44.1706 40.8883C44.4806 40.6646 44.9908 40.2386 45.2106 40.0095C45.1122 39.5748 44.8965 38.4863 44.3762 35.628L40.9207 34.4654C40.7401 34.4048 40.6094 34.2477 40.5817 34.059C40.2643 31.8733 42.4466 29.8878 42.5403 29.8043C42.6434 29.7119 42.7795 29.6661 42.9177 29.6769C43.0559 29.6877 43.1833 29.7544 43.2702 29.8622C43.3834 30.0017 44.3816 31.2513 44.4813 32.1645C44.4827 32.1786 44.4847 32.1948 44.5467 32.2245C44.8271 32.3593 45.4316 32.2824 45.6237 32.1611C45.6641 32.1241 45.8697 31.8491 45.621 30.2585L45.6048 30.1561C45.53 29.6607 45.7403 29.3022 45.9438 28.9551C46.0523 28.7704 46.1642 28.5797 46.2532 28.3411C46.4338 27.8578 46.2073 26.9035 46.022 26.4155C45.96 26.2524 45.9863 26.0685 46.0921 25.9303L46.7661 25.0427C43.2715 22.985 39.895 25.6951 38.5679 27.0006C38.3691 27.196 38.049 27.194 37.8528 26.9945C37.6567 26.7957 37.6594 26.4755 37.8589 26.2794C38.7964 25.3567 40.3061 24.1396 42.1716 23.5795C44.178 22.9776 46.0685 23.2877 47.7892 24.5008C47.901 24.5797 47.9765 24.701 47.9974 24.8364C48.0183 24.9719 47.9833 25.1101 47.9004 25.2193L47.0599 26.3259C47.221 26.8341 47.4919 27.9124 47.2001 28.6942C47.0808 29.0144 46.9339 29.2651 46.8153 29.4659C46.6468 29.7537 46.5848 29.8744 46.6043 30.0038L46.6198 30.1015C46.8139 31.3423 46.8928 32.554 46.1642 33.015C45.6938 33.3129 44.7145 33.4275 44.1079 33.135C43.742 32.9591 43.5182 32.6531 43.4764 32.2744C43.44 31.9407 43.1307 31.4002 42.8274 30.9588C42.3381 31.5087 41.5624 32.5493 41.5624 33.6149L44.9834 34.766C45.158 34.8246 45.2867 34.9736 45.3197 35.1549C45.625 36.8371 46.1359 39.5909 46.2249 39.9151C46.2754 40.0459 46.2727 40.1921 46.2148 40.3316C46.1777 40.4213 46.0908 40.6322 45.3184 41.2738C44.9861 41.5495 44.544 41.8939 44.3216 41.968C43.8727 42.1177 43.5061 41.7045 43.0741 41.1492C42.7957 40.7906 42.5504 40.4294 42.5403 40.4139C42.4641 40.3013 42.4365 40.1625 42.4641 40.029C42.4918 39.8956 42.5713 39.779 42.6859 39.7055L43.4131 39.2378L42.5106 37.1081L40.0432 36.8162C39.9435 36.92 39.841 37.0204 39.7346 37.1182L41.5556 41.8744C41.5671 41.904 41.5752 41.9337 41.5812 41.9647L42.2586 45.6978L42.8968 46.6858C42.9972 46.8415 43.0047 47.039 42.9164 47.2021C42.8281 47.3652 42.6576 47.4656 42.4722 47.4656H42.4688ZM45.2557 40.2016C45.2624 40.2339 45.2732 40.2683 45.2887 40.3027C45.2806 40.2851 45.2712 40.2575 45.2557 40.2016Z" fill="white"/>
<path d="M18.7125 39.6948C17.9469 39.6948 17.124 39.5216 16.3072 39.1718C16.0935 39.0802 15.9695 38.8544 16.0079 38.6246C16.0457 38.3947 16.2357 38.2209 16.4682 38.2033C16.8942 38.169 18.0972 37.9203 18.5245 37.1931C18.784 36.7516 18.7429 36.1498 18.4032 35.405C17.7879 34.0557 18.3311 32.232 19.6406 31.252C20.386 30.694 21.2912 30.4581 22.2576 30.5693C23.3441 30.6947 24.4608 31.248 25.5762 32.2151C25.7872 32.3978 25.8101 32.7172 25.6275 32.9282C25.4448 33.1391 25.1254 33.1621 24.9144 32.9794C23.1783 31.4751 21.4772 31.1408 20.2465 32.0621C19.3184 32.7563 18.9046 34.0685 19.3232 34.9865C19.8091 36.0507 19.8327 36.9673 19.3939 37.71C19.1412 38.1386 18.7638 38.446 18.3661 38.6664C19.2403 38.7358 20.0302 38.5437 20.5714 38.0948C21.2467 37.5348 21.4724 36.6492 21.2251 35.5338C21.0384 34.694 21.3134 33.9338 21.9415 33.5503C22.8554 32.9929 23.9877 33.4647 24.7425 34.0928C24.9575 34.2714 24.9865 34.5902 24.8079 34.8045C24.6293 35.0195 24.3105 35.0485 24.0962 34.8699C23.3535 34.2525 22.755 34.2377 22.4679 34.4129C22.2158 34.5666 22.1201 34.9036 22.2111 35.314C22.542 36.8028 22.1882 38.0665 21.2163 38.8726C20.5579 39.4185 19.681 39.6948 18.7125 39.6948Z" fill="white"/>
<path d="M44.6894 28.5434C44.5505 28.5434 44.4124 28.4868 44.3126 28.3749L43.9716 27.9934C43.7856 27.7852 43.8031 27.4657 44.0107 27.2797C44.2189 27.0937 44.5384 27.1112 44.7244 27.3188L45.0654 27.7003C45.2515 27.9085 45.2339 28.228 45.0264 28.414C44.93 28.5003 44.8093 28.5427 44.6894 28.5427V28.5434Z" fill="white"/>
<path d="M42.8754 30.6863C42.8026 30.6863 42.7278 30.6701 42.6577 30.6364C41.3529 30.0123 41.051 28.8282 41.0389 28.7783C40.9728 28.5074 41.1393 28.2337 41.4102 28.1677C41.6805 28.1023 41.9521 28.2661 42.0202 28.535C42.031 28.5748 42.2399 29.3161 43.0938 29.7246C43.3459 29.8452 43.4524 30.1471 43.3317 30.3985C43.2448 30.5798 43.0641 30.6863 42.8754 30.6863Z" fill="white"/>
<path d="M34.8126 22.4632C33.3063 22.4632 32.0811 21.2379 32.0811 19.7316C32.0811 18.2253 33.3063 17 34.8126 17C36.319 17 37.5442 18.2253 37.5442 19.7316C37.5442 21.2379 36.319 22.4632 34.8126 22.4632ZM34.8126 18.011C33.8637 18.011 33.092 18.7826 33.092 19.7316C33.092 20.6805 33.8637 21.4522 34.8126 21.4522C35.7616 21.4522 36.5333 20.6805 36.5333 19.7316C36.5333 18.7826 35.7616 18.011 34.8126 18.011Z" fill="white"/>
<path d="M33.8183 39.0173C33.6471 39.0173 33.4752 38.9863 33.3128 38.9243C32.6408 38.6668 32.2702 37.947 32.4508 37.2501L33.4139 33.5392L30.3743 32.7231C29.4435 32.473 28.6813 31.7869 28.3362 30.8865L28.3207 30.8454C27.7809 29.4402 27.7377 27.8799 28.1987 26.4518C28.4744 25.5979 28.7898 24.6193 29.0479 23.8159C29.422 22.654 30.1431 21.6626 31.1345 20.9495L31.2956 20.8336C31.522 20.6705 31.8381 20.7217 32.0012 20.9489C32.1643 21.1753 32.1131 21.4914 31.886 21.6545L31.7249 21.7704C30.9108 22.3568 30.3177 23.1709 30.0103 24.1266C29.7515 24.93 29.4361 25.9093 29.1605 26.7632C28.7702 27.9716 28.8073 29.2932 29.2643 30.4835L29.2798 30.5246C29.5096 31.1237 30.0171 31.5807 30.6365 31.7472L34.16 32.6934C34.4282 32.7655 34.5879 33.0398 34.5178 33.3088L33.4287 37.5042C33.3775 37.7023 33.4826 37.9072 33.674 37.9807C33.7798 38.0211 33.8944 38.0157 33.9962 37.9659C34.098 37.916 34.1714 37.8284 34.2038 37.7199L35.9392 31.8577C35.9743 31.6777 35.8792 31.4971 35.7094 31.425L31.6622 29.7098C31.4055 29.6006 31.2848 29.304 31.394 29.0473C31.5032 28.7905 31.7997 28.6698 32.0565 28.779L36.1037 30.4943C36.7298 30.7598 37.0735 31.4331 36.9219 32.0963C36.9199 32.1064 36.9172 32.1165 36.9138 32.1266L35.1729 38.007C35.0617 38.3837 34.7955 38.6991 34.4437 38.873C34.2476 38.9701 34.0333 39.0186 33.8176 39.0186L33.8183 39.0173Z" fill="white"/>
<path d="M37.8905 30.3792C37.7166 30.3792 37.5428 30.3455 37.3763 30.2767L33.1188 28.5318C32.7744 28.3903 32.4927 28.1301 32.3249 27.7972L31.4076 25.9782C31.2823 25.7288 31.382 25.4248 31.6314 25.2995C31.8808 25.1741 32.1847 25.2739 32.3101 25.5232L33.2273 27.3423C33.2853 27.4575 33.383 27.5478 33.5023 27.5964L37.7591 29.3413C37.846 29.377 37.9417 29.3756 38.028 29.3379C38.1143 29.3001 38.1797 29.2307 38.212 29.1424C38.2713 28.982 38.2026 28.8007 38.0523 28.7199L35.0201 27.0929C34.5982 26.8664 34.3097 26.4661 34.2282 25.995L33.7766 23.3881C33.7288 23.1131 33.9134 22.8516 34.1884 22.8038C34.4634 22.7566 34.7249 22.9406 34.7728 23.2156L35.2243 25.8218C35.2526 25.9849 35.3524 26.1237 35.4986 26.2019L38.5308 27.8289C39.1232 28.147 39.3942 28.8627 39.161 29.4936C39.0322 29.8413 38.7741 30.115 38.4351 30.2639C38.2605 30.3407 38.0759 30.3792 37.8912 30.3792H37.8905Z" fill="white"/>
</g>
<defs>
<clipPath id="clip0_72_38582">
<rect width="32" height="30.4654" fill="white" transform="translate(16 17)"/>
</clipPath>
</defs>
</svg>
