<svg width="65" height="64" viewBox="0 0 65 64" fill="none" xmlns="http://www.w3.org/2000/svg">
<circle cx="32.75" cy="32" r="32" fill="#0093D0"/>
<g clip-path="url(#clip0_72_38551)">
<g clip-path="url(#clip1_72_38551)">
<path d="M31.4994 30.1542C31.6101 29.8912 31.797 29.6665 32.0312 29.5084C32.2661 29.3504 32.5458 29.2582 32.8511 29.2582C33.0552 29.2582 33.2472 29.2992 33.4226 29.3734C33.6856 29.4848 33.9103 29.671 34.069 29.9052C34.2271 30.1401 34.3192 30.4198 34.3192 30.7251C34.3192 30.9286 34.2783 31.1206 34.204 31.296C34.0927 31.559 33.9064 31.7836 33.6715 31.9424C33.4367 32.1004 33.157 32.1926 32.8511 32.1926C32.6475 32.1926 32.4555 32.1516 32.2802 32.0774C32.0171 31.966 31.7925 31.7798 31.6344 31.5449C31.4763 31.31 31.3842 31.0304 31.3842 30.7244C31.3842 30.5209 31.4251 30.3289 31.4994 30.1536V30.1542ZM31.5371 32.6745C31.9115 32.928 32.3666 33.0764 32.8517 33.0764C33.1749 33.0764 33.4853 33.0105 33.7669 32.8915C34.1893 32.7129 34.5477 32.4153 34.8011 32.0403C35.0546 31.6652 35.2031 31.2108 35.2031 30.7257C35.2031 30.4025 35.1371 30.0921 35.0181 29.8105C34.8395 29.3881 34.5419 29.0297 34.1669 28.7769C33.7919 28.5235 33.3375 28.375 32.8517 28.375C32.5285 28.375 32.2181 28.4409 31.9365 28.56C31.5141 28.7385 31.1563 29.0361 30.9029 29.4112C30.6495 29.7856 30.501 30.2406 30.501 30.7257C30.501 31.0489 30.5669 31.3593 30.6859 31.6409C30.8645 32.0633 31.1621 32.4217 31.5371 32.6752V32.6745Z" fill="white"/>
<path d="M23.6699 25.0169C23.6699 25.0169 23.6712 25.0163 23.6718 25.0156L23.6699 25.0169Z" fill="white"/>
<path d="M41.2195 25.4566C41.3373 25.5181 41.455 25.5802 41.5728 25.6442H41.5715C41.6099 25.6646 41.649 25.6858 41.6874 25.7069C42.1654 25.9693 42.6595 26.1421 43.1498 26.2394C43.496 26.3078 43.8397 26.3392 44.1757 26.3392C44.4304 26.3392 44.6813 26.3213 44.9245 26.288C45.0198 26.2746 45.1146 26.2592 45.208 26.2413L39.5562 32.2842L41.2195 25.4573V25.4566ZM38.4374 34.5549C38.4093 34.6138 38.369 34.6669 38.3133 34.7117L36.4579 36.1914C36.3837 36.2502 36.2934 36.2829 36.2006 36.2867C36.1994 36.2867 36.1981 36.2867 36.1968 36.2867C36.1488 36.2797 36.0534 36.2643 35.9421 36.2464C35.775 36.2189 35.569 36.1837 35.4045 36.1562C35.3226 36.1421 35.2509 36.1299 35.2003 36.121C35.1491 36.112 35.119 36.1069 35.119 36.1069C34.9898 36.0845 34.8598 36.1197 34.7594 36.2042C34.6589 36.2886 34.6019 36.4109 34.6019 36.5421C34.6019 36.5421 34.6019 36.592 34.6019 36.6803C34.6019 36.9882 34.6006 37.7587 34.5994 38.4589C34.5987 38.809 34.5981 39.1411 34.5968 39.3882C34.5968 39.5117 34.5955 39.6141 34.5955 39.687C34.5955 39.7229 34.5955 39.7517 34.5949 39.7709C34.5949 39.7779 34.5949 39.783 34.5949 39.7869C34.5949 39.7933 34.5949 39.7984 34.5942 39.8093C34.5942 39.8093 34.5936 39.8662 34.5885 39.927C34.5859 39.9578 34.5827 39.9898 34.5795 40.0141C34.5776 40.0262 34.5757 40.0371 34.5744 40.0435L34.5731 40.0506L33.624 43.0125C33.5965 43.0982 33.5965 43.1936 33.6234 43.28L34.623 46.457C34.639 46.5088 34.6467 46.5594 34.6467 46.6099C34.6467 46.7168 34.6122 46.8218 34.5501 46.9075C34.4874 46.9933 34.401 47.0592 34.2909 47.0944C34.239 47.1104 34.1885 47.1181 34.1379 47.1181C34.0694 47.1181 34.008 47.1098 33.9498 47.095C33.848 47.0688 33.7539 47.0221 33.6643 46.9562C33.5299 46.8582 33.409 46.7162 33.3162 46.5683C33.2694 46.4947 33.2304 46.4205 33.1984 46.3526C33.167 46.2848 33.1434 46.2227 33.1286 46.176L33.1261 46.1683L32.2269 43.4982L33.0602 40.4627C33.1248 40.2272 32.9866 39.9846 32.751 39.92C32.5155 39.8554 32.273 39.9936 32.2083 40.2291L31.3398 43.3946C31.3168 43.4797 31.3187 43.5686 31.3475 43.6525L32.2896 46.4493C32.3005 46.4826 32.3056 46.5139 32.3056 46.5478C32.3056 46.5926 32.2966 46.6413 32.2755 46.6944C32.2448 46.7738 32.1859 46.8602 32.1085 46.9318C32.031 47.0042 31.9363 47.0611 31.8442 47.0918C31.7898 47.1098 31.736 47.1181 31.6829 47.1181C31.5779 47.1181 31.4742 47.0848 31.3891 47.024C31.304 46.9632 31.2381 46.8787 31.2016 46.7712L30.113 43.5213C30.0957 43.4688 30.0867 43.4144 30.0867 43.36C30.0867 43.3107 30.0938 43.2614 30.1078 43.2141L31.0915 39.9366C31.1062 39.888 31.112 39.8394 31.1094 39.7894C31.1094 39.7894 31.1094 39.7818 31.1094 39.7715C31.1094 39.7331 31.1082 39.6506 31.1075 39.5398C31.1056 39.1507 31.1043 38.4006 31.1037 37.7491C31.1037 37.4234 31.103 37.1213 31.1024 36.9011C31.1024 36.791 31.1024 36.7014 31.1024 36.6394C31.1024 36.5773 31.1024 36.5427 31.1024 36.5427C31.1024 36.4115 31.0454 36.2893 30.945 36.2048C30.8445 36.1203 30.7146 36.0851 30.5853 36.1075C30.5853 36.1075 30.5686 36.1107 30.5386 36.1158C30.4342 36.1338 30.1731 36.1786 29.9331 36.2189C29.8134 36.2387 29.6982 36.2579 29.6125 36.2714C29.5696 36.2784 29.5338 36.2835 29.5101 36.2874C29.5075 36.2874 29.5056 36.2874 29.5037 36.288C29.4109 36.2842 29.3206 36.2515 29.2464 36.192L27.391 34.7123C27.3354 34.6675 27.295 34.615 27.2669 34.5555C27.2394 34.4966 27.2246 34.4314 27.2246 34.3661C27.2246 34.3174 27.2323 34.2694 27.2483 34.2227C27.2643 34.1766 27.288 34.1325 27.3206 34.0909C27.3654 34.0352 27.4179 33.9949 27.4774 33.9667C27.5363 33.9392 27.6016 33.9245 27.6669 33.9245C27.7155 33.9245 27.7635 33.9322 27.8102 33.9482C27.8563 33.9642 27.9005 33.9878 27.9421 34.0205L29.4851 35.2512C29.5997 35.3421 29.7533 35.3709 29.8928 35.3274C29.8928 35.3274 29.9242 35.3178 29.9792 35.3005C30.1718 35.2403 30.6582 35.088 31.1286 34.9421C31.3642 34.8691 31.5952 34.7974 31.7834 34.7405C31.8774 34.7117 31.9606 34.6867 32.0278 34.6662C32.0854 34.649 32.1302 34.6355 32.159 34.6278C32.175 34.6259 32.2115 34.6227 32.257 34.6195C32.3267 34.6157 32.4195 34.6118 32.5226 34.6099C32.6256 34.6074 32.7389 34.6067 32.8522 34.6067C33.0262 34.6067 33.2016 34.6093 33.3379 34.6144C33.4058 34.617 33.4646 34.6202 33.505 34.6234C33.5216 34.6246 33.535 34.6259 33.5434 34.6272C33.576 34.6362 33.6342 34.6534 33.7066 34.6752C33.9939 34.7616 34.5219 34.9248 34.9757 35.0662C35.2029 35.1366 35.4122 35.2019 35.5638 35.2499C35.64 35.2736 35.7021 35.2928 35.745 35.3062C35.7878 35.3197 35.8115 35.3274 35.8115 35.3274C35.951 35.3709 36.1046 35.3421 36.2192 35.2512L37.7629 34.0198C37.8045 33.9872 37.8486 33.9635 37.8947 33.9475C37.9408 33.9315 37.9894 33.9238 38.0381 33.9238C38.1034 33.9238 38.1686 33.9386 38.2275 33.9661C38.2864 33.9936 38.3389 34.0339 38.383 34.089C38.383 34.089 38.3843 34.0902 38.3843 34.0909C38.417 34.1325 38.4406 34.176 38.4566 34.2221C38.4726 34.2682 38.4803 34.3168 38.4803 34.3654C38.4803 34.4307 38.4656 34.496 38.4381 34.5549H38.4374ZM20.6902 26.2707C21.0794 26.3597 21.4896 26.4154 21.9088 26.4154C22.1251 26.4154 22.3434 26.4006 22.5629 26.3674C23.0275 26.2976 23.496 26.1446 23.9395 25.8829H23.9389C23.9984 25.8483 24.0554 25.815 24.1104 25.7837L24.1123 25.7824C24.2442 25.7062 24.376 25.632 24.5085 25.559L26.1366 32.2413L20.6902 26.2707ZM40.3952 25.047C40.3997 25.049 40.4042 25.0515 40.4086 25.0534L38.447 33.1053C38.3146 33.0624 38.1763 33.04 38.0374 33.04C37.8928 33.04 37.7475 33.0637 37.6074 33.1117C37.4672 33.1597 37.3328 33.2326 37.2118 33.3293L35.8518 34.4141C35.656 34.3526 35.3546 34.2586 35.0397 34.1606C34.7715 34.0774 34.4931 33.991 34.2634 33.9206C34.1482 33.8854 34.0451 33.8541 33.9606 33.8285C33.8819 33.8048 33.8218 33.7869 33.777 33.7747C33.7731 33.7734 33.7699 33.7722 33.7661 33.7709C33.743 33.7645 33.7258 33.7613 33.7098 33.7581C33.6797 33.753 33.6541 33.7498 33.6272 33.7466C33.5798 33.7414 33.5293 33.7382 33.473 33.735C33.304 33.7261 33.0794 33.7216 32.8528 33.7216C32.6691 33.7216 32.4861 33.7242 32.3338 33.7299C32.2576 33.7331 32.1885 33.7363 32.1283 33.7414C32.0982 33.744 32.0694 33.7466 32.0406 33.7504C32.0259 33.7523 32.0118 33.7542 31.9952 33.7574C31.9792 33.7606 31.9619 33.7638 31.9389 33.7702C31.8941 33.7824 31.8294 33.8016 31.7443 33.8272C31.4493 33.9162 30.9219 34.0794 30.4662 34.2208C30.2262 34.2957 30.0067 34.3642 29.8531 34.4122L28.4931 33.3274C28.3722 33.2307 28.2371 33.1578 28.0976 33.1098C27.9574 33.0618 27.8122 33.0381 27.6675 33.0381C27.5286 33.0381 27.3904 33.0605 27.2573 33.1034L25.3155 25.1322C27.8416 23.8739 30.3581 23.2582 32.8848 23.2582C35.3686 23.2582 37.8672 23.8541 40.3958 25.0451L40.3952 25.047ZM48.1597 20.8224C47.9242 20.4787 47.5997 20.1466 47.1709 19.8266C46.7414 19.5059 46.207 19.1962 45.5421 18.8941C43.6022 18.0122 41.6368 17.3248 39.6598 16.8422C39.423 16.7846 39.1837 16.9293 39.1261 17.1667C39.0685 17.4035 39.2131 17.6429 39.4506 17.7005C41.3712 18.1696 43.2842 18.8384 45.1766 19.6986C45.7277 19.9488 46.168 20.199 46.5162 20.4435C46.7773 20.6266 46.9859 20.807 47.1523 20.9811C47.4013 21.2429 47.5542 21.4899 47.649 21.728C47.743 21.9661 47.7802 22.1978 47.7802 22.4365C47.7802 22.6605 47.7462 22.8902 47.6912 23.1238C47.6368 23.3568 47.5613 23.5923 47.4838 23.8291C47.4403 23.959 47.345 24.1184 47.1965 24.281C46.9744 24.5267 46.6365 24.7789 46.2237 24.9818C45.8109 25.1853 45.3238 25.3408 44.8048 25.4125C44.5994 25.4406 44.3894 25.456 44.1757 25.456C43.8941 25.456 43.608 25.4298 43.3213 25.3728C42.9155 25.2922 42.5091 25.1501 42.1123 24.9325H42.111C42.072 24.9107 42.033 24.8896 41.9946 24.8685H41.9933C41.6995 24.7085 41.4064 24.5574 41.1126 24.4128C41.112 24.4128 41.1114 24.4122 41.1107 24.4115C40.9981 24.3558 40.8848 24.3014 40.7715 24.2483C38.143 23.0099 35.5101 22.3776 32.8835 22.3776C30.2 22.3776 27.5293 23.0381 24.8861 24.361C24.4797 24.5638 24.0746 24.7827 23.6694 25.017C23.6074 25.0522 23.5485 25.0874 23.4909 25.1206H23.4902C23.1504 25.3216 22.7958 25.4381 22.4304 25.4938C22.2582 25.5194 22.0835 25.5315 21.9082 25.5315C21.5651 25.5315 21.2182 25.4854 20.8803 25.408H20.879C20.799 25.3894 20.7203 25.3702 20.6422 25.3485C19.8275 25.1264 19.1466 24.7174 18.6698 24.2099C18.431 23.9565 18.2429 23.6787 18.1104 23.3882C17.9779 23.097 17.9011 22.7923 17.8851 22.4787C17.8832 22.4435 17.8826 22.4096 17.8826 22.3763C17.8826 22.2822 17.8896 22.1946 17.9043 22.1107C17.9306 21.9642 17.9786 21.8291 18.0637 21.6832C18.1277 21.5738 18.2141 21.4592 18.3306 21.3357C18.5046 21.1514 18.7472 20.9491 19.0736 20.7283C19.4 20.5075 19.8096 20.2675 20.3139 20.0045C24.3683 17.8918 28.5712 16.8838 32.8029 16.8832C33.1651 16.8832 33.528 16.8909 33.8909 16.9056C34.1347 16.9158 34.3402 16.7258 34.3504 16.4819C34.36 16.2381 34.1706 16.0326 33.9267 16.0224C33.5523 16.0077 33.1773 16 32.8029 16C28.4304 16 24.0797 17.0445 19.9069 19.2211C19.3731 19.4995 18.9302 19.7581 18.5622 20.0083C18.2864 20.1958 18.0522 20.3795 17.8538 20.5658C17.7053 20.7053 17.5766 20.8461 17.4672 20.9907C17.3034 21.2077 17.183 21.4349 17.1069 21.6691C17.0314 21.9027 17 22.1408 17 22.3763C17 22.4256 17.0013 22.4749 17.0038 22.5242C17.0256 22.953 17.1312 23.3677 17.3072 23.7542C17.5709 24.3334 17.9894 24.8474 18.5194 25.2653C18.5789 25.312 18.6397 25.3574 18.7018 25.4016L26.4349 33.879C26.4272 33.8982 26.4189 33.9168 26.4125 33.936C26.3645 34.0762 26.3408 34.2214 26.3408 34.3661C26.3408 34.5606 26.383 34.7539 26.4669 34.9318C26.5507 35.1098 26.6762 35.273 26.8394 35.4029L28.6947 36.8826C28.9309 37.0707 29.2221 37.1718 29.5203 37.1718C29.5376 37.1718 29.5466 37.1712 29.5542 37.1706C29.5683 37.1693 29.5766 37.1686 29.585 37.1674C29.6003 37.1654 29.615 37.1635 29.6317 37.161C29.6938 37.152 29.7898 37.1366 29.9037 37.1181C30.001 37.1021 30.1104 37.0835 30.2166 37.0656C30.2166 37.3651 30.2173 37.7594 30.2179 38.1549C30.2186 38.56 30.2192 38.9664 30.2205 39.2755C30.2205 39.4304 30.2218 39.5603 30.2224 39.6544C30.2224 39.6909 30.2224 39.7222 30.223 39.7472L29.2592 42.9587C29.2202 43.0893 29.2003 43.2237 29.2003 43.3587C29.2003 43.5078 29.2246 43.6576 29.2726 43.801L30.3613 47.0509C30.4579 47.3408 30.6435 47.5802 30.8758 47.744C31.1082 47.9085 31.3885 48 31.6803 48.0006C31.8275 48.0006 31.9766 47.977 32.1226 47.9283C32.2704 47.879 32.4074 47.808 32.5315 47.7203C32.6538 47.6339 32.7638 47.5322 32.8586 47.4163C32.9795 47.545 33.1222 47.6666 33.2906 47.7664C33.4083 47.8362 33.5395 47.895 33.6816 47.936C33.8237 47.977 33.9766 48 34.1366 48C34.2755 48 34.4163 47.9789 34.5546 47.9354C34.8502 47.8426 35.096 47.6576 35.2643 47.4234C35.4333 47.1891 35.528 46.905 35.528 46.6086C35.528 46.4698 35.5069 46.329 35.4634 46.1907L34.5059 43.1475L35.4122 40.3181C35.423 40.2829 35.4307 40.2515 35.4371 40.2221C35.448 40.1702 35.4544 40.1216 35.4595 40.0762C35.4672 40.0083 35.4704 39.9462 35.473 39.8995C35.4742 39.8662 35.4749 39.8406 35.4755 39.8278C35.4755 39.8234 35.4755 39.8202 35.4755 39.8163C35.4755 39.7971 35.4762 39.7741 35.4768 39.7395C35.4781 39.6122 35.4794 39.3504 35.48 39.0272C35.4819 38.4186 35.4826 37.5942 35.4832 37.0656C35.4947 37.0675 35.5069 37.0694 35.5184 37.0714C35.6579 37.095 35.7994 37.1187 35.9107 37.1366C35.9664 37.1456 36.0144 37.1533 36.0522 37.159C36.0714 37.1616 36.0874 37.1642 36.1034 37.1661C36.111 37.1674 36.1194 37.168 36.129 37.1693C36.1341 37.1693 36.1392 37.1706 36.1469 37.1706C36.1546 37.1706 36.1635 37.1718 36.1808 37.1718C36.479 37.1718 36.7702 37.0707 37.0064 36.8832L38.8618 35.4029C39.025 35.273 39.1504 35.1098 39.2342 34.9318C39.3181 34.7539 39.3603 34.5606 39.3603 34.3661C39.3603 34.2214 39.3366 34.0762 39.2886 33.936C39.2822 33.9181 39.2746 33.9008 39.2682 33.8829L47.1267 25.481C47.4051 25.2986 47.649 25.0957 47.8493 24.8749C48.0592 24.6426 48.2237 24.3904 48.3184 24.1139L48.3197 24.1094C48.399 23.8669 48.4835 23.6058 48.5494 23.3267C48.6147 23.0477 48.6621 22.7501 48.6621 22.4371C48.6621 22.1414 48.6192 21.831 48.5117 21.52C48.431 21.2864 48.3146 21.0528 48.1578 20.8237L48.1597 20.8224Z" fill="white"/>
<path d="M36.624 16.697C36.624 16.9408 36.8218 17.1386 37.0656 17.1386C37.3095 17.1386 37.5072 16.9408 37.5072 16.697C37.5072 16.4531 37.3095 16.2554 37.0656 16.2554C36.8218 16.2554 36.624 16.4531 36.624 16.697Z" fill="white"/>
</g>
</g>
<defs>
<clipPath id="clip0_72_38551">
<rect width="32" height="32" fill="white" transform="translate(16.75 16)"/>
</clipPath>
<clipPath id="clip1_72_38551">
<rect width="31.664" height="32" fill="white" transform="translate(17 16)"/>
</clipPath>
</defs>
</svg>
