<svg width="65" height="64" viewBox="0 0 65 64" fill="none" xmlns="http://www.w3.org/2000/svg">
<circle cx="32.25" cy="32" r="32" fill="#0093D0"/>
<g clip-path="url(#clip0_79_36312)">
<path d="M47.4647 44.2699H16.5314C16.2372 44.2699 15.998 44.0314 15.998 43.7365C15.998 43.4416 16.2366 43.2031 16.5314 43.2031H47.4647C47.7589 43.2031 47.998 43.4416 47.998 43.7365C47.998 44.0314 47.7595 44.2699 47.4647 44.2699Z" fill="white"/>
<path d="M17.1755 44.2701C17.0982 44.2701 17.0191 44.2533 16.9447 44.2173C16.6793 44.0897 16.5678 43.7709 16.6954 43.5054L25.3175 25.5882C25.6303 24.9362 26.2638 24.552 26.9979 24.5928C27.7207 24.6305 28.3206 25.0782 28.5639 25.7596L30.4541 31.0538L30.7166 30.889C31.0126 30.7026 31.3758 30.6457 31.7144 30.732C32.0554 30.8189 32.3382 31.0364 32.5102 31.3439C38.9772 42.9067 39.051 43.4796 39.0755 43.6684C39.1127 43.9602 38.9071 44.2281 38.6147 44.2659C38.3282 44.303 38.0711 44.1095 38.0214 43.8308C37.8536 43.2585 35.3293 38.5708 31.5789 31.8646C31.5424 31.8005 31.489 31.7754 31.4501 31.7652C31.4177 31.7568 31.3524 31.749 31.2841 31.7921L30.4589 32.3105C30.3222 32.3968 30.1538 32.416 30.0004 32.3627C29.8476 32.3099 29.7271 32.1901 29.6726 32.0384L27.5595 26.1186C27.415 25.7141 27.0495 25.6643 26.9416 25.6583C26.8343 25.6523 26.4652 25.6649 26.2788 26.0509L17.6567 43.968C17.565 44.1592 17.3744 44.2701 17.1755 44.2701Z" fill="white"/>
<path d="M36.7507 40.6861C36.6212 40.6861 36.4918 40.6394 36.3893 40.5453L30.9555 35.5436C30.8075 35.4075 30.6109 35.3488 30.4107 35.3812C30.2124 35.4141 30.0439 35.534 29.9475 35.7108L29.1318 37.2126C28.8262 37.7736 28.2634 38.1086 27.6252 38.1086C26.9875 38.1086 26.4242 37.773 26.1192 37.2126L25.536 36.1405C25.4438 35.9703 25.2819 35.8516 25.092 35.8139C24.9032 35.7767 24.7066 35.8258 24.5568 35.9481C23.9989 36.4054 23.2348 36.4659 22.6091 36.1033C21.9852 35.7401 21.6598 35.0456 21.7809 34.3342L22.0817 32.5633C22.1308 32.2732 22.4071 32.0784 22.6966 32.1264C22.9866 32.1761 23.1826 32.4512 23.1329 32.7413L22.832 34.5122C22.7625 34.9233 23.0544 35.1277 23.1455 35.1804C23.2365 35.2337 23.559 35.3854 23.8814 35.1217C24.2781 34.7975 24.7929 34.6674 25.2969 34.7663C25.7997 34.8652 26.2288 35.1798 26.4733 35.6299L27.0565 36.702C27.1709 36.9142 27.3843 37.0406 27.6246 37.0406C27.8655 37.0406 28.0783 36.9142 28.1939 36.702L29.0096 35.2002C29.2643 34.7327 29.7107 34.4145 30.2357 34.3276C30.7601 34.2407 31.2857 34.3971 31.677 34.7573L37.1108 39.759C37.3272 39.9586 37.3416 40.296 37.1426 40.5123C37.0371 40.6268 36.8939 40.6849 36.7501 40.6849L36.7507 40.6861Z" fill="white"/>
<path d="M46.874 44.27C46.666 44.27 46.4682 44.1477 46.3825 43.944C45.9301 42.8718 41.6439 33.8494 40.1774 30.7733C40.1337 30.6804 40.0534 30.6594 40.0102 30.6546C39.9629 30.6498 39.882 30.6552 39.8191 30.7391L39.4421 31.2413C39.3264 31.3965 39.1347 31.4768 38.9423 31.4499C38.7499 31.4235 38.5875 31.2946 38.518 31.1131L34.8743 21.6496C34.7017 21.2043 34.3019 21.0623 33.9915 21.0665C33.6799 21.076 33.2969 21.2474 33.1537 21.6993L30.2789 30.8685C30.1908 31.149 29.8929 31.306 29.6101 31.2179C29.329 31.1298 29.1732 30.8308 29.2607 30.5497L32.1361 21.3787C32.3932 20.5684 33.1081 20.0279 33.9585 20.0009C34.8018 19.9841 35.5611 20.4714 35.8691 21.266L39.1826 29.8725C39.4421 29.6604 39.7693 29.5597 40.1181 29.5932C40.5646 29.6388 40.9475 29.9079 41.1405 30.3136C42.6094 33.3958 46.9051 42.4379 47.3654 43.5281C47.4799 43.7995 47.3528 44.1124 47.0819 44.2268C47.0142 44.2556 46.9441 44.2688 46.874 44.2688V44.27Z" fill="white"/>
<path d="M43.5041 37.0718C43.4028 37.0718 43.3009 37.043 43.2104 36.9831L38.1572 33.636C38.0763 33.5827 38.0002 33.6007 37.9624 33.6163C37.9318 33.6288 37.8821 33.6564 37.8527 33.7151L37.8755 34.1628C37.9157 34.9413 37.4782 35.6407 36.7602 35.9451C36.0405 36.249 35.2344 36.0758 34.704 35.5046L32.0114 32.6046C31.8112 32.3889 31.8238 32.0515 32.0396 31.8507C32.2547 31.6512 32.5921 31.6626 32.7935 31.8789L35.4861 34.7789C35.8247 35.1439 36.2292 35.012 36.3449 34.9629C36.4606 34.9137 36.8363 34.7154 36.8106 34.2185L36.7824 33.6732C36.78 33.6234 36.7842 33.5737 36.795 33.5258C36.8891 33.1176 37.1779 32.7808 37.5669 32.6262C37.9546 32.471 38.3963 32.516 38.7457 32.7479L43.7989 36.0949C44.0447 36.2574 44.1118 36.5882 43.9494 36.8339C43.8463 36.9891 43.6773 37.073 43.5041 37.073V37.0718Z" fill="white"/>
</g>
<defs>
<clipPath id="clip0_79_36312">
<rect width="32" height="24.2697" fill="white" transform="translate(16 20)"/>
</clipPath>
</defs>
</svg>
