<svg width="64" height="64" viewBox="0 0 64 64" fill="none" xmlns="http://www.w3.org/2000/svg">
<circle cx="32" cy="32" r="32" fill="#0093D0"/>
<g clip-path="url(#clip0_79_36262)">
<path d="M46.0496 33.0708H16.7988V36.5894H46.0496V33.0708Z" stroke="white" stroke-width="1.06248" stroke-linecap="round" stroke-linejoin="round"/>
<path d="M16.7988 47.071V36.5898" stroke="white" stroke-width="1.06248" stroke-linecap="round" stroke-linejoin="round"/>
<path d="M46.0488 47.0715V36.5903" stroke="white" stroke-width="1.06248" stroke-linecap="round" stroke-linejoin="round"/>
<path d="M21.252 47.0581H24.7325" stroke="white" stroke-width="1.06248" stroke-linecap="round" stroke-linejoin="round"/>
<path d="M22.9902 41.0806V47.059" stroke="white" stroke-width="1.06248" stroke-linecap="round" stroke-linejoin="round"/>
<path d="M21.2926 38.5361H24.6898C25.3657 38.5361 25.9152 39.0857 25.9152 39.7616V41.0692H20.0684V39.7616C20.0684 39.0857 20.6179 38.5361 21.2938 38.5361H21.2926Z" stroke="white" stroke-width="1.06248" stroke-linecap="round" stroke-linejoin="round"/>
<path d="M29.7109 47.0581H33.1915" stroke="white" stroke-width="1.06248" stroke-linecap="round" stroke-linejoin="round"/>
<path d="M31.4492 41.0806V47.059" stroke="white" stroke-width="1.06248" stroke-linecap="round" stroke-linejoin="round"/>
<path d="M29.7515 38.5361H33.1487C33.8246 38.5361 34.3742 39.0857 34.3742 39.7616V41.0692H28.5273V39.7616C28.5273 39.0857 29.0769 38.5361 29.7528 38.5361H29.7515Z" stroke="white" stroke-width="1.06248" stroke-linecap="round" stroke-linejoin="round"/>
<path d="M38.1699 47.0581H41.6505" stroke="white" stroke-width="1.06248" stroke-linecap="round" stroke-linejoin="round"/>
<path d="M39.9082 41.0806V47.059" stroke="white" stroke-width="1.06248" stroke-linecap="round" stroke-linejoin="round"/>
<path d="M38.2105 38.5361H41.6077C42.2836 38.5361 42.8332 39.0857 42.8332 39.7616V41.0692H36.9863V39.7616C36.9863 39.0857 37.5359 38.5361 38.2118 38.5361H38.2105Z" stroke="white" stroke-width="1.06248" stroke-linecap="round" stroke-linejoin="round"/>
<path d="M37.293 31.9212V29.4058H40.9631V31.9212" stroke="white" stroke-width="1.06248" stroke-linecap="round" stroke-linejoin="round"/>
<path d="M37.5996 27.7012L38.6672 29.4042" stroke="white" stroke-width="1.06248" stroke-linecap="round" stroke-linejoin="round"/>
<path d="M16.7988 17.5996H46.0496" stroke="white" stroke-width="1.06248" stroke-linecap="round" stroke-linejoin="round"/>
<path d="M19.4143 21.4527L20.0397 22.5342H17.1074L18.5729 19.9947V17.6006" stroke="white" stroke-width="1.06248" stroke-linecap="round" stroke-linejoin="round"/>
<path d="M22.8722 21.4527L22.248 22.5342H25.1803L23.7148 19.9947V17.6006" stroke="white" stroke-width="1.06248" stroke-linecap="round" stroke-linejoin="round"/>
<path d="M29.6956 21.4527L30.3209 22.5342H27.3887L28.8542 19.9947V17.6006" stroke="white" stroke-width="1.06248" stroke-linecap="round" stroke-linejoin="round"/>
<path d="M33.1495 21.4527L32.5254 22.5342H35.4577L33.9922 19.9947V17.6006" stroke="white" stroke-width="1.06248" stroke-linecap="round" stroke-linejoin="round"/>
<path d="M39.9742 21.4527L40.5983 22.5342H37.666L39.1315 19.9947V17.6006" stroke="white" stroke-width="1.06248" stroke-linecap="round" stroke-linejoin="round"/>
<path d="M43.4307 21.4527L42.8066 22.5342H45.7389L44.2734 19.9947V17.6006" stroke="white" stroke-width="1.06248" stroke-linecap="round" stroke-linejoin="round"/>
<path d="M32.8203 26.769V27.5662C32.8203 28.016 32.6864 28.4557 32.4375 28.8296C32.1873 29.2036 32.0547 29.6433 32.0547 30.093V33.0721" stroke="white" stroke-width="1.06248" stroke-linecap="round" stroke-linejoin="round"/>
<path d="M35.0573 26.769H32.3184" stroke="white" stroke-width="1.06248" stroke-linecap="round" stroke-linejoin="round"/>
<path d="M35.3144 33.0721V30.093C35.3144 29.6433 35.1805 29.2036 34.9316 28.8296C34.6815 28.4557 34.5488 28.016 34.5488 27.5662V26.769" stroke="white" stroke-width="1.06248" stroke-linecap="round" stroke-linejoin="round"/>
</g>
<defs>
<clipPath id="clip0_79_36262">
<rect width="32" height="32" fill="white" transform="translate(16 16)"/>
</clipPath>
</defs>
</svg>
