<svg width="64" height="64" viewBox="0 0 64 64" fill="none" xmlns="http://www.w3.org/2000/svg">
<circle cx="32" cy="32" r="32" fill="#0093D0"/>
<g clip-path="url(#clip0_79_36336)">
<path d="M39.4065 35.4156C37.2878 35.4156 35.5645 33.6923 35.5645 31.5735C35.5645 31.381 35.579 31.1872 35.6075 30.9982C35.6506 30.7132 35.9161 30.5173 36.2003 30.5604C36.4852 30.6035 36.6812 30.8689 36.6381 31.1531C36.6172 31.2914 36.6068 31.4325 36.6068 31.5735C36.6068 33.1176 37.8625 34.3733 39.4065 34.3733C40.9506 34.3733 42.2063 33.1176 42.2063 31.5735C42.2063 30.0295 40.9506 28.7738 39.4065 28.7738C39.1189 28.7738 38.8854 28.5403 38.8854 28.2526C38.8854 27.9649 39.1189 27.7314 39.4065 27.7314C41.5253 27.7314 43.2486 29.4548 43.2486 31.5735C43.2486 33.6923 41.5253 35.4156 39.4065 35.4156Z" fill="white"/>
<path d="M45.711 46.3492C45.0321 46.3492 44.3741 46.0462 43.9335 45.5042L41.0386 41.9421C40.4319 41.1958 40.5375 40.0847 41.2741 39.4662C42.0142 38.8443 43.0975 38.9228 43.7403 39.6455L45.3344 41.4376C45.5255 41.653 45.5061 41.9824 45.2913 42.1735C45.0766 42.3646 44.7472 42.3459 44.5554 42.1304L42.962 40.3383C42.6973 40.0402 42.2505 40.0075 41.9454 40.2646C41.6417 40.5197 41.598 40.9776 41.8481 41.2854L44.7431 44.8475C45.0516 45.2269 45.5568 45.3909 46.0293 45.2658C46.6832 45.0921 47.0758 44.4403 46.9236 43.7815L45.6582 38.3016C45.5797 37.9617 45.4136 37.6678 45.1767 37.4503L45.1669 37.4413C44.9967 37.287 44.7903 37.1703 44.552 37.0945L42.1434 36.3287C41.869 36.2412 41.7175 35.9486 41.805 35.6741C41.8926 35.3997 42.1851 35.2482 42.4596 35.335L44.8681 36.1008C45.2496 36.2224 45.586 36.4135 45.8674 36.6692L45.8806 36.6817C46.2732 37.0424 46.547 37.5212 46.6728 38.0667L47.9382 43.5466C48.2175 44.7564 47.4962 45.9545 46.2962 46.2727C46.1023 46.3241 45.9056 46.3492 45.711 46.3492Z" fill="white"/>
<path d="M33.7463 46.3489C33.5518 46.3489 33.3551 46.3239 33.1612 46.2725C31.9612 45.9535 31.2392 44.7562 31.5192 43.5464L32.7846 38.0664C32.9104 37.521 33.1842 37.0429 33.5761 36.6822L33.5893 36.6704C33.8721 36.4133 34.2084 36.2222 34.5899 36.1006L36.9985 35.3348C37.2729 35.2473 37.5655 35.3994 37.6531 35.6739C37.7399 35.9484 37.5884 36.241 37.3146 36.3285L34.9061 37.0943C34.6685 37.17 34.4614 37.2868 34.2918 37.441L34.2814 37.4508C34.0458 37.6676 33.8798 37.9615 33.8012 38.3013L32.5358 43.7813C32.3836 44.44 32.7763 45.0919 33.4302 45.2656C33.9034 45.3914 34.4079 45.2267 34.7164 44.8473L37.6114 41.2852C37.8615 40.9774 37.8177 40.5194 37.5141 40.2644C37.209 40.008 36.7622 40.0407 36.4974 40.3381L34.904 42.1302C34.7129 42.3456 34.3836 42.3644 34.1681 42.1733C33.9527 41.9822 33.934 41.6528 34.1251 41.4374L35.7185 39.6453C36.3612 38.9226 37.4446 38.844 38.1846 39.466C38.9212 40.0851 39.0269 41.1956 38.4195 41.9419L35.5246 45.5039C35.084 46.0459 34.426 46.3489 33.747 46.3489H33.7463Z" fill="white"/>
<path d="M36.6124 40.1686C36.3615 40.1686 36.1405 39.9872 36.0988 39.7322L35.5714 36.5308C35.5249 36.2466 35.7166 35.9783 36.0009 35.9318C36.2851 35.8852 36.5533 36.077 36.5999 36.3612L37.1273 39.5626C37.1738 39.8468 36.9821 40.115 36.6978 40.1616C36.6694 40.1665 36.6409 40.1686 36.6124 40.1686Z" fill="white"/>
<path d="M42.072 39.7404C42.0345 39.7404 41.9963 39.7362 41.9587 39.7279C41.678 39.6653 41.5008 39.3874 41.5633 39.106L42.2207 36.1492C42.2833 35.8684 42.5619 35.6912 42.8426 35.7538C43.1234 35.8163 43.3006 36.0943 43.238 36.3757L42.5807 39.3325C42.5265 39.5757 42.311 39.7411 42.0727 39.7411L42.072 39.7404Z" fill="white"/>
<path d="M35.7052 47.7074C35.6566 47.7074 35.6073 47.7004 35.5579 47.6859C35.282 47.6046 35.1236 47.3148 35.2049 47.0389L36.462 42.7625C36.5433 42.4866 36.8331 42.3282 37.1089 42.4095C37.3848 42.4908 37.5432 42.7806 37.4619 43.0565L36.2049 47.3328C36.1382 47.5601 35.9304 47.7074 35.7052 47.7074Z" fill="white"/>
<path d="M43.057 47.7075C42.8311 47.7075 42.6226 47.5595 42.5566 47.3309L40.9445 41.7585C40.8646 41.4819 41.0237 41.1928 41.3003 41.1129C41.5768 41.033 41.8659 41.1921 41.9458 41.4687L43.558 47.0411C43.6379 47.3177 43.4788 47.6067 43.2022 47.6867C43.1536 47.7006 43.1049 47.7075 43.057 47.7075Z" fill="white"/>
<path d="M38.7831 31.7764C37.8221 31.7764 37.041 30.9947 37.041 30.0343C37.041 29.074 37.8228 28.2915 38.7831 28.2915C39.7435 28.2915 40.5252 29.0733 40.5252 30.0343C40.5252 30.9953 39.7435 31.7764 38.7831 31.7764ZM38.7831 29.3338C38.3968 29.3338 38.0834 29.6479 38.0834 30.0343C38.0834 30.4207 38.3975 30.7341 38.7831 30.7341C39.1688 30.7341 39.4829 30.42 39.4829 30.0343C39.4829 29.6486 39.1688 29.3338 38.7831 29.3338Z" fill="white"/>
<path d="M42.3992 31.0738C42.377 31.0738 42.3541 31.0724 42.3318 31.0696L39.9365 30.759C39.6509 30.7222 39.4494 30.4609 39.4869 30.1753C39.5237 29.8897 39.785 29.6882 40.0706 29.7257L42.4659 30.0363C42.7515 30.0731 42.9531 30.3344 42.9155 30.62C42.8815 30.8827 42.657 31.0745 42.3992 31.0745V31.0738Z" fill="white"/>
<path d="M36.1523 31.4305C35.9522 31.4305 35.7618 31.3144 35.6756 31.1199C35.5589 30.8565 35.6784 30.5487 35.9418 30.4326L37.1697 29.8892C37.433 29.7732 37.7409 29.892 37.8569 30.1553C37.9737 30.4187 37.8541 30.7265 37.5908 30.8426L36.3629 31.386C36.2941 31.4166 36.2225 31.4305 36.1523 31.4305Z" fill="white"/>
<path d="M37.9203 25.9025C37.675 25.9025 37.4561 25.728 37.4089 25.4786L37.0072 23.3598C36.9537 23.077 37.1393 22.8046 37.4221 22.7504C37.7049 22.6969 37.9773 22.8824 38.0315 23.1653L38.4332 25.284C38.4867 25.5668 38.3011 25.8392 38.0183 25.8934C37.9857 25.8997 37.953 25.9025 37.921 25.9025H37.9203Z" fill="white"/>
<path d="M38.2484 27.6357C38.0031 27.6357 37.7843 27.4613 37.737 27.2118L37.6967 26.9985C37.6432 26.7157 37.8287 26.4433 38.1115 26.3891C38.3944 26.3356 38.6668 26.5211 38.721 26.8039L38.7613 27.0173C38.8148 27.3001 38.6292 27.5725 38.3464 27.6267C38.3138 27.6329 38.2811 27.6357 38.2484 27.6357Z" fill="white"/>
<path d="M29.8488 30.0745C29.8412 30.0745 29.8335 30.0745 29.8266 30.0745L29.6452 30.0668C29.3575 30.0543 29.1345 29.8118 29.147 29.5241C29.1595 29.2364 29.402 29.0134 29.6897 29.0259L29.8711 29.0335C30.1588 29.046 30.3818 29.2886 30.3693 29.5763C30.3575 29.8563 30.1268 30.0752 29.8488 30.0752V30.0745Z" fill="white"/>
<path d="M34.9384 30.2915C34.9308 30.2915 34.9232 30.2915 34.9148 30.2915L31.2305 30.1289C30.9428 30.1164 30.7204 29.8724 30.7329 29.5855C30.7454 29.2978 30.9907 29.0754 31.2763 29.0879L34.9607 29.2505C35.2484 29.263 35.4707 29.5069 35.4582 29.7939C35.4457 30.074 35.215 30.2922 34.9377 30.2922L34.9384 30.2915Z" fill="white"/>
<path d="M32.8943 25.1276C32.7609 25.1276 32.6275 25.0769 32.526 24.9747L32.264 24.7127C32.0604 24.5091 32.0604 24.1791 32.264 23.9755C32.4676 23.7719 32.7977 23.7719 33.0013 23.9755L33.2633 24.2374C33.4669 24.441 33.4669 24.7711 33.2633 24.9747C33.1618 25.0762 33.0284 25.1276 32.895 25.1276H32.8943Z" fill="white"/>
<path d="M34.6706 26.9054C34.5372 26.9054 34.4038 26.8547 34.3023 26.7525L33.5199 25.9701C33.3163 25.7665 33.3163 25.4364 33.5199 25.2328C33.7235 25.0292 34.0536 25.0292 34.2572 25.2328L35.0396 26.0152C35.2432 26.2188 35.2432 26.5489 35.0396 26.7525C34.9382 26.854 34.8048 26.9054 34.6713 26.9054H34.6706Z" fill="white"/>
<path d="M35.9166 28.1499C35.7832 28.1499 35.6498 28.0992 35.5483 27.997L35.3968 27.8456C35.1932 27.642 35.1932 27.3119 35.3968 27.1083C35.6004 26.9047 35.9305 26.9047 36.1341 27.1083L36.2856 27.2598C36.4892 27.4634 36.4892 27.7934 36.2856 27.997C36.1842 28.0985 36.0507 28.1499 35.9173 28.1499H35.9166Z" fill="white"/>
<path d="M20.8066 44.8743C20.5801 44.8743 20.3716 44.7256 20.3063 44.497L19.5203 41.7646C19.4877 41.6514 19.4946 41.5311 19.5391 41.422L22.5369 34.1472L20.8928 30.4545C20.8094 30.2676 20.8434 30.0494 20.9789 29.8965L23.7439 26.7799L24.7071 19.9671C24.7307 19.7975 24.8363 19.6509 24.9892 19.5745L31.0188 16.5475C31.1599 16.4766 31.3253 16.4739 31.4684 16.5392L36.6218 18.8865L39.2728 18.1875C39.4569 18.1388 39.6529 18.1944 39.7835 18.3327L47.0681 26.0141C47.1995 26.1524 47.2446 26.3511 47.1863 26.5325L46.2843 29.3301L47.9792 35.6947C48.0535 35.9727 47.8881 36.2583 47.6095 36.3326C47.3315 36.407 47.0459 36.2416 46.9716 35.9629L45.2371 29.4504C45.2114 29.3538 45.2142 29.2516 45.2447 29.1564L46.0988 26.5068L39.2394 19.2736L36.7072 19.9414C36.5912 19.972 36.4675 19.9615 36.3584 19.9115L31.2627 17.5906L25.7001 20.3827L24.7529 27.0808C24.7383 27.1822 24.6945 27.2774 24.6264 27.3539L21.9803 30.3371L23.5785 33.9269C23.6362 34.0568 23.6383 34.2055 23.5841 34.3376L20.5703 41.6514L21.3062 44.2093C21.3854 44.4858 21.2263 44.7749 20.9491 44.8541C20.9011 44.868 20.8525 44.8743 20.8045 44.8743H20.8066Z" fill="white"/>
<path d="M16.7269 48.0005C16.5705 48.0005 16.4155 47.9303 16.3127 47.7962C16.1376 47.5676 16.1807 47.2403 16.4093 47.0652L23.3659 41.7353C23.5222 41.6158 23.7328 41.5942 23.9093 41.6797L28.4678 43.8832C28.563 43.9291 28.6422 44.0035 28.6944 44.0952L30.301 46.9283C30.4427 47.1784 30.3552 47.4967 30.1043 47.6385C29.8541 47.7802 29.5359 47.6927 29.3941 47.4418L27.8681 44.7498L23.7446 42.7568L17.0437 47.8928C16.9492 47.9651 16.838 48.0005 16.7269 48.0005Z" fill="white"/>
<path d="M20.022 42.1409C19.8615 42.1409 19.703 42.0666 19.6009 41.9269L16.7664 38.0473C16.6566 37.8972 16.635 37.6992 16.7108 37.5289L18.8191 32.7598C18.9352 32.4965 19.243 32.3776 19.5064 32.4937C19.7697 32.6097 19.8886 32.9176 19.7725 33.1809L17.7858 37.6748L20.4424 41.3119C20.6119 41.544 20.5612 41.8706 20.3291 42.0402C20.2367 42.1083 20.129 42.1402 20.022 42.1409Z" fill="white"/>
<path d="M24.2395 27.5289C24.0373 27.5289 23.8455 27.4107 23.7608 27.2134L20.8081 20.3506L16.8458 16.915C16.6283 16.7267 16.6047 16.3973 16.7937 16.1798C16.982 15.9623 17.3114 15.9387 17.5289 16.1277L21.5809 19.6418C21.6399 19.6932 21.6872 19.7572 21.7185 19.8294L24.7183 26.802C24.8323 27.0661 24.71 27.3732 24.4452 27.4865C24.3778 27.515 24.3083 27.5289 24.2395 27.5289Z" fill="white"/>
<path d="M23.1033 34.66C23.0525 34.66 23.0011 34.6524 22.9504 34.6371L19.1417 33.4703C18.9943 33.4252 18.8741 33.3168 18.8144 33.1743L16.0389 26.586C15.9465 26.3664 16.0146 26.1121 16.2043 25.9682C16.394 25.8244 16.6574 25.8272 16.8436 25.9759L21.6926 29.8339C21.9178 30.0132 21.9553 30.3412 21.776 30.5664C21.5967 30.7915 21.2687 30.829 21.0436 30.6497L17.7915 28.0619L19.6795 32.5447L23.2554 33.6406C23.5306 33.7247 23.6856 34.0165 23.6008 34.2917C23.532 34.5162 23.3256 34.66 23.1026 34.66H23.1033Z" fill="white"/>
<path d="M16.5191 26.9051C16.4107 26.9051 16.3023 26.8717 16.2084 26.8022C15.9777 26.6306 15.9291 26.304 16.1007 26.0733L20.8205 19.7129C20.9191 19.5809 21.0741 19.4912 21.2388 19.4912L25.2233 19.5072C25.511 19.5072 25.7445 19.733 25.7438 20.0207C25.7438 20.3084 25.5103 20.5336 25.2226 20.5336L21.5001 20.5433L16.9381 26.6883C16.8359 26.8258 16.6789 26.9058 16.5191 26.9058V26.9051Z" fill="white"/>
<path d="M46.6905 26.9259H46.6842C46.3965 26.8564 46.1658 26.6709 46.1693 26.3832L46.268 17.6755L39.5212 19.2035C39.2405 19.2675 38.9611 19.0896 38.8979 18.8088C38.834 18.5281 39.0098 18.2481 39.2905 18.1841L46.6814 16.5053C46.8371 16.4698 47.0004 16.5073 47.1241 16.6074C47.2485 16.7075 47.3193 16.859 47.318 17.0188L47.2116 26.3943C47.2082 26.6799 46.9754 26.9252 46.6905 26.9252V26.9259Z" fill="white"/>
<path d="M24.3363 47.7073C24.1751 47.7073 24.016 47.6329 23.9138 47.4918C23.7449 47.2591 23.7964 46.9331 24.0298 46.7643L27.9345 43.9312C28.1673 43.7616 28.4932 43.8138 28.662 44.0472C28.8309 44.2807 28.7795 44.6059 28.546 44.7748L24.6414 47.6079C24.5489 47.6753 24.4419 47.7073 24.3356 47.7073H24.3363Z" fill="white"/>
</g>
<defs>
<clipPath id="clip0_79_36336">
<rect width="32" height="32.0007" fill="white" transform="translate(16 16)"/>
</clipPath>
</defs>
</svg>
