<svg width="65" height="64" viewBox="0 0 65 64" fill="none" xmlns="http://www.w3.org/2000/svg">
<circle cx="32.5" cy="32" r="32" fill="#0093D0"/>
<g clip-path="url(#clip0_72_38571)">
<g clip-path="url(#clip1_72_38571)">
<path d="M48.4989 44.7914H47.9312V38.879C47.9312 38.6026 47.7066 38.3779 47.4301 38.3779H46.8624V33C46.8624 30.0202 45.9171 27.2566 44.3107 24.9942L45.3232 23.9818L45.5037 24.1616C45.6016 24.2595 45.7296 24.3082 45.8576 24.3082C45.9856 24.3082 46.1142 24.2595 46.2115 24.1616L47.7462 22.6269C47.8403 22.5328 47.8928 22.4054 47.8928 22.273C47.8928 22.1405 47.8403 22.0125 47.7462 21.919L44.0432 18.216C43.8474 18.0202 43.5299 18.0202 43.3347 18.216L41.8 19.7507C41.7059 19.8448 41.6534 19.9722 41.6534 20.1046C41.6534 20.2371 41.7059 20.3651 41.8 20.4586L41.9805 20.6384L40.961 21.6579C40.0995 21.0512 39.1658 20.5405 38.1763 20.1411L38.7363 18.5898C38.8304 18.3293 38.6954 18.0426 38.4355 17.9485C36.6922 17.3194 34.8637 17 33 17C28.7261 17 24.7082 18.664 21.6861 21.6861C18.6646 24.7082 17 28.7261 17 33C17 33.2765 17.2246 33.5011 17.5011 33.5011H19.1376V38.3779H18.5699C18.2934 38.3779 18.0688 38.6019 18.0688 38.879V44.7914H17.5011C17.2246 44.7914 17 45.016 17 45.2925V47.4301C17 47.7066 17.2246 47.9312 17.5011 47.9312H48.4989C48.7754 47.9312 49 47.7072 49 47.4301V45.2925C49 45.016 48.7754 44.7914 48.4989 44.7914ZM43.6886 19.2784L46.6832 22.273L45.857 23.0992L42.8624 20.1046L43.6886 19.2784ZM42.689 21.3475L44.6147 23.2733L43.6963 24.1917C43.1171 23.4896 42.4707 22.8464 41.7667 22.2704L42.689 21.3482V21.3475ZM45.8602 33V36.2403H40.9834V33C40.9834 30.4867 40.5968 28.0272 39.8653 25.8877C39.7757 25.6259 39.4909 25.4864 39.2291 25.5754C38.9674 25.665 38.8278 25.9498 38.9168 26.2115C39.6131 28.248 39.9805 30.5955 39.9805 33V36.2403H33.5005V20.175C35.2035 20.4093 36.8362 21.8269 38.0406 24.1456C38.168 24.3914 38.4707 24.4867 38.7165 24.3594C38.9622 24.232 39.0576 23.9293 38.9302 23.6835C38.287 22.4458 37.5338 21.4378 36.687 20.68C41.9869 22.2691 45.8602 27.1907 45.8602 33.0006V33ZM25.5178 33.5011C25.7942 33.5011 26.0189 33.2765 26.0189 33C26.0189 29.5152 26.7747 26.2474 28.1462 23.7968C29.3443 21.6573 30.8739 20.3901 32.4989 20.1731V36.2397H26.0189V35.137C26.0189 34.8605 25.7949 34.6358 25.5178 34.6358C25.2406 34.6358 25.0166 34.8598 25.0166 35.137V36.2397H20.1398V33C20.1398 27.1926 24.0099 22.273 29.3059 20.6813C28.5597 21.3526 27.8736 22.2333 27.272 23.3072C25.8173 25.9043 25.0166 29.3462 25.0166 33C25.0166 33.2765 25.2406 33.5011 25.5178 33.5011ZM45.8602 37.2419V38.3779H20.1398V37.2419H45.8602ZM18.0099 32.4989C18.1341 28.6806 19.6803 25.1088 22.3946 22.3946C25.2278 19.5619 28.9942 18.0022 33 18.0022C34.5789 18.0022 36.1309 18.2467 37.6208 18.7286L37.2342 19.8C35.8992 19.3706 34.4765 19.1376 33 19.1376C25.5242 19.1376 19.4128 25.0864 19.1478 32.4989H18.0099ZM28.7581 46.929H18.0022V45.7936H28.7581V46.929ZM32.4989 46.929H29.7597V42.0522H32.4989V46.929ZM36.2397 46.929H33.5005V42.0522H36.2397V46.929ZM36.7408 41.0499H29.2586C28.9821 41.0499 28.7574 41.2746 28.7574 41.551V44.7914H19.071V39.3802H46.929V44.7914H37.2419V41.551C37.2419 41.2746 37.0173 41.0499 36.7408 41.0499ZM47.9978 46.929H37.2419V45.7936H47.9978V46.929Z" fill="white"/>
</g>
</g>
<defs>
<clipPath id="clip0_72_38571">
<rect width="32" height="32" fill="white" transform="translate(16.5 16)"/>
</clipPath>
<clipPath id="clip1_72_38571">
<rect width="32" height="30.9312" fill="white" transform="translate(17 17)"/>
</clipPath>
</defs>
</svg>
