<svg width="64" height="64" viewBox="0 0 64 64" fill="none" xmlns="http://www.w3.org/2000/svg">
<circle cx="32" cy="32" r="32" fill="#0093D0"/>
<g clip-path="url(#clip0_72_38606)">
<g clip-path="url(#clip1_72_38606)">
<path d="M25.0264 33.1717C25.4024 33.429 25.8577 33.5797 26.3477 33.5797C26.8377 33.5797 27.293 33.429 27.669 33.1717C27.9904 33.427 28.397 33.5797 28.8397 33.5797C29.881 33.5797 30.725 32.7357 30.725 31.6944C30.725 30.8144 30.1217 30.075 29.3064 29.867C29.5944 29.4844 29.765 29.009 29.765 28.4937C29.765 27.231 28.7417 26.207 27.4784 26.207C26.8084 26.207 26.2064 26.495 25.7877 26.9537" stroke="white" stroke-width="0.8" stroke-linecap="round" stroke-linejoin="round"/>
<path d="M27.6689 33.1719V36.3139" stroke="white" stroke-width="0.8" stroke-linecap="round" stroke-linejoin="round"/>
<path d="M23.5614 27.2912C23.9501 26.7745 24.1807 26.1318 24.1807 25.4358C24.1807 23.7298 22.7981 22.3472 21.0921 22.3472C19.3861 22.3472 18.0034 23.7298 18.0034 25.4358C18.0034 25.7432 18.0487 26.0398 18.1327 26.3198C17.1047 26.8425 16.3994 27.9092 16.3994 29.1418C16.3994 30.8898 17.8161 32.3065 19.5641 32.3065C20.2261 32.3065 20.8407 32.1025 21.3487 31.7552C21.7834 32.0998 22.3327 32.3065 22.9307 32.3065C24.3374 32.3065 25.4774 31.1665 25.4774 29.7598C25.4774 28.5712 24.6627 27.5725 23.5614 27.2918V27.2912Z" stroke="white" stroke-width="0.8" stroke-linecap="round" stroke-linejoin="round"/>
<path d="M21.3496 31.7544V35.6244" stroke="white" stroke-width="0.8" stroke-linecap="round" stroke-linejoin="round"/>
<path d="M32.0578 37.1113C34.0371 37.5047 33.6665 39.1267 29.1878 39.9613C22.1218 41.278 18.2438 42.4207 21.1398 45.8693C21.8731 46.7053 22.9245 47.5987 22.9245 47.5987" stroke="white" stroke-width="0.8" stroke-linecap="round" stroke-linejoin="round"/>
<path d="M41.865 47.5985C41.865 47.5985 38.8083 47.2058 36.0783 45.8691C33.3476 44.5331 34.0843 43.0625 36.8356 41.4185C39.913 39.5798 38.0683 37.4425 35.4296 37.1958C33.9363 37.0565 32.669 37.1138 32.0576 37.1105" stroke="white" stroke-width="0.8" stroke-linecap="round" stroke-linejoin="round"/>
<path d="M32.0576 37.1117C32.0576 37.1117 25.4683 35.539 16.5156 35.417" stroke="white" stroke-width="0.8" stroke-linecap="round" stroke-linejoin="round"/>
<path d="M37.4478 26.3745C37.1691 26.2539 36.8618 26.1865 36.5385 26.1865C35.2758 26.1865 34.2518 27.2099 34.2518 28.4732C34.2518 28.7005 34.2858 28.9205 34.3471 29.1279C33.5858 29.5145 33.0645 30.3045 33.0645 31.2172C33.0645 32.5112 34.1131 33.5599 35.4071 33.5599C35.8971 33.5599 36.3525 33.4092 36.7285 33.1519C37.0498 33.4072 37.4565 33.5599 37.8991 33.5599C38.2898 33.5599 38.6525 33.4412 38.9531 33.2379" stroke="white" stroke-width="0.8" stroke-linecap="round" stroke-linejoin="round"/>
<path d="M36.7285 33.1514V36.2647" stroke="white" stroke-width="0.8" stroke-linecap="round" stroke-linejoin="round"/>
<path d="M45.2606 27.2711C45.6493 26.7545 45.88 26.1118 45.88 25.4158C45.88 23.7098 44.4973 22.3271 42.7913 22.3271C41.0853 22.3271 39.7026 23.7098 39.7026 25.4158C39.7026 25.7231 39.748 26.0198 39.832 26.2998C38.804 26.8225 38.0986 27.8891 38.0986 29.1218C38.0986 30.8698 39.5153 32.2865 41.2633 32.2865C41.9253 32.2865 42.54 32.0825 43.048 31.7351C43.4826 32.0798 44.032 32.2865 44.63 32.2865C46.0366 32.2865 47.1766 31.1465 47.1766 29.7398C47.1766 28.5511 46.362 27.5525 45.2606 27.2718V27.2711Z" stroke="white" stroke-width="0.8" stroke-linecap="round" stroke-linejoin="round"/>
<path d="M43.0479 31.7344V35.6044" stroke="white" stroke-width="0.8" stroke-linecap="round" stroke-linejoin="round"/>
<path d="M32.0576 37.1117C32.0576 37.1117 38.647 35.539 47.5996 35.417" stroke="white" stroke-width="0.8" stroke-linecap="round" stroke-linejoin="round"/>
<path d="M34.3491 47.5974C34.0544 47.5974 33.8217 47.4794 33.5751 47.3547C33.3297 47.2307 33.0597 47.0894 32.7504 47.0894C32.3997 47.0894 32.1311 47.2247 31.8717 47.356C31.6251 47.4807 31.3917 47.598 31.0977 47.598C30.8031 47.598 30.5704 47.48 30.3237 47.3554C30.0784 47.2314 29.8084 47.09 29.4991 47.09C29.1897 47.09 28.9204 47.2314 28.6744 47.3554C28.4277 47.48 28.1944 47.5974 27.9004 47.5974" stroke="white" stroke-width="0.8" stroke-linecap="round" stroke-linejoin="round"/>
<path d="M31.287 43.6473C31.0176 43.6473 30.8043 43.546 30.579 43.4386C30.3543 43.332 30.1076 43.21 29.825 43.21C29.5043 43.21 29.259 43.3266 29.0216 43.4393C28.7963 43.5466 28.583 43.648 28.3136 43.648C28.0443 43.648 27.831 43.5466 27.6056 43.4393C27.381 43.3326 27.1343 43.2106 26.8516 43.2106C26.569 43.2106 26.3223 43.3326 26.0976 43.4393C25.8723 43.5466 25.659 43.648 25.3896 43.648" stroke="white" stroke-width="0.8" stroke-linecap="round" stroke-linejoin="round"/>
<path d="M35.3825 40.5471C35.2419 40.4917 35.0872 40.4277 34.9099 40.4277C34.7085 40.4277 34.5552 40.4884 34.4065 40.5477C34.2652 40.6037 34.1319 40.6564 33.9632 40.6564C33.7945 40.6564 33.6612 40.6037 33.5199 40.5477C33.3792 40.4924 33.2245 40.4284 33.0472 40.4284C32.8699 40.4284 32.7159 40.4917 32.5752 40.5477" stroke="white" stroke-width="0.8" stroke-linecap="round" stroke-linejoin="round"/>
<path d="M19.0886 46.688C19.0886 46.688 18.6366 47.1093 18.4719 47.332C18.2626 47.03 17.9746 46.7827 17.9746 46.7827" stroke="white" stroke-width="0.8" stroke-linecap="round" stroke-linejoin="round"/>
<path d="M46.7829 46.1602C46.7829 46.1602 46.3309 46.5815 46.1663 46.8042C45.9569 46.5022 45.6689 46.2548 45.6689 46.2548" stroke="white" stroke-width="0.8" stroke-linecap="round" stroke-linejoin="round"/>
<path d="M41.5652 42.5581C41.5652 42.5581 41.1132 42.9794 40.9485 43.2021C40.7392 42.9001 40.4512 42.6528 40.4512 42.6528" stroke="white" stroke-width="0.8" stroke-linecap="round" stroke-linejoin="round"/>
<path d="M46.5447 37.8213C46.5447 37.8213 46.0927 38.2426 45.928 38.4653C45.7187 38.1633 45.4307 37.916 45.4307 37.916" stroke="white" stroke-width="0.8" stroke-linecap="round" stroke-linejoin="round"/>
<path d="M17.8083 41.0747C17.8083 41.0747 17.3563 41.496 17.1917 41.7187C16.9823 41.4167 16.6943 41.1694 16.6943 41.1694" stroke="white" stroke-width="0.8" stroke-linecap="round" stroke-linejoin="round"/>
<path d="M24.7097 37.8213C24.7097 37.8213 24.2577 38.2426 24.093 38.4653C23.8837 38.1633 23.5957 37.916 23.5957 37.916" stroke="white" stroke-width="0.8" stroke-linecap="round" stroke-linejoin="round"/>
<path d="M23.8438 21.3661L27.4724 18.9214L31.6544 23.5701" stroke="white" stroke-width="0.8" stroke-linecap="round" stroke-linejoin="round"/>
<path d="M30.2275 21.9839L37.8582 16.3999L41.6489 20.9426" stroke="white" stroke-width="0.8" stroke-linecap="round" stroke-linejoin="round"/>
<path d="M37.8582 16.3999L37.0469 18.4419L37.7729 19.4159L37.0469 20.4966" stroke="white" stroke-width="0.8" stroke-linecap="round" stroke-linejoin="round"/>
<path d="M27.4103 18.9214L26.791 20.4081L27.565 21.3981L27.141 22.3281" stroke="white" stroke-width="0.8" stroke-linecap="round" stroke-linejoin="round"/>
</g>
</g>
<defs>
<clipPath id="clip0_72_38606">
<rect width="32" height="32" fill="white" transform="translate(16 16)"/>
</clipPath>
<clipPath id="clip1_72_38606">
<rect width="32" height="31.9987" fill="white" transform="translate(16 16)"/>
</clipPath>
</defs>
</svg>
