<svg width="65" height="64" viewBox="0 0 65 64" fill="none" xmlns="http://www.w3.org/2000/svg">
<circle cx="32.125" cy="32" r="32" fill="#0093D0"/>
<g clip-path="url(#clip0_72_38758)">
<path d="M40.135 17H42.0686C42.1721 17.025 42.2425 17.0561 42.2796 17.0932C43.2428 18.0479 44.2007 19.0088 45.153 19.976C45.1639 19.9869 45.17 20.0016 45.17 20.017C45.1712 20.9162 45.1712 21.8209 45.17 22.7311C45.1696 22.9021 45.143 23.0283 45.0903 23.1096C44.9356 23.3457 44.5225 23.3393 44.3696 23.0885C44.3251 23.015 44.3018 22.9062 44.2999 22.7621C44.2909 22.0672 44.2878 21.3721 44.2905 20.6768C44.2905 20.6612 44.2843 20.6463 44.2733 20.6353C44.2624 20.6243 44.2474 20.6182 44.2319 20.6182H37.9636C37.948 20.6182 37.9331 20.6243 37.9221 20.6353C37.9111 20.6463 37.905 20.6612 37.905 20.6768L37.9044 26.0381C37.9044 26.0536 37.9105 26.0685 37.9215 26.0795C37.9325 26.0905 37.9474 26.0967 37.963 26.0967H38.7833C38.7988 26.0967 38.8137 26.0905 38.8247 26.0795C38.8357 26.0685 38.8419 26.0536 38.8419 26.0381C38.8427 25.3088 38.843 24.5764 38.843 23.8408C38.8425 21.2023 42.5719 20.6797 43.2716 23.2162C43.3259 23.4127 43.3532 23.6971 43.3536 24.0693C43.3548 24.7256 43.3548 25.3818 43.3536 26.0381C43.3536 26.0536 43.3598 26.0685 43.3708 26.0795C43.3817 26.0905 43.3966 26.0967 43.4122 26.0967H44.2489C44.2569 26.0967 44.2648 26.0951 44.2722 26.0919C44.2795 26.0888 44.2861 26.0842 44.2916 26.0785C44.2971 26.0727 44.3014 26.0659 44.3041 26.0584C44.3068 26.051 44.308 26.0431 44.3075 26.0352C44.2905 25.6824 44.2067 24.7637 44.3954 24.4994C44.6403 24.1566 45.1706 24.3535 45.1706 24.7818C45.1706 30.6994 45.1706 36.6174 45.1706 42.5357C45.1706 42.5447 45.1726 42.5535 45.1764 42.5615C45.1803 42.5695 45.1859 42.5765 45.1928 42.582C45.5803 42.8887 46.021 43.0541 46.5147 43.0783C47.1968 43.1117 47.1557 43.9877 46.3899 43.942C45.4975 43.8887 44.9784 43.5383 44.321 42.9758C43.5733 42.3365 42.5925 42.2873 41.7757 42.783C41.6874 42.8369 41.5399 42.9561 41.3333 43.1404C40.2206 44.1342 38.6011 44.2068 37.3975 43.2881C37.2153 43.1492 36.9815 42.8902 36.7413 42.7561C35.7587 42.2082 34.8669 42.4109 34.0595 43.1363C32.9292 44.1523 31.2505 44.2186 30.0786 43.2389C29.9774 43.1545 29.8766 43.0695 29.7762 42.984C29.1095 42.4156 28.261 42.2955 27.4735 42.6459C27.0065 42.8533 26.7024 43.2875 26.2477 43.5348C25.104 44.1564 23.7968 44.0791 22.7854 43.2336C22.5639 43.0484 22.3471 42.8299 22.0975 42.7068C21.1677 42.248 20.2917 42.425 19.5411 43.107C19.0061 43.5928 18.3762 43.8898 17.6462 43.9432C17.4559 43.9568 17.3077 43.9312 17.2014 43.8664C16.868 43.6613 17.0034 43.0953 17.4124 43.0777C18.0139 43.0516 18.5204 42.851 18.9317 42.476C19.8803 41.6111 20.9637 41.3328 22.1831 41.7816C22.6512 41.9539 22.9618 42.224 23.3415 42.5645C24.0475 43.1979 25.1491 43.2137 25.919 42.701C26.1106 42.5732 26.3356 42.343 26.4903 42.2217C26.9012 41.9002 27.3647 41.6959 27.8807 41.6088C27.8944 41.6064 27.9067 41.5994 27.9157 41.5889C27.9246 41.5784 27.9294 41.5651 27.9294 41.5514V40.1727C27.9294 40.1634 27.9273 40.1543 27.923 40.1461C27.9188 40.1378 27.9127 40.1307 27.9051 40.1253C27.8975 40.1199 27.8888 40.1164 27.8795 40.1151C27.8703 40.1137 27.8609 40.1146 27.852 40.1176C26.8243 40.4672 25.7938 40.8109 24.7606 41.1488C23.3837 41.5988 21.8585 40.9748 21.0915 39.7344C21.0856 39.725 21.0773 39.7175 21.0675 39.7126C21.0577 39.7078 21.0467 39.7058 21.0358 39.7068C20.3897 39.7752 19.9669 40.1029 19.7673 40.69C19.7028 40.8805 19.7022 41.1195 19.6671 41.327C19.6644 41.3416 19.6565 41.3548 19.6448 41.3639C19.1848 41.7178 18.7682 41.44 18.8345 40.9062C18.9757 39.7707 19.6384 39.1613 20.6866 38.8566C20.7007 38.8526 20.7127 38.8435 20.7203 38.831C20.7279 38.8185 20.7305 38.8036 20.7276 38.7893C20.5503 37.8721 20.7161 37.051 21.2251 36.326C21.8942 35.3721 22.8341 35.1055 23.9057 34.7469C25.0577 34.3621 26.2126 33.9855 27.3704 33.6172C27.4493 33.5922 27.454 33.5572 27.3845 33.5123C25.7774 32.476 24.1614 31.432 22.5364 30.3805C22.0708 30.0793 21.7563 29.8486 21.593 29.6885C19.919 28.0432 20.6005 25.2904 22.7473 24.4742C22.9766 24.3871 23.7278 24.1361 25.0009 23.7213C25.6993 23.4934 25.8997 24.3482 25.3507 24.5281C24.6706 24.7516 23.9919 24.9791 23.3145 25.2107C22.9634 25.3311 22.703 25.4492 22.5335 25.5652C20.4786 26.9727 21.8714 30.1461 24.2819 29.6809C24.3678 29.6641 24.7399 29.5463 25.3981 29.3275C28.6497 28.2463 31.9003 27.1621 35.1499 26.075C35.5167 25.952 35.7878 25.833 35.9632 25.7182C38.2026 24.2469 36.535 20.7969 33.9639 21.6547C31.7417 22.3965 29.5194 23.1375 27.2971 23.8777C26.5952 24.1115 26.3479 23.2713 26.9427 23.0703C27.254 22.9652 27.5692 22.8609 27.8884 22.7574C27.9001 22.7537 27.9103 22.7463 27.9176 22.7363C27.9249 22.7263 27.9288 22.7142 27.9288 22.7018C27.9292 21.8936 27.9294 21.0775 27.9294 20.2537C27.9294 19.9432 28.0612 19.7387 28.3805 19.7328C28.9528 19.7219 29.5251 19.7199 30.0973 19.727C30.4598 19.7313 30.6393 19.9164 30.6358 20.2824C30.6303 20.7805 30.6259 21.274 30.6223 21.7631C30.6222 21.7725 30.6244 21.7817 30.6285 21.7901C30.6327 21.7985 30.6389 21.8057 30.6465 21.8112C30.654 21.8167 30.6628 21.8203 30.6721 21.8217C30.6813 21.8232 30.6908 21.8223 30.6997 21.8193C31.6856 21.4861 32.6684 21.16 33.6481 20.8408C33.963 20.7385 34.2268 20.6787 34.4397 20.6615C35.3835 20.5869 36.213 20.8781 36.9282 21.5352C36.9934 21.5953 37.0261 21.5809 37.0261 21.4918V20.027C37.0261 20.0116 37.0322 19.9968 37.043 19.9859C37.9907 19.0207 38.9432 18.0607 39.9007 17.1061C39.9495 17.0576 40.0276 17.0223 40.135 17ZM41.8846 17.9363C41.8831 17.9349 41.8813 17.9337 41.8794 17.9328L41.7751 17.8813C41.7724 17.8798 41.7694 17.879 41.7663 17.8789H40.3817C40.3764 17.8789 40.3714 17.881 40.3677 17.8848L38.5466 19.7053C38.5438 19.7081 38.5419 19.7116 38.5411 19.7155C38.5404 19.7193 38.5408 19.7233 38.5423 19.727C38.5438 19.7306 38.5463 19.7337 38.5496 19.7359C38.5528 19.7381 38.5567 19.7392 38.5606 19.7393L43.6343 19.7398C43.6382 19.7398 43.642 19.7387 43.6453 19.7365C43.6486 19.7343 43.6511 19.7312 43.6526 19.7275C43.6541 19.7239 43.6545 19.7199 43.6537 19.716C43.653 19.7122 43.6511 19.7086 43.6483 19.7059L41.8846 17.9363ZM28.83 20.6035C28.8245 20.6035 28.8193 20.6057 28.8155 20.6095C28.8116 20.6134 28.8095 20.6186 28.8095 20.624L28.8053 22.4193C28.8053 22.4226 28.806 22.4259 28.8074 22.4288C28.8089 22.4318 28.811 22.4343 28.8137 22.4363C28.8163 22.4382 28.8194 22.4395 28.8226 22.44C28.8259 22.4406 28.8292 22.4403 28.8323 22.4393L29.7317 22.1404C29.7358 22.1391 29.7393 22.1365 29.7419 22.133C29.7444 22.1296 29.7458 22.1254 29.7458 22.1211V20.624C29.7458 20.6186 29.7436 20.6134 29.7398 20.6095C29.7359 20.6057 29.7307 20.6035 29.7253 20.6035H28.83ZM40.08 22.8811C39.8413 23.1439 39.7218 23.4346 39.7214 23.7529C39.721 24.5182 39.7212 25.2799 39.722 26.0381C39.722 26.0536 39.7281 26.0685 39.7391 26.0795C39.7501 26.0905 39.765 26.0967 39.7805 26.0967H42.4161C42.4316 26.0967 42.4465 26.0905 42.4575 26.0795C42.4685 26.0685 42.4747 26.0536 42.4747 26.0381C42.4762 25.3572 42.4761 24.6768 42.4741 23.9967C42.4733 23.7084 42.4481 23.493 42.3985 23.3504C42.0563 22.3701 40.7755 22.1146 40.08 22.8811ZM31.1561 28.4135L36.9352 32.2303C36.9958 32.2705 37.0261 32.2543 37.0261 32.1816V26.126C37.0264 26.0354 36.9936 26.0211 36.9276 26.0832C36.6757 26.3207 36.396 26.5133 36.0886 26.6609C35.9706 26.7176 35.6261 26.8416 35.055 27.033C33.7698 27.4635 32.4737 27.8957 31.1667 28.3297C31.1057 28.35 31.1022 28.3779 31.1561 28.4135ZM44.2934 26.9908C44.2934 26.9868 44.2918 26.9829 44.289 26.98C44.2861 26.9772 44.2822 26.9756 44.2782 26.9756H37.9208C37.9167 26.9756 37.9129 26.9772 37.91 26.98C37.9071 26.9829 37.9055 26.9868 37.9055 26.9908V27.8979C37.9055 27.9019 37.9071 27.9058 37.91 27.9086C37.9129 27.9115 37.9167 27.9131 37.9208 27.9131H44.2782C44.2822 27.9131 44.2861 27.9115 44.289 27.9086C44.2918 27.9058 44.2934 27.9019 44.2934 27.8979V26.9908ZM37.977 42.6225C38.2134 42.8076 38.4778 42.9352 38.7704 43.0051C38.7789 43.0072 38.7878 43.0074 38.7964 43.0055C38.8051 43.0036 38.8131 42.9998 38.8201 42.9943C38.827 42.9889 38.8326 42.9819 38.8365 42.9739C38.8404 42.9659 38.8424 42.9571 38.8425 42.9482V28.8506C38.8425 28.835 38.8363 28.8201 38.8253 28.8092C38.8143 28.7982 38.7994 28.792 38.7839 28.792H37.9636C37.948 28.792 37.9331 28.7982 37.9221 28.8092C37.9111 28.8201 37.905 28.835 37.905 28.8506V42.5521C37.905 42.5591 37.9065 42.566 37.9096 42.5723C37.9126 42.5786 37.9171 42.5841 37.9225 42.5885C37.9407 42.6025 37.9636 42.6119 37.977 42.6225ZM42.4759 28.8078C42.4759 28.8038 42.4742 28.7999 42.4714 28.797C42.4685 28.7942 42.4647 28.7926 42.4606 28.7926H39.7372C39.7331 28.7926 39.7293 28.7942 39.7264 28.797C39.7236 28.7999 39.722 28.8038 39.722 28.8078V29.7148C39.722 29.7189 39.7236 29.7228 39.7264 29.7256C39.7293 29.7285 39.7331 29.7301 39.7372 29.7301H42.4606C42.4647 29.7301 42.4685 29.7285 42.4714 29.7256C42.4742 29.7228 42.4759 29.7189 42.4759 29.7148V28.8078ZM43.4028 41.607C43.6837 41.6543 43.952 41.7395 44.2079 41.8625C44.2168 41.8667 44.2267 41.8687 44.2365 41.8681C44.2464 41.8675 44.2559 41.8645 44.2643 41.8592C44.2727 41.8539 44.2795 41.8466 44.2843 41.838C44.2891 41.8294 44.2916 41.8196 44.2917 41.8098V28.8506C44.2917 28.835 44.2855 28.8201 44.2745 28.8092C44.2635 28.7982 44.2486 28.792 44.2331 28.792H43.4128C43.3972 28.792 43.3823 28.7982 43.3713 28.8092C43.3603 28.8201 43.3542 28.835 43.3542 28.8506V41.549C43.3542 41.5629 43.3591 41.5764 43.368 41.587C43.3769 41.5976 43.3892 41.6047 43.4028 41.607ZM28.8235 29.1119C28.8193 29.1133 28.8156 29.1159 28.813 29.1195C28.8103 29.1231 28.8089 29.1274 28.8089 29.1318L28.8071 33.1074C28.8071 33.1108 28.8079 33.1141 28.8095 33.1171C28.811 33.1201 28.8133 33.1227 28.816 33.1247C28.8188 33.1266 28.8219 33.1279 28.8253 33.1283C28.8286 33.1288 28.832 33.1285 28.8352 33.1273L29.7311 32.8256C29.7354 32.8242 29.739 32.8216 29.7417 32.818C29.7443 32.8144 29.7457 32.8101 29.7458 32.8057V28.8324C29.7458 28.8291 29.745 28.8259 29.7434 28.8229C29.7419 28.82 29.7397 28.8174 29.737 28.8155C29.7344 28.8136 29.7313 28.8123 29.728 28.8118C29.7247 28.8112 29.7214 28.8115 29.7182 28.8125L28.8235 29.1119ZM31.9911 30.0037C31.5591 29.7252 31.1335 29.45 30.7143 29.1781C30.6542 29.1391 30.6241 29.1555 30.6241 29.2273V32.4488C30.6241 32.4581 30.6263 32.4673 30.6305 32.4756C30.6347 32.4839 30.6409 32.4911 30.6485 32.4965C30.656 32.502 30.6648 32.5055 30.674 32.5069C30.6832 32.5083 30.6926 32.5075 30.7014 32.5045C31.7757 32.1455 32.8497 31.7877 33.9235 31.4311C33.9587 31.4197 34.0104 31.4133 34.0788 31.4117C34.0834 31.4116 34.0879 31.4102 34.0911 31.4079C34.0944 31.4056 34.0963 31.4026 34.0964 31.3994V31.383C34.0964 31.3769 34.0948 31.3708 34.0918 31.3654C34.0889 31.36 34.0846 31.3554 34.0794 31.352C33.3833 30.902 32.6872 30.4525 31.9911 30.0037ZM24.5327 30.6248L27.8391 32.7617C27.8993 32.8004 27.9294 32.784 27.9294 32.7125V29.4963C27.9294 29.487 27.9272 29.4779 27.923 29.4697C27.9188 29.4615 27.9127 29.4543 27.9052 29.4489C27.8977 29.4435 27.889 29.4399 27.8799 29.4385C27.8708 29.437 27.8614 29.4378 27.8526 29.4406C26.8303 29.7742 25.8089 30.1107 24.7882 30.4502C24.703 30.4783 24.6239 30.5012 24.5509 30.5188C24.4622 30.5402 24.4561 30.5756 24.5327 30.6248ZM42.4764 30.643C42.4764 30.6338 42.4728 30.625 42.4663 30.6185C42.4598 30.612 42.451 30.6084 42.4419 30.6084H39.7559C39.7468 30.6084 39.738 30.612 39.7315 30.6185C39.725 30.625 39.7214 30.6338 39.7214 30.643V32.4336C39.7214 32.4428 39.725 32.4516 39.7315 32.458C39.738 32.4645 39.7468 32.4682 39.7559 32.4682H42.4419C42.451 32.4682 42.4598 32.4645 42.4663 32.458C42.4728 32.4516 42.4764 32.4428 42.4764 32.4336V30.643ZM32.5729 37.6297C33.0915 37.7129 33.1958 38.3322 32.7024 38.498C32.0247 38.7262 31.3454 38.9543 30.6645 39.1824C30.6529 39.1864 30.6428 39.1938 30.6356 39.2038C30.6285 39.2138 30.6247 39.2258 30.6247 39.2381V42.5439C30.6247 42.5532 30.6269 42.5624 30.6311 42.5706C30.6352 42.5788 30.6413 42.586 30.6487 42.5914C31.3835 43.1277 32.1534 43.2098 32.9585 42.8375C33.2327 42.7109 33.4184 42.5217 33.6675 42.3084C34.0901 41.9447 34.6206 41.701 35.2589 41.5771C35.8561 41.4615 36.4161 41.5484 36.9387 41.8379C36.9478 41.8428 36.9579 41.8453 36.9682 41.8451C36.9785 41.8449 36.9885 41.8421 36.9974 41.8369C37.0062 41.8317 37.0135 41.8243 37.0185 41.8154C37.0235 41.8065 37.0261 41.7965 37.0261 41.7863L37.0266 36.8158C37.0266 36.7299 36.9942 36.7152 36.9294 36.7719C36.6337 37.0297 36.318 37.2344 35.9825 37.3859C35.5622 37.5758 35.1055 37.7359 34.6126 37.8664C33.9059 38.0539 33.7337 37.2002 34.3055 37.0426C35.6157 36.6816 37.2059 35.8906 37.0055 34.2641C36.8532 33.0266 35.8354 32.1629 34.5897 32.2156C34.4046 32.223 34.1675 32.275 33.8784 32.3715C31.019 33.3219 28.1653 34.2725 25.3173 35.2232C25.2333 35.2514 25.2298 35.2869 25.3067 35.3299C25.6024 35.4955 25.8626 35.6996 26.0872 35.9422C26.3177 36.1918 26.5093 36.4861 26.662 36.8252C27.0495 37.6877 27.0485 38.5764 26.6591 39.4912C26.6251 39.5709 26.6493 39.5971 26.7317 39.5697L32.5454 37.632C32.5544 37.6289 32.5636 37.6281 32.5729 37.6297ZM42.4759 33.3687C42.4759 33.3632 42.4736 33.3578 42.4697 33.3538C42.4657 33.3499 42.4604 33.3477 42.4548 33.3477H39.7419C39.7363 33.3477 39.7309 33.3499 39.727 33.3538C39.723 33.3578 39.7208 33.3632 39.7208 33.3687V35.1723C39.7208 35.175 39.7213 35.1778 39.7224 35.1803C39.7234 35.1829 39.725 35.1852 39.727 35.1872C39.7289 35.1891 39.7312 35.1907 39.7338 35.1918C39.7364 35.1928 39.7391 35.1934 39.7419 35.1934H42.4548C42.4575 35.1934 42.4603 35.1928 42.4628 35.1918C42.4654 35.1907 42.4677 35.1891 42.4697 35.1872C42.4716 35.1852 42.4732 35.1829 42.4742 35.1803C42.4753 35.1778 42.4759 35.175 42.4759 35.1723V33.3687ZM24.003 38.8795C24.3053 39.0225 24.3376 39.4584 24.0458 39.6371C23.9731 39.6816 23.8532 39.7041 23.686 39.7045C23.2192 39.7064 22.7565 39.7059 22.2979 39.7027C22.1909 39.702 22.1782 39.7363 22.2598 39.8059C22.8653 40.3223 23.5343 40.5021 24.2667 40.3455C26.4036 39.8885 26.7762 36.9641 24.7624 36.0564C22.9688 35.2484 21.0979 36.9131 21.6341 38.7828C21.6374 38.7949 21.6447 38.8056 21.6549 38.8133C21.665 38.8209 21.6775 38.825 21.6903 38.825C22.3505 38.8246 23.0091 38.826 23.6661 38.8291C23.8216 38.8299 23.9339 38.8467 24.003 38.8795ZM42.4753 36.0881C42.4753 36.0839 42.4736 36.0799 42.4706 36.0769C42.4677 36.0739 42.4636 36.0723 42.4594 36.0723H39.7372C39.733 36.0723 39.729 36.0739 39.726 36.0769C39.723 36.0799 39.7214 36.0839 39.7214 36.0881V37.9021C39.7214 37.9063 39.723 37.9104 39.726 37.9133C39.729 37.9163 39.733 37.918 39.7372 37.918H42.4594C42.4636 37.918 42.4677 37.9163 42.4706 37.9133C42.4736 37.9104 42.4753 37.9063 42.4753 37.9021V36.0881ZM42.4764 38.8314C42.4764 38.8223 42.4728 38.8135 42.4663 38.807C42.4598 38.8005 42.451 38.7969 42.4419 38.7969H39.7559C39.7468 38.7969 39.738 38.8005 39.7315 38.807C39.725 38.8135 39.7214 38.8223 39.7214 38.8314V40.6221C39.7214 40.6312 39.725 40.64 39.7315 40.6465C39.738 40.653 39.7468 40.6566 39.7559 40.6566H42.4419C42.451 40.6566 42.4598 40.653 42.4663 40.6465C42.4728 40.64 42.4764 40.6312 42.4764 40.6221V38.8314ZM28.8557 41.6094C29.1354 41.659 29.4044 41.7436 29.6626 41.8631C29.6715 41.8672 29.6813 41.869 29.691 41.8684C29.7008 41.8677 29.7103 41.8646 29.7186 41.8594C29.7268 41.8542 29.7337 41.8469 29.7384 41.8383C29.7432 41.8298 29.7457 41.8202 29.7458 41.8104V39.5703C29.7458 39.561 29.7436 39.5518 29.7394 39.5435C29.7351 39.5352 29.729 39.528 29.7214 39.5226C29.7139 39.5172 29.7051 39.5136 29.6959 39.5122C29.6867 39.5108 29.6773 39.5117 29.6684 39.5146L28.8475 39.7877C28.8358 39.7916 28.8255 39.7991 28.8183 39.8091C28.811 39.8191 28.8071 39.8311 28.8071 39.8434V41.5514C28.8072 41.5652 28.8121 41.5786 28.8209 41.5892C28.8298 41.5998 28.8421 41.6069 28.8557 41.6094ZM39.7805 41.5326C39.7728 41.5325 39.7651 41.534 39.7579 41.5369C39.7508 41.5398 39.7442 41.5441 39.7387 41.5496C39.7332 41.555 39.7289 41.5615 39.7259 41.5687C39.7229 41.5758 39.7214 41.5835 39.7214 41.5912V42.9459C39.7214 42.9545 39.7233 42.9629 39.727 42.9707C39.7306 42.9784 39.7359 42.9853 39.7425 42.9908C39.7491 42.9962 39.7568 43.0002 39.7651 43.0024C39.7734 43.0045 39.7821 43.0049 39.7905 43.0033C40.1682 42.9338 40.4706 42.7797 40.6975 42.541C41.1874 42.025 41.7493 41.6994 42.3833 41.5643C42.3868 41.5635 42.3901 41.5619 42.3927 41.5595C42.3953 41.5571 42.3971 41.5541 42.3979 41.5508L42.4038 41.5314C42.4045 41.5291 42.4045 41.5266 42.404 41.5242C42.4035 41.5218 42.4024 41.5196 42.4007 41.5177C42.3991 41.5158 42.3971 41.5143 42.3948 41.5133C42.3924 41.5124 42.3899 41.5119 42.3874 41.5121C42.2749 41.5211 42.1626 41.5262 42.0505 41.5273C41.3016 41.5352 40.545 41.5369 39.7805 41.5326Z" fill="white"/>
<path d="M20.2499 37.04C20.46 37.1755 20.5442 37.3456 20.5024 37.5503C20.3958 38.0777 19.7465 37.6652 19.7161 38.373C19.6903 38.9812 18.6456 38.9712 18.8799 38.0033C19.027 37.398 19.5995 36.9374 20.2264 37.0312C20.235 37.0328 20.2428 37.0357 20.2499 37.04Z" fill="white"/>
<path d="M46.5855 46.9995H46.4536C45.795 46.9651 45.2075 46.7485 44.6911 46.3497C44.5013 46.2032 44.3021 45.9811 44.0982 45.854C43.3692 45.3993 42.6196 45.3743 41.8493 45.779C41.5282 45.9477 41.2616 46.2753 40.9763 46.4651C39.9802 47.1284 38.5634 47.1805 37.5691 46.4686C37.2925 46.2706 36.9304 45.8739 36.5484 45.7016C35.8866 45.4024 35.2351 45.4257 34.5937 45.7714C34.2837 45.9389 33.9948 46.2729 33.7247 46.454C33.2204 46.7923 32.6636 46.9741 32.0542 46.9995H31.937C31.02 46.9585 30.4646 46.6303 29.803 46.0503C29.0079 45.3536 27.7159 45.2809 26.9267 46.0427C26.3036 46.6446 25.5861 46.9636 24.7739 46.9995H24.6568C23.7866 46.9596 23.1673 46.6415 22.5427 46.0684C21.8261 45.411 20.7609 45.3102 19.9423 45.8229C19.8708 45.8675 19.7249 45.9889 19.5046 46.1874C18.9597 46.6784 18.3089 46.9491 17.5523 46.9995H17.3911C16.9886 46.9139 16.8532 46.3989 17.22 46.1886C17.2849 46.1514 17.4062 46.1268 17.5839 46.1147C17.955 46.0893 18.2861 45.9825 18.5771 45.7942C18.846 45.6202 19.1319 45.3161 19.3751 45.1485C20.4737 44.3921 22.0153 44.453 23.0155 45.3196C23.315 45.5792 23.5359 45.7971 23.8804 45.9407C24.473 46.188 25.0583 46.1772 25.6364 45.9085C26.0589 45.7122 26.3583 45.3272 26.7644 45.0753C27.9064 44.3669 29.2816 44.4975 30.3128 45.3466C30.5507 45.5428 30.7745 45.7632 31.0441 45.8897C31.7355 46.2143 32.4097 46.1938 33.0667 45.8282C33.3644 45.6624 33.6497 45.3442 33.9368 45.1432C35.0583 44.3598 36.5876 44.4934 37.6153 45.363C37.8023 45.5218 37.988 45.7052 38.1937 45.8177C38.9499 46.2305 39.7116 46.2091 40.4788 45.7532C40.5405 45.7165 40.7112 45.5696 40.9909 45.3126C41.9735 44.4091 43.5597 44.4395 44.6378 45.155C44.8804 45.3161 45.1651 45.6319 45.4247 45.7919C45.7536 45.9946 46.1146 46.1057 46.5075 46.1253C47.1234 46.1557 47.1556 46.8893 46.5855 46.9995Z" fill="white"/>
</g>
<defs>
<clipPath id="clip0_72_38758">
<rect width="30" height="30" fill="white" transform="translate(17 17)"/>
</clipPath>
</defs>
</svg>
