<svg width="65" height="64" viewBox="0 0 65 64" fill="none" xmlns="http://www.w3.org/2000/svg">
<circle cx="32.875" cy="32" r="32" fill="#0093D0"/>
<g clip-path="url(#clip0_72_38734)">
<path fill-rule="evenodd" clip-rule="evenodd" d="M40.0822 20.5105C40.1798 20.4647 40.2528 20.3811 40.288 20.2788C40.3232 20.1773 40.3152 20.0651 40.2661 19.9695C40.1818 19.8028 40.1386 19.6229 40.1386 19.4337C40.1386 18.7818 40.6671 18.2514 41.3203 18.2514C41.9032 18.2514 42.3931 18.6689 42.4881 19.2439C42.51 19.3846 42.6076 19.5028 42.7403 19.5532C42.8758 19.6037 43.0251 19.5785 43.136 19.4868C43.3232 19.3302 43.5642 19.2439 43.8105 19.2439C44.3064 19.2439 44.7399 19.595 44.8428 20.0797C44.8807 20.2636 45.0433 20.3957 45.2332 20.3957H45.7019C46.3658 20.3957 46.9075 20.9374 46.9075 21.6026C46.9075 22.2678 46.3658 22.8095 45.7019 22.8095H40.594C39.9275 22.8095 39.3884 22.2678 39.3884 21.6026C39.3884 21.1392 39.6593 20.711 40.0822 20.5112V20.5105ZM40.594 23.6055H45.7019C46.8072 23.6055 47.7041 22.7066 47.7041 21.6019C47.7041 20.4973 46.8072 19.5984 45.7019 19.5984H45.5233C45.2445 18.9152 44.5667 18.4472 43.8105 18.4472C43.5669 18.4472 43.3312 18.4943 43.1088 18.5846C42.7888 17.9075 42.1063 17.4554 41.3203 17.4554C40.2282 17.4554 39.342 18.343 39.342 19.4344C39.342 19.6196 39.3692 19.8042 39.4177 19.9821C38.9058 20.3558 38.5911 20.9586 38.5911 21.6026C38.5911 22.7073 39.488 23.6062 40.5934 23.6062L40.594 23.6055ZM19.0022 18.9398H19.4736C19.6608 18.9398 19.8235 18.8084 19.8639 18.6238C19.9642 18.1398 20.4004 17.788 20.8963 17.788C21.1426 17.788 21.3816 17.8743 21.5708 18.0316C21.679 18.1232 21.831 18.1485 21.9638 18.098C22.0992 18.0476 22.1941 17.9301 22.2187 17.7886C22.311 17.2137 22.8016 16.7968 23.3838 16.7968C24.0371 16.7968 24.5682 17.3273 24.5682 17.9792C24.5682 18.1677 24.525 18.3483 24.438 18.5149C24.3896 18.6105 24.3809 18.7221 24.4161 18.8243C24.4513 18.9259 24.527 19.0095 24.6246 19.056C25.0448 19.2558 25.3183 19.6847 25.3183 20.1481C25.3183 20.8133 24.7766 21.355 24.1101 21.355H19.0022C18.3384 21.355 17.7966 20.8133 17.7966 20.1481C17.7966 19.4829 18.3384 18.9411 19.0022 18.9411V18.9398ZM19.0022 22.1503H24.1101C25.2154 22.1503 26.1156 21.2514 26.1156 20.1467C26.1156 19.5028 25.7983 18.9 25.2865 18.5262C25.3382 18.349 25.3648 18.1637 25.3648 17.9785C25.3648 16.8871 24.4759 15.9995 23.3838 15.9995C22.6004 15.9995 21.9153 16.4509 21.5953 17.1288C21.3756 17.0385 21.1373 16.9913 20.8963 16.9913C20.1375 16.9913 19.463 17.46 19.1808 18.1425H19.0022C17.8995 18.1432 17 19.042 17 20.1467C17 21.2514 17.8995 22.1503 19.0022 22.1503ZM40.9466 41.704C40.9466 41.6004 41.0335 41.5135 41.1364 41.5135H42.4536C42.5591 41.5135 42.6461 41.6004 42.6461 41.704V42.8346C42.6461 42.9375 42.5591 43.0245 42.4536 43.0245H41.1364C41.0335 43.0245 40.9466 42.9375 40.9466 42.8346V41.704ZM41.1364 43.8211H42.4536C42.9979 43.8211 43.4427 43.379 43.4427 42.8346V41.704C43.4427 41.1596 42.9986 40.7175 42.4536 40.7175H41.1364C40.5921 40.7175 40.1499 41.1603 40.1499 41.704V42.8346C40.1499 43.379 40.5914 43.8211 41.1364 43.8211ZM48.2034 47.2022V42.0247C47.1438 41.4219 46.0006 40.9432 44.7944 40.5973V44.7704C44.7944 44.9908 44.6158 45.1688 44.396 45.1688H35.2373C35.0175 45.1688 34.8389 44.9908 34.8389 44.7704V40.8171C32.9071 41.465 31.175 42.4449 29.6793 43.7374C31.888 44.6848 33.7548 45.8565 35.1722 47.2022H48.2034ZM17.7966 41.9715C17.9513 41.9795 18.1027 41.9881 18.2547 41.9974L18.1113 42.4336C18.0708 42.5544 18.0921 42.6885 18.1658 42.7921C18.2414 42.8957 18.3609 42.9574 18.4884 42.9574H20.407V45.3467C20.407 45.5671 20.5856 45.745 20.8053 45.745C21.0251 45.745 21.2036 45.5671 21.2036 45.3467V42.9574H23.1222C23.2497 42.9574 23.3685 42.8957 23.4449 42.7921C23.4694 42.7569 23.488 42.7184 23.502 42.6786C24.0576 42.7914 24.602 42.9156 25.1331 43.051V44.1238C25.1331 44.3442 25.3117 44.5221 25.5314 44.5221C25.7512 44.5221 25.9298 44.3442 25.9298 44.1238V43.2648C29.206 44.1876 31.975 45.5392 33.9752 47.2022H17.7966V41.9715ZM20.8047 36.8611L19.0407 42.1608H22.5686L20.8047 36.8611ZM24.3922 40.9372L25.5301 37.3344L26.6706 40.9372H24.3916H24.3922ZM25.7797 29.504C25.8879 29.5578 25.9908 29.6255 26.0858 29.7072C26.4788 30.0484 26.9581 30.219 27.4381 30.219C27.9181 30.219 28.4 30.0484 28.7904 29.7072C29.0559 29.4768 29.3919 29.3546 29.7656 29.3546C30.1394 29.3546 30.4726 29.4768 30.7382 29.7072C31.5216 30.3896 32.6594 30.3896 33.4428 29.7072C33.7084 29.4768 34.0443 29.3546 34.418 29.3546C34.6431 29.3546 34.8542 29.3991 35.0467 29.4861L36.1142 33.0936C36.1547 33.229 36.2603 33.3332 36.399 33.3671L39.0598 34.027L39.2304 34.9484C36.9242 35.5864 34.8648 37.1631 34.0084 38.9861C33.9513 39.1096 33.9626 39.2537 34.0356 39.3692C34.106 39.484 34.2335 39.5537 34.3716 39.5537H34.8376V39.9799C32.5725 40.7009 30.5616 41.8507 28.8568 43.4022C27.93 43.0417 26.9515 42.7191 25.9278 42.4376V41.7339H27.215C27.3425 41.7339 27.4613 41.6735 27.5377 41.5706C27.6107 41.4683 27.6326 41.3362 27.5947 41.2147L25.9118 35.8938C25.8574 35.7285 25.706 35.6156 25.5294 35.6156C25.3528 35.6156 25.2041 35.7278 25.1504 35.8938L23.4674 41.2147C23.4296 41.3356 23.4515 41.4677 23.5245 41.5706C23.6002 41.6728 23.7197 41.7339 23.8472 41.7339H25.1318V42.2305C24.5356 42.0817 23.9235 41.947 23.2975 41.8268L21.6365 36.8338L25.7797 29.504ZM26.9176 27.4898L26.1721 28.8089C26.3268 28.8893 26.4728 28.9888 26.6082 29.1064C27.0875 29.5253 27.7873 29.5246 28.2666 29.1064C28.6782 28.7479 29.196 28.558 29.7649 28.558C30.3339 28.558 30.8491 28.7479 31.2607 29.1064C31.74 29.5253 32.4397 29.5246 32.919 29.1064C33.3306 28.7479 33.8484 28.558 34.4174 28.558C34.5395 28.558 34.661 28.568 34.7779 28.5859L32.9734 22.4816L29.6999 27.2907C29.6269 27.3982 29.5047 27.4633 29.3746 27.4646L26.9169 27.4898H26.9176ZM40.0576 27.4619L37.6537 31.732C38.0873 31.9079 38.5832 31.8322 38.9543 31.5096C39.3659 31.1511 39.8837 30.9612 40.45 30.9612C41.0163 30.9612 41.5341 31.1504 41.9483 31.5096C42.4277 31.9285 43.1274 31.9285 43.6067 31.5096C43.7123 31.4193 43.8205 31.339 43.94 31.2699L43.7123 30.6499H41.9457C41.7963 30.6499 41.6609 30.5669 41.5905 30.4341L40.057 27.4613L40.0576 27.4619ZM44.7944 39.5537H45.2631C45.3985 39.5537 45.526 39.484 45.599 39.3692C45.672 39.2543 45.68 39.1096 45.6235 38.9861C44.7213 37.0642 42.4828 35.4158 40.0251 34.8528L39.7974 33.6293C39.7702 33.4753 39.654 33.3525 39.502 33.3153L37.0981 32.7192L37.2634 32.4284C37.5369 32.5572 37.8323 32.6229 38.1251 32.6229C38.6077 32.6229 39.087 32.4509 39.4774 32.1104C39.743 31.88 40.0789 31.7579 40.45 31.7579C40.8211 31.7579 41.1597 31.8794 41.4252 32.1104C42.2086 32.7928 43.3465 32.7928 44.1298 32.1104C44.1597 32.0852 44.1896 32.0619 44.2195 32.0387L47.3875 40.7109C46.5583 40.3291 45.6939 40.0145 44.7944 39.7695V39.5531V39.5537ZM37.7221 38.7571C37.8874 37.6796 38.1988 36.7296 38.6243 35.9887C37.1147 36.5776 35.8035 37.5867 35.0474 38.7571H37.7221ZM41.1039 38.7571C40.8842 37.4353 40.4181 36.328 39.8166 35.694C39.2152 36.328 38.7518 37.4353 38.5294 38.7571H41.1039ZM41.9138 38.7571H44.5859C43.8298 37.5873 42.5186 36.5782 41.0116 35.9887C41.4345 36.7296 41.7459 37.6789 41.9138 38.7571ZM37.9034 40.2017C38.8494 40.2017 39.6162 40.9698 39.6162 41.9138V44.3721H43.9977V39.5537H35.6356V44.3721H36.1939V41.9138C36.1939 40.9691 36.9607 40.2017 37.904 40.2017H37.9034ZM38.8195 44.3721H36.9879V41.9138C36.9879 41.4092 37.3995 40.9983 37.904 40.9983C38.4086 40.9983 38.8202 41.4092 38.8202 41.9138V44.3721H38.8195ZM48.8022 41.4517C48.68 41.3787 48.5525 41.3077 48.4258 41.238L44.3662 30.1148C44.3091 29.9574 44.1604 29.8532 43.9924 29.8532H42.1907L40.4267 26.4402C40.359 26.3101 40.2263 26.2278 40.0802 26.2245C39.9342 26.2225 39.7987 26.3002 39.725 26.4276L36.6115 31.9643L33.5006 21.4492C33.4548 21.3019 33.3299 21.1923 33.1779 21.1684C33.0259 21.1445 32.8745 21.2109 32.7876 21.3384L29.1588 26.6706L26.6793 26.6958C26.5385 26.6972 26.4058 26.7742 26.338 26.8983L21.2953 35.8155L21.1844 35.4749C21.1273 35.3122 20.9759 35.202 20.8053 35.202C20.6347 35.202 20.4827 35.3122 20.4262 35.4749L18.5156 41.2181C18.1498 41.1935 17.7814 41.1729 17.4156 41.1583C17.3074 41.155 17.2018 41.1942 17.1228 41.2692C17.0445 41.3442 17.0007 41.4478 17.0007 41.5566V47.6019C17.0007 47.8216 17.1792 48.0002 17.399 48.0002H48.6023C48.8221 48.0002 49.0007 47.8216 49.0007 47.6019V41.7963C49.0007 41.6555 48.925 41.5248 48.8028 41.4531L48.8022 41.4517Z" fill="white"/>
</g>
<defs>
<clipPath id="clip0_72_38734">
<rect width="32" height="31.9987" fill="white" transform="translate(17 16)"/>
</clipPath>
</defs>
</svg>
