<svg width="65" height="64" viewBox="0 0 65 64" fill="none" xmlns="http://www.w3.org/2000/svg">
<circle cx="32.875" cy="32" r="32" fill="#0093D0"/>
<g clip-path="url(#clip0_72_38723)">
<g clip-path="url(#clip1_72_38723)">
<path fill-rule="evenodd" clip-rule="evenodd" d="M45.6471 43.7154L45.6252 43.7307C43.2649 45.366 40.4272 45.7995 37.6386 44.9517L34.1397 43.8874L34.641 42.9393L37.9447 43.9445C40.4544 44.708 42.9044 44.3349 45.0263 42.8656L45.0482 42.8503C45.276 42.6936 45.5874 42.75 45.7447 42.9764L45.7746 43.0209C45.9319 43.2473 45.8748 43.5594 45.6471 43.7154ZM17.8173 38.3992L17.8333 38.3481C17.8983 38.133 18.0962 37.9936 18.31 37.9936C18.3584 37.9936 18.4076 38.0009 18.456 38.0155L26.825 40.5617L26.3264 41.5098L18.15 39.022C17.8844 38.9417 17.7383 38.6622 17.8167 38.3992H17.8173ZM33.8635 42.7029L33.3649 43.651L27.1019 41.7455L27.6005 40.7974L33.8635 42.7029ZM30.6659 38.8149C30.2244 39.5804 30.4873 40.5624 31.2542 41.0045C32.0184 41.4461 32.9997 41.1831 33.4439 40.4176L36.994 34.2669C37.3246 33.6939 37.4003 33.0804 37.2164 32.4443C37.0318 31.8083 36.6421 31.3296 36.0565 31.0215L33.2566 29.5462L27.5029 29.4792C27.5979 29.8072 27.7711 30.1119 28.0181 30.3894C28.3109 30.7134 28.6688 30.9804 29.0831 31.1822L33.3761 33.2663C33.4764 33.3148 33.5494 33.4017 33.582 33.508C33.6145 33.6135 33.6039 33.7284 33.5468 33.824L30.6659 38.8149ZM27.4412 28.5171C27.5335 27.8074 27.8853 27.2497 28.4875 26.8593L37.401 21.067L36.1136 24.7692C35.9914 25.1131 35.9376 25.4663 35.9456 25.8129L32.1545 28.2987C32.0376 28.3757 31.9699 28.5098 31.9759 28.6506C31.9785 28.6798 31.9839 28.7077 31.9892 28.7349L27.4252 28.6818C27.4279 28.6273 27.4332 28.5722 27.4412 28.5171ZM38.4819 20.3892C38.94 20.1867 39.4519 20.2291 39.8881 20.5166C40.3973 20.8526 40.6417 21.4123 40.5387 22.0145C40.5036 22.2196 40.4491 22.4275 40.3787 22.6326L39.43 25.3561C39.3755 25.5128 39.4247 25.6867 39.5521 25.793L42.514 28.2628C43.0504 28.7097 43.1208 29.5091 42.6766 30.0449C42.4595 30.3031 42.1561 30.4618 41.8175 30.4924C41.4789 30.5229 41.1509 30.4213 40.8933 30.2062L37.5191 27.3924C36.812 26.8035 36.5624 25.8979 36.8632 25.0288L38.4812 20.3878L38.4819 20.3892ZM33.4571 28.7515L37.9666 28.8039L37.0099 28.0059C36.571 27.6414 36.2616 27.1773 36.0937 26.6687L33.1557 28.5935L33.4565 28.7515H33.4571ZM46.398 42.523C45.9917 41.9354 45.1837 41.788 44.5961 42.195L44.5742 42.2103C42.6581 43.5362 40.4465 43.8728 38.1784 43.1823L33.2626 41.6871C33.6125 41.4839 33.9159 41.1898 34.1324 40.8153L37.6851 34.6646C38.1266 33.8964 38.2269 33.0751 37.9806 32.2232C37.7343 31.3714 37.2137 30.7294 36.4276 30.3164L35.0048 29.5668L38.9373 29.6126L40.3847 30.8197C40.805 31.1709 41.3415 31.3376 41.8912 31.2878C42.4389 31.238 42.9376 30.9784 43.2868 30.5568C44.0158 29.6837 43.8963 28.381 43.0239 27.6527L40.2732 25.3594L41.1323 22.8962C41.2166 22.6499 41.2817 22.3989 41.3249 22.1499C41.4796 21.2397 41.0971 20.3593 40.3276 19.852C39.5554 19.3448 38.5961 19.3421 37.8206 19.8447L28.0533 26.192C27.2592 26.7072 26.7739 27.4754 26.6497 28.4136C26.6391 28.5005 26.6305 28.5875 26.6278 28.6732L22.1343 28.6207L22.1449 27.741C22.1449 27.5212 21.969 27.3406 21.7492 27.338H21.7465C21.5268 27.338 21.3508 27.5132 21.3482 27.7317L21.3376 28.6114L20.2454 28.5988C20.0229 28.5935 19.8443 28.7727 19.8417 28.9925C19.839 29.2123 20.015 29.3929 20.2347 29.3955L21.3269 29.4081L21.3163 30.2879C21.3163 30.5076 21.4923 30.6882 21.712 30.6909H21.7173C21.9344 30.6909 22.1104 30.5156 22.1157 30.2972L22.1237 29.4174L26.6823 29.4705C26.7905 30.0017 27.0401 30.493 27.4272 30.9226C27.7877 31.3243 28.2266 31.6523 28.7365 31.8999L32.6445 33.7975L29.9748 38.4172C29.5631 39.1316 29.5631 39.9715 29.8964 40.6633L18.6878 37.2533C18.0046 37.0455 17.2782 37.4325 17.0724 38.1164L17.0565 38.1675C16.848 38.8514 17.2351 39.5771 17.9183 39.7849L37.4089 45.7139C38.4194 46.0213 39.4359 46.174 40.4358 46.174C42.433 46.174 44.371 45.5691 46.078 44.3867L46.1026 44.3714C46.6908 43.9644 46.8369 43.1557 46.4306 42.5681L46.398 42.5243V42.523ZM47.8534 21.7376C48.5771 20.4834 48.1462 18.874 46.8913 18.1503C46.4877 17.9166 46.0375 17.7971 45.5827 17.7971C45.355 17.7971 45.1246 17.827 44.8995 17.8881C44.219 18.0693 43.6526 18.5042 43.3034 19.1117C42.5797 20.3659 43.0106 21.9753 44.2655 22.699C45.5176 23.4234 47.1297 22.9918 47.8534 21.7376ZM47.2897 17.4598C46.4983 17.003 45.5741 16.8815 44.691 17.1179C43.81 17.3543 43.0704 17.9206 42.6122 18.7127C41.6694 20.3473 42.2331 22.4447 43.8671 23.3888C44.3929 23.6929 44.9785 23.849 45.5714 23.849C45.8695 23.849 46.1676 23.8098 46.4631 23.7308C47.3468 23.4944 48.0864 22.9281 48.5419 22.136C49.4847 20.5014 48.9243 18.404 47.2897 17.4598Z" fill="white"/>
</g>
</g>
<defs>
<clipPath id="clip0_72_38723">
<rect width="32" height="32" fill="white" transform="translate(16.875 16)"/>
</clipPath>
<clipPath id="clip1_72_38723">
<rect width="32" height="29.1736" fill="white" transform="translate(17 17)"/>
</clipPath>
</defs>
</svg>
