<svg width="64" height="64" viewBox="0 0 64 64" fill="none" xmlns="http://www.w3.org/2000/svg">
<circle cx="32" cy="32" r="32" fill="#0093D0"/>
<g clip-path="url(#clip0_79_36163)">
<path d="M33.6695 47.4656H31.4077C31.2567 47.4656 31.1138 47.3982 31.0175 47.2816C30.9217 47.165 30.8827 47.012 30.911 46.8637L31.0673 46.0556L27.9698 42.983C27.7716 42.7862 27.7703 42.4661 27.9671 42.2679C28.1639 42.0698 28.484 42.0684 28.6822 42.2652L31.9711 45.5279C32.0911 45.6465 32.1437 45.817 32.1113 45.9828L32.0196 46.4539H33.0286L32.9504 46.125L29.6938 42.3993C29.5947 42.2861 29.5516 42.1345 29.5752 41.9855C29.5987 41.8366 29.6884 41.7065 29.8185 41.6303C30.9029 40.9934 31.6058 39.6624 31.8572 39.1191C31.9745 38.8657 32.2751 38.7559 32.5285 38.8731C32.7819 38.9904 32.8918 39.291 32.7745 39.5444C32.4618 40.219 31.8228 41.3736 30.8281 42.1601L33.7935 45.5528C33.8474 45.6148 33.8859 45.6883 33.9047 45.7685L34.1602 46.8415C34.1959 46.9918 34.1608 47.1508 34.0651 47.2721C33.9694 47.3934 33.8232 47.4642 33.6682 47.4642L33.6695 47.4656Z" fill="white"/>
<path d="M27.4569 47.4657H25.2436C25.1034 47.4657 24.97 47.4078 24.8743 47.3053C24.7786 47.2029 24.7301 47.0661 24.7388 46.9266L24.8022 45.9776L22.9434 41.766C22.8834 41.6298 22.8861 41.4735 22.9521 41.3394L24.5622 38.0511C24.3735 37.6406 24.0231 36.7537 23.9429 35.6929C23.8397 34.3267 24.1761 32.4167 26.3604 31.0789C26.9198 30.7358 27.5338 30.4763 28.2367 30.2836C28.5063 30.2101 28.784 30.3685 28.8574 30.6381C28.9309 30.9077 28.7725 31.1854 28.5029 31.2588C27.893 31.4253 27.3646 31.6484 26.8881 31.9409C25.493 32.7955 24.8406 34.0221 24.9484 35.5864C25.0327 36.811 25.5631 37.799 25.5685 37.8084C25.6467 37.952 25.6507 38.1259 25.5786 38.2728L23.9631 41.5726L25.7774 45.6824C25.8104 45.7572 25.8246 45.8388 25.8192 45.9203L25.7835 46.4541H26.6765L26.5147 46.0929C26.5053 46.0726 26.4979 46.0518 26.4911 46.0302L25.2793 41.9432C25.2389 41.8071 25.2578 41.6608 25.3306 41.5389C25.4034 41.4175 25.5247 41.332 25.6635 41.3036C27.4333 40.9451 28.2293 38.7992 28.2367 38.7776C28.2933 38.6219 28.4227 38.5026 28.5825 38.4602C28.8345 38.3935 31.0566 37.8044 31.4448 37.7309C31.7191 37.679 31.9833 37.8597 32.0352 38.134C32.0871 38.4083 31.9065 38.6725 31.6322 38.7244C31.3868 38.7709 30.0551 39.1166 29.0839 39.3727C28.8089 39.9935 27.9779 41.5604 26.3927 42.1448L27.4502 45.7101L27.9166 46.7527C27.9867 46.909 27.9725 47.0903 27.8795 47.2339C27.7865 47.3774 27.6268 47.4644 27.4556 47.4644L27.4569 47.4657Z" fill="white"/>
<path d="M42.4679 47.4656H40.2977C40.0187 47.4656 39.7922 47.2391 39.7922 46.9601V45.9849L38.6896 42.609L35.6022 37.7436C35.4525 37.5077 35.5226 37.1957 35.7578 37.046C35.9937 36.8964 36.3058 36.9658 36.4554 37.2017L39.5772 42.1204C39.5995 42.1561 39.6177 42.1945 39.6311 42.2343L40.7789 45.747C40.7958 45.7975 40.8038 45.8508 40.8038 45.904V46.454H41.5412L41.3518 46.1608C41.3154 46.1049 41.2911 46.0422 41.279 45.9768L40.5922 42.1911L38.6613 37.1478C38.5831 36.9443 38.6445 36.7138 38.8129 36.5763C39.0515 36.3808 39.2645 36.1753 39.464 35.9488C39.5739 35.8241 39.7376 35.7615 39.9027 35.781L42.9188 36.1382C43.0987 36.1598 43.2537 36.2757 43.3245 36.4428L44.508 39.2351C44.6037 39.4615 44.5228 39.7244 44.3159 39.8572L43.6743 40.2696C43.8603 40.5224 44.0409 40.7475 44.1696 40.8883C44.4797 40.6646 44.9899 40.2386 45.2096 40.0095C45.1112 39.5748 44.8955 38.4863 44.3752 35.628L40.9198 34.4654C40.7391 34.4048 40.6084 34.2477 40.5808 34.059C40.2633 31.8733 42.4456 29.8878 42.5393 29.8043C42.6424 29.7119 42.7786 29.6661 42.9167 29.6769C43.0549 29.6877 43.1823 29.7544 43.2692 29.8622C43.3824 30.0017 44.3806 31.2513 44.4803 32.1645C44.4817 32.1786 44.4837 32.1948 44.5457 32.2245C44.8261 32.3593 45.4306 32.2824 45.6227 32.1611C45.6632 32.1241 45.8687 31.8491 45.62 30.2585L45.6038 30.1561C45.529 29.6607 45.7393 29.3022 45.9429 28.9551C46.0514 28.7704 46.1632 28.5797 46.2522 28.3411C46.4328 27.8578 46.2064 26.9035 46.021 26.4155C45.959 26.2524 45.9853 26.0685 46.0911 25.9303L46.7651 25.0427C43.2706 22.985 39.894 25.6951 38.5669 27.0006C38.3681 27.196 38.048 27.194 37.8519 26.9945C37.6557 26.7957 37.6584 26.4755 37.8579 26.2794C38.7954 25.3567 40.3051 24.1396 42.1707 23.5795C44.1771 22.9776 46.0675 23.2877 47.7882 24.5008C47.9001 24.5797 47.9755 24.701 47.9964 24.8364C48.0173 24.9719 47.9823 25.1101 47.8994 25.2193L47.0589 26.3259C47.22 26.8341 47.491 27.9124 47.1991 28.6942C47.0798 29.0144 46.9329 29.2651 46.8143 29.4659C46.6458 29.7537 46.5838 29.8744 46.6033 30.0038L46.6188 30.1015C46.8129 31.3423 46.8918 32.554 46.1632 33.015C45.6928 33.3129 44.7135 33.4275 44.107 33.135C43.741 32.9591 43.5172 32.6531 43.4755 32.2744C43.4391 31.9407 43.1297 31.4002 42.8264 30.9588C42.3371 31.5087 41.5614 32.5493 41.5614 33.6149L44.9824 34.766C45.157 34.8246 45.2857 34.9736 45.3188 35.1549C45.6241 36.8371 46.1349 39.5909 46.2239 39.9151C46.2744 40.0459 46.2717 40.1921 46.2138 40.3316C46.1767 40.4213 46.0898 40.6322 45.3174 41.2738C44.9851 41.5495 44.543 41.8939 44.3206 41.968C43.8717 42.1177 43.5051 41.7045 43.0731 41.1492C42.7947 40.7906 42.5494 40.4294 42.5393 40.4139C42.4632 40.3013 42.4355 40.1625 42.4632 40.029C42.4908 39.8956 42.5703 39.779 42.6849 39.7055L43.4121 39.2378L42.5097 37.1081L40.0423 36.8162C39.9425 36.92 39.8401 37.0204 39.7336 37.1182L41.5546 41.8744C41.5661 41.904 41.5742 41.9337 41.5803 41.9647L42.2576 45.6978L42.8958 46.6858C42.9963 46.8415 43.0037 47.039 42.9154 47.2021C42.8271 47.3652 42.6566 47.4656 42.4712 47.4656H42.4679ZM45.2547 40.2016C45.2615 40.2339 45.2723 40.2683 45.2878 40.3027C45.2797 40.2851 45.2702 40.2575 45.2547 40.2016Z" fill="white"/>
<path d="M18.7116 39.6948C17.9459 39.6948 17.123 39.5216 16.3062 39.1718C16.0925 39.0802 15.9685 38.8544 16.0069 38.6246C16.0447 38.3947 16.2347 38.2209 16.4673 38.2033C16.8932 38.169 18.0962 37.9203 18.5235 37.1931C18.783 36.7516 18.7419 36.1498 18.4022 35.405C17.7869 34.0557 18.3301 32.232 19.6396 31.252C20.385 30.694 21.2902 30.4581 22.2566 30.5693C23.3431 30.6947 24.4598 31.248 25.5753 32.2151C25.7862 32.3978 25.8091 32.7172 25.6265 32.9282C25.4438 33.1391 25.1244 33.1621 24.9134 32.9794C23.1773 31.4751 21.4762 31.1408 20.2455 32.0621C19.3175 32.7563 18.9037 34.0685 19.3222 34.9865C19.8081 36.0507 19.8317 36.9673 19.393 37.71C19.1402 38.1386 18.7628 38.446 18.3652 38.6664C19.2393 38.7358 20.0292 38.5437 20.5704 38.0948C21.2457 37.5348 21.4715 36.6492 21.2241 35.5338C21.0374 34.694 21.3124 33.9338 21.9406 33.5503C22.8545 32.9929 23.9867 33.4647 24.7416 34.0928C24.9566 34.2714 24.9855 34.5902 24.8069 34.8045C24.6283 35.0195 24.3096 35.0485 24.0952 34.8699C23.3525 34.2525 22.754 34.2377 22.4669 34.4129C22.2149 34.5666 22.1192 34.9036 22.2101 35.314C22.5411 36.8028 22.1872 38.0665 21.2154 38.8726C20.5569 39.4185 19.6801 39.6948 18.7116 39.6948Z" fill="white"/>
<path d="M44.6884 28.5434C44.5496 28.5434 44.4114 28.4868 44.3116 28.3749L43.9706 27.9934C43.7846 27.7852 43.8021 27.4657 44.0097 27.2797C44.218 27.0937 44.5374 27.1112 44.7234 27.3188L45.0645 27.7003C45.2505 27.9085 45.233 28.228 45.0254 28.414C44.929 28.5003 44.8084 28.5427 44.6884 28.5427V28.5434Z" fill="white"/>
<path d="M42.8745 30.6863C42.8017 30.6863 42.7269 30.6701 42.6568 30.6364C41.352 30.0123 41.05 28.8282 41.0379 28.7783C40.9719 28.5074 41.1383 28.2337 41.4093 28.1677C41.6795 28.1023 41.9511 28.2661 42.0192 28.535C42.03 28.5748 42.2389 29.3161 43.0928 29.7246C43.3449 29.8452 43.4514 30.1471 43.3307 30.3985C43.2438 30.5798 43.0632 30.6863 42.8745 30.6863Z" fill="white"/>
<path d="M34.8117 22.4632C33.3054 22.4632 32.0801 21.2379 32.0801 19.7316C32.0801 18.2253 33.3054 17 34.8117 17C36.318 17 37.5433 18.2253 37.5433 19.7316C37.5433 21.2379 36.318 22.4632 34.8117 22.4632ZM34.8117 18.011C33.8627 18.011 33.091 18.7826 33.091 19.7316C33.091 20.6805 33.8627 21.4522 34.8117 21.4522C35.7606 21.4522 36.5323 20.6805 36.5323 19.7316C36.5323 18.7826 35.7606 18.011 34.8117 18.011Z" fill="white"/>
<path d="M33.8173 39.0173C33.6461 39.0173 33.4742 38.9863 33.3118 38.9243C32.6399 38.6668 32.2692 37.947 32.4498 37.2501L33.4129 33.5392L30.3733 32.7231C29.4426 32.473 28.6803 31.7869 28.3352 30.8865L28.3197 30.8454C27.7799 29.4402 27.7367 27.8799 28.1977 26.4518C28.4734 25.5979 28.7888 24.6193 29.0469 23.8159C29.421 22.654 30.1421 21.6626 31.1335 20.9495L31.2946 20.8336C31.5211 20.6705 31.8372 20.7217 32.0003 20.9489C32.1634 21.1753 32.1121 21.4914 31.885 21.6545L31.7239 21.7704C30.9098 22.3568 30.3167 23.1709 30.0094 24.1266C29.7506 24.93 29.4351 25.9093 29.1595 26.7632C28.7693 27.9716 28.8063 29.2932 29.2633 30.4835L29.2788 30.5246C29.5086 31.1237 30.0161 31.5807 30.6355 31.7472L34.159 32.6934C34.4272 32.7655 34.587 33.0398 34.5169 33.3088L33.4277 37.5042C33.3765 37.7023 33.4816 37.9072 33.6731 37.9807C33.7789 38.0211 33.8934 38.0157 33.9952 37.9659C34.097 37.916 34.1704 37.8284 34.2028 37.7199L35.9383 31.8577C35.9733 31.6777 35.8783 31.4971 35.7084 31.425L31.6613 29.7098C31.4045 29.6006 31.2838 29.304 31.393 29.0473C31.5022 28.7905 31.7987 28.6698 32.0555 28.779L36.1027 30.4943C36.7288 30.7598 37.0725 31.4331 36.9209 32.0963C36.9189 32.1064 36.9162 32.1165 36.9128 32.1266L35.172 38.007C35.0608 38.3837 34.7945 38.6991 34.4427 38.873C34.2466 38.9701 34.0323 39.0186 33.8166 39.0186L33.8173 39.0173Z" fill="white"/>
<path d="M37.8905 30.3792C37.7166 30.3792 37.5428 30.3455 37.3763 30.2767L33.1188 28.5318C32.7744 28.3903 32.4927 28.1301 32.3249 27.7972L31.4076 25.9782C31.2823 25.7288 31.382 25.4248 31.6314 25.2995C31.8808 25.1741 32.1847 25.2739 32.3101 25.5232L33.2273 27.3423C33.2853 27.4575 33.383 27.5478 33.5023 27.5964L37.7591 29.3413C37.846 29.377 37.9417 29.3756 38.028 29.3379C38.1143 29.3001 38.1797 29.2307 38.212 29.1424C38.2713 28.982 38.2026 28.8007 38.0523 28.7199L35.0201 27.0929C34.5982 26.8664 34.3097 26.4661 34.2282 25.995L33.7766 23.3881C33.7288 23.1131 33.9134 22.8516 34.1884 22.8038C34.4634 22.7566 34.7249 22.9406 34.7728 23.2156L35.2243 25.8218C35.2526 25.9849 35.3524 26.1237 35.4986 26.2019L38.5308 27.8289C39.1232 28.147 39.3942 28.8627 39.161 29.4936C39.0322 29.8413 38.7741 30.115 38.4351 30.2639C38.2605 30.3407 38.0759 30.3792 37.8912 30.3792H37.8905Z" fill="white"/>
</g>
<defs>
<clipPath id="clip0_79_36163">
<rect width="32" height="30.4654" fill="white" transform="translate(16 17)"/>
</clipPath>
</defs>
</svg>
