<svg width="65" height="64" viewBox="0 0 65 64" fill="none" xmlns="http://www.w3.org/2000/svg">
<circle cx="32.5" cy="32" r="32" fill="#0093D0"/>
<g clip-path="url(#clip0_79_36202)">
<g clip-path="url(#clip1_79_36202)">
<path fill-rule="evenodd" clip-rule="evenodd" d="M21.5104 18.1911C22.8906 18.1911 24.0104 19.3119 24.0104 20.6911C24.0104 22.0702 22.8896 23.1911 21.5104 23.1911C20.1312 23.1911 19.0104 22.0702 19.0104 20.6911C19.0104 19.3119 20.1302 18.1911 21.5104 18.1911ZM21.5104 17.1807C19.5729 17.1807 18 18.7536 18 20.6911C18 22.6286 19.5729 24.2015 21.5104 24.2015C23.4479 24.2015 25.0208 22.6286 25.0208 20.6911C25.0208 18.7536 23.4479 17.1807 21.5104 17.1807Z" fill="white"/>
<path fill-rule="evenodd" clip-rule="evenodd" d="M43.0789 32.5808C40.5727 32.5808 38.5758 30.2172 38.5758 27.3464C38.5758 26.2006 38.8935 25.1391 39.4352 24.2735C39.9977 23.3756 40.2279 22.2578 40.0685 21.1672C40.0685 21.1672 40.0685 21.1651 40.0685 21.1641C40.0404 20.9756 40.0258 20.7808 40.0258 20.5828C40.0258 18.6276 41.3737 17.0099 43.0799 17.0099C44.7862 17.0099 46.1341 18.6287 46.1341 20.5828C46.1341 20.7828 46.1195 20.9787 46.0935 21.1693C45.9352 22.2568 46.1643 23.3745 46.7268 24.2714C47.2664 25.1381 47.5841 26.1995 47.5841 27.3453C47.5841 29.561 46.3977 31.4683 44.6987 32.2308C44.4445 32.3453 44.331 32.6443 44.4445 32.8985C44.5591 33.1526 44.8581 33.2662 45.1122 33.1526C47.1393 32.2422 48.5945 29.9901 48.5945 27.3453C48.5945 25.9995 48.2174 24.7537 47.5841 23.736C47.5841 23.736 47.5841 23.736 47.5841 23.7349C47.1456 23.0349 46.9706 22.1631 47.0945 21.3131C47.0945 21.3131 47.0945 21.312 47.0945 21.311C47.1279 21.0745 47.1456 20.8308 47.1456 20.5828C47.1456 18.0349 45.3039 15.9995 43.081 15.9995C40.8581 15.9995 39.0164 18.036 39.0164 20.5828C39.0164 20.8318 39.0341 21.0756 39.0695 21.3131C39.1935 22.1631 39.0185 23.036 38.5799 23.737C37.9435 24.7547 37.5664 26.0006 37.5664 27.3464C37.5664 30.811 40.057 33.5922 43.081 33.5922C43.3602 33.5922 43.5862 33.3651 43.5862 33.087C43.5862 32.8089 43.3602 32.5818 43.081 32.5818L43.0789 32.5808Z" fill="white"/>
<path fill-rule="evenodd" clip-rule="evenodd" d="M31.2906 28.5474C29.4854 28.5474 28.0573 26.8369 28.0573 24.7682C28.0573 23.939 28.2865 23.1692 28.6792 22.5432C29.1146 21.8484 29.2927 20.9828 29.1698 20.138C29.1698 20.138 29.1698 20.1359 29.1698 20.1349C29.149 20.0005 29.1396 19.8619 29.1396 19.7203C29.1396 18.3369 30.0833 17.1817 31.2906 17.1817C32.4979 17.1817 33.4417 18.3369 33.4417 19.7203C33.4417 19.863 33.4312 20.0036 33.4125 20.1401C33.2896 20.9817 33.4677 21.8474 33.9031 22.5422C34.2937 23.1692 34.524 23.939 34.524 24.7682C34.524 26.1734 33.8656 27.4078 32.8729 28.0619C32.6406 28.2151 32.576 28.5297 32.7292 28.7619C32.8823 28.9942 33.1969 29.0588 33.4292 28.9057C34.6802 28.0807 35.5333 26.539 35.5333 24.7682C35.5333 23.738 35.2448 22.7859 34.7594 22.0067C34.7594 22.0067 34.7594 22.0067 34.7594 22.0057C34.4479 21.5088 34.325 20.888 34.4125 20.2849C34.4125 20.2849 34.4125 20.2838 34.4125 20.2828C34.4385 20.1005 34.4521 19.913 34.4521 19.7213C34.4521 17.7442 33.0156 16.1724 31.2906 16.1724C29.5656 16.1724 28.1292 17.7453 28.1292 19.7213C28.1292 19.913 28.1427 20.1015 28.1698 20.2849C28.2583 20.889 28.1344 21.5099 27.8229 22.0078C27.3354 22.7859 27.0469 23.739 27.0469 24.7692C27.0469 27.4307 28.9687 29.5588 31.2906 29.5588C31.5698 29.5588 31.7958 29.3317 31.7958 29.0536C31.7958 28.7755 31.5698 28.5484 31.2906 28.5484V28.5474Z" fill="white"/>
<path fill-rule="evenodd" clip-rule="evenodd" d="M42.5723 24.0858V35.9993C42.5723 36.2785 42.7983 36.5045 43.0775 36.5045C43.3566 36.5045 43.5827 36.2785 43.5827 35.9993V24.0858C43.5827 23.8066 43.3566 23.5806 43.0775 23.5806C42.7983 23.5806 42.5723 23.8066 42.5723 24.0858Z" fill="white"/>
<path fill-rule="evenodd" clip-rule="evenodd" d="M30.7871 22.3358V33.0868C30.7871 33.3649 31.0132 33.592 31.2923 33.592C31.5715 33.592 31.7975 33.3649 31.7975 33.0868V22.3358C31.7975 22.0566 31.5715 21.8306 31.2923 21.8306C31.0132 21.8306 30.7871 22.0566 30.7871 22.3358Z" fill="white"/>
<path fill-rule="evenodd" clip-rule="evenodd" d="M22.7503 37.7774C23.1545 37.5004 23.6232 37.3399 24.1232 37.3399C24.5159 37.3399 24.8899 37.4389 25.2284 37.616C25.5753 37.8014 25.993 37.8004 26.3388 37.6129C26.6722 37.4389 27.0461 37.3399 27.4399 37.3399C27.8336 37.3399 28.2076 37.4389 28.5451 37.616C28.8919 37.8014 29.3086 37.8004 29.6555 37.6129C29.9888 37.4389 30.3628 37.3399 30.7565 37.3399C31.2565 37.3399 31.7253 37.5004 32.1294 37.7774C32.3597 37.9347 32.6742 37.8754 32.8315 37.6462C32.9888 37.416 32.9305 37.1014 32.7003 36.9441C32.1284 36.5524 31.4638 36.3306 30.7565 36.3306C30.1961 36.3306 29.6628 36.4702 29.1815 36.7222C29.1795 36.7222 29.1774 36.7243 29.1753 36.7254C29.1274 36.7514 29.069 36.7514 29.0211 36.7254C29.019 36.7254 29.017 36.7233 29.0149 36.7222C28.5336 36.4691 28.0003 36.3306 27.4399 36.3306C26.8794 36.3306 26.3461 36.4702 25.8649 36.7222C25.8628 36.7222 25.8607 36.7243 25.8586 36.7254C25.8107 36.7514 25.7524 36.7514 25.7045 36.7254C25.7024 36.7254 25.7003 36.7233 25.6992 36.7222C25.218 36.4691 24.6847 36.3306 24.1242 36.3306C23.417 36.3306 22.7524 36.5524 22.1805 36.9441C21.9503 37.1014 21.892 37.416 22.0492 37.6462C22.2065 37.8764 22.5211 37.9347 22.7513 37.7774H22.7503Z" fill="white"/>
<path fill-rule="evenodd" clip-rule="evenodd" d="M32.3401 43.0611C32.7443 42.7851 33.213 42.6247 33.713 42.6247C34.1058 42.6247 34.4797 42.7236 34.8183 42.9007C35.1651 43.0861 35.5828 43.0851 35.9287 42.8976C36.262 42.7236 36.636 42.6247 37.0297 42.6247C37.4235 42.6247 37.7974 42.7236 38.1349 42.9007C38.4818 43.0861 38.8985 43.0851 39.2453 42.8976C39.5787 42.7236 39.9526 42.6247 40.3464 42.6247C40.8464 42.6247 41.3151 42.7851 41.7193 43.0611C41.9495 43.2184 42.2641 43.1601 42.4214 42.9299C42.5787 42.6997 42.5203 42.3851 42.2901 42.2278C41.7183 41.8361 41.0537 41.6143 40.3464 41.6143C39.786 41.6143 39.2526 41.7538 38.7714 42.0059C38.7693 42.0059 38.7672 42.008 38.7651 42.0091C38.7172 42.0351 38.6589 42.0351 38.611 42.0091C38.6089 42.0091 38.6068 42.007 38.6058 42.0059C38.1245 41.7528 37.5912 41.6143 37.0308 41.6143C36.4703 41.6143 35.937 41.7538 35.4558 42.0059C35.4537 42.0059 35.4516 42.008 35.4495 42.0091C35.4016 42.0351 35.3433 42.0351 35.2953 42.0091C35.2933 42.0091 35.2912 42.007 35.2891 42.0059C34.8078 41.7528 34.2745 41.6143 33.7141 41.6143C33.0068 41.6143 32.3422 41.8361 31.7703 42.2278C31.5401 42.3851 31.4818 42.6997 31.6391 42.9299C31.7964 43.1601 32.111 43.2184 32.3412 43.0611H32.3401Z" fill="white"/>
<path fill-rule="evenodd" clip-rule="evenodd" d="M36.6406 35.7268C36.6594 35.7288 36.6781 35.7299 36.6969 35.7299C39.676 35.7299 42.376 36.0861 44.3302 37.0163C46.1531 37.884 47.2958 39.2653 47.2958 41.359C47.2958 43.4528 46.1531 44.8351 44.3302 45.7028C42.376 46.632 39.676 46.9893 36.6969 46.9893H26.4896C22.3615 46.9893 19.0115 43.6382 19.0115 39.5111C19.0115 36.1216 21.2719 33.2549 24.3667 32.3393C24.6344 32.2601 24.7865 31.9788 24.7073 31.7111C24.6281 31.4434 24.3469 31.2913 24.0792 31.3705C20.5656 32.409 18 35.6622 18 39.5101C18 44.1955 21.8031 47.9997 26.4896 47.9997H36.6969C39.8469 47.9997 42.6979 47.5986 44.7635 46.6153C46.9604 45.5695 48.3062 43.883 48.3062 41.359C48.3062 38.8351 46.9604 37.1486 44.7635 36.1028C42.7094 35.1257 39.8781 34.7226 36.749 34.7184C36.7313 34.7163 36.7135 34.7153 36.6958 34.7153C34.9469 34.7153 33.2542 34.1018 31.9125 32.9809C30.4417 31.757 28.55 31.0205 26.4896 31.0205C26.2104 31.0205 25.9844 31.2466 25.9844 31.5257C25.9844 31.8049 26.2104 32.0309 26.4896 32.0309C28.3052 32.0309 29.9708 32.6788 31.2667 33.757C32.775 35.0174 34.675 35.7122 36.6406 35.7257V35.7268Z" fill="white"/>
</g>
</g>
<defs>
<clipPath id="clip0_79_36202">
<rect width="32" height="32" fill="white" transform="translate(16.5 16)"/>
</clipPath>
<clipPath id="clip1_79_36202">
<rect width="30.5917" height="32" fill="white" transform="translate(18 16)"/>
</clipPath>
</defs>
</svg>
