<svg width="64" height="64" viewBox="0 0 64 64" fill="none" xmlns="http://www.w3.org/2000/svg">
<circle cx="32" cy="32" r="32" fill="#0093D0"/>
<g clip-path="url(#clip0_79_36137)">
<g clip-path="url(#clip1_79_36137)">
<path fill-rule="evenodd" clip-rule="evenodd" d="M20.5104 18.1911C21.8906 18.1911 23.0104 19.3119 23.0104 20.6911C23.0104 22.0702 21.8896 23.1911 20.5104 23.1911C19.1312 23.1911 18.0104 22.0702 18.0104 20.6911C18.0104 19.3119 19.1302 18.1911 20.5104 18.1911ZM20.5104 17.1807C18.5729 17.1807 17 18.7536 17 20.6911C17 22.6286 18.5729 24.2015 20.5104 24.2015C22.4479 24.2015 24.0208 22.6286 24.0208 20.6911C24.0208 18.7536 22.4479 17.1807 20.5104 17.1807Z" fill="white"/>
<path fill-rule="evenodd" clip-rule="evenodd" d="M42.0789 32.5808C39.5727 32.5808 37.5758 30.2172 37.5758 27.3464C37.5758 26.2006 37.8935 25.1391 38.4352 24.2735C38.9977 23.3756 39.2279 22.2578 39.0685 21.1672C39.0685 21.1672 39.0685 21.1651 39.0685 21.1641C39.0404 20.9756 39.0258 20.7808 39.0258 20.5828C39.0258 18.6276 40.3737 17.0099 42.0799 17.0099C43.7862 17.0099 45.1341 18.6287 45.1341 20.5828C45.1341 20.7828 45.1195 20.9787 45.0935 21.1693C44.9352 22.2568 45.1643 23.3745 45.7268 24.2714C46.2664 25.1381 46.5841 26.1995 46.5841 27.3453C46.5841 29.561 45.3977 31.4683 43.6987 32.2308C43.4445 32.3453 43.331 32.6443 43.4445 32.8985C43.5591 33.1526 43.8581 33.2662 44.1122 33.1526C46.1393 32.2422 47.5945 29.9901 47.5945 27.3453C47.5945 25.9995 47.2174 24.7537 46.5841 23.736C46.5841 23.736 46.5841 23.736 46.5841 23.7349C46.1456 23.0349 45.9706 22.1631 46.0945 21.3131C46.0945 21.3131 46.0945 21.312 46.0945 21.311C46.1279 21.0745 46.1456 20.8308 46.1456 20.5828C46.1456 18.0349 44.3039 15.9995 42.081 15.9995C39.8581 15.9995 38.0164 18.036 38.0164 20.5828C38.0164 20.8318 38.0341 21.0756 38.0695 21.3131C38.1935 22.1631 38.0185 23.036 37.5799 23.737C36.9435 24.7547 36.5664 26.0006 36.5664 27.3464C36.5664 30.811 39.057 33.5922 42.081 33.5922C42.3602 33.5922 42.5862 33.3651 42.5862 33.087C42.5862 32.8089 42.3602 32.5818 42.081 32.5818L42.0789 32.5808Z" fill="white"/>
<path fill-rule="evenodd" clip-rule="evenodd" d="M30.2906 28.5474C28.4854 28.5474 27.0573 26.8369 27.0573 24.7682C27.0573 23.939 27.2865 23.1692 27.6792 22.5432C28.1146 21.8484 28.2927 20.9828 28.1698 20.138C28.1698 20.138 28.1698 20.1359 28.1698 20.1349C28.149 20.0005 28.1396 19.8619 28.1396 19.7203C28.1396 18.3369 29.0833 17.1817 30.2906 17.1817C31.4979 17.1817 32.4417 18.3369 32.4417 19.7203C32.4417 19.863 32.4312 20.0036 32.4125 20.1401C32.2896 20.9817 32.4677 21.8474 32.9031 22.5422C33.2937 23.1692 33.524 23.939 33.524 24.7682C33.524 26.1734 32.8656 27.4078 31.8729 28.0619C31.6406 28.2151 31.576 28.5297 31.7292 28.7619C31.8823 28.9942 32.1969 29.0588 32.4292 28.9057C33.6802 28.0807 34.5333 26.539 34.5333 24.7682C34.5333 23.738 34.2448 22.7859 33.7594 22.0067C33.7594 22.0067 33.7594 22.0067 33.7594 22.0057C33.4479 21.5088 33.325 20.888 33.4125 20.2849C33.4125 20.2849 33.4125 20.2838 33.4125 20.2828C33.4385 20.1005 33.4521 19.913 33.4521 19.7213C33.4521 17.7442 32.0156 16.1724 30.2906 16.1724C28.5656 16.1724 27.1292 17.7453 27.1292 19.7213C27.1292 19.913 27.1427 20.1015 27.1698 20.2849C27.2583 20.889 27.1344 21.5099 26.8229 22.0078C26.3354 22.7859 26.0469 23.739 26.0469 24.7692C26.0469 27.4307 27.9687 29.5588 30.2906 29.5588C30.5698 29.5588 30.7958 29.3317 30.7958 29.0536C30.7958 28.7755 30.5698 28.5484 30.2906 28.5484V28.5474Z" fill="white"/>
<path fill-rule="evenodd" clip-rule="evenodd" d="M41.5723 24.0858V35.9993C41.5723 36.2785 41.7983 36.5045 42.0775 36.5045C42.3566 36.5045 42.5827 36.2785 42.5827 35.9993V24.0858C42.5827 23.8066 42.3566 23.5806 42.0775 23.5806C41.7983 23.5806 41.5723 23.8066 41.5723 24.0858Z" fill="white"/>
<path fill-rule="evenodd" clip-rule="evenodd" d="M29.7871 22.3358V33.0868C29.7871 33.3649 30.0132 33.592 30.2923 33.592C30.5715 33.592 30.7975 33.3649 30.7975 33.0868V22.3358C30.7975 22.0566 30.5715 21.8306 30.2923 21.8306C30.0132 21.8306 29.7871 22.0566 29.7871 22.3358Z" fill="white"/>
<path fill-rule="evenodd" clip-rule="evenodd" d="M21.7503 37.7774C22.1545 37.5004 22.6232 37.3399 23.1232 37.3399C23.5159 37.3399 23.8899 37.4389 24.2284 37.616C24.5753 37.8014 24.993 37.8004 25.3388 37.6129C25.6722 37.4389 26.0461 37.3399 26.4399 37.3399C26.8336 37.3399 27.2076 37.4389 27.5451 37.616C27.8919 37.8014 28.3086 37.8004 28.6555 37.6129C28.9888 37.4389 29.3628 37.3399 29.7565 37.3399C30.2565 37.3399 30.7253 37.5004 31.1294 37.7774C31.3597 37.9347 31.6742 37.8754 31.8315 37.6462C31.9888 37.416 31.9305 37.1014 31.7003 36.9441C31.1284 36.5524 30.4638 36.3306 29.7565 36.3306C29.1961 36.3306 28.6628 36.4702 28.1815 36.7222C28.1795 36.7222 28.1774 36.7243 28.1753 36.7254C28.1274 36.7514 28.069 36.7514 28.0211 36.7254C28.019 36.7254 28.017 36.7233 28.0149 36.7222C27.5336 36.4691 27.0003 36.3306 26.4399 36.3306C25.8794 36.3306 25.3461 36.4702 24.8649 36.7222C24.8628 36.7222 24.8607 36.7243 24.8586 36.7254C24.8107 36.7514 24.7524 36.7514 24.7045 36.7254C24.7024 36.7254 24.7003 36.7233 24.6992 36.7222C24.218 36.4691 23.6847 36.3306 23.1242 36.3306C22.417 36.3306 21.7524 36.5524 21.1805 36.9441C20.9503 37.1014 20.892 37.416 21.0492 37.6462C21.2065 37.8764 21.5211 37.9347 21.7513 37.7774H21.7503Z" fill="white"/>
<path fill-rule="evenodd" clip-rule="evenodd" d="M31.3401 43.0611C31.7443 42.7851 32.213 42.6247 32.713 42.6247C33.1058 42.6247 33.4797 42.7236 33.8183 42.9007C34.1651 43.0861 34.5828 43.0851 34.9287 42.8976C35.262 42.7236 35.636 42.6247 36.0297 42.6247C36.4235 42.6247 36.7974 42.7236 37.1349 42.9007C37.4818 43.0861 37.8985 43.0851 38.2453 42.8976C38.5787 42.7236 38.9526 42.6247 39.3464 42.6247C39.8464 42.6247 40.3151 42.7851 40.7193 43.0611C40.9495 43.2184 41.2641 43.1601 41.4214 42.9299C41.5787 42.6997 41.5203 42.3851 41.2901 42.2278C40.7183 41.8361 40.0537 41.6143 39.3464 41.6143C38.786 41.6143 38.2526 41.7538 37.7714 42.0059C37.7693 42.0059 37.7672 42.008 37.7651 42.0091C37.7172 42.0351 37.6589 42.0351 37.611 42.0091C37.6089 42.0091 37.6068 42.007 37.6058 42.0059C37.1245 41.7528 36.5912 41.6143 36.0308 41.6143C35.4703 41.6143 34.937 41.7538 34.4558 42.0059C34.4537 42.0059 34.4516 42.008 34.4495 42.0091C34.4016 42.0351 34.3433 42.0351 34.2953 42.0091C34.2933 42.0091 34.2912 42.007 34.2891 42.0059C33.8078 41.7528 33.2745 41.6143 32.7141 41.6143C32.0068 41.6143 31.3422 41.8361 30.7703 42.2278C30.5401 42.3851 30.4818 42.6997 30.6391 42.9299C30.7964 43.1601 31.111 43.2184 31.3412 43.0611H31.3401Z" fill="white"/>
<path fill-rule="evenodd" clip-rule="evenodd" d="M35.6406 35.7268C35.6594 35.7288 35.6781 35.7299 35.6969 35.7299C38.676 35.7299 41.376 36.0861 43.3302 37.0163C45.1531 37.884 46.2958 39.2653 46.2958 41.359C46.2958 43.4528 45.1531 44.8351 43.3302 45.7028C41.376 46.632 38.676 46.9893 35.6969 46.9893H25.4896C21.3615 46.9893 18.0115 43.6382 18.0115 39.5111C18.0115 36.1216 20.2719 33.2549 23.3667 32.3393C23.6344 32.2601 23.7865 31.9788 23.7073 31.7111C23.6281 31.4434 23.3469 31.2913 23.0792 31.3705C19.5656 32.409 17 35.6622 17 39.5101C17 44.1955 20.8031 47.9997 25.4896 47.9997H35.6969C38.8469 47.9997 41.6979 47.5986 43.7635 46.6153C45.9604 45.5695 47.3062 43.883 47.3062 41.359C47.3062 38.8351 45.9604 37.1486 43.7635 36.1028C41.7094 35.1257 38.8781 34.7226 35.749 34.7184C35.7313 34.7163 35.7135 34.7153 35.6958 34.7153C33.9469 34.7153 32.2542 34.1018 30.9125 32.9809C29.4417 31.757 27.55 31.0205 25.4896 31.0205C25.2104 31.0205 24.9844 31.2466 24.9844 31.5257C24.9844 31.8049 25.2104 32.0309 25.4896 32.0309C27.3052 32.0309 28.9708 32.6788 30.2667 33.757C31.775 35.0174 33.675 35.7122 35.6406 35.7257V35.7268Z" fill="white"/>
</g>
</g>
<defs>
<clipPath id="clip0_79_36137">
<rect width="32" height="32" fill="white" transform="translate(16 16)"/>
</clipPath>
<clipPath id="clip1_79_36137">
<rect width="30.5917" height="32" fill="white" transform="translate(17 16)"/>
</clipPath>
</defs>
</svg>
