<svg width="65" height="64" viewBox="0 0 65 64" fill="none" xmlns="http://www.w3.org/2000/svg">
<circle cx="32.75" cy="32" r="32" fill="#0093D0"/>
<g clip-path="url(#clip0_79_36082)">
<path d="M26.0273 33.1717C26.4033 33.429 26.8587 33.5797 27.3487 33.5797C27.8387 33.5797 28.294 33.429 28.67 33.1717C28.9913 33.427 29.398 33.5797 29.8407 33.5797C30.882 33.5797 31.726 32.7357 31.726 31.6944C31.726 30.8144 31.1227 30.075 30.3073 29.867C30.5953 29.4844 30.766 29.009 30.766 28.4937C30.766 27.231 29.7427 26.207 28.4793 26.207C27.8093 26.207 27.2073 26.495 26.7887 26.9537" stroke="white" stroke-width="0.8" stroke-linecap="round" stroke-linejoin="round"/>
<path d="M28.6699 33.1719V36.3139" stroke="white" stroke-width="0.8" stroke-linecap="round" stroke-linejoin="round"/>
<path d="M24.5624 27.2912C24.9511 26.7745 25.1817 26.1318 25.1817 25.4358C25.1817 23.7298 23.7991 22.3472 22.0931 22.3472C20.3871 22.3472 19.0044 23.7298 19.0044 25.4358C19.0044 25.7432 19.0497 26.0398 19.1337 26.3198C18.1057 26.8425 17.4004 27.9092 17.4004 29.1418C17.4004 30.8898 18.8171 32.3065 20.5651 32.3065C21.2271 32.3065 21.8417 32.1025 22.3497 31.7552C22.7844 32.0998 23.3337 32.3065 23.9317 32.3065C25.3384 32.3065 26.4784 31.1665 26.4784 29.7598C26.4784 28.5712 25.6637 27.5725 24.5624 27.2918V27.2912Z" stroke="white" stroke-width="0.8" stroke-linecap="round" stroke-linejoin="round"/>
<path d="M22.3496 31.7544V35.6244" stroke="white" stroke-width="0.8" stroke-linecap="round" stroke-linejoin="round"/>
<path d="M33.0588 37.1113C35.0381 37.5047 34.6674 39.1267 30.1888 39.9613C23.1228 41.278 19.2448 42.4207 22.1408 45.8693C22.8741 46.7053 23.9254 47.5987 23.9254 47.5987" stroke="white" stroke-width="0.8" stroke-linecap="round" stroke-linejoin="round"/>
<path d="M42.8659 47.5985C42.8659 47.5985 39.8093 47.2058 37.0793 45.8691C34.3486 44.5331 35.0853 43.0625 37.8366 41.4185C40.9139 39.5798 39.0693 37.4425 36.4306 37.1958C34.9373 37.0565 33.6699 37.1138 33.0586 37.1105" stroke="white" stroke-width="0.8" stroke-linecap="round" stroke-linejoin="round"/>
<path d="M33.0596 37.1117C33.0596 37.1117 26.4702 35.539 17.5176 35.417" stroke="white" stroke-width="0.8" stroke-linecap="round" stroke-linejoin="round"/>
<path d="M38.4497 26.3745C38.1711 26.2539 37.8637 26.1865 37.5404 26.1865C36.2777 26.1865 35.2537 27.2099 35.2537 28.4732C35.2537 28.7005 35.2877 28.9205 35.3491 29.1279C34.5877 29.5145 34.0664 30.3045 34.0664 31.2172C34.0664 32.5112 35.1151 33.5599 36.4091 33.5599C36.8991 33.5599 37.3544 33.4092 37.7304 33.1519C38.0517 33.4072 38.4584 33.5599 38.9011 33.5599C39.2917 33.5599 39.6544 33.4412 39.9551 33.2379" stroke="white" stroke-width="0.8" stroke-linecap="round" stroke-linejoin="round"/>
<path d="M37.7305 33.1514V36.2647" stroke="white" stroke-width="0.8" stroke-linecap="round" stroke-linejoin="round"/>
<path d="M46.2616 27.2711C46.6503 26.7545 46.8809 26.1118 46.8809 25.4158C46.8809 23.7098 45.4983 22.3271 43.7923 22.3271C42.0863 22.3271 40.7036 23.7098 40.7036 25.4158C40.7036 25.7231 40.7489 26.0198 40.8329 26.2998C39.8049 26.8225 39.0996 27.8891 39.0996 29.1218C39.0996 30.8698 40.5163 32.2865 42.2643 32.2865C42.9263 32.2865 43.5409 32.0825 44.0489 31.7351C44.4836 32.0798 45.0329 32.2865 45.6309 32.2865C47.0376 32.2865 48.1776 31.1465 48.1776 29.7398C48.1776 28.5511 47.3629 27.5525 46.2616 27.2718V27.2711Z" stroke="white" stroke-width="0.8" stroke-linecap="round" stroke-linejoin="round"/>
<path d="M44.0488 31.7344V35.6044" stroke="white" stroke-width="0.8" stroke-linecap="round" stroke-linejoin="round"/>
<path d="M33.0586 37.1117C33.0586 37.1117 39.6479 35.539 48.6006 35.417" stroke="white" stroke-width="0.8" stroke-linecap="round" stroke-linejoin="round"/>
<path d="M35.3491 47.5974C35.0544 47.5974 34.8217 47.4794 34.5751 47.3547C34.3297 47.2307 34.0597 47.0894 33.7504 47.0894C33.3997 47.0894 33.1311 47.2247 32.8717 47.356C32.6251 47.4807 32.3917 47.598 32.0977 47.598C31.8031 47.598 31.5704 47.48 31.3237 47.3554C31.0784 47.2314 30.8084 47.09 30.4991 47.09C30.1897 47.09 29.9204 47.2314 29.6744 47.3554C29.4277 47.48 29.1944 47.5974 28.9004 47.5974" stroke="white" stroke-width="0.8" stroke-linecap="round" stroke-linejoin="round"/>
<path d="M32.288 43.6473C32.0186 43.6473 31.8053 43.546 31.58 43.4386C31.3553 43.332 31.1086 43.21 30.826 43.21C30.5053 43.21 30.26 43.3266 30.0226 43.4393C29.7973 43.5466 29.584 43.648 29.3146 43.648C29.0453 43.648 28.832 43.5466 28.6066 43.4393C28.382 43.3326 28.1353 43.2106 27.8526 43.2106C27.57 43.2106 27.3233 43.3326 27.0986 43.4393C26.8733 43.5466 26.66 43.648 26.3906 43.648" stroke="white" stroke-width="0.8" stroke-linecap="round" stroke-linejoin="round"/>
<path d="M36.3835 40.5471C36.2428 40.4917 36.0882 40.4277 35.9108 40.4277C35.7095 40.4277 35.5562 40.4884 35.4075 40.5477C35.2662 40.6037 35.1328 40.6564 34.9642 40.6564C34.7955 40.6564 34.6622 40.6037 34.5208 40.5477C34.3802 40.4924 34.2255 40.4284 34.0482 40.4284C33.8708 40.4284 33.7168 40.4917 33.5762 40.5477" stroke="white" stroke-width="0.8" stroke-linecap="round" stroke-linejoin="round"/>
<path d="M20.0906 46.688C20.0906 46.688 19.6386 47.1093 19.4739 47.332C19.2646 47.03 18.9766 46.7827 18.9766 46.7827" stroke="white" stroke-width="0.8" stroke-linecap="round" stroke-linejoin="round"/>
<path d="M47.7839 46.1602C47.7839 46.1602 47.3319 46.5815 47.1673 46.8042C46.9579 46.5022 46.6699 46.2548 46.6699 46.2548" stroke="white" stroke-width="0.8" stroke-linecap="round" stroke-linejoin="round"/>
<path d="M42.5652 42.5581C42.5652 42.5581 42.1132 42.9794 41.9485 43.2021C41.7392 42.9001 41.4512 42.6528 41.4512 42.6528" stroke="white" stroke-width="0.8" stroke-linecap="round" stroke-linejoin="round"/>
<path d="M47.5456 37.8213C47.5456 37.8213 47.0936 38.2426 46.929 38.4653C46.7196 38.1633 46.4316 37.916 46.4316 37.916" stroke="white" stroke-width="0.8" stroke-linecap="round" stroke-linejoin="round"/>
<path d="M18.8093 41.0747C18.8093 41.0747 18.3573 41.496 18.1926 41.7187C17.9833 41.4167 17.6953 41.1694 17.6953 41.1694" stroke="white" stroke-width="0.8" stroke-linecap="round" stroke-linejoin="round"/>
<path d="M25.7097 37.8213C25.7097 37.8213 25.2577 38.2426 25.093 38.4653C24.8837 38.1633 24.5957 37.916 24.5957 37.916" stroke="white" stroke-width="0.8" stroke-linecap="round" stroke-linejoin="round"/>
<path d="M24.8457 21.3661L28.4744 18.9214L32.6564 23.5701" stroke="white" stroke-width="0.8" stroke-linecap="round" stroke-linejoin="round"/>
<path d="M31.2285 21.9839L38.8592 16.3999L42.6499 20.9426" stroke="white" stroke-width="0.8" stroke-linecap="round" stroke-linejoin="round"/>
<path d="M38.8582 16.3999L38.0469 18.4419L38.7729 19.4159L38.0469 20.4966" stroke="white" stroke-width="0.8" stroke-linecap="round" stroke-linejoin="round"/>
<path d="M28.4103 18.9214L27.791 20.4081L28.565 21.3981L28.141 22.3281" stroke="white" stroke-width="0.8" stroke-linecap="round" stroke-linejoin="round"/>
</g>
<defs>
<clipPath id="clip0_79_36082">
<rect width="32" height="31.9987" fill="white" transform="translate(17 16)"/>
</clipPath>
</defs>
</svg>
