<svg width="65" height="64" viewBox="0 0 65 64" fill="none" xmlns="http://www.w3.org/2000/svg">
<circle cx="32.5" cy="32" r="32" fill="#0093D0"/>
<g clip-path="url(#clip0_79_36102)">
<g clip-path="url(#clip1_79_36102)">
<path d="M34.2789 40.7451C33.3836 40.7451 32.6103 40.1085 32.4473 39.2146C32.4466 39.2092 32.4453 39.2031 32.4446 39.1977L31.806 34.8507L28.879 34.6271C27.106 34.4917 25.7088 33.1276 25.5566 31.3842C25.5398 31.1935 25.535 30.9995 25.5425 30.8082C25.5755 30.1501 25.7156 29.5121 25.9574 28.9052L27.8261 23.5544C28.0922 22.7919 28.6789 22.0482 29.3209 21.6601C29.5601 21.516 29.8706 21.5928 30.0148 21.8313C30.1589 22.0704 30.0821 22.3809 29.8437 22.5251C29.4051 22.7898 28.9679 23.3503 28.78 23.8872L26.9073 29.2487C26.9046 29.2561 26.9019 29.2635 26.8992 29.2703C26.6957 29.7762 26.5792 30.3084 26.5516 30.8527C26.5462 30.9961 26.5496 31.147 26.563 31.2959C26.6722 32.5442 27.6786 33.5216 28.9565 33.6193L32.2856 33.8739C32.5214 33.8921 32.7127 34.0706 32.7471 34.3044L33.4429 39.0415C33.5244 39.4692 33.9125 39.7663 34.3463 39.7326C34.5955 39.7137 34.8151 39.5932 34.9654 39.3931C35.1149 39.193 35.1695 38.9485 35.1176 38.704C35.1163 38.6979 35.1149 38.6925 35.1142 38.6864L34.0128 32.3711L29.2077 30.9948C28.9396 30.918 28.784 30.6384 28.8615 30.3697C28.9383 30.1016 29.2185 29.9459 29.4866 30.0234L34.5955 31.4872C34.7815 31.5405 34.9209 31.6954 34.9539 31.886L36.1079 38.5052C36.2156 39.028 36.0937 39.5723 35.7731 39.9994C35.4504 40.4292 34.9579 40.6993 34.4224 40.7397C34.3739 40.7431 34.3261 40.7451 34.2789 40.7451Z" fill="white"/>
<path d="M22.6938 44.4497C22.6527 44.4497 22.6109 44.4483 22.5692 44.4456C22.072 44.4113 21.6065 44.1708 21.2906 43.7854C20.6944 43.0586 20.7456 42.0185 21.4058 41.3543L24.5281 37.5455L25.7872 34.5498C25.8956 34.2925 26.1913 34.1719 26.4487 34.2797C26.706 34.3875 26.8266 34.6839 26.7188 34.9412L25.4308 38.0043C25.4119 38.0494 25.3863 38.0912 25.356 38.1289L22.1704 42.0144C22.1582 42.0293 22.1454 42.0427 22.132 42.0562C21.8302 42.3506 21.8039 42.8181 22.0713 43.1448C22.2135 43.3179 22.4149 43.4224 22.6386 43.4378C22.8548 43.4527 23.0616 43.3833 23.2239 43.2411L27.0738 38.884L28.6164 35.4673C28.731 35.2134 29.0301 35.0995 29.2847 35.2147C29.5393 35.3292 29.6518 35.629 29.5373 35.883L27.9637 39.369C27.9428 39.4149 27.9152 39.458 27.8815 39.4957L23.9616 43.931C23.9501 43.9437 23.938 43.9559 23.9259 43.968C23.5904 44.2779 23.1465 44.4497 22.6924 44.4497H22.6938Z" fill="white"/>
<path d="M33.8877 23.0215C33.0949 23.0215 32.3485 22.7015 31.7833 22.1444C31.2134 21.582 30.8961 20.8248 30.8907 20.0238C30.8853 19.2235 31.1918 18.465 31.7536 17.8951C32.3161 17.3252 33.0666 17.0059 33.8675 17.0005C34.6698 16.9971 35.423 17.301 35.9929 17.8628C36.5628 18.4253 36.88 19.175 36.8854 19.9753C36.8908 20.7756 36.5843 21.5449 36.0225 22.1148C35.4607 22.6847 34.7096 22.9542 33.9093 23.0215H33.8877ZM33.9019 22.0111L33.9052 22.5021L33.9019 21.9895C34.4327 21.9861 34.9298 21.7719 35.3024 21.394C35.6749 21.0161 35.8783 20.5142 35.8743 19.9834C35.8709 19.4526 35.6608 18.9682 35.2828 18.5957C34.9083 18.2265 34.4132 18.0366 33.8877 18.0366H33.8736C33.3428 18.0366 32.8456 18.2366 32.4724 18.6146C32.0999 18.9925 31.8964 19.4863 31.9005 20.0164C31.9039 20.5472 32.114 21.0552 32.4919 21.4277C32.8665 21.7968 33.3616 22.0104 33.8871 22.0104H33.9012L33.9019 22.0111Z" fill="white"/>
<path d="M37.2073 29.4216C37.1609 29.4216 37.1144 29.4195 37.0679 29.4155L32.8145 29.043C32.085 28.979 31.4423 28.4993 31.1735 27.819L29.7993 24.8623C29.6814 24.6091 29.7912 24.3086 30.0445 24.1914C30.2978 24.0735 30.5982 24.1833 30.7155 24.4366L32.0964 27.408C32.1011 27.4181 32.1059 27.4289 32.1099 27.4397C32.2372 27.7711 32.5484 28.0056 32.9028 28.0365L37.1561 28.4091C37.3252 28.4239 37.4876 28.3686 37.6129 28.2541C37.7382 28.1396 37.8069 27.9827 37.8069 27.8129C37.8069 27.5044 37.5657 27.2423 37.2585 27.216L33.4201 26.8934C33.1891 26.8738 33.0011 26.7 32.9634 26.471L32.6919 24.797C32.6475 24.5215 32.8341 24.2621 33.1096 24.2177C33.3851 24.1732 33.6445 24.3598 33.6889 24.6353L33.8971 25.92L37.3427 26.2096C38.1693 26.279 38.8173 26.9836 38.8173 27.8129C38.8173 28.2629 38.6267 28.6954 38.2953 28.9992C37.9982 29.2713 37.6075 29.4216 37.2073 29.4216Z" fill="white"/>
<path d="M31.0581 31.3261C30.9887 31.3261 30.9186 31.312 30.8513 31.2817C30.5966 31.1671 30.4828 30.8687 30.5973 30.6141L31.7263 28.0974C31.8408 27.8427 32.1393 27.7289 32.3939 27.8434C32.6485 27.9579 32.7624 28.2563 32.6479 28.511L31.5188 31.0277C31.4346 31.215 31.2507 31.3261 31.0574 31.3261H31.0581Z" fill="white"/>
<path d="M26.4428 29.5702C26.331 29.5702 26.2185 29.5332 26.1249 29.4571L24.5977 28.2162C23.3852 27.2313 23.0214 25.5068 23.7328 24.1164L25.5711 20.5232C26.143 19.405 27.2788 18.7104 28.5345 18.7104H29.8461C30.1249 18.7104 30.3513 18.9368 30.3513 19.2157C30.3513 19.4946 30.1249 19.7209 29.8461 19.7209H28.5345C27.6594 19.7209 26.8686 20.2046 26.4704 20.9833L24.6321 24.5765C24.1369 25.5452 24.3896 26.7456 25.2343 27.4321L26.7615 28.6729C26.9784 28.8488 27.0107 29.1667 26.8349 29.3836C26.7352 29.5062 26.5897 29.5702 26.4421 29.5702H26.4428Z" fill="white"/>
<path d="M33.1926 25.2211C33.0194 25.2211 32.851 25.1322 32.7574 24.9726C32.7426 24.9476 31.2619 22.503 28.4596 22.0712C28.1841 22.0287 27.9948 21.7707 28.0372 21.4952C28.0796 21.2197 28.3376 21.0304 28.6132 21.0728C31.9005 21.5787 33.559 24.342 33.6277 24.4599C33.7692 24.7004 33.689 25.0103 33.4479 25.1517C33.3677 25.1989 33.2795 25.2218 33.1926 25.2218V25.2211Z" fill="white"/>
<path d="M17.5034 47.7484C17.2919 47.7484 17.0952 47.615 17.0245 47.4035C16.9356 47.1387 17.0784 46.8524 17.3431 46.7642L30.0487 42.5074L31.9335 41.4087C31.9989 41.371 32.0716 41.3481 32.1471 41.3414L36.5917 40.9816L43.96 32.6649C44.0415 32.5726 44.154 32.5133 44.276 32.4985L48.4303 31.9858C48.7065 31.9515 48.9591 32.1482 48.9935 32.425C49.0278 32.7019 48.8311 32.9539 48.5543 32.9882L44.5892 33.4779L37.2128 41.8042C37.1266 41.9018 37.0054 41.9625 36.8753 41.9726L32.3424 42.3397L30.5121 43.4067C30.4825 43.4243 30.4508 43.4384 30.4185 43.4492L17.6638 47.7221C17.6105 47.7396 17.5566 47.7484 17.5034 47.7484Z" fill="white"/>
<path d="M37.3726 39.5464C37.3679 39.5464 37.3638 39.5464 37.3591 39.5464C37.0802 39.539 36.86 39.3073 36.8674 39.0284L37.093 30.3586C37.1004 30.0797 37.3322 29.8601 37.6111 29.8669C37.89 29.8743 38.1102 30.106 38.1028 30.3849L37.8772 39.0546C37.8697 39.3288 37.6454 39.5464 37.3726 39.5464Z" fill="white"/>
<path d="M37.691 27.2876C37.6862 27.2876 37.6822 27.2876 37.6775 27.2876C37.3986 27.2802 37.1783 27.0485 37.1857 26.7696L37.3077 22.0783C37.3151 21.7994 37.5481 21.5798 37.8257 21.5866C38.1046 21.594 38.3249 21.8257 38.3174 22.1046L38.1955 26.7958C38.1881 27.07 37.9638 27.2876 37.691 27.2876Z" fill="white"/>
</g>
</g>
<defs>
<clipPath id="clip0_79_36102">
<rect width="32" height="32" fill="white" transform="translate(16.5 16)"/>
</clipPath>
<clipPath id="clip1_79_36102">
<rect width="32" height="30.7477" fill="white" transform="translate(17 17)"/>
</clipPath>
</defs>
</svg>
