<svg width="64" height="64" viewBox="0 0 64 64" fill="none" xmlns="http://www.w3.org/2000/svg">
<circle cx="32" cy="32" r="32" fill="#0093D0"/>
<g clip-path="url(#clip0_79_36063)">
<g clip-path="url(#clip1_79_36063)">
<path d="M20.4164 40.6611C19.5706 40.6611 18.8828 41.3496 18.8828 42.1953C18.8828 43.0411 19.5712 43.7302 20.4164 43.7302C21.2615 43.7302 21.9526 43.0418 21.9526 42.1953C21.9526 41.3489 21.2641 40.6611 20.4164 40.6611ZM20.4164 42.9336C20.0101 42.9336 19.6795 42.603 19.6795 42.196C19.6795 41.7891 20.0101 41.4584 20.4164 41.4584C20.8226 41.4584 21.1559 41.7891 21.1559 42.196C21.1559 42.603 20.8253 42.9336 20.4164 42.9336Z" fill="white"/>
<path d="M24.85 40.6611C24.0042 40.6611 23.3164 41.3496 23.3164 42.1953C23.3164 43.0411 24.0048 43.7302 24.85 43.7302C25.6951 43.7302 26.3835 43.0418 26.3835 42.1953C26.3835 41.3489 25.6951 40.6611 24.85 40.6611ZM24.85 42.9336C24.4437 42.9336 24.1131 42.603 24.1131 42.196C24.1131 41.7891 24.4437 41.4584 24.85 41.4584C25.2562 41.4584 25.5869 41.7891 25.5869 42.196C25.5869 42.603 25.2562 42.9336 24.85 42.9336Z" fill="white"/>
<path d="M29.2816 40.6611C28.4358 40.6611 27.748 41.3496 27.748 42.1953C27.748 43.0411 28.4365 43.7302 29.2816 43.7302C30.1267 43.7302 30.8151 43.0418 30.8151 42.1953C30.8151 41.3489 30.1294 40.6611 29.2816 40.6611ZM29.2816 42.9336C28.8753 42.9336 28.5447 42.603 28.5447 42.196C28.5447 41.7891 28.8753 41.4584 29.2816 41.4584C29.6879 41.4584 30.0185 41.7891 30.0185 42.196C30.0185 42.603 29.6879 42.9336 29.2816 42.9336Z" fill="white"/>
<path d="M47.5745 40.1625L47.4417 40.0371C46.8966 39.5206 46.0323 39.5438 45.5151 40.0895L45.4527 40.1552C44.3361 41.3336 42.9353 41.9311 41.2849 41.9311H40.4557L39.1765 39.4449C41.3115 38.6024 42.9944 37.2189 43.8183 35.5021C43.878 35.374 43.8674 35.222 43.7857 35.1051C42.924 33.8438 41.2331 32.5579 39.1492 31.5767C37.5068 30.8033 34.8812 29.8718 31.7079 29.824C31.597 29.8227 31.4941 29.8652 31.4178 29.9429L30.0409 31.3436L29.2144 30.5158L30.2281 29.5027C30.3828 29.3474 30.3828 29.0951 30.2281 28.9398C30.0708 28.7838 29.8192 28.7838 29.6645 28.9398L27.0741 31.5289C26.9194 31.6842 26.9194 31.9365 27.0741 32.0925C27.1524 32.1702 27.2553 32.2093 27.3562 32.2093C27.4571 32.2093 27.5594 32.1702 27.6384 32.0925L28.6521 31.0794L29.4839 31.9119L27.3974 34.0363H25.425C25.3898 34.3211 25.2942 34.58 25.18 34.833H27.5627C27.6709 34.833 27.7711 34.7905 27.8475 34.7141L28.7092 33.8385L29.5709 35.2246L27.5713 36.6633H24.4923C24.4146 36.9328 24.3323 37.1997 24.2241 37.4599H27.6994C27.7837 37.4599 27.8647 37.434 27.9325 37.3849L30.339 35.6542C30.5096 35.532 30.5587 35.2983 30.4472 35.1198L29.2848 33.2543L31.8672 30.624C36.6989 30.7508 41.3055 33.1315 42.9937 35.3667C41.6494 37.8795 38.1813 39.5531 34.2598 39.5531H19.1461L16.7966 35.372V33.8179H20.4712C20.7666 33.8179 21.0129 33.958 21.1649 34.2136L21.3269 34.4864C21.4418 34.2421 21.5666 34.0025 21.6509 33.7462C21.6675 33.6951 21.692 33.6539 21.7226 33.6207C21.4205 33.2377 20.9744 33.0219 20.4718 33.0219H16.3983C16.1786 33.0219 16 33.2005 16 33.4202V35.4769C16 35.5453 16.0193 35.6123 16.0518 35.6721L18.287 39.6487C17.4253 39.9169 16.7993 40.7215 16.7993 41.6689V42.7244C16.7993 43.8908 17.748 44.8402 18.9131 44.8402H30.7844C31.9522 44.8402 32.9009 43.8915 32.9009 42.7244V41.6689C32.9009 41.1703 32.7276 40.7122 32.4375 40.3504H34.2585C35.727 40.3504 37.139 40.1254 38.421 39.7157L39.5589 41.9324H36.5429C35.792 41.9324 35.18 42.5438 35.18 43.2953V43.4773C35.18 44.2288 35.7927 44.8402 36.5429 44.8402H41.2849C43.7293 44.8402 45.9022 43.9121 47.5638 42.1561L47.6289 42.0898C47.8686 41.8355 47.992 41.5128 48 41.1876V41.1172C47.9907 40.768 47.8486 40.4221 47.5745 40.1632V40.1625ZM32.1042 42.7231C32.1042 43.4507 31.5107 44.0422 30.7844 44.0422H18.9131C18.1868 44.0422 17.596 43.4507 17.596 42.7231V41.6675C17.596 40.9406 18.1868 40.3491 18.9131 40.3491H30.7844C31.5107 40.3491 32.1042 40.9406 32.1042 41.6675V42.7231ZM47.0487 41.5414L46.9863 41.6078C45.4766 43.2011 43.5043 44.0429 41.2849 44.0429H36.5429C36.2315 44.0429 35.9766 43.7893 35.9766 43.4766V43.2947C35.9766 42.9827 36.2315 42.7284 36.5429 42.7284H41.2849C43.163 42.7284 44.759 42.0473 46.0323 40.7036L46.0947 40.6372C46.3085 40.4108 46.6689 40.4009 46.894 40.616L47.0268 40.7408C47.2545 40.9559 47.2624 41.315 47.0487 41.5414Z" fill="white"/>
<path d="M28.843 24.2675C29.2951 24.4354 29.7738 24.4792 30.2385 24.3996C30.4715 24.3597 30.6999 24.2894 30.9203 24.1878C31.5802 23.8844 32.0834 23.3427 32.3337 22.6622C32.8535 21.2575 32.1345 19.6907 30.7298 19.1702C30.0493 18.9186 29.3104 18.9465 28.6505 19.2499C27.9926 19.5526 27.4894 20.0944 27.2371 20.7755C26.7173 22.1802 27.4389 23.7463 28.8437 24.2668L28.843 24.2675ZM27.8313 20.9952C28.0238 20.4734 28.4089 20.0578 28.9167 19.8248C29.0847 19.7472 29.2606 19.6927 29.4392 19.6628C29.7957 19.6018 30.1635 19.635 30.5107 19.7644C31.5895 20.1634 32.1412 21.365 31.7428 22.4431C31.3438 23.5213 30.1402 24.0736 29.0634 23.6746C27.9846 23.2756 27.433 22.074 27.8313 20.9959V20.9952Z" fill="white"/>
<path d="M28.754 27.7148L26.2957 26.2875L26.6389 24.2454C26.6715 24.0409 26.6894 23.8365 26.69 23.636C26.6894 22.9031 26.2725 22.2651 25.6026 21.971C24.9308 21.6769 24.1793 21.803 23.6402 22.3003L16.8448 28.5712C16.2925 29.0804 16.0156 29.7463 16.0428 30.4971C16.0462 30.5668 16.0515 30.6359 16.0608 30.7036L16.2095 31.3203C16.3655 31.7213 16.6257 32.0725 16.9869 32.3573C17.3228 32.6235 17.7098 32.8213 18.1413 32.9468L21.4527 33.9094L19.9809 37.8807C19.7539 38.4948 19.8661 39.152 20.2193 39.6486L20.1595 39.6413C20.4915 40.1525 21.1381 40.2673 21.713 40.2959C22.0788 40.3138 22.4432 40.2839 22.7938 40.1983C22.813 40.1863 22.8323 40.1777 22.8515 40.1704C22.8801 40.1545 22.906 40.1379 22.9206 40.1266C22.9066 40.1372 22.9591 40.0874 22.9664 40.0814C22.9319 40.11 22.9863 40.0376 22.9664 40.0887C22.9783 40.0582 22.9929 40.0297 23.0102 40.0038L22.9889 40.0011C23.2352 39.7953 23.4337 39.5251 23.5532 39.2031L25.5117 33.9161C25.7546 33.2562 25.7234 32.6003 25.4167 31.9663C25.11 31.3323 24.6174 30.9001 23.9469 30.6817L22.7334 30.2847L21.1573 29.7702L23.1987 27.8715C23.3979 28.2472 23.7019 28.5692 24.0943 28.7956L24.9494 29.2922L24.9294 29.2955C24.9467 29.3028 24.964 29.3114 24.9812 29.3221C25.2547 29.494 25.5774 29.571 25.8151 29.7954H25.817L27.1103 30.5462C27.486 30.7653 27.9282 30.8237 28.3517 30.7109C28.7733 30.5987 29.1291 30.3292 29.3462 29.9521C29.8003 29.172 29.5327 28.1682 28.7527 27.7148H28.754ZM22.9611 26.3818C22.9119 26.6672 22.9166 26.9507 22.969 27.2209L20.3341 29.6719C20.2531 29.7476 20.2179 29.8618 20.2412 29.9713C20.2472 29.9939 20.2551 30.0151 20.2631 30.0357L20.2551 30.037C20.3062 30.0669 20.3494 30.1134 20.3773 30.1785C20.3813 30.1811 23.7517 31.2818 23.7517 31.2818C24.251 31.4451 24.6201 31.7678 24.8491 32.2404C25.0782 32.7138 25.1007 33.2031 24.9188 33.6956L22.9624 38.9827C22.7168 39.6413 21.9845 39.9779 21.3273 39.7342C20.668 39.4906 20.3315 38.7577 20.5744 38.0998L22.1624 33.8098C22.1943 33.7275 22.1877 33.6366 22.1478 33.5576C22.108 33.4792 22.0396 33.4208 21.9546 33.3962L18.3173 32.3387C17.9661 32.2358 17.6501 32.0751 17.3779 31.8607C17.1475 31.6761 16.9716 31.4611 16.8534 31.2167L16.8634 31.2154C16.8275 31.147 16.7997 31.0747 16.7811 31.0116C16.7764 31.0003 16.7758 30.997 16.7771 31.0003C16.7685 30.9804 16.7605 30.9605 16.7519 30.9406C16.7366 30.9021 16.7207 30.8629 16.7094 30.8224C16.6881 30.7467 16.6815 30.6764 16.6848 30.6033C16.6795 30.5602 16.6768 30.5164 16.6755 30.4725C16.6529 29.9049 16.8541 29.4216 17.2723 29.0353L23.4729 23.3127L22.9597 26.3811L22.9611 26.3818ZM28.8018 29.6347C28.6664 29.8658 28.4506 30.0304 28.1891 30.0995C27.9282 30.1685 27.658 30.1326 27.4276 29.9992L24.4116 28.2486C23.7796 27.8821 23.4636 27.207 23.5831 26.4867L24.2291 22.6388C24.5603 22.4191 24.9666 22.3839 25.3464 22.5512C25.7898 22.7457 26.0554 23.1514 26.0554 23.6366C26.0554 23.802 26.0408 23.9719 26.0129 24.1419L25.6345 26.3997C25.6132 26.5298 25.6743 26.6593 25.7885 26.7256L28.436 28.2625C28.9153 28.5407 29.0773 29.1568 28.8012 29.6354L28.8018 29.6347Z" fill="white"/>
</g>
</g>
<defs>
<clipPath id="clip0_79_36063">
<rect width="32" height="32" fill="white" transform="translate(16 16)"/>
</clipPath>
<clipPath id="clip1_79_36063">
<rect width="32" height="25.8386" fill="white" transform="translate(16 19)"/>
</clipPath>
</defs>
</svg>
