<svg width="65" height="64" viewBox="0 0 65 64" fill="none" xmlns="http://www.w3.org/2000/svg">
<circle cx="32.5" cy="32" r="32" fill="#0093D0"/>
<path d="M36.0566 42.977L38.059 43.3412L41.2928 46.9652C41.7833 47.515 42.613 47.5976 43.2026 47.1556C43.8618 46.6613 43.9625 45.711 43.4216 45.0893L40.068 41.2353C39.8177 40.9476 39.4929 40.7347 39.1295 40.6198L38.4752 40.4131" stroke="white" stroke-width="0.8" stroke-linecap="round" stroke-linejoin="round"/>
<path d="M33.5017 42.3378C33.2059 42.244 32.9213 42.0979 32.6614 41.8973L27.6159 38.0169C27.0249 37.5716 26.563 36.6715 26.4922 35.9922" stroke="white" stroke-width="0.8" stroke-linecap="round" stroke-linejoin="round"/>
<path d="M34.8076 38.1804L36.4242 36.4685C36.9269 35.9362 37.6267 35.6348 38.3588 35.6348H43.2959C44.0769 35.6348 44.7101 36.268 44.7101 37.049C44.7101 37.83 44.0769 38.4632 43.2959 38.4632H38.7676L36.4723 41.4142C36.0103 42.0082 35.3507 42.3586 34.6582 42.4443" stroke="white" stroke-width="0.8" stroke-linecap="round" stroke-linejoin="round"/>
<path d="M31.0664 35.3965L32.388 36.3799" stroke="white" stroke-width="0.8" stroke-linecap="round" stroke-linejoin="round"/>
<path d="M31.0677 35.3976L33.063 34.3231C33.6397 34.0124 34.0787 33.496 34.292 32.8766L35.3859 29.7018C35.5834 29.1287 35.3327 28.4975 34.7959 28.216C34.1448 27.8745 33.3417 28.1786 33.08 28.8658L31.7679 32.3118L29.0439 33.4438C28.6383 33.6123 28.2637 33.8443 27.9336 34.1296" stroke="white" stroke-width="0.8" stroke-linecap="round" stroke-linejoin="round"/>
<path d="M24.4844 29.7178C25.9871 29.7178 27.2052 30.9359 27.2052 32.4386C27.2052 33.9413 25.9871 35.1594 24.4844 35.1594" stroke="white" stroke-width="0.8" stroke-linecap="round" stroke-linejoin="round"/>
<path d="M24.3323 29.1064C22.492 29.1064 21 30.5984 21 32.4387C21 34.2791 22.492 35.771 24.3323 35.771V29.1064Z" stroke="white" stroke-width="0.8" stroke-linecap="round" stroke-linejoin="round"/>
<path d="M22.6003 30.8799C22.1991 31.2628 21.9492 31.8028 21.9492 32.4011" stroke="white" stroke-width="0.8" stroke-linecap="round" stroke-linejoin="round"/>
<path d="M25.4258 35.0908L26.5864 36.0432" stroke="white" stroke-width="0.8" stroke-linecap="round" stroke-linejoin="round"/>
<path d="M27.9337 34.1298L27.0312 33.4004" stroke="white" stroke-width="0.8" stroke-linecap="round" stroke-linejoin="round"/>
<path d="M26.5879 36.0441L27.9349 34.0527" stroke="white" stroke-width="0.8" stroke-linecap="round" stroke-linejoin="round"/>
<path d="M42.6309 38.2119V35.7715" stroke="white" stroke-width="0.8" stroke-linecap="round" stroke-linejoin="round"/>
<path d="M40.7793 46.3878L42.9292 44.5215" stroke="white" stroke-width="0.8" stroke-linecap="round" stroke-linejoin="round"/>
<path d="M29.5059 39.4775L33.4791 35.3992L33.5012 34.1289" stroke="white" stroke-width="0.8" stroke-linecap="round" stroke-linejoin="round"/>
<path d="M34.6602 28.1552V25.9033" stroke="white" stroke-width="0.8" stroke-linecap="round" stroke-linejoin="round"/>
<path d="M34.66 31.8037V42.7921C34.66 43.1117 34.401 43.3709 34.0812 43.3709C33.7617 43.3709 33.5024 43.1119 33.5024 42.7921V37.0494L30.5098 40.1485" stroke="white" stroke-width="0.8" stroke-linecap="round" stroke-linejoin="round"/>
<path d="M33.5039 25.9033V28.3105" stroke="white" stroke-width="0.8" stroke-linecap="round" stroke-linejoin="round"/>
<path d="M42.1954 25.4813L24.0469 18.3398" stroke="white" stroke-width="0.8" stroke-linecap="round" stroke-linejoin="round"/>
<path d="M42.1954 24.1415L24.0469 17" stroke="white" stroke-width="0.8" stroke-linecap="round" stroke-linejoin="round"/>
<path d="M36.9697 23.5494C36.6948 24.893 35.506 25.9036 34.0812 25.9036C32.4528 25.9036 31.1328 24.5836 31.1328 22.9552V21.3203" stroke="white" stroke-width="0.8" stroke-linecap="round" stroke-linejoin="round"/>
<path d="M35.7483 23.0804C35.6841 23.9461 34.9616 24.6284 34.0795 24.6284C33.1974 24.6284 32.4062 23.8793 32.4062 22.9551V21.8877" stroke="white" stroke-width="0.8" stroke-linecap="round" stroke-linejoin="round"/>
<path d="M31.8157 19.9887C32.47 19.9887 33.0005 19.4583 33.0005 18.8039C33.0005 18.1496 32.47 17.6191 31.8157 17.6191C31.1613 17.6191 30.6309 18.1496 30.6309 18.8039C30.6309 19.4583 31.1613 19.9887 31.8157 19.9887Z" stroke="white" stroke-width="0.8" stroke-linecap="round" stroke-linejoin="round"/>
<path d="M37.0913 21.643C37.6958 21.3926 37.9829 20.6996 37.7325 20.095C37.4821 19.4905 36.789 19.2034 36.1845 19.4538C35.5799 19.7042 35.2928 20.3973 35.5432 21.0018C35.7937 21.6064 36.4867 21.8935 37.0913 21.643Z" stroke="white" stroke-width="0.8" stroke-linecap="round" stroke-linejoin="round"/>
<path d="M33 29.5234L35.1962 30.2466" stroke="white" stroke-width="0.8" stroke-linecap="round" stroke-linejoin="round"/>
</svg>
