<svg width="65" height="64" viewBox="0 0 65 64" fill="none" xmlns="http://www.w3.org/2000/svg">
<circle cx="32.75" cy="32" r="32" fill="#0093D0"/>
<g clip-path="url(#clip0_79_36945)">
<g clip-path="url(#clip1_79_36945)">
<path d="M21.4164 40.6602C20.5706 40.6602 19.8828 41.3486 19.8828 42.1944C19.8828 43.0401 20.5712 43.7292 21.4164 43.7292C22.2615 43.7292 22.9526 43.0408 22.9526 42.1944C22.9526 41.3479 22.2641 40.6602 21.4164 40.6602ZM21.4164 42.9326C21.0101 42.9326 20.6795 42.602 20.6795 42.195C20.6795 41.7881 21.0101 41.4575 21.4164 41.4575C21.8226 41.4575 22.1559 41.7881 22.1559 42.195C22.1559 42.602 21.8253 42.9326 21.4164 42.9326Z" fill="white"/>
<path d="M25.85 40.6602C25.0042 40.6602 24.3164 41.3486 24.3164 42.1944C24.3164 43.0401 25.0048 43.7292 25.85 43.7292C26.6951 43.7292 27.3835 43.0408 27.3835 42.1944C27.3835 41.3479 26.6951 40.6602 25.85 40.6602ZM25.85 42.9326C25.4437 42.9326 25.1131 42.602 25.1131 42.195C25.1131 41.7881 25.4437 41.4575 25.85 41.4575C26.2562 41.4575 26.5869 41.7881 26.5869 42.195C26.5869 42.602 26.2562 42.9326 25.85 42.9326Z" fill="white"/>
<path d="M30.2816 40.6602C29.4358 40.6602 28.748 41.3486 28.748 42.1944C28.748 43.0401 29.4365 43.7292 30.2816 43.7292C31.1267 43.7292 31.8151 43.0408 31.8151 42.1944C31.8151 41.3479 31.1294 40.6602 30.2816 40.6602ZM30.2816 42.9326C29.8753 42.9326 29.5447 42.602 29.5447 42.195C29.5447 41.7881 29.8753 41.4575 30.2816 41.4575C30.6879 41.4575 31.0185 41.7881 31.0185 42.195C31.0185 42.602 30.6879 42.9326 30.2816 42.9326Z" fill="white"/>
<path d="M48.5745 40.162L48.4417 40.0366C47.8966 39.5201 47.0323 39.5433 46.5151 40.089L46.4527 40.1547C45.3361 41.3331 43.9353 41.9306 42.2849 41.9306H41.4557L40.1765 39.4444C42.3115 38.6019 43.9944 37.2184 44.8183 35.5017C44.878 35.3735 44.8674 35.2215 44.7857 35.1047C43.924 33.8433 42.2331 32.5574 40.1492 31.5762C38.5068 30.8028 35.8812 29.8714 32.7079 29.8236C32.597 29.8222 32.4941 29.8647 32.4178 29.9424L31.0409 31.3432L30.2144 30.5153L31.2281 29.5022C31.3828 29.3469 31.3828 29.0946 31.2281 28.9393C31.0708 28.7833 30.8192 28.7833 30.6645 28.9393L28.0741 31.5284C27.9194 31.6837 27.9194 31.936 28.0741 32.092C28.1524 32.1697 28.2553 32.2088 28.3562 32.2088C28.4571 32.2088 28.5594 32.1697 28.6384 32.092L29.6521 31.0789L30.4839 31.9114L28.3974 34.0358H26.425C26.3898 34.3206 26.2942 34.5795 26.18 34.8325H28.5627C28.6709 34.8325 28.7711 34.79 28.8475 34.7136L29.7092 33.838L30.5709 35.2242L28.5713 36.6628H25.4923C25.4146 36.9323 25.3323 37.1992 25.2241 37.4594H28.6994C28.7837 37.4594 28.8647 37.4335 28.9325 37.3844L31.339 35.6537C31.5096 35.5315 31.5587 35.2978 31.4472 35.1193L30.2848 33.2538L32.8672 30.6235C37.6989 30.7503 42.3055 33.131 43.9937 35.3662C42.6494 37.879 39.1813 39.5526 35.2598 39.5526H20.1461L17.7966 35.3715V33.8174H21.4712C21.7666 33.8174 22.0129 33.9575 22.1649 34.2131L22.3269 34.4859C22.4418 34.2416 22.5666 34.002 22.6509 33.7457C22.6675 33.6946 22.692 33.6534 22.7226 33.6202C22.4205 33.2372 21.9744 33.0214 21.4718 33.0214H17.3983C17.1786 33.0214 17 33.2 17 33.4198V35.4764C17 35.5448 17.0193 35.6119 17.0518 35.6716L19.287 39.6482C18.4253 39.9164 17.7993 40.721 17.7993 41.6684V42.7239C17.7993 43.8904 18.748 44.8397 19.9131 44.8397H31.7844C32.9522 44.8397 33.9009 43.891 33.9009 42.7239V41.6684C33.9009 41.1698 33.7276 40.7117 33.4375 40.3499H35.2585C36.727 40.3499 38.139 40.1249 39.421 39.7153L40.5589 41.9319H37.5429C36.792 41.9319 36.18 42.5434 36.18 43.2949V43.4768C36.18 44.2283 36.7927 44.8397 37.5429 44.8397H42.2849C44.7293 44.8397 46.9022 43.9116 48.5638 42.1557L48.6289 42.0893C48.8686 41.835 48.992 41.5124 49 41.1871V41.1167C48.9907 40.7675 48.8486 40.4216 48.5745 40.1627V40.162ZM33.1042 42.7226C33.1042 43.4502 32.5107 44.0417 31.7844 44.0417H19.9131C19.1868 44.0417 18.596 43.4502 18.596 42.7226V41.667C18.596 40.9401 19.1868 40.3486 19.9131 40.3486H31.7844C32.5107 40.3486 33.1042 40.9401 33.1042 41.667V42.7226ZM48.0487 41.5409L47.9863 41.6073C46.4766 43.2006 44.5043 44.0424 42.2849 44.0424H37.5429C37.2315 44.0424 36.9766 43.7888 36.9766 43.4761V43.2942C36.9766 42.9822 37.2315 42.7279 37.5429 42.7279H42.2849C44.163 42.7279 45.759 42.0468 47.0323 40.7031L47.0947 40.6367C47.3085 40.4103 47.6689 40.4004 47.894 40.6155L48.0268 40.7403C48.2545 40.9554 48.2624 41.3145 48.0487 41.5409Z" fill="white"/>
<path d="M29.843 24.2675C30.2951 24.4354 30.7738 24.4792 31.2385 24.3996C31.4715 24.3597 31.6999 24.2894 31.9203 24.1878C32.5802 23.8844 33.0834 23.3427 33.3337 22.6622C33.8535 21.2575 33.1345 19.6907 31.7298 19.1702C31.0493 18.9186 30.3104 18.9465 29.6505 19.2499C28.9926 19.5526 28.4894 20.0944 28.2371 20.7755C27.7173 22.1802 28.4389 23.7463 29.8437 24.2668L29.843 24.2675ZM28.8313 20.9952C29.0238 20.4734 29.4089 20.0578 29.9167 19.8248C30.0847 19.7472 30.2606 19.6927 30.4392 19.6628C30.7957 19.6018 31.1635 19.635 31.5107 19.7644C32.5895 20.1634 33.1412 21.365 32.7428 22.4431C32.3438 23.5213 31.1402 24.0736 30.0634 23.6746C28.9846 23.2756 28.433 22.074 28.8313 20.9959V20.9952Z" fill="white"/>
<path d="M29.754 27.7148L27.2957 26.2875L27.6389 24.2454C27.6715 24.0409 27.6894 23.8365 27.69 23.636C27.6894 22.9031 27.2725 22.2651 26.6026 21.971C25.9308 21.6769 25.1793 21.803 24.6402 22.3003L17.8448 28.5712C17.2925 29.0804 17.0156 29.7463 17.0428 30.4971C17.0462 30.5668 17.0515 30.6359 17.0608 30.7036L17.2095 31.3203C17.3655 31.7213 17.6257 32.0725 17.9869 32.3573C18.3228 32.6235 18.7098 32.8213 19.1413 32.9468L22.4527 33.9094L20.9809 37.8807C20.7539 38.4948 20.8661 39.152 21.2193 39.6486L21.1595 39.6413C21.4915 40.1525 22.1381 40.2673 22.713 40.2959C23.0788 40.3138 23.4432 40.2839 23.7938 40.1983C23.813 40.1863 23.8323 40.1777 23.8515 40.1704C23.8801 40.1545 23.906 40.1379 23.9206 40.1266C23.9066 40.1372 23.9591 40.0874 23.9664 40.0814C23.9319 40.11 23.9863 40.0376 23.9664 40.0887C23.9783 40.0582 23.9929 40.0297 24.0102 40.0038L23.9889 40.0011C24.2352 39.7953 24.4337 39.5251 24.5532 39.2031L26.5117 33.9161C26.7546 33.2562 26.7234 32.6003 26.4167 31.9663C26.11 31.3323 25.6174 30.9001 24.9469 30.6817L23.7334 30.2847L22.1573 29.7702L24.1987 27.8715C24.3979 28.2472 24.7019 28.5692 25.0943 28.7956L25.9494 29.2922L25.9294 29.2955C25.9467 29.3028 25.964 29.3114 25.9812 29.3221C26.2547 29.494 26.5774 29.571 26.8151 29.7954H26.817L28.1103 30.5462C28.486 30.7653 28.9282 30.8237 29.3517 30.7109C29.7733 30.5987 30.1291 30.3292 30.3462 29.9521C30.8003 29.172 30.5327 28.1682 29.7527 27.7148H29.754ZM23.9611 26.3818C23.9119 26.6672 23.9166 26.9507 23.969 27.2209L21.3341 29.6719C21.2531 29.7476 21.2179 29.8618 21.2412 29.9713C21.2472 29.9939 21.2551 30.0151 21.2631 30.0357L21.2551 30.037C21.3062 30.0669 21.3494 30.1134 21.3773 30.1785C21.3813 30.1811 24.7517 31.2818 24.7517 31.2818C25.251 31.4451 25.6201 31.7678 25.8491 32.2404C26.0782 32.7138 26.1007 33.2031 25.9188 33.6956L23.9624 38.9827C23.7168 39.6413 22.9845 39.9779 22.3273 39.7342C21.668 39.4906 21.3315 38.7577 21.5744 38.0998L23.1624 33.8098C23.1943 33.7275 23.1877 33.6366 23.1478 33.5576C23.108 33.4792 23.0396 33.4208 22.9546 33.3962L19.3173 32.3387C18.9661 32.2358 18.6501 32.0751 18.3779 31.8607C18.1475 31.6761 17.9716 31.4611 17.8534 31.2167L17.8634 31.2154C17.8275 31.147 17.7997 31.0747 17.7811 31.0116C17.7764 31.0003 17.7758 30.997 17.7771 31.0003C17.7685 30.9804 17.7605 30.9605 17.7519 30.9406C17.7366 30.9021 17.7207 30.8629 17.7094 30.8224C17.6881 30.7467 17.6815 30.6764 17.6848 30.6033C17.6795 30.5602 17.6768 30.5164 17.6755 30.4725C17.6529 29.9049 17.8541 29.4216 18.2723 29.0353L24.4729 23.3127L23.9597 26.3811L23.9611 26.3818ZM29.8018 29.6347C29.6664 29.8658 29.4506 30.0304 29.1891 30.0995C28.9282 30.1685 28.658 30.1326 28.4276 29.9992L25.4116 28.2486C24.7796 27.8821 24.4636 27.207 24.5831 26.4867L25.2291 22.6388C25.5603 22.4191 25.9666 22.3839 26.3464 22.5512C26.7898 22.7457 27.0554 23.1514 27.0554 23.6366C27.0554 23.802 27.0408 23.9719 27.0129 24.1419L26.6345 26.3997C26.6132 26.5298 26.6743 26.6593 26.7885 26.7256L29.436 28.2625C29.9153 28.5407 30.0773 29.1568 29.8012 29.6354L29.8018 29.6347Z" fill="white"/>
</g>
</g>
<defs>
<clipPath id="clip0_79_36945">
<rect width="32" height="32" fill="white" transform="translate(16.75 16)"/>
</clipPath>
<clipPath id="clip1_79_36945">
<rect width="32" height="25.8386" fill="white" transform="translate(17 19)"/>
</clipPath>
</defs>
</svg>
