<svg width="64" height="64" viewBox="0 0 64 64" fill="none" xmlns="http://www.w3.org/2000/svg">
<circle cx="32" cy="32" r="32" fill="#0093D0"/>
<g clip-path="url(#clip0_79_36926)">
<path d="M19.1452 16H19.2545C19.4674 16.0475 19.607 16.1829 19.6733 16.4062C20.5858 19.4694 21.4727 22.5425 22.4252 25.5931C22.6239 26.2288 22.7552 26.7944 22.782 27.3906C22.8074 27.9602 22.8347 28.529 22.8639 29.0969C22.9095 29.9806 23.257 30.5019 23.9183 31.1156C24.9304 32.0544 25.9402 32.9956 26.9477 33.9394C26.9586 33.9495 26.9725 33.9555 26.987 33.9562C27.2191 33.9692 27.3885 33.9033 27.4952 33.7588C27.7002 33.4806 27.4983 33.16 27.3177 32.9181C26.7931 32.214 26.2643 31.5146 25.7314 30.82C25.7225 30.8083 25.7095 30.8001 25.6945 30.7969C25.1279 30.681 24.7466 30.3823 24.5508 29.9006C24.4812 29.7302 24.4349 29.4573 24.412 29.0819C24.3758 28.4869 24.3374 27.8919 24.297 27.2969C24.2564 26.6969 25.182 26.5563 25.2364 27.3325C25.2814 27.9792 25.3239 28.6258 25.3639 29.2725C25.3722 29.4125 25.3962 29.5183 25.4358 29.59C25.6514 29.98 26.2077 29.9594 26.3795 29.5456C26.412 29.4665 26.4249 29.3506 26.4183 29.1981C26.3458 27.5606 26.3739 26.0863 25.2558 25.0225C25.0052 24.7837 24.5845 24.5219 24.362 24.1544C24.2191 23.919 24.0893 23.604 23.9727 23.2094C23.3368 21.0615 22.7008 18.9135 22.0645 16.7656C21.9539 16.3919 21.9945 16.0938 22.4108 16H22.5045C22.8708 16.0763 22.9008 16.2937 23.0095 16.6612C23.6399 18.7854 24.2706 20.9094 24.9014 23.0331C24.9806 23.3002 25.0914 23.546 25.2339 23.7706C25.2797 23.8427 25.317 23.8385 25.3458 23.7581C25.3983 23.6106 25.4547 23.4646 25.5152 23.32C25.5472 23.2425 25.5593 23.1619 25.5514 23.0781C25.3395 20.9437 25.9727 18.8431 27.6533 17.465C29.3102 16.1069 31.8277 15.6281 33.8008 16.5419C34.8695 17.0369 35.5135 17.8702 35.7327 19.0419C35.7355 19.0568 35.7434 19.0701 35.7552 19.0794C36.6039 19.7527 37.0754 20.6337 37.1695 21.7225C37.1703 21.7317 37.1731 21.7405 37.1776 21.7484C37.1822 21.7563 37.1884 21.763 37.1958 21.7681C37.862 22.234 38.4004 22.8169 38.8108 23.5169C38.8549 23.5923 38.8925 23.5892 38.9233 23.5075C38.9737 23.3733 39.0195 23.2379 39.0608 23.1013C39.7366 20.8679 40.4062 18.6327 41.0695 16.3956C41.1345 16.1765 41.2743 16.0446 41.4889 16H41.5983C42.0702 16.1275 42.0295 16.4525 41.9108 16.8537C41.2783 18.9921 40.6427 21.1296 40.0039 23.2663C39.822 23.875 39.612 24.3212 39.1214 24.7031C38.2583 25.375 37.8602 26.1231 37.7202 27.2031C37.6647 27.6306 37.6183 28.3131 37.5808 29.2506C37.5489 30.0481 38.5883 30.09 38.6377 29.2913C38.6939 28.3833 38.74 27.7048 38.7758 27.2556C38.8289 26.59 39.7458 26.6319 39.6933 27.43C39.6516 28.0613 39.6093 28.6923 39.5664 29.3231C39.5114 30.1348 39.0914 30.626 38.3064 30.7969C38.2919 30.8001 38.279 30.8083 38.2702 30.82C37.7377 31.5162 37.2052 32.2125 36.6727 32.9088C36.4364 33.2175 36.237 33.7231 36.7245 33.9188C36.8866 33.9842 37.0193 33.9685 37.1227 33.8719C38.0868 32.974 39.051 32.0765 40.0152 31.1794C40.3793 30.8406 40.6168 30.5848 40.7277 30.4119C41.042 29.9225 41.1433 29.3094 41.157 28.75C41.1839 27.6594 41.1895 26.8162 41.452 25.9838C41.8433 24.7396 42.2237 23.4921 42.5933 22.2413C42.6395 22.0842 42.6897 21.9752 42.7439 21.9144C42.9877 21.6412 43.4433 21.7537 43.5333 22.1106C43.5554 22.1998 43.541 22.3319 43.4902 22.5069C43.1577 23.6423 42.8139 24.7744 42.4589 25.9031C42.3008 26.4062 42.1708 26.9344 42.1552 27.3906C42.1002 28.9894 42.1583 30.2569 41.1958 31.3431C41.1662 31.3765 40.8635 31.6627 40.2877 32.2019C39.6027 32.8431 38.9166 33.4829 38.2295 34.1213C37.6864 34.6256 37.4364 34.9137 36.7645 34.8931C36.755 34.8927 36.7455 34.8945 36.7369 34.8983C36.7282 34.9021 36.7206 34.9078 36.7145 34.915C36.2008 35.52 35.6224 36.056 34.9795 36.5231C34.9716 36.5289 34.9652 36.5365 34.9607 36.5453C34.9563 36.5541 34.9539 36.5639 34.9539 36.5737V37.6213C34.9539 37.6352 34.9585 37.6488 34.967 37.6597C34.9755 37.6707 34.9874 37.6785 35.0008 37.6819C37.6208 38.3544 41.9795 39.4781 42.1795 42.9069C42.2558 44.224 42.3225 45.5417 42.3795 46.86C42.4064 47.48 42.2933 47.9669 41.5439 48H22.4502C21.4977 47.895 21.5952 47.2625 21.6333 46.445C21.6858 45.3121 21.7435 44.1777 21.8064 43.0419C22.0045 39.4625 26.2608 38.3956 29.0008 37.6819C29.0142 37.6783 29.0261 37.6704 29.0346 37.6594C29.0431 37.6485 29.0477 37.635 29.0477 37.6213V36.5725C29.0476 36.5625 29.0453 36.5526 29.0409 36.5438C29.0364 36.535 29.0299 36.5275 29.022 36.5219C28.3779 36.0565 27.7993 35.5208 27.2864 34.915C27.2803 34.9078 27.2728 34.902 27.2642 34.8981C27.2557 34.8942 27.2464 34.8923 27.237 34.8925C26.577 34.9137 26.3189 34.6331 25.792 34.1419C24.8845 33.2956 23.9739 32.4527 23.0602 31.6131C21.397 30.085 22.1952 28.0719 21.6008 26.1181C20.6441 22.974 19.7041 19.825 18.7808 16.6712C18.6833 16.3387 18.8033 16.085 19.1452 16ZM33.7939 17.6106C32.2764 16.6381 30.2014 16.9181 28.7295 17.8381C27.7287 18.4635 27.0524 19.3654 26.7008 20.5437C26.6058 20.8612 26.5381 21.1808 26.4977 21.5025C26.4835 21.6142 26.5127 21.6271 26.5852 21.5413C27.6468 20.285 28.9314 19.4073 30.4389 18.9081C31.3347 18.6115 32.2879 18.4504 33.2983 18.425C33.7224 18.4146 34.1131 18.4406 34.4702 18.5031C34.5556 18.5181 34.5774 18.4875 34.5358 18.4113C34.3504 18.075 34.1031 17.8081 33.7939 17.6106ZM33.1177 22.89C30.9208 22.3787 28.1002 22.7256 26.2427 24.0581C26.2317 24.0658 26.2236 24.077 26.2195 24.09L26.0958 24.4888C26.0927 24.4988 26.0923 24.5096 26.0946 24.52C26.0969 24.5304 26.1018 24.5401 26.1089 24.5481C26.631 25.1377 26.9687 25.8179 27.122 26.5887C27.1366 26.6621 27.1712 26.6733 27.2258 26.6225C28.7762 25.1867 30.6093 24.5596 32.7252 24.7413C32.7381 24.7421 32.9514 24.7752 33.3652 24.8406C36.8308 25.3869 37.442 19.4488 33.647 19.3631C32.7054 19.3423 31.7816 19.4708 30.8758 19.7487C29.3162 20.2271 28.0514 21.1144 27.0814 22.4106C27.011 22.5048 27.0306 22.5302 27.1402 22.4869C28.5772 21.9202 30.0741 21.6712 31.6308 21.74C32.0577 21.7594 33.462 21.8637 33.7458 22.1731C33.9558 22.4019 33.8302 22.855 33.5133 22.9256C33.4304 22.944 33.2985 22.9321 33.1177 22.89ZM37.0764 22.9875C36.9218 23.645 36.6393 24.215 36.2289 24.6975C35.9693 25.0029 35.6641 25.2519 35.3133 25.4444C35.2466 25.481 35.2466 25.5175 35.3133 25.5538C35.8495 25.8479 36.3368 26.2079 36.7752 26.6337C36.8306 26.6875 36.8654 26.6765 36.8795 26.6006C37.0499 25.7077 37.4641 24.9481 38.122 24.3219C38.1315 24.3128 38.1378 24.301 38.1402 24.2881C38.1425 24.2752 38.1408 24.2618 38.1352 24.25C37.9002 23.7562 37.5816 23.325 37.1795 22.9563C37.1715 22.9489 37.1617 22.9437 37.1511 22.9413C37.1405 22.9388 37.1294 22.9392 37.119 22.9424C37.1086 22.9455 37.0992 22.9514 37.0917 22.9593C37.0842 22.9672 37.079 22.9769 37.0764 22.9875ZM28.7783 35.1131C29.912 36.1637 31.5239 37.2031 33.0914 36.53C34.121 36.0879 35.0318 35.4129 35.8239 34.505C35.8333 34.4942 35.8387 34.4806 35.8393 34.4664C35.8399 34.4521 35.8355 34.4382 35.827 34.4269C35.1714 33.5437 35.5327 32.8975 36.1402 32.08C36.5039 31.59 36.8735 31.1019 37.2489 30.6156C37.2587 30.6028 37.2632 30.5866 37.2613 30.5705C37.2595 30.5544 37.2514 30.5397 37.2389 30.5294C36.4139 29.8506 36.662 29.0225 36.707 27.9894C36.7078 27.9745 36.7032 27.9598 36.6939 27.9481C34.3277 24.9031 29.6652 24.8369 27.3089 27.95C27.3004 27.9618 27.296 27.9758 27.2964 27.99C27.3072 28.2712 27.3208 28.5525 27.337 28.8337C27.3808 29.5906 27.3477 30.0712 26.762 30.5238C26.749 30.5338 26.7406 30.5486 26.7385 30.565C26.7364 30.5814 26.7408 30.598 26.7508 30.6112C27.2158 31.2208 27.6791 31.8348 28.1408 32.4531C28.5933 33.0588 28.6727 33.8281 28.172 34.4263C28.1623 34.4376 28.157 34.4522 28.1573 34.4673C28.1575 34.4823 28.1632 34.4968 28.1733 34.5081C28.3254 34.679 28.527 34.8806 28.7783 35.1131ZM31.0933 43.5637C31.3654 43.8229 31.4097 44.0715 31.2264 44.3094C31.1377 44.4244 30.9833 44.4844 30.8445 44.4844C29.1729 44.4844 27.5012 44.4844 25.8295 44.4844C25.813 44.4844 25.7971 44.491 25.7853 44.5027C25.7736 44.5144 25.767 44.5303 25.767 44.5469L25.7652 47C25.7652 47.0166 25.7717 47.0325 25.7835 47.0442C25.7952 47.0559 25.8111 47.0625 25.8277 47.0625H38.1739C38.1821 47.0625 38.1902 47.0609 38.1977 47.0577C38.2053 47.0546 38.2121 47.05 38.2179 47.0442C38.2236 47.0383 38.2282 47.0315 38.2313 47.0239C38.2343 47.0163 38.2359 47.0082 38.2358 47L38.2345 44.5462C38.2345 44.5297 38.2279 44.5138 38.2162 44.5021C38.2045 44.4903 38.1886 44.4837 38.172 44.4837C36.492 44.485 34.8124 44.4848 33.1333 44.4831C32.3845 44.4825 32.3702 43.5481 33.1427 43.5475C34.8256 43.5463 36.5087 43.5463 38.192 43.5475C38.9377 43.5481 39.1727 43.89 39.1727 44.6175C39.1727 45.4146 39.1729 46.2087 39.1733 47C39.1733 47.0166 39.1799 47.0325 39.1916 47.0442C39.2033 47.0559 39.2192 47.0625 39.2358 47.0625H41.3995C41.4081 47.0625 41.4165 47.0608 41.4244 47.0574C41.4322 47.054 41.4393 47.0491 41.4451 47.0429C41.451 47.0367 41.4555 47.0293 41.4584 47.0213C41.4613 47.0133 41.4625 47.0048 41.462 46.9963C41.4025 45.8438 41.3429 44.6883 41.2833 43.53C41.2529 42.9338 41.2031 42.5215 41.1339 42.2931C40.4333 39.9738 36.6802 39.0419 34.657 38.565C34.192 38.4556 34.0164 38.0963 34.0164 37.6406C34.0168 37.5006 34.0166 37.3615 34.0158 37.2231C34.0156 37.2123 34.0127 37.2018 34.0073 37.1924C34.0019 37.1831 33.9942 37.1753 33.9849 37.1697C33.9756 37.1642 33.9651 37.1612 33.9543 37.1609C33.9435 37.1606 33.9328 37.1631 33.9233 37.1681C33.4758 37.4077 33.0016 37.5706 32.5008 37.6569C31.7014 37.7944 30.8052 37.5538 30.0727 37.17C30.0629 37.165 30.0519 37.1626 30.0409 37.163C30.0299 37.1635 30.0193 37.1668 30.01 37.1726C30.0007 37.1784 29.9931 37.1865 29.988 37.1962C29.9829 37.2058 29.9804 37.2166 29.9808 37.2275C30.0058 37.9131 30.0239 38.3831 29.2564 38.5812C27.2283 39.1062 23.5858 39.9525 22.8708 42.295C22.7987 42.5308 22.7477 42.9427 22.7177 43.5306C22.6589 44.6827 22.5997 45.8379 22.5402 46.9963C22.5396 47.0047 22.5409 47.0131 22.5438 47.0211C22.5467 47.029 22.5512 47.0363 22.5571 47.0424C22.5629 47.0486 22.57 47.0535 22.5778 47.0568C22.5857 47.0602 22.5941 47.0619 22.6027 47.0619L24.7608 47.0631C24.7774 47.0631 24.7933 47.0565 24.805 47.0448C24.8167 47.0331 24.8233 47.0172 24.8233 47.0006C24.8299 46.1873 24.8318 45.374 24.8289 44.5606C24.8264 43.7725 25.162 43.5462 25.9339 43.5462C27.6393 43.5471 29.3447 43.5473 31.0502 43.5469C31.0663 43.5469 31.0817 43.5529 31.0933 43.5637Z" fill="white"/>
<path d="M44.7441 16H44.8535C45.1935 16.1113 45.3074 16.3563 45.1953 16.735C44.8541 17.8879 44.5118 19.0402 44.1685 20.1919C43.9847 20.8075 43.0735 20.5931 43.3022 19.8206C43.6455 18.6615 43.9899 17.5027 44.3353 16.3444C44.392 16.1544 44.5283 16.0396 44.7441 16Z" fill="white"/>
<path d="M29.6442 29.3635C30.2074 28.7666 30.9824 29.7297 30.0936 30.1735C29.6307 30.4043 29.1913 30.3785 28.7755 30.096C28.0724 29.6179 28.8142 28.811 29.3586 29.3672C29.3646 29.3732 29.3716 29.3779 29.3795 29.3811C29.3873 29.3843 29.3957 29.386 29.4042 29.386L29.5999 29.3829C29.6167 29.3824 29.6326 29.3755 29.6442 29.3635Z" fill="white"/>
<path d="M33.7538 30.0776C33.1581 29.6757 33.7181 28.8807 34.2625 29.2857C34.4313 29.4113 34.565 29.4401 34.7231 29.3038C35.2281 28.8694 35.8794 29.6363 35.245 30.0707C34.7484 30.4111 34.2513 30.4134 33.7538 30.0776Z" fill="white"/>
<path d="M32.691 33.1523C33.0835 32.9623 33.4947 33.4136 33.2879 33.7898C33.0416 34.2361 32.0497 34.3023 31.6122 34.2342C31.2964 34.185 31.0389 34.0854 30.8397 33.9354C30.5247 33.6979 30.6779 33.1954 31.0541 33.1198C31.2729 33.0761 31.4997 33.2529 31.6841 33.2911C32.0204 33.3611 32.356 33.3148 32.691 33.1523Z" fill="white"/>
</g>
<defs>
<clipPath id="clip0_79_36926">
<rect width="32" height="32" fill="white" transform="translate(16 16)"/>
</clipPath>
</defs>
</svg>
