<svg width="44" height="36" viewBox="0 0 44 36" fill="none" xmlns="http://www.w3.org/2000/svg">
<g id="Asset 38 2">
<g id="Layer 4">
<path id="Vector" d="M6.79794 29.4277C5.68786 29.4277 4.78516 30.3313 4.78516 31.4414C4.78516 32.5515 5.68873 33.4559 6.79794 33.4559C7.90714 33.4559 8.8142 32.5523 8.8142 31.4414C8.8142 30.3304 7.91063 29.4277 6.79794 29.4277ZM6.79794 32.4103C6.26468 32.4103 5.83076 31.9764 5.83076 31.4423C5.83076 30.9081 6.26468 30.4742 6.79794 30.4742C7.33119 30.4742 7.7686 30.9081 7.7686 31.4423C7.7686 31.9764 7.33468 32.4103 6.79794 32.4103Z" fill="#D8242A" stroke="#E9292C" stroke-width="0.2"/>
<path id="Vector_2" d="M12.6143 29.4277C11.5043 29.4277 10.6016 30.3313 10.6016 31.4414C10.6016 32.5515 11.5051 33.4559 12.6143 33.4559C13.7235 33.4559 14.6271 32.5523 14.6271 31.4414C14.6271 30.3304 13.7235 29.4277 12.6143 29.4277ZM12.6143 32.4103C12.0811 32.4103 11.6472 31.9764 11.6472 31.4423C11.6472 30.9081 12.0811 30.4742 12.6143 30.4742C13.1476 30.4742 13.5815 30.9081 13.5815 31.4423C13.5815 31.9764 13.1476 32.4103 12.6143 32.4103Z" fill="#D8242A" stroke="#E9292C" stroke-width="0.2"/>
<path id="Vector_3" d="M18.4307 29.4277C17.3207 29.4277 16.418 30.3313 16.418 31.4414C16.418 32.5515 17.3215 33.4559 18.4307 33.4559C19.54 33.4559 20.4435 32.5523 20.4435 31.4414C20.4435 30.3304 19.5434 29.4277 18.4307 29.4277ZM18.4307 32.4103C17.8975 32.4103 17.4636 31.9764 17.4636 31.4423C17.4636 30.9081 17.8975 30.4742 18.4307 30.4742C18.964 30.4742 19.3979 30.9081 19.3979 31.4423C19.3979 31.9764 18.964 32.4103 18.4307 32.4103Z" fill="#D8242A" stroke="#E9292C" stroke-width="0.2"/>
<path id="Vector_4" d="M42.4415 28.7741L42.2672 28.6094C41.5518 27.9315 40.4174 27.962 39.7386 28.6782L39.6567 28.7645C38.1911 30.3111 36.3526 31.0953 34.1865 31.0953H33.0982L31.4191 27.8322C34.2213 26.7264 36.4301 24.9106 37.5115 22.6573C37.5899 22.4892 37.576 22.2896 37.4688 22.1363C36.3378 20.4807 34.1185 18.793 31.3834 17.5051C29.2277 16.49 25.7816 15.2675 21.6166 15.2048C21.4711 15.2031 21.336 15.2588 21.2358 15.3608L19.4287 17.1993L18.3439 16.1127L19.6744 14.7831C19.8774 14.5792 19.8774 14.2481 19.6744 14.0442C19.4679 13.8394 19.1377 13.8394 18.9347 14.0442L15.5347 17.4424C15.3317 17.6463 15.3317 17.9774 15.5347 18.1822C15.6375 18.2841 15.7726 18.3355 15.905 18.3355C16.0375 18.3355 16.1717 18.2841 16.2753 18.1822L17.6059 16.8525L18.6976 17.9452L15.959 20.7334H13.3703C13.3241 21.1072 13.1987 21.447 13.0488 21.779H16.176C16.318 21.779 16.4496 21.7233 16.5498 21.6231L17.6808 20.4738L18.8118 22.2931L16.1873 24.1813H12.1461C12.0441 24.535 11.9361 24.8853 11.7941 25.2269H16.3555C16.4662 25.2269 16.5725 25.1929 16.6613 25.1284L19.8199 22.8569C20.0439 22.6965 20.1083 22.3898 19.962 22.1554L18.4362 19.707L21.8257 16.2548C28.1673 16.4212 34.2135 19.5458 36.4293 22.4796C34.6648 25.7776 30.113 27.9742 24.966 27.9742H5.12925L2.0456 22.4865V20.4468H6.86843C7.25617 20.4468 7.57944 20.6306 7.77897 20.9661L7.99158 21.3242C8.14232 21.0035 8.30613 20.689 8.41679 20.3526C8.43857 20.2856 8.47081 20.2315 8.51089 20.188C8.11444 19.6852 7.5289 19.402 6.8693 19.402H1.5228C1.23439 19.402 1 19.6364 1 19.9248V22.6242C1 22.714 1.02527 22.802 1.06796 22.8804L4.00174 28.0997C2.87075 28.4517 2.04909 29.5077 2.04909 30.7511V32.1366C2.04909 33.6675 3.29422 34.9135 4.82341 34.9135H20.4046C21.9373 34.9135 23.1824 33.6684 23.1824 32.1366V30.7511C23.1824 30.0968 22.955 29.4955 22.5742 29.0207H24.9643C26.8917 29.0207 28.745 28.7253 30.4275 28.1877L31.921 31.0971H27.9625C26.9771 31.0971 26.1737 31.8996 26.1737 32.8859V33.1247C26.1737 34.111 26.9779 34.9135 27.9625 34.9135H34.1865C37.3947 34.9135 40.2466 33.6954 42.4275 31.3907L42.5129 31.3036C42.8275 30.9698 42.9895 30.5464 43 30.1194V30.0271C42.9878 29.5687 42.8013 29.1148 42.4415 28.775V28.7741ZM22.1368 32.1348C22.1368 33.0898 21.3578 33.8662 20.4046 33.8662H4.82341C3.87017 33.8662 3.09469 33.0898 3.09469 32.1348V30.7494C3.09469 29.7953 3.87017 29.0189 4.82341 29.0189H20.4046C21.3578 29.0189 22.1368 29.7953 22.1368 30.7494V32.1348ZM41.7514 30.5838L41.6695 30.671C39.6881 32.7622 37.0993 33.867 34.1865 33.867H27.9625C27.5539 33.867 27.2193 33.5342 27.2193 33.1238V32.885C27.2193 32.4755 27.5539 32.1418 27.9625 32.1418H34.1865C36.6515 32.1418 38.7462 31.2478 40.4174 29.4842L40.4993 29.3971C40.7798 29.1 41.253 29.0869 41.5484 29.3692L41.7226 29.533C42.0215 29.8153 42.032 30.2867 41.7514 30.5838Z" fill="#D8242A" stroke="#E9292C" stroke-width="0.2"/>
</g>
<g id="Layer 2">
<path id="Vector_5" d="M17.8605 7.91354C18.4539 8.13399 19.0821 8.1915 19.692 8.08694C19.9979 8.03466 20.2976 7.9423 20.5869 7.80898C21.453 7.41078 22.1135 6.69978 22.442 5.80666C23.1242 3.96292 22.1806 1.90657 20.3368 1.22345C19.4437 0.893211 18.4739 0.929807 17.6078 1.32801C16.7443 1.72533 16.0839 2.43634 15.7528 3.33033C15.0705 5.17407 16.0176 7.22955 17.8614 7.91267L17.8605 7.91354ZM16.5326 3.61874C16.7853 2.93387 17.2907 2.38842 17.9572 2.08258C18.1777 1.98064 18.4086 1.90919 18.643 1.86998C19.1109 1.78981 19.5936 1.83338 20.0493 2.00329C21.4652 2.52696 22.1893 4.10407 21.6665 5.51912C21.1428 6.93416 19.5631 7.65911 18.1498 7.13544C16.7339 6.61177 16.0098 5.03466 16.5326 3.61961V3.61874Z" fill="#D8242A" stroke="#E9292C" stroke-width="0.2"/>
<path id="Vector_6" d="M17.7444 12.4386L14.5179 10.5652L14.9683 7.88498C15.011 7.61661 15.0346 7.34824 15.0354 7.0851C15.0346 6.12314 14.4874 5.28579 13.6082 4.89979C12.7264 4.51379 11.7401 4.67934 11.0325 5.33197L2.11357 13.5626C1.38862 14.2309 1.02527 15.1048 1.061 16.0903C1.06535 16.1818 1.07232 16.2724 1.08452 16.3613L1.2797 17.1708C1.48446 17.6971 1.82603 18.158 2.30003 18.5318C2.74093 18.8812 3.24891 19.1409 3.81528 19.3055L8.16149 20.569L6.22974 25.7813C5.93175 26.5873 6.079 27.4499 6.54255 28.1016L6.46413 28.0921C6.8998 28.763 7.74848 28.9137 8.50305 28.9512C8.98316 28.9747 9.46152 28.9355 9.92158 28.8231C9.94685 28.8074 9.97212 28.7961 9.99739 28.7865C10.0349 28.7656 10.0688 28.7438 10.088 28.729C10.0697 28.743 10.1385 28.6776 10.1481 28.6698C10.1028 28.7072 10.1743 28.6123 10.1481 28.6793C10.1638 28.6393 10.183 28.6018 10.2056 28.5678L10.1778 28.5643C10.501 28.2942 10.7615 27.9396 10.9184 27.517L13.4888 20.5777C13.8077 19.7116 13.7668 18.8507 13.3642 18.0186C12.9617 17.1865 12.3151 16.6192 11.4351 16.3326L9.84229 15.8115L7.77375 15.1362L10.4531 12.6442C10.7145 13.1374 11.1136 13.56 11.6285 13.8571L12.7508 14.5089L12.7247 14.5132C12.7473 14.5228 12.77 14.5341 12.7926 14.5481C13.1516 14.7737 13.5751 14.8748 13.887 15.1693H13.8896L15.587 16.1548C16.0802 16.4423 16.6605 16.519 17.2164 16.3709C17.7697 16.2236 18.2367 15.8699 18.5216 15.375C19.1176 14.3511 18.7665 13.0337 17.7427 12.4386H17.7444ZM10.1412 10.6889C10.0767 11.0636 10.0828 11.4357 10.1516 11.7903L6.69329 15.0073C6.58699 15.1066 6.54081 15.2565 6.57131 15.4002C6.57915 15.4299 6.5896 15.4577 6.60006 15.4847L6.5896 15.4865C6.6567 15.5257 6.71333 15.5867 6.74993 15.6721C6.75516 15.6756 11.1789 17.1202 11.1789 17.1202C11.8342 17.3346 12.3186 17.7581 12.6192 18.3784C12.9198 18.9997 12.9495 19.6419 12.7107 20.2884L10.1429 27.2277C9.82051 28.0921 8.85943 28.5338 7.99681 28.2141C7.13157 27.8943 6.68981 26.9323 7.00872 26.0688L9.09295 20.4383C9.13477 20.3302 9.12606 20.2109 9.07378 20.1072C9.0215 20.0044 8.93175 19.9277 8.82022 19.8954L4.04618 18.5074C3.58525 18.3723 3.17049 18.1615 2.81325 17.88C2.51089 17.6378 2.27999 17.3555 2.12489 17.0348L2.13796 17.0331C2.09091 16.9434 2.05432 16.8484 2.02992 16.7656C2.02382 16.7508 2.02295 16.7464 2.02469 16.7508C2.01336 16.7247 2.00291 16.6985 1.99158 16.6724C1.97154 16.6218 1.95063 16.5704 1.93581 16.5173C1.90793 16.4179 1.89922 16.3256 1.90357 16.2297C1.8966 16.1731 1.89312 16.1156 1.89138 16.0581C1.86175 15.3131 2.12576 14.6788 2.6747 14.1716L10.813 6.66076L10.1394 10.6881L10.1412 10.6889ZM17.8071 14.9585C17.6294 15.2617 17.3462 15.4778 17.0029 15.5684C16.6605 15.659 16.3058 15.612 16.0035 15.4368L12.045 13.1391C11.2155 12.6581 10.8008 11.772 10.9576 10.8266L11.8054 5.77635C12.2402 5.48794 12.7735 5.44176 13.2719 5.66134C13.8539 5.91664 14.2024 6.44902 14.2024 7.08597C14.2024 7.30293 14.1833 7.52599 14.1467 7.74905L13.65 10.7125C13.6221 10.8832 13.7023 11.0531 13.8522 11.1403L17.327 13.1574C17.9561 13.5225 18.1688 14.3311 17.8063 14.9593L17.8071 14.9585Z" fill="#D8242A" stroke="#E9292C" stroke-width="0.2"/>
</g>
</g>
</svg>
