<svg width="44" height="44" viewBox="0 0 44 44" fill="none" xmlns="http://www.w3.org/2000/svg">
<g id="Icon">
<g id="icons">
<g id="Group">
<path id="Vector" d="M12.6094 23.5774C13.1155 23.9238 13.7284 24.1266 14.388 24.1266C15.0475 24.1266 15.6604 23.9238 16.1665 23.5774C16.5991 23.9211 17.1464 24.1266 17.7423 24.1266C19.144 24.1266 20.28 22.9905 20.28 21.5887C20.28 20.4041 19.4679 19.4089 18.3705 19.1289C18.7581 18.6138 18.9878 17.974 18.9878 17.2803C18.9878 15.5806 17.6104 14.2021 15.9099 14.2021C15.008 14.2021 14.1977 14.5898 13.6342 15.2072" stroke="url(#paint0_linear_132_47231)" stroke-width="1.07684" stroke-linecap="round" stroke-linejoin="round"/>
<path id="Vector_2" d="M16.168 23.5762V27.8057" stroke="url(#paint1_linear_132_47231)" stroke-width="1.07684" stroke-linecap="round" stroke-linejoin="round"/>
<path id="Vector_3" d="M10.6404 15.6601C11.1636 14.9646 11.474 14.0995 11.474 13.1626C11.474 10.8661 9.61291 9.00488 7.31655 9.00488C5.02019 9.00488 3.15906 10.8661 3.15906 13.1626C3.15906 13.5763 3.22008 13.9756 3.33315 14.3525C1.94941 15.0561 1 16.492 1 18.1513C1 20.5043 2.9069 22.4112 5.25979 22.4112C6.15087 22.4112 6.97824 22.1366 7.66204 21.6691C8.24712 22.133 8.98655 22.4112 9.79148 22.4112C11.6849 22.4112 13.2194 20.8767 13.2194 18.9832C13.2194 17.3831 12.1228 16.0388 10.6404 15.661V15.6601Z" stroke="url(#paint2_linear_132_47231)" stroke-width="1.07684" stroke-linecap="round" stroke-linejoin="round"/>
<path id="Vector_4" d="M7.66406 21.6699V26.8794" stroke="url(#paint3_linear_132_47231)" stroke-width="1.07684" stroke-linecap="round" stroke-linejoin="round"/>
<path id="Vector_5" d="M22.0797 28.8799C24.744 29.4094 24.2451 31.5927 18.2166 32.7163C8.70541 34.4887 3.48544 36.0268 7.3836 40.6691C8.3707 41.7945 9.78584 42.997 9.78584 42.997" stroke="url(#paint4_linear_132_47231)" stroke-width="1.07684" stroke-linecap="round" stroke-linejoin="round"/>
<path id="Vector_6" d="M35.2793 42.9972C35.2793 42.9972 31.1648 42.4686 27.4901 40.6693C23.8145 38.8709 24.8061 36.8912 28.5095 34.6782C32.6518 32.2032 30.1688 29.3261 26.617 28.9941C24.6069 28.8065 22.901 28.8837 22.0781 28.8792" stroke="url(#paint5_linear_132_47231)" stroke-width="1.07684" stroke-linecap="round" stroke-linejoin="round"/>
<path id="Vector_7" d="M22.0804 28.8808C22.0804 28.8808 13.2109 26.7638 1.16016 26.5996" stroke="url(#paint6_linear_132_47231)" stroke-width="1.07684" stroke-linecap="round" stroke-linejoin="round"/>
<path id="Vector_8" d="M29.3338 14.4269C28.9587 14.2645 28.545 14.1738 28.1098 14.1738C26.4102 14.1738 25.0318 15.5513 25.0318 17.2519C25.0318 17.5579 25.0776 17.8541 25.1601 18.1332C24.1353 18.6537 23.4336 19.7171 23.4336 20.9457C23.4336 22.6875 24.8451 24.0991 26.5869 24.0991C27.2465 24.0991 27.8594 23.8963 28.3655 23.5499C28.798 23.8936 29.3454 24.0991 29.9413 24.0991C30.4671 24.0991 30.9553 23.9394 31.36 23.6657" stroke="url(#paint7_linear_132_47231)" stroke-width="1.07684" stroke-linecap="round" stroke-linejoin="round"/>
<path id="Vector_9" d="M28.3633 23.5498V27.7407" stroke="url(#paint8_linear_132_47231)" stroke-width="1.07684" stroke-linecap="round" stroke-linejoin="round"/>
<path id="Vector_10" d="M39.8435 15.6337C40.3667 14.9382 40.6772 14.0731 40.6772 13.1362C40.6772 10.8397 38.816 8.97852 36.5197 8.97852C34.2233 8.97852 32.3622 10.8397 32.3622 13.1362C32.3622 13.5499 32.4232 13.9493 32.5363 14.3262C31.1525 15.0297 30.2031 16.4656 30.2031 18.1249C30.2031 20.4779 32.11 22.3849 34.4629 22.3849C35.354 22.3849 36.1814 22.1103 36.8652 21.6427C37.4502 22.1067 38.1897 22.3849 38.9946 22.3849C40.888 22.3849 42.4225 20.8503 42.4225 18.9568C42.4225 17.3567 41.326 16.0124 39.8435 15.6346V15.6337Z" stroke="url(#paint9_linear_132_47231)" stroke-width="1.07684" stroke-linecap="round" stroke-linejoin="round"/>
<path id="Vector_11" d="M36.8711 21.6426V26.852" stroke="url(#paint10_linear_132_47231)" stroke-width="1.07684" stroke-linecap="round" stroke-linejoin="round"/>
<path id="Vector_12" d="M22.0781 28.8808C22.0781 28.8808 30.9477 26.7638 42.9984 26.5996" stroke="url(#paint11_linear_132_47231)" stroke-width="1.07684" stroke-linecap="round" stroke-linejoin="round"/>
<path id="Vector_13" d="M25.1568 42.9944C24.7601 42.9944 24.447 42.8355 24.1149 42.6677C23.7847 42.5008 23.4213 42.3105 23.0049 42.3105C22.5329 42.3105 22.1712 42.4927 21.8222 42.6695C21.4901 42.8373 21.1761 42.9953 20.7803 42.9953C20.3837 42.9953 20.0705 42.8364 19.7385 42.6686C19.4083 42.5017 19.0448 42.3114 18.6284 42.3114C18.2121 42.3114 17.8495 42.5017 17.5184 42.6686C17.1864 42.8364 16.8723 42.9944 16.4766 42.9944" stroke="url(#paint12_linear_132_47231)" stroke-width="1.07684" stroke-linecap="round" stroke-linejoin="round"/>
<path id="Vector_14" d="M21.0396 37.6776C20.6771 37.6776 20.39 37.5412 20.0866 37.3967C19.7842 37.2531 19.4522 37.0889 19.0717 37.0889C18.6401 37.0889 18.3099 37.2459 17.9904 37.3976C17.6871 37.5421 17.3999 37.6785 17.0374 37.6785C16.6749 37.6785 16.3877 37.5421 16.0844 37.3976C15.782 37.254 15.45 37.0898 15.0695 37.0898C14.689 37.0898 14.357 37.254 14.0546 37.3976C13.7513 37.5421 13.4641 37.6785 13.1016 37.6785" stroke="url(#paint13_linear_132_47231)" stroke-width="1.07684" stroke-linecap="round" stroke-linejoin="round"/>
<path id="Vector_15" d="M26.5522 33.5044C26.3629 33.4299 26.1547 33.3438 25.916 33.3438C25.645 33.3438 25.4386 33.4254 25.2385 33.5053C25.0483 33.5807 24.8688 33.6516 24.6418 33.6516C24.4147 33.6516 24.2352 33.5807 24.045 33.5053C23.8557 33.4308 23.6475 33.3446 23.4088 33.3446C23.1701 33.3446 22.9628 33.4299 22.7734 33.5053" stroke="url(#paint14_linear_132_47231)" stroke-width="1.07684" stroke-linecap="round" stroke-linejoin="round"/>
<path id="Vector_16" d="M4.61668 41.7715C4.61668 41.7715 4.00827 42.3386 3.78662 42.6384C3.50485 42.2319 3.11719 41.8989 3.11719 41.8989" stroke="url(#paint15_linear_132_47231)" stroke-width="1.07684" stroke-linecap="round" stroke-linejoin="round"/>
<path id="Vector_17" d="M41.894 41.0615C41.894 41.0615 41.2856 41.6287 41.064 41.9284C40.7822 41.5219 40.3945 41.189 40.3945 41.189" stroke="url(#paint16_linear_132_47231)" stroke-width="1.07684" stroke-linecap="round" stroke-linejoin="round"/>
<path id="Vector_18" d="M34.8745 36.2109C34.8745 36.2109 34.2661 36.7781 34.0444 37.0778C33.7627 36.6713 33.375 36.3384 33.375 36.3384" stroke="url(#paint17_linear_132_47231)" stroke-width="1.07684" stroke-linecap="round" stroke-linejoin="round"/>
<path id="Vector_19" d="M41.5737 29.835C41.5737 29.835 40.9653 30.4021 40.7437 30.7019C40.4619 30.2953 40.0742 29.9624 40.0742 29.9624" stroke="url(#paint18_linear_132_47231)" stroke-width="1.07684" stroke-linecap="round" stroke-linejoin="round"/>
<path id="Vector_20" d="M2.89793 34.2158C2.89793 34.2158 2.28952 34.783 2.06787 35.0827C1.7861 34.6762 1.39844 34.3433 1.39844 34.3433" stroke="url(#paint19_linear_132_47231)" stroke-width="1.07684" stroke-linecap="round" stroke-linejoin="round"/>
<path id="Vector_21" d="M12.1831 29.835C12.1831 29.835 11.5747 30.4021 11.353 30.7019C11.0713 30.2953 10.6836 29.9624 10.6836 29.9624" stroke="url(#paint20_linear_132_47231)" stroke-width="1.07684" stroke-linecap="round" stroke-linejoin="round"/>
<path id="Vector_22" d="M11.0234 7.6863L15.9078 4.39551L21.537 10.6531" stroke="url(#paint21_linear_132_47231)" stroke-width="1.07684" stroke-linecap="round" stroke-linejoin="round"/>
<path id="Vector_23" d="M19.6133 8.51668L29.8845 1L34.9869 7.11493" stroke="url(#paint22_linear_132_47231)" stroke-width="1.07684" stroke-linecap="round" stroke-linejoin="round"/>
<path id="Vector_24" d="M29.889 1L28.7969 3.74876L29.7741 5.05987L28.7969 6.51456" stroke="url(#paint23_linear_132_47231)" stroke-width="1.07684" stroke-linecap="round" stroke-linejoin="round"/>
<path id="Vector_25" d="M15.818 4.39551L14.9844 6.39673L16.0262 7.72937L15.4555 8.98126" stroke="url(#paint24_linear_132_47231)" stroke-width="1.07684" stroke-linecap="round" stroke-linejoin="round"/>
</g>
</g>
</g>
<defs>
<linearGradient id="paint0_linear_132_47231" x1="20.28" y1="19.1644" x2="13.4823" y2="21.6003" gradientUnits="userSpaceOnUse">
<stop stop-color="#D8242A"/>
<stop offset="1" stop-color="#E7317D"/>
</linearGradient>
<linearGradient id="paint1_linear_132_47231" x1="17.168" y1="25.6909" x2="16.1798" y2="25.7992" gradientUnits="userSpaceOnUse">
<stop stop-color="#D8242A"/>
<stop offset="1" stop-color="#E7317D"/>
</linearGradient>
<linearGradient id="paint2_linear_132_47231" x1="13.2194" y1="15.7081" x2="2.85154" y2="20.0894" gradientUnits="userSpaceOnUse">
<stop stop-color="#D8242A"/>
<stop offset="1" stop-color="#E7317D"/>
</linearGradient>
<linearGradient id="paint3_linear_132_47231" x1="8.66406" y1="24.2746" x2="7.67192" y2="24.3629" gradientUnits="userSpaceOnUse">
<stop stop-color="#D8242A"/>
<stop offset="1" stop-color="#E7317D"/>
</linearGradient>
<linearGradient id="paint4_linear_132_47231" x1="23.6181" y1="35.9384" x2="10.4498" y2="43.5224" gradientUnits="userSpaceOnUse">
<stop stop-color="#D8242A"/>
<stop offset="1" stop-color="#E7317D"/>
</linearGradient>
<linearGradient id="paint5_linear_132_47231" x1="35.2793" y1="35.9322" x2="24.1637" y2="40.747" gradientUnits="userSpaceOnUse">
<stop stop-color="#D8242A"/>
<stop offset="1" stop-color="#E7317D"/>
</linearGradient>
<linearGradient id="paint6_linear_132_47231" x1="22.0804" y1="27.7402" x2="20.9839" y2="32.4025" gradientUnits="userSpaceOnUse">
<stop stop-color="#D8242A"/>
<stop offset="1" stop-color="#E7317D"/>
</linearGradient>
<linearGradient id="paint7_linear_132_47231" x1="31.36" y1="19.1365" x2="24.3893" y2="21.7175" gradientUnits="userSpaceOnUse">
<stop stop-color="#D8242A"/>
<stop offset="1" stop-color="#E7317D"/>
</linearGradient>
<linearGradient id="paint8_linear_132_47231" x1="29.3633" y1="25.6453" x2="28.3754" y2="25.7545" gradientUnits="userSpaceOnUse">
<stop stop-color="#D8242A"/>
<stop offset="1" stop-color="#E7317D"/>
</linearGradient>
<linearGradient id="paint9_linear_132_47231" x1="42.4225" y1="15.6817" x2="32.0547" y2="20.0631" gradientUnits="userSpaceOnUse">
<stop stop-color="#D8242A"/>
<stop offset="1" stop-color="#E7317D"/>
</linearGradient>
<linearGradient id="paint10_linear_132_47231" x1="37.8711" y1="24.2473" x2="36.879" y2="24.3356" gradientUnits="userSpaceOnUse">
<stop stop-color="#D8242A"/>
<stop offset="1" stop-color="#E7317D"/>
</linearGradient>
<linearGradient id="paint11_linear_132_47231" x1="42.9984" y1="27.7402" x2="41.9019" y2="32.4025" gradientUnits="userSpaceOnUse">
<stop stop-color="#D8242A"/>
<stop offset="1" stop-color="#E7317D"/>
</linearGradient>
<linearGradient id="paint12_linear_132_47231" x1="25.1568" y1="42.6529" x2="24.9126" y2="44.0882" gradientUnits="userSpaceOnUse">
<stop stop-color="#D8242A"/>
<stop offset="1" stop-color="#E7317D"/>
</linearGradient>
<linearGradient id="paint13_linear_132_47231" x1="21.0396" y1="37.3837" x2="20.841" y2="38.6235" gradientUnits="userSpaceOnUse">
<stop stop-color="#D8242A"/>
<stop offset="1" stop-color="#E7317D"/>
</linearGradient>
<linearGradient id="paint14_linear_132_47231" x1="26.5522" y1="33.4977" x2="26.4391" y2="34.1417" gradientUnits="userSpaceOnUse">
<stop stop-color="#D8242A"/>
<stop offset="1" stop-color="#E7317D"/>
</linearGradient>
<linearGradient id="paint15_linear_132_47231" x1="4.61668" y1="42.2049" x2="3.70412" y2="42.9368" gradientUnits="userSpaceOnUse">
<stop stop-color="#D8242A"/>
<stop offset="1" stop-color="#E7317D"/>
</linearGradient>
<linearGradient id="paint16_linear_132_47231" x1="41.894" y1="41.495" x2="40.9815" y2="42.2268" gradientUnits="userSpaceOnUse">
<stop stop-color="#D8242A"/>
<stop offset="1" stop-color="#E7317D"/>
</linearGradient>
<linearGradient id="paint17_linear_132_47231" x1="34.8745" y1="36.6444" x2="33.9619" y2="37.3762" gradientUnits="userSpaceOnUse">
<stop stop-color="#D8242A"/>
<stop offset="1" stop-color="#E7317D"/>
</linearGradient>
<linearGradient id="paint18_linear_132_47231" x1="41.5737" y1="30.2684" x2="40.6611" y2="31.0003" gradientUnits="userSpaceOnUse">
<stop stop-color="#D8242A"/>
<stop offset="1" stop-color="#E7317D"/>
</linearGradient>
<linearGradient id="paint19_linear_132_47231" x1="2.89793" y1="34.6493" x2="1.98537" y2="35.3811" gradientUnits="userSpaceOnUse">
<stop stop-color="#D8242A"/>
<stop offset="1" stop-color="#E7317D"/>
</linearGradient>
<linearGradient id="paint20_linear_132_47231" x1="12.1831" y1="30.2684" x2="11.2705" y2="31.0003" gradientUnits="userSpaceOnUse">
<stop stop-color="#D8242A"/>
<stop offset="1" stop-color="#E7317D"/>
</linearGradient>
<linearGradient id="paint21_linear_132_47231" x1="21.537" y1="7.52432" x2="14.9938" y2="12.6212" gradientUnits="userSpaceOnUse">
<stop stop-color="#D8242A"/>
<stop offset="1" stop-color="#E7317D"/>
</linearGradient>
<linearGradient id="paint22_linear_132_47231" x1="34.9869" y1="4.75834" x2="26.8922" y2="12.4343" gradientUnits="userSpaceOnUse">
<stop stop-color="#D8242A"/>
<stop offset="1" stop-color="#E7317D"/>
</linearGradient>
<linearGradient id="paint23_linear_132_47231" x1="29.889" y1="3.75728" x2="28.806" y2="3.85672" gradientUnits="userSpaceOnUse">
<stop stop-color="#D8242A"/>
<stop offset="1" stop-color="#E7317D"/>
</linearGradient>
<linearGradient id="paint24_linear_132_47231" x1="16.0262" y1="6.68838" x2="14.9958" y2="6.79692" gradientUnits="userSpaceOnUse">
<stop stop-color="#D8242A"/>
<stop offset="1" stop-color="#E7317D"/>
</linearGradient>
</defs>
</svg>
