<svg width="44" height="42" viewBox="0 0 44 42" fill="none" xmlns="http://www.w3.org/2000/svg">
<path d="M27.9739 19.2832H24.5301C23.4918 19.2832 22.4648 20.3102 22.4648 21.578V21.9718" stroke="#E9292C" stroke-width="1.30197" stroke-linecap="round" stroke-linejoin="round"/>
<path d="M2.14453 22.1356V17.9057C2.14453 17.2042 2.71253 16.6362 3.41398 16.6362H11.3529C12.2318 16.6362 13.026 16.1138 13.3726 15.3066L16.0841 9H18.5969L16.1719 16.1203C16.0564 16.4621 15.9962 16.8201 15.9962 17.1798V17.7218C15.9962 20.1923 17.9996 22.1958 20.4702 22.1958H27.3838L28.733 16.6346H40.0832V23.4099" stroke="#E9292C" stroke-width="1.30197" stroke-linecap="round" stroke-linejoin="round"/>
<path d="M16.6367 19.2817L20.1326 15.9502" stroke="#E9292C" stroke-width="1.30197" stroke-linecap="round" stroke-linejoin="round"/>
<path d="M19.5703 13.8525L20.9521 17.7943" stroke="#E9292C" stroke-width="1.30197" stroke-linecap="round" stroke-linejoin="round"/>
<path d="M34.8477 10.1084V16.4915" stroke="#E9292C" stroke-width="1.30197" stroke-linecap="round" stroke-linejoin="round"/>
<path d="M34.9609 12.4219L40.0908 16.6355" stroke="#E9292C" stroke-width="1.30197" stroke-linecap="round" stroke-linejoin="round"/>
<path d="M26.6666 27.3086H15.7656" stroke="#E9292C" stroke-width="1.30197" stroke-linecap="round" stroke-linejoin="round"/>
<path d="M4.86368 27.3083H2.17668C1.52568 27.3083 1 26.781 1 26.1317V23.4121H4.74325" stroke="#E9292C" stroke-width="1.30197" stroke-linecap="round" stroke-linejoin="round"/>
<path d="M38.2835 23.4092H42.0593V27.307H37.2109" stroke="#E9292C" stroke-width="1.30197" stroke-linecap="round" stroke-linejoin="round"/>
<path d="M10.2107 31.3584C12.5482 30.8067 13.9959 28.4646 13.4442 26.1271C12.8925 23.7896 10.5503 22.3419 8.21286 22.8936C5.87537 23.4453 4.42771 25.7875 4.9794 28.125C5.5311 30.4625 7.87324 31.9101 10.2107 31.3584Z" stroke="#E9292C" stroke-width="1.30197" stroke-linecap="round" stroke-linejoin="round"/>
<path d="M33.5649 31.4146C35.9355 31.0297 37.5454 28.7959 37.1606 26.4253C36.7758 24.0546 34.5421 22.4447 32.1714 22.8296C29.8007 23.2144 28.1908 25.4482 28.5756 27.8189C28.9604 30.1896 31.1942 31.7994 33.5649 31.4146Z" stroke="#E9292C" stroke-width="1.30197" stroke-linecap="round" stroke-linejoin="round"/>
<path d="M28.3711 18.1683L29.4355 13.9092" stroke="#E9292C" stroke-width="1.30197" stroke-linecap="round" stroke-linejoin="round"/>
<path d="M41.4726 20.1522H42.4572C42.7567 20.1522 43.0008 19.9097 43.0008 19.6086V13.2516C43.0008 12.9521 42.7583 12.708 42.4572 12.708H40.7858C40.4863 12.708 40.2422 12.9505 40.2422 13.2516V14.5292" stroke="#E9292C" stroke-width="1.30197" stroke-linecap="round" stroke-linejoin="round"/>
</svg>
