<svg width="42" height="42" viewBox="0 0 42 42" fill="none" xmlns="http://www.w3.org/2000/svg">
<path d="M41.2999 36.8542H0.700052C0.313844 36.8542 0 36.5412 0 36.1542C0 35.7672 0.313057 35.4541 0.700052 35.4541H41.2999C41.6862 35.4541 42 35.7672 42 36.1542C42 36.5412 41.6869 36.8542 41.2999 36.8542Z" fill="#E9292C"/>
<path d="M1.54707 36.8532C1.44561 36.8532 1.34178 36.8311 1.24424 36.7839C0.895789 36.6164 0.749486 36.1979 0.917027 35.8495L12.2335 12.3329C12.6441 11.477 13.4755 10.9728 14.4391 11.0263C15.3877 11.0759 16.175 11.6635 16.4944 12.5578L18.9752 19.5065L19.3198 19.2902C19.7083 19.0456 20.185 18.9709 20.6294 19.0841C21.077 19.1982 21.4482 19.4837 21.674 19.8872C30.1619 35.0637 30.2587 35.8156 30.2909 36.0634C30.3397 36.4465 30.0699 36.7981 29.686 36.8477C29.3101 36.8964 28.9726 36.6424 28.9073 36.2766C28.6871 35.5254 25.374 29.3727 20.4516 20.5708C20.4037 20.4866 20.3336 20.4536 20.2825 20.4402C20.24 20.4292 20.1543 20.419 20.0646 20.4756L18.9815 21.156C18.8022 21.2693 18.5812 21.2944 18.3798 21.2244C18.1792 21.1552 18.0211 20.9979 17.9495 20.7989L15.1761 13.029C14.9865 12.498 14.5067 12.4328 14.3651 12.4249C14.2243 12.417 13.7398 12.4335 13.4952 12.9401L2.17869 36.4567C2.05835 36.7076 1.80822 36.8532 1.54707 36.8532Z" fill="#E9292C"/>
<path d="M27.2393 32.1506C27.0694 32.1506 26.8995 32.0892 26.765 31.9658L19.6331 25.4009C19.4388 25.2223 19.1808 25.1453 18.9181 25.1877C18.6577 25.231 18.4367 25.3883 18.3101 25.6204L17.2395 27.5915C16.8384 28.3278 16.0998 28.7675 15.2621 28.7675C14.4252 28.7675 13.6858 28.327 13.2854 27.5915L12.5201 26.1843C12.399 25.9609 12.1866 25.8052 11.9372 25.7556C11.6895 25.7069 11.4315 25.7714 11.2348 25.9318C10.5025 26.532 9.49964 26.6115 8.67845 26.1356C7.85963 25.6589 7.43252 24.7472 7.59141 23.8136L7.98627 21.4892C8.05077 21.1085 8.41338 20.8528 8.79329 20.9158C9.174 20.9811 9.43121 21.3421 9.36592 21.7228L8.97106 24.0472C8.87982 24.5868 9.26288 24.855 9.38244 24.9242C9.502 24.9942 9.92518 25.1932 10.3484 24.8471C10.8691 24.4216 11.5447 24.2509 12.2062 24.3807C12.8662 24.5105 13.4294 24.9234 13.7503 25.5142L14.5156 26.9214C14.6659 27.1998 14.9459 27.3658 15.2613 27.3658C15.5775 27.3658 15.8567 27.1998 16.0086 26.9214L17.0791 24.9502C17.4134 24.3366 17.9994 23.919 18.6884 23.8049C19.3767 23.6908 20.0665 23.8961 20.5801 24.3689L27.712 30.9338C27.996 31.1957 28.0148 31.6385 27.7537 31.9225C27.6153 32.0727 27.4273 32.149 27.2385 32.149L27.2393 32.1506Z" fill="#E9292C"/>
<path d="M40.5244 36.8542C40.2515 36.8542 39.9919 36.6938 39.8794 36.4263C39.2855 35.0191 33.66 23.177 31.7352 19.1395C31.6778 19.0175 31.5724 18.99 31.5157 18.9837C31.4536 18.9774 31.3474 18.9845 31.2648 19.0946L30.7701 19.7538C30.6183 19.9575 30.3666 20.0629 30.1141 20.0275C29.8616 19.9929 29.6484 19.8238 29.5572 19.5855L24.7748 7.16445C24.5483 6.58002 24.0236 6.3936 23.6162 6.3991C23.2071 6.41169 22.7045 6.63665 22.5165 7.22974L18.7433 19.2645C18.6277 19.6327 18.2368 19.8387 17.8655 19.7231C17.4966 19.6075 17.2921 19.215 17.4069 18.8461L21.1809 6.80892C21.5184 5.74545 22.4568 5.03595 23.5729 5.00055C24.6796 4.97853 25.6762 5.61802 26.0805 6.66104L30.4295 17.9572C30.7701 17.6788 31.1995 17.5466 31.6573 17.5907C32.2433 17.6505 32.746 18.0036 32.9992 18.5362C34.9271 22.5816 40.5653 34.4496 41.1694 35.8804C41.3196 36.2367 41.1529 36.6473 40.7973 36.7976C40.7085 36.8353 40.6164 36.8526 40.5244 36.8526V36.8542Z" fill="#E9292C"/>
<path d="M36.1029 27.4066C35.97 27.4066 35.8363 27.3689 35.7175 27.2902L29.0851 22.8971C28.9789 22.8271 28.879 22.8507 28.8294 22.8712C28.7893 22.8877 28.724 22.9239 28.6855 23.0009L28.7154 23.5885C28.7681 24.6103 28.1939 25.5283 27.2516 25.9278C26.3069 26.3266 25.2489 26.0993 24.5528 25.3497L21.0187 21.5434C20.756 21.2602 20.7725 20.8174 21.0557 20.5539C21.3381 20.2919 21.7809 20.3069 22.0452 20.5908L25.5793 24.3971C26.0237 24.8762 26.5547 24.7031 26.7065 24.6386C26.8583 24.5741 27.3515 24.3138 27.3176 23.6617L27.2807 22.9459C27.2775 22.8806 27.283 22.8153 27.2972 22.7524C27.4207 22.2167 27.7998 21.7747 28.3103 21.5717C28.8192 21.368 29.3989 21.427 29.8575 21.7314L36.4899 26.1245C36.8124 26.3377 36.9005 26.7719 36.6873 27.0944C36.552 27.2981 36.3302 27.4082 36.1029 27.4082V27.4066Z" fill="#E9292C"/>
</svg>
