<svg width="42" height="42" viewBox="0 0 42 42" fill="none" xmlns="http://www.w3.org/2000/svg">
<g id="Icon">
<g id="Layer 2">
<g id="NewGroupe2">
<g id="NewGroup0-7">
<g id="Group">
<path id="Vector" fill-rule="evenodd" clip-rule="evenodd" d="M5.6073 2.87697C7.41878 2.87697 8.88847 4.34808 8.88847 6.15825C8.88847 7.96842 7.41741 9.43953 5.6073 9.43953C3.79719 9.43953 2.32614 7.96842 2.32614 6.15825C2.32614 4.34808 3.79583 2.87697 5.6073 2.87697ZM5.6073 1.55078C3.0644 1.55078 1 3.61526 1 6.15825C1 8.70124 3.0644 10.7657 5.6073 10.7657C8.1502 10.7657 10.2146 8.70124 10.2146 6.15825C10.2146 3.61526 8.1502 1.55078 5.6073 1.55078Z" fill="#D8242A"/>
<path id="Vector_2" fill-rule="evenodd" clip-rule="evenodd" d="M33.9147 21.7631C30.6253 21.7631 28.0045 18.6609 28.0045 14.8929C28.0045 13.389 28.4214 11.9958 29.1324 10.8597C29.8706 9.68115 30.1728 8.21414 29.9636 6.78269C29.9636 6.78269 29.9636 6.77995 29.9636 6.77858C29.9267 6.53112 29.9075 6.27545 29.9075 6.01569C29.9075 3.44945 31.6766 1.32619 33.916 1.32619C36.1554 1.32619 37.9245 3.45082 37.9245 6.01569C37.9245 6.27819 37.9054 6.53522 37.8712 6.78542C37.6634 8.21278 37.9642 9.67978 38.7024 10.8569C39.4106 11.9945 39.8276 13.3876 39.8276 14.8916C39.8276 17.7996 38.2704 20.3029 36.0406 21.3037C35.707 21.4541 35.558 21.8465 35.707 22.1801C35.8574 22.5137 36.2497 22.6627 36.5833 22.5137C39.2438 21.3188 41.1537 18.3629 41.1537 14.8916C41.1537 13.1251 40.6588 11.49 39.8276 10.1542C39.8276 10.1542 39.8276 10.1542 39.8276 10.1528C39.252 9.23408 39.0223 8.08973 39.185 6.97409C39.185 6.97409 39.185 6.97273 39.185 6.97136C39.2288 6.661 39.252 6.34108 39.252 6.01569C39.252 2.67151 36.8349 0 33.9174 0C30.9999 0 28.5828 2.67288 28.5828 6.01569C28.5828 6.34245 28.606 6.66237 28.6525 6.97409C28.8152 8.08973 28.5855 9.23544 28.0099 10.1556C27.1746 11.4913 26.6797 13.1265 26.6797 14.8929C26.6797 19.4402 29.9485 23.0907 33.9174 23.0907C34.2838 23.0907 34.5805 22.7926 34.5805 22.4276C34.5805 22.0625 34.2838 21.7645 33.9174 21.7645L33.9147 21.7631Z" fill="#D8242A"/>
<path id="Vector_3" fill-rule="evenodd" clip-rule="evenodd" d="M18.4448 16.4689C16.0755 16.4689 14.2011 14.224 14.2011 11.5087C14.2011 10.4204 14.5019 9.41005 15.0173 8.58837C15.5888 7.67644 15.8226 6.5403 15.6613 5.4315C15.6613 5.4315 15.6613 5.42876 15.6613 5.4274C15.6339 5.25103 15.6216 5.06919 15.6216 4.88325C15.6216 3.06761 16.8602 1.55138 18.4448 1.55138C20.0293 1.55138 21.2679 3.06761 21.2679 4.88325C21.2679 5.07056 21.2543 5.25513 21.2297 5.43423C21.0683 6.53893 21.3021 7.67508 21.8736 8.587C22.3863 9.41005 22.6884 10.4204 22.6884 11.5087C22.6884 13.3531 21.8244 14.9732 20.5215 15.8318C20.2166 16.0328 20.1318 16.4457 20.3328 16.7506C20.5338 17.0554 20.9467 17.1402 21.2515 16.9392C22.8935 15.8564 24.0132 13.8329 24.0132 11.5087C24.0132 10.1565 23.6345 8.90692 22.9974 7.88426C22.9974 7.88426 22.9974 7.88426 22.9974 7.88289C22.5886 7.23073 22.4273 6.41588 22.5421 5.62427C22.5421 5.62427 22.5421 5.62291 22.5421 5.62154C22.5763 5.38228 22.5941 5.13618 22.5941 4.88462C22.5941 2.28967 20.7088 0.226562 18.4448 0.226562C16.1808 0.226562 14.2955 2.29104 14.2955 4.88462C14.2955 5.13618 14.3132 5.38365 14.3488 5.62427C14.465 6.41725 14.3023 7.2321 13.8935 7.88562C13.2537 8.90692 12.875 10.1579 12.875 11.5101C12.875 15.0033 15.3974 17.7965 18.4448 17.7965C18.8112 17.7965 19.1078 17.4984 19.1078 17.1334C19.1078 16.7683 18.8112 16.4703 18.4448 16.4703V16.4689Z" fill="#D8242A"/>
<path id="Vector_4" fill-rule="evenodd" clip-rule="evenodd" d="M33.2539 10.6133V26.25C33.2539 26.6164 33.5506 26.9131 33.917 26.9131C34.2834 26.9131 34.58 26.6164 34.58 26.25V10.6133C34.58 10.2469 34.2834 9.9502 33.917 9.9502C33.5506 9.9502 33.2539 10.2469 33.2539 10.6133Z" fill="#D8242A"/>
<path id="Vector_5" fill-rule="evenodd" clip-rule="evenodd" d="M17.7812 8.31641V22.4273C17.7812 22.7923 18.0779 23.0904 18.4443 23.0904C18.8107 23.0904 19.1074 22.7923 19.1074 22.4273V8.31641C19.1074 7.95 18.8107 7.65332 18.4443 7.65332C18.0779 7.65332 17.7812 7.95 17.7812 8.31641Z" fill="#D8242A"/>
<path id="Vector_6" fill-rule="evenodd" clip-rule="evenodd" d="M7.23521 28.5836C7.76566 28.2199 8.38088 28.0094 9.03712 28.0094C9.55253 28.0094 10.0433 28.1393 10.4877 28.3717C10.9429 28.6151 11.4912 28.6137 11.945 28.3676C12.3825 28.1393 12.8733 28.0094 13.3901 28.0094C13.9069 28.0094 14.3977 28.1393 14.8407 28.3717C15.2959 28.6151 15.8428 28.6137 16.2981 28.3676C16.7355 28.1393 17.2264 28.0094 17.7431 28.0094C18.3994 28.0094 19.0146 28.2199 19.545 28.5836C19.8472 28.7901 20.2601 28.7121 20.4665 28.4113C20.6729 28.1092 20.5964 27.6963 20.2942 27.4899C19.5437 26.9758 18.6714 26.6846 17.7431 26.6846C17.0076 26.6846 16.3076 26.8678 15.676 27.1986C15.6733 27.1986 15.6705 27.2014 15.6678 27.2027C15.6049 27.2369 15.5284 27.2369 15.4655 27.2027C15.4627 27.2027 15.46 27.2 15.4573 27.1986C14.8256 26.8664 14.1257 26.6846 13.3901 26.6846C12.6546 26.6846 11.9546 26.8678 11.323 27.1986C11.3203 27.1986 11.3175 27.2014 11.3148 27.2027C11.2519 27.2369 11.1753 27.2369 11.1125 27.2027C11.1097 27.2027 11.107 27.2 11.1056 27.1986C10.474 26.8664 9.77401 26.6846 9.03848 26.6846C8.11019 26.6846 7.23794 26.9758 6.48738 27.4899C6.18524 27.6963 6.10868 28.1092 6.31512 28.4113C6.52156 28.7135 6.93444 28.7901 7.23658 28.5836H7.23521Z" fill="#D8242A"/>
<path id="Vector_7" fill-rule="evenodd" clip-rule="evenodd" d="M19.8211 35.5182C20.3516 35.1559 20.9668 34.9453 21.6231 34.9453C22.1385 34.9453 22.6293 35.0752 23.0736 35.3076C23.5289 35.551 24.0771 35.5496 24.531 35.3035C24.9685 35.0752 25.4593 34.9453 25.9761 34.9453C26.4928 34.9453 26.9837 35.0752 27.4266 35.3076C27.8819 35.551 28.4287 35.5496 28.884 35.3035C29.3215 35.0752 29.8123 34.9453 30.3291 34.9453C30.9853 34.9453 31.6005 35.1559 32.131 35.5182C32.4331 35.7246 32.846 35.6481 33.0524 35.3459C33.2589 35.0438 33.1823 34.6309 32.8802 34.4244C32.1296 33.9104 31.2574 33.6191 30.3291 33.6191C29.5935 33.6191 28.8936 33.8023 28.2619 34.1332C28.2592 34.1332 28.2565 34.1359 28.2537 34.1373C28.1909 34.1715 28.1143 34.1715 28.0514 34.1373C28.0487 34.1373 28.0459 34.1346 28.0446 34.1332C27.4129 33.801 26.713 33.6191 25.9774 33.6191C25.2419 33.6191 24.5419 33.8023 23.9103 34.1332C23.9076 34.1332 23.9048 34.1359 23.9021 34.1373C23.8392 34.1715 23.7626 34.1715 23.6998 34.1373C23.697 34.1373 23.6943 34.1346 23.6916 34.1332C23.0599 33.801 22.3599 33.6191 21.6244 33.6191C20.6961 33.6191 19.8239 33.9104 19.0733 34.4244C18.7712 34.6309 18.6946 35.0438 18.9011 35.3459C19.1075 35.6481 19.5204 35.7246 19.8225 35.5182H19.8211Z" fill="#D8242A"/>
<path id="Vector_8" fill-rule="evenodd" clip-rule="evenodd" d="M25.4652 25.8919C25.4898 25.8946 25.5144 25.896 25.539 25.896C29.4491 25.896 32.9927 26.3635 35.5575 27.5845C37.95 28.7233 39.4498 30.5362 39.4498 33.2843C39.4498 36.0324 37.95 37.8467 35.5575 38.9855C32.9927 40.2051 29.4491 40.674 25.539 40.674H12.1423C6.72426 40.674 2.3275 36.2758 2.3275 30.8589C2.3275 26.41 5.29422 22.6475 9.35603 21.4457C9.70739 21.3418 9.90699 20.9727 9.80309 20.6213C9.69919 20.2699 9.33006 20.0703 8.9787 20.1742C4.3673 21.5373 1 25.8071 1 30.8575C1 37.0072 5.99147 42.0002 12.1423 42.0002H25.539C29.6733 42.0002 33.4152 41.4739 36.1262 40.1832C39.0096 38.8105 40.7759 36.597 40.7759 33.2843C40.7759 29.9716 39.0096 27.7581 36.1262 26.3854C33.4302 25.103 29.7143 24.5739 25.6074 24.5684C25.5841 24.5657 25.5609 24.5643 25.5376 24.5643C23.2422 24.5643 21.0206 23.759 19.2597 22.2879C17.3293 20.6815 14.8465 19.7148 12.1423 19.7148C11.7759 19.7148 11.4792 20.0115 11.4792 20.3779C11.4792 20.7443 11.7759 21.041 12.1423 21.041C14.5252 21.041 16.7113 21.8914 18.412 23.3065C20.3917 24.9608 22.8854 25.8727 25.4652 25.8905V25.8919Z" fill="#D8242A"/>
</g>
</g>
</g>
</g>
</g>
</svg>
