<svg width="42" height="40" viewBox="0 0 42 40" fill="none" xmlns="http://www.w3.org/2000/svg">
<g clip-path="url(#clip0_218_15860)">
<path d="M1.4915 39.5639C0.669272 39.5639 0 38.8951 0 38.0724V36.4156C0 35.5933 0.668858 34.9241 1.4915 34.9241H2.31579V34.6984C2.31579 32.7745 3.88087 31.209 5.80518 31.209H15.2481L16.5669 27.6754L16.3883 27.6299C13.5405 26.9032 11.5512 24.3431 11.5512 21.4039V20.7958C11.5512 20.4304 11.8489 20.1327 12.2143 20.1327H16.6165L17.5288 17.504L17.3659 17.4532C16.3631 17.1394 15.4619 16.4995 14.8286 15.6524C14.1738 14.7761 13.8273 13.7347 13.8273 12.6405V12.2999C13.8273 11.9345 14.125 11.6368 14.4904 11.6368H20.6734L20.6478 11.4491C20.2679 8.68317 17.8752 6.59722 15.082 6.59722C11.9832 6.59722 9.46199 9.11847 9.46199 12.2172C9.46199 12.5826 9.16435 12.8803 8.79892 12.8803C8.43348 12.8803 8.13585 12.5826 8.13585 12.2172C8.13585 8.38719 11.2519 5.27108 15.082 5.27108C17.1406 5.27108 19.0827 6.18053 20.4097 7.76669L20.7019 8.116V2.83831C20.7015 2.70726 20.6846 2.57911 20.6519 2.45758C20.4758 1.79161 19.8719 1.32614 19.184 1.32614C18.4961 1.32614 17.8926 1.79037 17.7169 2.45469C17.64 2.7453 17.3767 2.94827 17.0761 2.94827C17.0191 2.94827 16.962 2.94083 16.9062 2.92595C16.5528 2.83252 16.3416 2.46874 16.435 2.1153C16.7636 0.869764 17.8938 0 19.1832 0C19.9574 0 20.709 0.322441 21.2443 0.885059L21.3642 1.01073L21.4841 0.885059C22.0198 0.322441 22.7714 0 23.546 0C24.8354 0 25.966 0.869764 26.2951 2.11571C26.3885 2.46915 26.1768 2.83293 25.8234 2.92636C25.7676 2.94124 25.7101 2.94868 25.6531 2.94868C25.353 2.94868 25.0896 2.74571 25.0127 2.45469C24.837 1.79037 24.2339 1.32614 23.5456 1.32614C22.8573 1.32614 22.2538 1.78996 22.0785 2.45469C22.045 2.57911 22.0277 2.71016 22.0277 2.84327V8.116L22.3199 7.76669C23.6469 6.18053 25.589 5.27108 27.6477 5.27108C31.4777 5.27108 34.5938 8.38719 34.5938 12.2172C34.5938 12.5826 34.2961 12.8803 33.9307 12.8803C33.5653 12.8803 33.2676 12.5826 33.2676 12.2172C33.2676 9.11847 30.7464 6.59722 27.6477 6.59722C24.8544 6.59722 22.4613 8.68317 22.0818 11.4491L22.0562 11.6368H27.51C27.8754 11.6368 28.1731 11.9345 28.1731 12.2999V12.6405C28.1731 13.7347 27.8271 14.7765 27.1718 15.6524C26.5385 16.4999 25.6374 17.1394 24.6345 17.4532L24.4716 17.504L25.384 20.1327H29.7861C30.1515 20.1327 30.4492 20.4304 30.4492 20.7958V21.4039C30.4492 24.3431 28.46 26.9032 25.6121 27.6299L25.4336 27.6754L26.7523 31.209H36.1952C38.1191 31.209 39.6846 32.7741 39.6846 34.6984V34.9241H40.5089C41.3311 34.9241 42.0004 35.5929 42.0004 36.4156V38.0724C42.0004 38.8946 41.3316 39.5639 40.5089 39.5639H1.4915ZM1.32614 38.2382H40.6739V36.2506H24.713C24.3476 36.2506 24.05 35.953 24.05 35.5876C24.05 35.2221 24.3476 34.9245 24.713 34.9245H38.3577V34.6988C38.3577 33.5062 37.3874 32.5355 36.1944 32.5355H5.80518C4.61256 32.5355 3.64193 33.5057 3.64193 34.6988V34.9245H17.2866C17.652 34.9245 17.9496 35.2221 17.9496 35.5876C17.9496 35.953 17.652 36.2506 17.2866 36.2506H1.32614V38.2382ZM16.6636 31.2094H25.3364L24.0748 27.8291H17.9252L16.6636 31.2094ZM12.8828 21.6321C13.0035 24.3633 15.2411 26.503 17.9765 26.503H24.0239C26.7593 26.503 28.9969 24.3633 29.1177 21.6321L29.1251 21.4593H12.8749L12.8823 21.6321H12.8828ZM18.0203 20.1335H23.9797L23.1289 17.683H18.8706L18.0199 20.1335H18.0203ZM15.1886 13.151C15.4408 14.9786 17.0232 16.3564 18.8694 16.3564H23.1306C24.9768 16.3564 26.5592 14.9782 26.8114 13.151L26.8374 12.963H15.1626L15.1886 13.151Z" fill="#D8242A"/>
</g>
<defs>
<clipPath id="clip0_218_15860">
<rect width="42" height="39.5639" fill="white"/>
</clipPath>
</defs>
</svg>
