<svg width="44" height="44" viewBox="0 0 44 44" fill="none" xmlns="http://www.w3.org/2000/svg">
<path fill-rule="evenodd" clip-rule="evenodd" d="M23.8364 32.7661C23.8364 32.4768 24.0707 32.2433 24.3591 32.2433H25.2592C25.5476 32.2433 25.782 32.4768 25.782 32.7661C25.782 33.0554 25.5476 33.2889 25.2592 33.2889H24.3591C24.0707 33.2889 23.8364 33.0545 23.8364 32.7661ZM41.9505 41.9517H37.7463C37.5041 40.4138 36.1675 39.234 34.5633 39.234C34.3716 39.234 34.1826 39.2505 33.9978 39.2828C33.902 38.9133 33.7556 38.5657 33.5674 38.2494C35.2743 36.2122 37.9389 34.4669 41.3135 33.1826C41.527 33.2174 41.7405 33.254 41.9505 33.2924V41.9517ZM2.04169 35.5918C3.25807 35.4123 4.50321 35.2964 5.75793 35.2442V36.8082C5.75793 37.0966 5.99232 37.331 6.28073 37.331C6.56914 37.331 6.80353 37.0966 6.80353 36.8082V35.2145C6.9778 35.2119 7.14858 35.2102 7.31936 35.2102C13.6043 35.2102 19.5999 36.8422 23.5235 39.5973C23.0365 40.1628 22.7411 40.8982 22.7411 41.7025C22.7411 41.7861 22.7446 41.8689 22.7481 41.9517H2.04169V35.5918ZM3.61009 29.55C4.26446 30.1477 5.22119 30.5259 6.28073 30.5259C6.57263 30.5259 6.80353 30.2915 6.80353 30.0031C6.80353 29.7147 6.57263 29.4803 6.28073 29.4803C4.8866 29.4803 3.75212 28.6473 3.75212 27.6235C3.75212 26.9229 4.31413 26.2677 5.17849 25.9549C5.3667 25.8869 5.49827 25.7153 5.52006 25.5157C5.54097 25.3153 5.44512 25.121 5.27085 25.0165C4.91187 24.7969 4.70187 24.4815 4.70187 24.1503C4.70187 23.5352 5.42769 23.0159 6.28073 23.0159C7.13376 23.0159 7.86307 23.5352 7.86307 24.1503C7.86307 24.4815 7.65308 24.7969 7.29409 25.0165C7.11982 25.121 7.02398 25.3153 7.04489 25.5157C7.06231 25.7153 7.19824 25.8869 7.38645 25.9549C8.2543 26.2677 8.81282 26.9229 8.81282 27.6235C8.81282 27.9485 8.69171 28.27 8.46778 28.5523C8.37193 28.6726 8.33272 28.8285 8.36496 28.9793C8.39371 29.13 8.48956 29.2607 8.62113 29.3348C9.26156 29.6903 9.62752 30.1678 9.62752 30.6426C9.62752 31.649 8.09485 32.4995 6.28073 32.4995C4.46661 32.4995 2.93742 31.649 2.93742 30.6426C2.93742 30.2593 3.17965 29.8715 3.60922 29.55H3.61009ZM10.6025 31.1768C10.6487 31.0042 10.674 30.8256 10.674 30.6426C10.674 30.1678 10.5032 29.7094 10.1869 29.3025C10.6278 29.0455 11.0548 28.8285 11.3963 28.6909C12.3531 29.0742 13.9859 30.0667 15.0594 31.1768H10.6034H10.6025ZM9.35741 32.7312V34.2186C10.7481 34.2918 12.1065 34.4399 13.43 34.663V32.2224H9.9839C9.80614 32.408 9.59615 32.5787 9.35828 32.7312H9.35741ZM6.8044 33.525C7.34898 33.4841 7.85349 33.3812 8.31268 33.2261V34.1776C7.98506 34.1698 7.65482 34.1646 7.32023 34.1646C7.14945 34.1646 6.97867 34.1672 6.8044 34.1689V33.525ZM5.7588 33.525V34.1968C4.63478 34.2421 3.52557 34.3388 2.42944 34.4835L3.2755 32.7748C3.93684 33.1826 4.79772 33.4527 5.75793 33.525H5.7588ZM8.73876 21.7585L8.26214 22.7205C8.66383 23.1039 8.90954 23.6031 8.90954 24.1503C8.90954 24.5756 8.75619 24.9868 8.48607 25.3354C9.33998 25.8773 9.85929 26.7173 9.85929 27.6235C9.85929 27.8709 9.82009 28.114 9.74515 28.3493C10.2897 28.0356 10.8125 27.7829 11.2212 27.6392C11.3353 27.6 11.4556 27.6 11.5662 27.6392C12.7399 28.0504 15.0193 29.4254 16.2436 30.9372C16.4283 31.1646 16.471 31.4756 16.3577 31.7484C16.2366 32.0368 15.963 32.2224 15.6571 32.2224H14.4765V34.8564C15.3835 35.0385 16.2688 35.2546 17.1402 35.5082C17.3571 35.5718 17.5741 35.638 17.7876 35.706C18.773 35.1283 19.85 34.5994 21.0028 34.1306V31.1463H19.342C19.0109 31.1463 18.7199 30.9589 18.5813 30.6566C18.4463 30.3551 18.4959 30.0135 18.7164 29.7643C19.7158 28.6229 21.2668 27.5485 22.6426 26.7983L19.0684 20.3688L18.489 21.2619C18.3287 21.5102 18.0655 21.6618 17.7745 21.6784C17.4791 21.6949 17.202 21.5738 17.0138 21.3464L16.0362 20.1579L14.1515 22.8294C13.9772 23.0777 13.7036 23.2189 13.4047 23.2189C13.3725 23.2189 13.3411 23.2171 13.3089 23.2137C12.9743 23.1797 12.6937 22.9749 12.5622 22.6665L11.5697 20.3818L10.2113 21.8953C9.96908 22.1628 9.60661 22.2648 9.26156 22.1611C9.03763 22.0931 8.85639 21.9485 8.74225 21.7585H8.73876ZM13.9737 11.2006L18.4942 19.3345L17.7048 20.5465L16.7306 19.3632C16.5494 19.1411 16.2758 19.0182 15.9874 19.0304C15.699 19.0408 15.4393 19.1829 15.2729 19.419L13.4274 22.0408L12.4454 19.7824C12.3173 19.4896 12.0646 19.2927 11.7518 19.2421C11.439 19.1907 11.1367 19.297 10.9232 19.5349L9.61096 20.9935L9.49682 20.2276L13.9746 11.2006H13.9737ZM17.3562 11.3052L17.3885 11.5343C17.4382 11.8706 17.6656 12.1425 17.9862 12.2436C18.3138 12.3455 18.658 12.2471 18.8828 11.9857L19.9502 10.7536L20.7396 12.6505C20.8642 12.9459 21.1274 13.1428 21.4402 13.1768C21.4724 13.1794 21.5038 13.1811 21.5325 13.1811C21.8175 13.1811 22.0728 13.0443 22.2366 12.8038L23.7693 10.541L24.5308 11.4986C24.7051 11.7208 24.9717 11.8393 25.2497 11.8219C25.5267 11.8053 25.7725 11.658 25.9258 11.4184L26.3379 10.7536L27.6789 13.2578L21.9952 23.4829L16.315 13.2578L17.3571 11.3052H17.3562ZM21.9944 2.63103L18.1927 9.74285L18.367 10.9836L19.3594 9.83521C19.559 9.60692 19.85 9.50062 20.1454 9.55029C20.4373 9.59908 20.6786 9.79339 20.7963 10.0696L21.5718 11.9247L23.0513 9.73849C23.2081 9.51021 23.453 9.37253 23.7274 9.36208C24.001 9.34901 24.2572 9.46925 24.428 9.68621L25.1817 10.6351L25.7725 9.6897L21.9952 2.63103H21.9944ZM30.0394 11.1605L25.4692 19.3824L25.7071 20.9935L27.0158 19.5349C27.2293 19.2979 27.5317 19.1907 27.848 19.2421C28.1608 19.2927 28.4135 19.4905 28.5415 19.7824L29.5192 22.0408L31.369 19.419C31.5363 19.1829 31.796 19.0408 32.0835 19.0304C32.3719 19.0173 32.642 19.1411 32.8268 19.3632L33.8009 20.5465L34.5372 19.4112L30.0385 11.1605H30.0394ZM37.0458 25.3833C36.9316 25.3432 36.8114 25.3432 36.6972 25.3833C35.7867 25.7039 34.0188 26.7774 33.0734 27.9572C32.9026 28.1672 32.8634 28.4521 32.9671 28.7013C33.0777 28.9688 33.333 29.1413 33.6179 29.1413H34.3969V31.6212C32.4338 31.6412 30.4916 31.7954 28.6139 32.083V31.1463H30.2746C30.6092 31.1463 30.8968 30.9581 31.0362 30.6566C31.1712 30.3551 31.1216 30.0135 30.9046 29.7643C29.3467 27.9886 26.4591 26.3749 24.9682 25.8921C24.8654 25.859 24.7513 25.859 24.6484 25.8921C24.3426 25.9915 23.9766 26.1396 23.5776 26.3261L22.5921 24.5599L24.6336 20.8872L24.712 21.4152C24.7652 21.7707 25.0109 22.0565 25.356 22.1611C25.701 22.2648 26.0635 22.1628 26.3022 21.8953L27.6641 20.3818L28.6531 22.6665C28.7881 22.9749 29.0652 23.1797 29.3998 23.2137C29.4355 23.2171 29.4678 23.2189 29.4991 23.2189C29.798 23.2189 30.0716 23.0777 30.2459 22.8294L32.1271 20.1579L33.1047 21.3455C33.2929 21.5738 33.5744 21.6958 33.8654 21.6784C34.1608 21.6618 34.4239 21.5102 34.5842 21.2619L35.107 20.4541L38.0591 25.8634C37.6749 25.6464 37.3194 25.48 37.0458 25.3833ZM39.347 31.859V29.1413H39.8488L41.4922 32.1518C40.7847 32.035 40.0693 31.9374 39.3478 31.859H39.347ZM32.8991 37.4225C34.4178 35.6659 36.5909 34.128 39.2729 32.9029C38.771 32.8471 38.2665 32.8018 37.7576 32.7661C34.7733 33.6636 32.2168 34.9052 30.2528 36.3908C30.2563 36.3908 30.2598 36.3908 30.2633 36.3908C31.2836 36.3908 32.209 36.7794 32.8991 37.4234V37.4225ZM38.3014 29.1413H35.4416V31.6212C36.4018 31.6351 37.3586 31.6804 38.3014 31.7588V29.1413ZM39.3722 28.0957C38.5933 27.356 37.5337 26.7129 36.8715 26.4359C36.2067 26.7129 35.1497 27.356 34.3673 28.0957H39.3713H39.3722ZM21.5247 36.1451C21.2363 36.1451 21.0019 35.9107 21.0019 35.6223V35.2633C20.344 35.5439 19.7106 35.8445 19.1094 36.1634C21.1012 36.9058 22.8866 37.8372 24.3591 38.9081C24.8323 38.6354 25.3795 38.4785 25.9633 38.4785C26.1907 38.4785 26.4181 38.5029 26.6394 38.55C28.3429 36.1713 31.2061 34.1341 34.884 32.6624H34.8343C32.7178 32.6624 30.6301 32.8245 28.6139 33.1416V35.6223C28.6139 35.9107 28.383 36.1451 28.0911 36.1451H21.5256H21.5247ZM27.5674 31.1463H22.0475V35.0995H27.5674V31.1463ZM24.8079 26.9421C26.0879 27.4004 28.3751 28.6848 29.7876 30.1007H19.8326C21.2441 28.6848 23.5314 27.4004 24.8079 26.9421ZM23.7867 41.7025C23.7867 41.7861 23.7902 41.8689 23.8006 41.9517H36.6789C36.4515 40.9941 35.5906 40.2796 34.5625 40.2796C34.2889 40.2796 34.0222 40.3293 33.7696 40.4277C33.6162 40.4878 33.4463 40.4722 33.3034 40.3859C33.1648 40.2988 33.0725 40.1515 33.0577 39.9877C32.9261 38.5326 31.7271 37.4356 30.2624 37.4356C28.7149 37.4356 27.4559 38.6946 27.4559 40.2421C27.4559 40.5305 27.225 40.7649 26.9331 40.7649C26.6412 40.7649 26.4103 40.5305 26.4103 40.2421C26.4103 40.0173 26.4312 39.7977 26.4669 39.5843C26.3031 39.5451 26.1358 39.5241 25.9615 39.5241C24.7591 39.5241 23.7849 40.5018 23.7849 41.7025H23.7867ZM42.9281 32.6084H42.9316L40.7838 28.6734C40.8727 28.4312 40.8334 28.1593 40.6696 27.9572C40.4814 27.7228 40.261 27.4919 40.0187 27.2706L30.5012 9.82563C30.4088 9.6592 30.2345 9.55464 30.0463 9.55377H30.0429C29.8546 9.55377 29.6804 9.65659 29.588 9.82214L28.2828 12.1704L22.457 1.27524C22.3647 1.10533 22.1869 0.999023 21.9944 0.999023C21.8018 0.999023 21.624 1.10533 21.5352 1.27524L15.7094 12.1704L14.4042 9.82214C14.3118 9.65223 14.1306 9.55203 13.9345 9.55377C13.7428 9.55813 13.5642 9.67053 13.4797 9.84393L7.36902 22.1663C7.03792 22.0408 6.66847 21.9703 6.28073 21.9703C4.83345 21.9703 3.65627 22.9488 3.65627 24.1503C3.65627 24.5756 3.80527 24.9868 4.07974 25.3354C3.22584 25.8773 2.70652 26.7173 2.70652 27.6235C2.70652 28.0112 2.80237 28.3824 2.97315 28.7214C2.27957 29.2433 1.89182 29.9264 1.89182 30.6426C1.89182 31.1698 2.09484 31.6595 2.45383 32.0812L1.04925 34.9113H1.05273C1.01701 34.9828 0.996094 35.0603 0.996094 35.1431V42.4745C0.996094 42.7629 1.23048 42.9973 1.51889 42.9973H42.4733C42.7617 42.9973 42.9961 42.7629 42.9961 42.4745V32.8584C42.9961 32.7687 42.9708 32.6833 42.9281 32.6084Z" fill="#D8242A" stroke="url(#paint0_linear_218_15869)" stroke-width="0.2"/>
<defs>
<linearGradient id="paint0_linear_218_15869" x1="42.9961" y1="21.9982" x2="8.42765" y2="38.0262" gradientUnits="userSpaceOnUse">
<stop stop-color="#D8242A"/>
<stop offset="1" stop-color="#E7317D"/>
</linearGradient>
</defs>
</svg>
