<svg width="42" height="41" viewBox="0 0 42 41" fill="none" xmlns="http://www.w3.org/2000/svg">
<path d="M41.3423 36.4762H40.5972V28.7162C40.5972 28.3534 40.3024 28.0585 39.9395 28.0585H39.1944V21C39.1944 17.089 37.9537 13.4618 35.8453 10.4924L37.1742 9.16356L37.4111 9.3996C37.5396 9.52812 37.7076 9.59196 37.8756 9.59196C38.0436 9.59196 38.2124 9.52812 38.3401 9.3996L40.3544 7.38528C40.4779 7.2618 40.5468 7.09464 40.5468 6.92076C40.5468 6.74688 40.4779 6.57888 40.3544 6.45624L35.4942 1.596C35.2372 1.33896 34.8205 1.33896 34.5643 1.596L32.55 3.61032C32.4265 3.7338 32.3576 3.90096 32.3576 4.07484C32.3576 4.24872 32.4265 4.41672 32.55 4.53936L32.7869 4.7754L31.4488 6.11352C30.3181 5.3172 29.0926 4.64688 27.7939 4.12272L28.5289 2.08656C28.6524 1.74468 28.4752 1.36836 28.1341 1.24488C25.846 0.41916 23.4461 0 21 0C15.3905 0 10.117 2.184 6.15048 6.15048C2.18484 10.117 0 15.3905 0 21C0 21.3629 0.29484 21.6577 0.65772 21.6577H2.8056V28.0585H2.06052C1.69764 28.0585 1.4028 28.3525 1.4028 28.7162V36.4762H0.65772C0.29484 36.4762 0 36.771 0 37.1339V39.9395C0 40.3024 0.29484 40.5972 0.65772 40.5972H41.3423C41.7052 40.5972 42 40.3032 42 39.9395V37.1339C42 36.771 41.7052 36.4762 41.3423 36.4762ZM35.0288 2.9904L38.9592 6.92076L37.8748 8.0052L33.9444 4.07484L35.0288 2.9904ZM33.7168 5.70612L36.2443 8.23368L35.0389 9.43908C34.2787 8.5176 33.4303 7.6734 32.5063 6.9174L33.7168 5.70696V5.70612ZM37.879 21V25.2529H31.4782V21C31.4782 17.7013 30.9708 14.4732 30.0107 11.6651C29.8931 11.3215 29.5193 11.1384 29.1757 11.2552C28.8322 11.3728 28.649 11.7466 28.7658 12.0901C29.6797 14.763 30.1619 17.8441 30.1619 21V25.2529H21.6569V4.16724C23.8921 4.47468 26.035 6.33528 27.6158 9.3786C27.783 9.70116 28.1803 9.82632 28.5029 9.65916C28.8254 9.492 28.9506 9.09468 28.7834 8.77212C27.9392 7.14756 26.9506 5.82456 25.8392 4.83C32.7953 6.91572 37.879 13.3753 37.879 21.0008V21ZM11.1796 21.6577C11.5424 21.6577 11.8373 21.3629 11.8373 21C11.8373 16.4262 12.8293 12.1372 14.6294 8.9208C16.2019 6.11268 18.2095 4.44948 20.3423 4.16472V25.2521H11.8373V23.8048C11.8373 23.4419 11.5433 23.147 11.1796 23.147C10.8158 23.147 10.5218 23.441 10.5218 23.8048V25.2521H4.12104V21C4.12104 13.3778 9.20052 6.92076 16.1515 4.83168C15.1721 5.71284 14.2716 6.86868 13.482 8.2782C11.5727 11.6869 10.5218 16.2044 10.5218 21C10.5218 21.3629 10.8158 21.6577 11.1796 21.6577ZM37.879 26.5675V28.0585H4.12104V26.5675H37.879ZM1.32552 20.3423C1.48848 15.3308 3.51792 10.6428 7.08036 7.08036C10.799 3.36252 15.7424 1.31544 21 1.31544C23.0723 1.31544 25.1093 1.63632 27.0648 2.26884L26.5574 3.675C24.8052 3.11136 22.9379 2.8056 21 2.8056C11.188 2.8056 3.1668 10.6134 2.81904 20.3423H1.32552ZM15.4325 39.2818H1.31544V37.7916H15.4325V39.2818ZM20.3423 39.2818H16.7471V32.881H20.3423V39.2818ZM25.2521 39.2818H21.6569V32.881H25.2521V39.2818ZM25.9098 31.5655H16.0894C15.7265 31.5655 15.4316 31.8604 15.4316 32.2232V36.4762H2.71824V29.374H39.2818V36.4762H26.5675V32.2232C26.5675 31.8604 26.2727 31.5655 25.9098 31.5655ZM40.6846 39.2818H26.5675V37.7916H40.6846V39.2818Z" fill="#D8242A"/>
</svg>
