<svg width="42" height="42" viewBox="0 0 42 42" fill="none" xmlns="http://www.w3.org/2000/svg">
<g id="Icon">
<g id="Layer 1">
<g id="Group">
<g id="Group_2">
<path id="Vector" d="M22.6783 32.1655C21.5033 32.1655 20.4882 31.33 20.2743 30.1567C20.2734 30.1496 20.2716 30.1416 20.2707 30.1346L19.4325 24.429L15.5908 24.1354C13.2637 23.9577 11.4299 22.1673 11.2301 19.879C11.208 19.6288 11.2018 19.3742 11.2115 19.1231C11.2548 18.2592 11.4387 17.4219 11.7561 16.6253L14.2088 9.60229C14.5581 8.6014 15.3282 7.62527 16.1708 7.11599C16.4847 6.92678 16.8923 7.02757 17.0815 7.34057C17.2707 7.65445 17.1699 8.06206 16.8569 8.25127C16.2813 8.59875 15.7075 9.33438 15.4608 10.0391L13.0028 17.0762C12.9993 17.0859 12.9957 17.0957 12.9922 17.1045C12.7252 17.7685 12.5722 18.467 12.536 19.1814C12.5289 19.3697 12.5333 19.5678 12.551 19.7632C12.6942 21.4016 14.0152 22.6845 15.6925 22.8127L20.0621 23.1469C20.3715 23.1708 20.6226 23.4051 20.6677 23.7119L21.5811 29.9294C21.6881 30.4909 22.1973 30.8808 22.7667 30.8366C23.0939 30.8118 23.3821 30.6536 23.5793 30.391C23.7756 30.1284 23.8472 29.8074 23.7791 29.4865C23.7774 29.4785 23.7756 29.4714 23.7747 29.4635L22.3291 21.1743L16.0223 19.368C15.6704 19.2672 15.4661 18.9003 15.5678 18.5475C15.6686 18.1956 16.0364 17.9913 16.3883 18.093L23.0939 20.0143C23.3379 20.0842 23.5209 20.2875 23.5643 20.5377L25.0789 29.2256C25.2203 29.9117 25.0603 30.6262 24.6394 31.1867C24.2159 31.7508 23.5696 32.1054 22.8667 32.1584C22.803 32.1628 22.7402 32.1655 22.6783 32.1655Z" fill="#D8242A"/>
<path id="Vector_2" d="M7.47315 37.0271C7.41922 37.0271 7.3644 37.0253 7.30958 37.0218C6.65706 36.9767 6.0461 36.661 5.63142 36.1553C4.84893 35.2013 4.91612 33.8361 5.78261 32.9643L9.88075 27.9652L11.5333 24.0333C11.6756 23.6955 12.0638 23.5373 12.4015 23.6787C12.7393 23.8202 12.8976 24.2092 12.7561 24.547L11.0655 28.5673C11.0408 28.6266 11.0072 28.6814 10.9674 28.7309L6.78615 33.8308C6.77023 33.8503 6.75343 33.8679 6.73575 33.8856C6.33964 34.272 6.30516 34.8856 6.65618 35.3145C6.84274 35.5417 7.1071 35.6787 7.40065 35.6991C7.68447 35.7185 7.95591 35.6274 8.169 35.4409L13.222 29.7221L15.2468 25.2375C15.3971 24.9042 15.7897 24.7548 16.1239 24.906C16.4581 25.0563 16.6058 25.4497 16.4555 25.7831L14.39 30.3587C14.3626 30.4188 14.3264 30.4754 14.2822 30.5249L9.13717 36.3463C9.12213 36.3631 9.10622 36.379 9.0903 36.3949C8.64999 36.8016 8.06732 37.0271 7.47138 37.0271H7.47315Z" fill="#D8242A"/>
</g>
<path id="Vector_3" d="M22.1642 8.90277C21.1236 8.90277 20.1439 8.48279 19.4021 7.75158C18.6541 7.0133 18.2376 6.01949 18.2306 4.96821C18.2235 3.91781 18.6258 2.92223 19.3632 2.17422C20.1015 1.42621 21.0864 1.00711 22.1377 1.00004C23.1908 0.995616 24.1793 1.39438 24.9273 2.13178C25.6753 2.87006 26.0917 3.85415 26.0988 4.90454C26.1059 5.95494 25.7036 6.96467 24.9662 7.71268C24.2288 8.46069 23.2429 8.81436 22.1925 8.90277H22.1642ZM22.1828 7.57652L22.1872 8.22108L22.1828 7.54822C22.8795 7.5438 23.5321 7.26263 24.021 6.76661C24.51 6.27059 24.777 5.61188 24.7717 4.91515C24.7673 4.21843 24.4914 3.58271 23.9954 3.09376C23.5038 2.60923 22.8539 2.35989 22.1642 2.35989H22.1457C21.449 2.35989 20.7964 2.62249 20.3066 3.11852C19.8177 3.61454 19.5506 4.26263 19.5559 4.95848C19.5604 5.65521 19.8362 6.32187 20.3322 6.81082C20.8238 7.29535 21.4737 7.57563 22.1634 7.57563H22.1819L22.1828 7.57652Z" fill="#D8242A"/>
<path id="Vector_4" d="M26.5237 17.3029C26.4627 17.3029 26.4017 17.3002 26.3407 17.2949L20.758 16.8059C19.8004 16.7219 18.9569 16.0924 18.6041 15.1994L16.8004 11.3188C16.6457 10.9863 16.7898 10.592 17.1223 10.4381C17.4547 10.2834 17.8491 10.4275 18.0029 10.76L19.8155 14.6601C19.8217 14.6733 19.8278 14.6875 19.8331 14.7016C20.0003 15.1366 20.4087 15.4443 20.8738 15.485L26.4565 15.9739C26.6784 15.9934 26.8915 15.9209 27.056 15.7706C27.2204 15.6203 27.3106 15.4143 27.3106 15.1914C27.3106 14.7865 26.9941 14.4426 26.5909 14.4081L21.5529 13.9845C21.2496 13.9589 21.0029 13.7308 20.9534 13.4302L20.5971 11.233C20.5387 10.8714 20.7836 10.531 21.1453 10.4726C21.5069 10.4143 21.8473 10.6592 21.9057 11.0208L22.1789 12.7069L26.7014 13.0871C27.7863 13.1782 28.6369 14.103 28.6369 15.1914C28.6369 15.7821 28.3866 16.3497 27.9516 16.7485C27.5617 17.1057 27.0489 17.3029 26.5237 17.3029Z" fill="#D8242A"/>
<path id="Vector_5" d="M18.4523 19.8035C18.3613 19.8035 18.2693 19.7849 18.1809 19.7451C17.8467 19.5948 17.6972 19.2031 17.8476 18.8689L19.3294 15.5656C19.4797 15.2314 19.8714 15.082 20.2056 15.2323C20.5399 15.3826 20.6893 15.7743 20.539 16.1085L19.0571 19.4118C18.9466 19.6576 18.7052 19.8035 18.4514 19.8035H18.4523Z" fill="#D8242A"/>
<path id="Vector_6" d="M12.3989 17.4979C12.2521 17.4979 12.1045 17.4493 11.9816 17.3494L9.97716 15.7207C8.38565 14.428 7.9082 12.1646 8.84188 10.3396L11.2548 5.62345C12.0055 4.15572 13.4962 3.24414 15.1443 3.24414H16.8658C17.2318 3.24414 17.5289 3.54122 17.5289 3.90727C17.5289 4.27332 17.2318 4.5704 16.8658 4.5704H15.1443C13.9957 4.5704 12.9577 5.20524 12.4352 6.22734L10.0223 10.9435C9.37239 12.215 9.70395 13.7906 10.8127 14.6915L12.8171 16.3202C13.1018 16.5509 13.1443 16.9683 12.9135 17.253C12.7826 17.4139 12.5917 17.4979 12.398 17.4979H12.3989Z" fill="#D8242A"/>
<path id="Vector_7" d="M21.2548 11.7895C21.0276 11.7895 20.8066 11.6727 20.6837 11.4632C20.6642 11.4305 18.7208 8.22182 15.0427 7.65506C14.681 7.59936 14.4326 7.26072 14.4883 6.8991C14.544 6.53747 14.8826 6.28902 15.2442 6.34472C19.559 7.00873 21.7358 10.6356 21.826 10.7903C22.0117 11.106 21.9065 11.5127 21.59 11.6984C21.4847 11.7603 21.3689 11.7903 21.2548 11.7903V11.7895Z" fill="#D8242A"/>
<path id="Vector_8" d="M0.66333 41.357C0.385699 41.357 0.127521 41.1819 0.0346826 40.9043C-0.0820282 40.5568 0.105416 40.181 0.452896 40.0652L17.1293 34.4781L19.6032 33.036C19.689 32.9865 19.7845 32.9564 19.8835 32.9476L25.7173 32.4754L35.3883 21.5594C35.4953 21.4383 35.643 21.3605 35.803 21.3411L41.2557 20.6682C41.6182 20.6231 41.9498 20.8813 41.9949 21.2447C42.04 21.6081 41.7818 21.9388 41.4184 21.9838L36.2142 22.6266L26.5325 33.555C26.4193 33.6832 26.2601 33.7628 26.0895 33.7761L20.1399 34.2579L17.7376 35.6585C17.6987 35.6815 17.6571 35.7 17.6147 35.7142L0.873763 41.3225C0.803913 41.3455 0.733179 41.357 0.66333 41.357Z" fill="#D8242A"/>
<path id="Vector_9" d="M26.7415 30.5926C26.7353 30.5926 26.73 30.5926 26.7238 30.5926C26.3578 30.5829 26.0686 30.2787 26.0784 29.9126L26.3746 18.5333C26.3843 18.1673 26.6884 17.8791 27.0545 17.8879C27.4205 17.8976 27.7097 18.2018 27.6999 18.5678L27.4037 29.9471C27.394 30.307 27.0996 30.5926 26.7415 30.5926Z" fill="#D8242A"/>
<path id="Vector_10" d="M27.1595 14.5025C27.1533 14.5025 27.148 14.5025 27.1418 14.5025C26.7757 14.4928 26.4866 14.1886 26.4963 13.8226L26.6564 7.66518C26.6661 7.29913 26.972 7.01089 27.3363 7.01973C27.7023 7.02946 27.9915 7.33361 27.9817 7.69966L27.8217 13.857C27.812 14.2169 27.5176 14.5025 27.1595 14.5025Z" fill="#D8242A"/>
</g>
</g>
</g>
</svg>
