<svg width="42" height="42" viewBox="0 0 42 42" fill="none" xmlns="http://www.w3.org/2000/svg">
<g id="Icon">
<g id="Layer 1">
<g id="Group">
<g id="Group_2">
<path id="Vector" d="M30.7182 25.4827C27.9375 25.4827 25.6758 23.2209 25.6758 20.4401C25.6758 20.1875 25.6949 19.933 25.7323 19.6849C25.7889 19.311 26.1372 19.0538 26.5103 19.1104C26.8842 19.1669 27.1414 19.5153 27.0848 19.8883C27.0575 20.0698 27.0438 20.255 27.0438 20.4401C27.0438 22.4666 28.6917 24.1147 30.7182 24.1147C32.7446 24.1147 34.3926 22.4666 34.3926 20.4401C34.3926 18.4136 32.7446 16.7655 30.7182 16.7655C30.3406 16.7655 30.0342 16.4591 30.0342 16.0815C30.0342 15.7039 30.3406 15.3975 30.7182 15.3975C33.4989 15.3975 35.7606 17.6593 35.7606 20.4401C35.7606 23.2209 33.4989 25.4827 30.7182 25.4827Z" fill="#E9292C"/>
<path id="Vector_2" d="M38.997 39.8326C38.106 39.8326 37.2424 39.435 36.6642 38.7236L32.8648 34.0485C32.0686 33.069 32.2072 31.6106 33.174 30.7989C34.1452 29.9827 35.567 30.0857 36.4106 31.0342L38.5027 33.3864C38.7535 33.6691 38.728 34.1014 38.4462 34.3522C38.1644 34.603 37.7321 34.5784 37.4804 34.2957L35.3892 31.9435C35.0417 31.5523 34.4553 31.5094 34.0549 31.8469C33.6564 32.1816 33.5989 32.7826 33.9273 33.1866L37.7266 37.8617C38.1315 38.3597 38.7946 38.5749 39.4147 38.4108C40.2729 38.1828 40.7882 37.3273 40.5885 36.4627L38.9277 29.2703C38.8247 28.8244 38.6067 28.4386 38.2957 28.1531L38.2829 28.1412C38.0595 27.9388 37.7886 27.7856 37.4758 27.6861L34.3149 26.6811C33.9546 26.5662 33.7558 26.1822 33.8707 25.8219C33.9856 25.4617 34.3696 25.2629 34.7298 25.3769L37.8908 26.3819C38.3915 26.5415 38.8329 26.7923 39.2022 27.128L39.2196 27.1444C39.7348 27.6177 40.0942 28.2461 40.2592 28.9621L41.92 36.1544C42.2866 37.7423 41.3399 39.3146 39.7649 39.7323C39.5105 39.7998 39.2524 39.8326 38.997 39.8326Z" fill="#E9292C"/>
<path id="Vector_3" d="M23.291 39.833C23.0357 39.833 22.7776 39.8001 22.5231 39.7327C20.9481 39.314 20.0006 37.7426 20.3681 36.1547L22.0288 28.9624C22.1939 28.2465 22.5532 27.619 23.0676 27.1456L23.0849 27.1301C23.4561 26.7927 23.8975 26.5419 24.3982 26.3823L27.5591 25.3772C27.9194 25.2623 28.3033 25.462 28.4182 25.8223C28.5322 26.1825 28.3334 26.5665 27.9741 26.6814L24.8131 27.6865C24.5012 27.7859 24.2295 27.9391 24.0069 28.1416L23.9933 28.1544C23.6841 28.4389 23.4661 28.8247 23.3631 29.2707L21.7023 36.463C21.5026 37.3276 22.0179 38.1831 22.8761 38.4111C23.4971 38.5762 24.1592 38.36 24.5642 37.8621L28.3635 33.187C28.6918 32.7829 28.6344 32.1819 28.2358 31.8472C27.8355 31.5107 27.2491 31.5535 26.9016 31.9439L24.8104 34.296C24.5596 34.5787 24.1273 34.6034 23.8446 34.3526C23.5619 34.1017 23.5373 33.6694 23.7881 33.3867L25.8793 31.0346C26.7228 30.0861 28.1446 29.983 29.1159 30.7993C30.0826 31.6119 30.2213 33.0693 29.4242 34.0488L25.6248 38.7239C25.0466 39.4353 24.183 39.833 23.2919 39.833H23.291Z" fill="#E9292C"/>
<path id="Vector_4" d="M27.0511 31.7202C26.7219 31.7202 26.4318 31.4822 26.3771 31.1475L25.6849 26.9457C25.6238 26.5727 25.8755 26.2206 26.2485 26.1595C26.6215 26.0984 26.9736 26.3501 27.0347 26.7232L27.7269 30.9249C27.788 31.2979 27.5363 31.65 27.1633 31.7111C27.1259 31.7175 27.0885 31.7202 27.0511 31.7202Z" fill="#E9292C"/>
<path id="Vector_5" d="M34.2153 31.159C34.1661 31.159 34.1159 31.1535 34.0667 31.1426C33.6982 31.0605 33.4657 30.6957 33.5477 30.3263L34.4105 26.4456C34.4926 26.0771 34.8583 25.8446 35.2267 25.9266C35.5952 26.0087 35.8277 26.3735 35.7456 26.7429L34.8829 30.6236C34.8118 30.9428 34.529 31.1599 34.2162 31.1599L34.2153 31.159Z" fill="#E9292C"/>
<path id="Vector_6" d="M25.8643 41.6161C25.8005 41.6161 25.7357 41.607 25.671 41.5878C25.3089 41.4811 25.101 41.1008 25.2077 40.7387L26.8575 35.1261C26.9642 34.764 27.3445 34.556 27.7065 34.6627C28.0686 34.7695 28.2765 35.1498 28.1698 35.5118L26.52 41.1245C26.4325 41.4228 26.1598 41.6161 25.8643 41.6161Z" fill="#E9292C"/>
<path id="Vector_7" d="M35.5105 41.6159C35.2141 41.6159 34.9405 41.4216 34.8539 41.1216L32.738 33.808C32.6332 33.445 32.842 33.0656 33.205 32.9607C33.5679 32.8558 33.9473 33.0647 34.0522 33.4277L36.168 40.7413C36.2729 41.1043 36.0641 41.4837 35.7011 41.5885C35.6373 41.6068 35.5734 41.6159 35.5105 41.6159Z" fill="#E9292C"/>
<path id="Vector_8" d="M29.8996 20.7057C28.6384 20.7057 27.6133 19.6797 27.6133 18.4192C27.6133 17.1588 28.6393 16.1318 29.8996 16.1318C31.16 16.1318 32.186 17.1579 32.186 18.4192C32.186 19.6806 31.16 20.7057 29.8996 20.7057ZM29.8996 17.4999C29.3926 17.4999 28.9813 17.9121 28.9813 18.4192C28.9813 18.9263 29.3935 19.3376 29.8996 19.3376C30.4058 19.3376 30.818 18.9254 30.818 18.4192C30.818 17.913 30.4058 17.4999 29.8996 17.4999Z" fill="#E9292C"/>
<path id="Vector_9" d="M34.6484 19.785C34.6192 19.785 34.5891 19.7832 34.5599 19.7795L31.4163 19.3719C31.0414 19.3235 30.777 18.9806 30.8262 18.6058C30.8745 18.2309 31.2175 17.9664 31.5923 18.0157L34.7359 18.4233C35.1108 18.4717 35.3752 18.8146 35.326 19.1895C35.2813 19.5342 34.9867 19.7859 34.6484 19.7859V19.785Z" fill="#E9292C"/>
<path id="Vector_10" d="M26.45 20.2522C26.1874 20.2522 25.9375 20.0999 25.8244 19.8445C25.6712 19.4988 25.828 19.0948 26.1737 18.9425L27.7852 18.2293C28.1308 18.077 28.5348 18.2329 28.6871 18.5786C28.8403 18.9242 28.6835 19.3283 28.3378 19.4806L26.7263 20.1938C26.6361 20.2339 26.5421 20.2522 26.45 20.2522Z" fill="#E9292C"/>
<path id="Vector_11" d="M28.769 12.9967C28.4471 12.9967 28.1598 12.7678 28.0978 12.4404L27.5707 9.65958C27.5004 9.28838 27.7439 8.93086 28.1151 8.85972C28.4863 8.78949 28.8438 9.03301 28.9149 9.40421L29.4421 12.185C29.5123 12.5562 29.2688 12.9137 28.8976 12.9849C28.8547 12.9931 28.8119 12.9967 28.7699 12.9967H28.769Z" fill="#E9292C"/>
<path id="Vector_12" d="M29.201 15.2713C28.8791 15.2713 28.5918 15.0424 28.5298 14.715L28.4769 14.435C28.4067 14.0638 28.6502 13.7062 29.0214 13.6351C29.3925 13.5649 29.7501 13.8084 29.8212 14.1796L29.8741 14.4596C29.9443 14.8308 29.7008 15.1883 29.3296 15.2594C29.2868 15.2677 29.2439 15.2713 29.201 15.2713Z" fill="#E9292C"/>
<path id="Vector_13" d="M18.1757 18.4726C18.1656 18.4726 18.1556 18.4726 18.1465 18.4726L17.9085 18.4626C17.5309 18.4462 17.2381 18.1279 17.2546 17.7503C17.271 17.3727 17.5893 17.0799 17.9668 17.0964L18.2049 17.1064C18.5824 17.1228 18.8752 17.4411 18.8588 17.8187C18.8433 18.1862 18.5405 18.4735 18.1757 18.4735V18.4726Z" fill="#E9292C"/>
<path id="Vector_14" d="M24.856 18.7561C24.8459 18.7561 24.8359 18.7561 24.825 18.7561L19.9896 18.5427C19.612 18.5263 19.3202 18.2061 19.3366 17.8295C19.353 17.4519 19.6749 17.16 20.0498 17.1764L24.8852 17.3899C25.2627 17.4063 25.5546 17.7264 25.5381 18.1031C25.5217 18.4706 25.2189 18.757 24.8551 18.757L24.856 18.7561Z" fill="#E9292C"/>
<path id="Vector_15" d="M22.1721 11.9802C21.997 11.9802 21.8219 11.9136 21.6888 11.7795L21.3449 11.4357C21.0777 11.1684 21.0777 10.7352 21.3449 10.468C21.6122 10.2008 22.0454 10.2008 22.3126 10.468L22.6564 10.8118C22.9236 11.0791 22.9236 11.5123 22.6564 11.7795C22.5232 11.9127 22.3481 11.9802 22.173 11.9802H22.1721Z" fill="#E9292C"/>
<path id="Vector_16" d="M24.5075 14.3127C24.3324 14.3127 24.1573 14.2461 24.0242 14.112L22.9973 13.0851C22.7301 12.8179 22.7301 12.3846 22.9973 12.1174C23.2645 11.8502 23.6977 11.8502 23.9649 12.1174L24.9918 13.1444C25.259 13.4116 25.259 13.8448 24.9918 14.112C24.8587 14.2452 24.6836 14.3127 24.5085 14.3127H24.5075Z" fill="#E9292C"/>
<path id="Vector_17" d="M26.1404 15.9455C25.9653 15.9455 25.7902 15.8789 25.657 15.7448L25.4582 15.546C25.191 15.2788 25.191 14.8456 25.4582 14.5783C25.7254 14.3111 26.1586 14.3111 26.4258 14.5783L26.6247 14.7772C26.8919 15.0444 26.8919 15.4776 26.6247 15.7448C26.4915 15.878 26.3164 15.9455 26.1413 15.9455H26.1404Z" fill="#E9292C"/>
</g>
<path id="Vector_18" d="M6.30855 37.8964C6.01124 37.8964 5.73764 37.7012 5.65192 37.4011L4.62045 33.815C4.57759 33.6663 4.58671 33.5085 4.64508 33.3654L8.57941 23.8173L6.42164 18.9707C6.3122 18.7254 6.35689 18.439 6.53472 18.2383L10.1635 14.1479L11.4276 5.20625C11.4586 4.98372 11.5972 4.79128 11.7978 4.69095L19.7112 0.718126C19.8963 0.625099 20.1134 0.621451 20.3013 0.707182L27.0646 3.78804L30.5438 2.87053C30.7855 2.80669 31.0427 2.87965 31.2142 3.06115L40.7746 13.1428C40.9469 13.3243 41.0062 13.5851 40.9296 13.8232L39.7458 17.495L41.9702 25.8484C42.0678 26.2132 41.8507 26.588 41.485 26.6856C41.1202 26.7832 40.7454 26.5661 40.6478 26.2004L38.3715 17.6528C38.3377 17.526 38.3414 17.392 38.3815 17.267L39.5023 13.7894L30.5001 4.29604L27.1768 5.17251C27.0245 5.21264 26.8621 5.19896 26.7189 5.13329L20.0313 2.08709L12.7308 5.75165L11.4878 14.5428C11.4686 14.6759 11.4111 14.8009 11.3218 14.9012L7.84891 18.8166L9.94649 23.5281C10.0222 23.6987 10.0249 23.8939 9.95378 24.0672L5.99847 33.6663L6.96427 37.0235C7.06824 37.3865 6.85939 37.7659 6.49551 37.8699C6.43258 37.8881 6.36874 37.8964 6.30582 37.8964H6.30855Z" fill="#E9292C"/>
<path id="Vector_19" d="M0.95822 41.9996C0.753022 41.9996 0.549647 41.9075 0.414672 41.7315C0.18485 41.4314 0.241394 41.0018 0.541439 40.772L9.6714 33.7767C9.87659 33.6198 10.1529 33.5915 10.3846 33.7037L16.3672 36.5958C16.4922 36.656 16.5962 36.7536 16.6646 36.874L18.7731 40.5923C18.9591 40.9207 18.8442 41.3384 18.515 41.5244C18.1867 41.7105 17.769 41.5956 17.5829 41.2663L15.5802 37.7331L10.1684 35.1174L1.37409 41.8582C1.25006 41.9531 1.10414 41.9996 0.95822 41.9996Z" fill="#E9292C"/>
<path id="Vector_20" d="M5.27941 34.309C5.06874 34.309 4.86081 34.2114 4.72674 34.0281L1.00673 28.9362C0.86263 28.7392 0.834359 28.4793 0.933766 28.2558L3.70075 21.9965C3.85305 21.6509 4.25707 21.4949 4.60271 21.6472C4.94836 21.7995 5.10431 22.2036 4.952 22.5492L2.34462 28.4474L5.83117 33.221C6.05369 33.5256 5.98712 33.9542 5.68251 34.1768C5.56122 34.2662 5.41986 34.3081 5.27941 34.309Z" fill="#E9292C"/>
<path id="Vector_21" d="M10.8146 15.1314C10.5492 15.1314 10.2975 14.9763 10.1862 14.7173L6.31118 5.71005L1.111 1.20095C0.825548 0.953785 0.794541 0.52148 1.0426 0.236013C1.28975 -0.049454 1.72204 -0.0804632 2.00749 0.167611L7.32532 4.77978C7.40284 4.84727 7.46485 4.93117 7.50589 5.02602L11.443 14.1774C11.5925 14.524 11.432 14.9271 11.0846 15.0757C10.9961 15.1131 10.9049 15.1314 10.8146 15.1314Z" fill="#E9292C"/>
<path id="Vector_22" d="M9.32498 24.4911C9.2584 24.4911 9.19092 24.4811 9.12434 24.461L4.12571 22.9297C3.93237 22.8704 3.77459 22.7281 3.69616 22.5412L0.0536645 13.8942C-0.0676305 13.6059 0.0217447 13.2721 0.270719 13.0834C0.519693 12.8946 0.865338 12.8982 1.10975 13.0934L7.47364 18.157C7.76912 18.3923 7.81837 18.8228 7.58308 19.1183C7.34778 19.4138 6.91732 19.463 6.62183 19.2277L2.35371 15.8313L4.83159 21.7149L9.52471 23.1531C9.88586 23.2635 10.0892 23.6466 9.97797 24.0077C9.88768 24.3023 9.61682 24.4911 9.32407 24.4911H9.32498Z" fill="#E9292C"/>
<path id="Vector_23" d="M0.683787 14.3125C0.541516 14.3125 0.399245 14.2688 0.276126 14.1776C-0.0266554 13.9523 -0.0904949 13.5236 0.134767 13.2208L6.32902 4.87297C6.45852 4.69968 6.6619 4.58203 6.87804 4.58203L12.1074 4.60301C12.485 4.60301 12.7914 4.89942 12.7905 5.277C12.7905 5.65459 12.4841 5.95008 12.1065 5.95008L7.22095 5.96285L1.23372 14.028C1.09966 14.2086 0.893545 14.3135 0.683787 14.3135V14.3125Z" fill="#E9292C"/>
<path id="Vector_24" d="M40.2795 14.3395H40.2713C39.8937 14.2483 39.5909 14.0048 39.5955 13.6272L39.725 2.19852L30.8704 4.20409C30.502 4.288 30.1354 4.05451 30.0524 3.68605C29.9685 3.31759 30.1992 2.95004 30.5677 2.86613L40.2676 0.662653C40.4719 0.61614 40.6862 0.665389 40.8486 0.796723C41.0118 0.928056 41.1048 1.12688 41.103 1.33665L40.9635 13.6418C40.9589 14.0167 40.6534 14.3386 40.2795 14.3386V14.3395Z" fill="#E9292C"/>
<path id="Vector_25" d="M10.9427 41.6161C10.7311 41.6161 10.5223 41.5185 10.3882 41.3334C10.1666 41.0278 10.2341 40.6001 10.5405 40.3785L15.665 36.6601C15.9705 36.4375 16.3982 36.5059 16.6198 36.8124C16.8415 37.1188 16.774 37.5457 16.4675 37.7673L11.3431 41.4857C11.2218 41.5741 11.0813 41.6161 10.9418 41.6161H10.9427Z" fill="#E9292C"/>
</g>
</g>
</g>
</svg>
