<svg width="42" height="42" viewBox="0 0 42 42" fill="none" xmlns="http://www.w3.org/2000/svg">
<path fill-rule="evenodd" clip-rule="evenodd" d="M5.60744 2.87696C7.41897 2.87696 8.88871 4.34806 8.88871 6.15822C8.88871 7.96838 7.41761 9.43948 5.60744 9.43948C3.79728 9.43948 2.32618 7.96838 2.32618 6.15822C2.32618 4.34806 3.79591 2.87696 5.60744 2.87696ZM5.60744 1.55078C3.06446 1.55078 1 3.61524 1 6.15822C1 8.7012 3.06446 10.7657 5.60744 10.7657C8.15042 10.7657 10.2149 8.7012 10.2149 6.15822C10.2149 3.61524 8.15042 1.55078 5.60744 1.55078Z" fill="#E9292C"/>
<path fill-rule="evenodd" clip-rule="evenodd" d="M33.9149 21.763C30.6254 21.763 28.0045 18.6608 28.0045 14.8928C28.0045 13.3889 28.4215 11.9957 29.1324 10.8596C29.8707 9.68109 30.1729 8.21409 29.9637 6.78264C29.9637 6.78264 29.9637 6.77991 29.9637 6.77854C29.9268 6.53108 29.9076 6.27541 29.9076 6.01565C29.9076 3.44943 31.6768 1.32618 33.9162 1.32618C36.1557 1.32618 37.9249 3.45079 37.9249 6.01565C37.9249 6.27815 37.9057 6.53518 37.8715 6.78538C37.6637 8.21273 37.9645 9.67972 38.7028 10.8569C39.411 11.9944 39.828 13.3875 39.828 14.8915C39.828 17.7995 38.2708 20.3028 36.0409 21.3036C35.7073 21.454 35.5582 21.8464 35.7073 22.18C35.8577 22.5136 36.25 22.6626 36.5836 22.5136C39.2442 21.3186 41.1542 18.3628 41.1542 14.8915C41.1542 13.125 40.6592 11.4899 39.828 10.1541C39.828 10.1541 39.828 10.1541 39.828 10.1528C39.2524 9.23402 39.0227 8.08968 39.1854 6.97405C39.1854 6.97405 39.1854 6.97268 39.1854 6.97131C39.2292 6.66096 39.2524 6.34104 39.2524 6.01565C39.2524 2.67149 36.8352 0 33.9176 0C31 0 28.5828 2.67286 28.5828 6.01565C28.5828 6.34241 28.6061 6.66233 28.6525 6.97405C28.8152 8.08968 28.5856 9.23539 28.01 10.1555C27.1746 11.4913 26.6797 13.1264 26.6797 14.8928C26.6797 19.4401 29.9486 23.0905 33.9176 23.0905C34.284 23.0905 34.5807 22.7925 34.5807 22.4274C34.5807 22.0624 34.284 21.7643 33.9176 21.7643L33.9149 21.763Z" fill="#E9292C"/>
<path fill-rule="evenodd" clip-rule="evenodd" d="M18.441 16.4688C16.0717 16.4688 14.1973 14.2239 14.1973 11.5086C14.1973 10.4204 14.4981 9.41 15.0135 8.58831C15.585 7.67639 15.8188 6.54026 15.6574 5.43146C15.6574 5.43146 15.6574 5.42873 15.6574 5.42736C15.6301 5.251 15.6178 5.06916 15.6178 4.88322C15.6178 3.06759 16.8565 1.55137 18.441 1.55137C20.0256 1.55137 21.2643 3.06759 21.2643 4.88322C21.2643 5.07053 21.2506 5.2551 21.226 5.4342C21.0647 6.53889 21.2985 7.67503 21.87 8.58695C22.3827 9.41 22.6848 10.4204 22.6848 11.5086C22.6848 13.353 21.8207 14.9731 20.5178 15.8317C20.2129 16.0327 20.1282 16.4456 20.3291 16.7505C20.5301 17.0553 20.943 17.1401 21.2479 16.9391C22.8899 15.8563 24.0096 13.8329 24.0096 11.5086C24.0096 10.1565 23.6309 8.90687 22.9938 7.88421C22.9938 7.88421 22.9938 7.88421 22.9938 7.88284C22.585 7.23069 22.4237 6.41584 22.5385 5.62424C22.5385 5.62424 22.5385 5.62287 22.5385 5.6215C22.5727 5.38225 22.5905 5.13615 22.5905 4.88459C22.5905 2.28966 20.7051 0.226562 18.441 0.226562C16.177 0.226562 14.2916 2.29102 14.2916 4.88459C14.2916 5.13615 14.3094 5.38361 14.3449 5.62424C14.4611 6.41721 14.2984 7.23206 13.8897 7.88558C13.2498 8.90687 12.8711 10.1578 12.8711 11.51C12.8711 15.0032 15.3936 17.7964 18.441 17.7964C18.8074 17.7964 19.1041 17.4983 19.1041 17.1333C19.1041 16.7682 18.8074 16.4702 18.441 16.4702V16.4688Z" fill="#E9292C"/>
<path fill-rule="evenodd" clip-rule="evenodd" d="M33.2539 10.6133V26.2499C33.2539 26.6163 33.5506 26.913 33.917 26.913C34.2834 26.913 34.5801 26.6163 34.5801 26.2499V10.6133C34.5801 10.2469 34.2834 9.9502 33.917 9.9502C33.5506 9.9502 33.2539 10.2469 33.2539 10.6133Z" fill="#E9292C"/>
<path fill-rule="evenodd" clip-rule="evenodd" d="M17.7812 8.31641V22.4272C17.7812 22.7922 18.0779 23.0903 18.4443 23.0903C18.8107 23.0903 19.1074 22.7922 19.1074 22.4272V8.31641C19.1074 7.95 18.8107 7.65332 18.4443 7.65332C18.0779 7.65332 17.7812 7.95 17.7812 8.31641Z" fill="#E9292C"/>
<path fill-rule="evenodd" clip-rule="evenodd" d="M7.23524 28.5836C7.76571 28.2199 8.38095 28.0094 9.0372 28.0094C9.55263 28.0094 10.0435 28.1393 10.4878 28.3717C10.9431 28.615 11.4913 28.6137 11.9452 28.3676C12.3827 28.1393 12.8735 28.0094 13.3903 28.0094C13.9071 28.0094 14.398 28.1393 14.8409 28.3717C15.2962 28.615 15.8431 28.6137 16.2984 28.3676C16.7359 28.1393 17.2267 28.0094 17.7435 28.0094C18.3997 28.0094 19.015 28.2199 19.5455 28.5836C19.8476 28.79 20.2605 28.7121 20.4669 28.4113C20.6734 28.1092 20.5968 27.6963 20.2947 27.4898C19.5441 26.9758 18.6718 26.6846 17.7435 26.6846C17.0079 26.6846 16.3079 26.8678 15.6763 27.1986C15.6736 27.1986 15.6708 27.2014 15.6681 27.2027C15.6052 27.2369 15.5286 27.2369 15.4657 27.2027C15.463 27.2027 15.4603 27.2 15.4575 27.1986C14.8259 26.8664 14.1259 26.6846 13.3903 26.6846C12.6548 26.6846 11.9548 26.8678 11.3231 27.1986C11.3204 27.1986 11.3177 27.2014 11.3149 27.2027C11.2521 27.2369 11.1755 27.2369 11.1126 27.2027C11.1099 27.2027 11.1071 27.2 11.1058 27.1986C10.4741 26.8664 9.77412 26.6846 9.03857 26.6846C8.11024 26.6846 7.23797 26.9758 6.48739 27.4898C6.18524 27.6963 6.10867 28.1092 6.31512 28.4113C6.52157 28.7135 6.93446 28.79 7.23661 28.5836H7.23524Z" fill="#E9292C"/>
<path fill-rule="evenodd" clip-rule="evenodd" d="M19.8212 35.5172C20.3516 35.1549 20.9669 34.9443 21.6231 34.9443C22.1386 34.9443 22.6294 35.0742 23.0737 35.3066C23.529 35.55 24.0773 35.5486 24.5312 35.3025C24.9687 35.0742 25.4595 34.9443 25.9763 34.9443C26.4931 34.9443 26.9839 35.0742 27.4269 35.3066C27.8822 35.55 28.429 35.5486 28.8843 35.3025C29.3218 35.0742 29.8126 34.9443 30.3294 34.9443C30.9857 34.9443 31.6009 35.1549 32.1314 35.5172C32.4335 35.7236 32.8464 35.6471 33.0529 35.3449C33.2593 35.0428 33.1828 34.6299 32.8806 34.4234C32.13 33.9094 31.2578 33.6182 30.3294 33.6182C29.5939 33.6182 28.8939 33.8014 28.2622 34.1322C28.2595 34.1322 28.2568 34.135 28.254 34.1363C28.1911 34.1705 28.1146 34.1705 28.0517 34.1363C28.0489 34.1363 28.0462 34.1336 28.0448 34.1322C27.4132 33.8 26.7132 33.6182 25.9776 33.6182C25.2421 33.6182 24.5421 33.8014 23.9105 34.1322C23.9077 34.1322 23.905 34.135 23.9023 34.1363C23.8394 34.1705 23.7628 34.1705 23.6999 34.1363C23.6972 34.1363 23.6944 34.1336 23.6917 34.1322C23.0601 33.8 22.3601 33.6182 21.6245 33.6182C20.6962 33.6182 19.8239 33.9094 19.0733 34.4234C18.7712 34.6299 18.6946 35.0428 18.9011 35.3449C19.1075 35.6471 19.5204 35.7236 19.8225 35.5172H19.8212Z" fill="#E9292C"/>
<path fill-rule="evenodd" clip-rule="evenodd" d="M25.4659 25.8918C25.4905 25.8946 25.5152 25.8959 25.5398 25.8959C29.4499 25.8959 32.9937 26.3635 35.5586 27.5844C37.9511 28.7233 39.451 30.5362 39.451 33.2842C39.451 36.0323 37.9511 37.8466 35.5586 38.9854C32.9937 40.205 29.4499 40.6739 25.5398 40.6739H12.1426C6.72444 40.6739 2.32755 36.2756 2.32755 30.8588C2.32755 26.41 5.29435 22.6475 9.35629 21.4457C9.70766 21.3418 9.90727 20.9727 9.80336 20.6213C9.69945 20.2699 9.33031 20.0703 8.97894 20.1742C4.3674 21.5373 1 25.8071 1 30.8575C1 37.0071 5.99162 42.0001 12.1426 42.0001H25.5398C29.6742 42.0001 33.4162 41.4737 36.1273 40.1831C39.0107 38.8104 40.7771 36.5969 40.7771 33.2842C40.7771 29.9715 39.0107 27.758 36.1273 26.3854C33.4312 25.103 29.7152 24.5738 25.6081 24.5684C25.5849 24.5656 25.5616 24.5643 25.5384 24.5643C23.2429 24.5643 21.0212 23.759 19.2602 22.2879C17.3298 20.6814 14.8469 19.7148 12.1426 19.7148C11.7762 19.7148 11.4795 20.0115 11.4795 20.3779C11.4795 20.7443 11.7762 21.041 12.1426 21.041C14.5256 21.041 16.7118 21.8914 18.4126 23.3065C20.3923 24.9608 22.886 25.8727 25.4659 25.8905V25.8918Z" fill="#E9292C"/>
</svg>
