<svg width="44" height="42" viewBox="0 0 44 42" fill="none" xmlns="http://www.w3.org/2000/svg">
<path d="M22.003 29.5611C33.5271 29.5611 42.8693 25.2286 42.8693 19.8841C42.8693 14.5396 33.5271 10.207 22.003 10.207C10.4789 10.207 1.13672 14.5396 1.13672 19.8841C1.13672 25.2286 10.4789 29.5611 22.003 29.5611Z" stroke="#E9292C" stroke-width="1.3" stroke-linecap="round" stroke-linejoin="round"/>
<path d="M19.4688 10.2781C20.223 9.54737 21.0863 9.13281 22.0026 9.13281C22.9189 9.13281 23.7817 9.54737 24.5365 10.2781" stroke="#E9292C" stroke-width="1.3" stroke-linecap="round" stroke-linejoin="round"/>
<path d="M14.3383 21.6519C16.2402 21.6519 17.782 20.8606 17.782 19.8845C17.782 18.9085 16.2402 18.1172 14.3383 18.1172C12.4363 18.1172 10.8945 18.9085 10.8945 19.8845C10.8945 20.8606 12.4363 21.6519 14.3383 21.6519Z" stroke="#E9292C" stroke-width="1.3" stroke-linecap="round" stroke-linejoin="round"/>
<path d="M6.81691 21.6519C8.17201 21.6519 9.27054 20.8606 9.27054 19.8845C9.27054 18.9085 8.17201 18.1172 6.81691 18.1172C5.46181 18.1172 4.36328 18.9085 4.36328 19.8845C4.36328 20.8606 5.46181 21.6519 6.81691 21.6519Z" stroke="#E9292C" stroke-width="1.3" stroke-linecap="round" stroke-linejoin="round"/>
<path d="M2.25414 21.6519C2.87128 21.6519 3.37157 20.8606 3.37157 19.8845C3.37157 18.9085 2.87128 18.1172 2.25414 18.1172C1.63701 18.1172 1.13672 18.9085 1.13672 19.8845C1.13672 20.8606 1.63701 21.6519 2.25414 21.6519Z" stroke="#E9292C" stroke-width="1.3" stroke-linecap="round" stroke-linejoin="round"/>
<path d="M23.9017 21.6519C26.0199 21.6519 27.737 20.8606 27.737 19.8845C27.737 18.9085 26.0199 18.1172 23.9017 18.1172C21.7835 18.1172 20.0664 18.9085 20.0664 19.8845C20.0664 20.8606 21.7835 21.6519 23.9017 21.6519Z" stroke="#E9292C" stroke-width="1.3" stroke-linecap="round" stroke-linejoin="round"/>
<path d="M32.8334 21.6519C34.5903 21.6519 36.0146 20.8606 36.0146 19.8845C36.0146 18.9085 34.5903 18.1172 32.8334 18.1172C31.0766 18.1172 29.6523 18.9085 29.6523 19.8845C29.6523 20.8606 31.0766 21.6519 32.8334 21.6519Z" stroke="#E9292C" stroke-width="1.3" stroke-linecap="round" stroke-linejoin="round"/>
<path d="M39.3142 21.6519C40.2903 21.6519 41.0816 20.8606 41.0816 19.8845C41.0816 18.9085 40.2903 18.1172 39.3142 18.1172C38.3381 18.1172 37.5469 18.9085 37.5469 19.8845C37.5469 20.8606 38.3381 21.6519 39.3142 21.6519Z" stroke="#E9292C" stroke-width="1.3" stroke-linecap="round" stroke-linejoin="round"/>
<path d="M42.2825 21.6519C42.5939 21.6519 42.8463 20.8606 42.8463 19.8845C42.8463 18.9085 42.5939 18.1172 42.2825 18.1172C41.9712 18.1172 41.7188 18.9085 41.7188 19.8845C41.7188 20.8606 41.9712 21.6519 42.2825 21.6519Z" stroke="#E9292C" stroke-width="1.3" stroke-linecap="round" stroke-linejoin="round"/>
<path d="M9.26953 27.5508V33.7081H10.8951V28.0771L9.26953 27.5508Z" stroke="#E9292C" stroke-width="1.3" stroke-linecap="round" stroke-linejoin="round"/>
<path d="M34.739 27.5508V33.7081H33.0508V28.1574L34.739 27.5508Z" stroke="#E9292C" stroke-width="1.3" stroke-linecap="round" stroke-linejoin="round"/>
<path d="M15.6172 29.0996V33.1195H17.3728V29.2975L15.6172 29.0996Z" stroke="#E9292C" stroke-width="1.3" stroke-linecap="round" stroke-linejoin="round"/>
<path d="M27.0195 29.2799V33.1194H28.7906V29.0381L27.0195 29.2799Z" stroke="#E9292C" stroke-width="1.3" stroke-linecap="round" stroke-linejoin="round"/>
</svg>
